<svg width="606" height="489" viewBox="0 0 606 489" fill="none" xmlns="http://www.w3.org/2000/svg">
<g id="Alien Abduction">
<rect width="606" height="489" fill="white"/>
<g id="Empty State 4">
<g id="Group 15">
<g id="Group 14">
<path id="Path 768" opacity="0.1" fill-rule="evenodd" clip-rule="evenodd" d="M128 150H324C324 150 307.575 128.355 280.993 128.355C254.411 128.355 253.42 143.539 238.208 133.485C222.996 123.43 226.228 114 202.138 114C178.048 114 175.212 140.443 155.277 135.328C135.342 130.213 128 150 128 150Z" fill="#211A38"/>
<path id="Path 768 Copy 2" opacity="0.1" fill-rule="evenodd" clip-rule="evenodd" d="M469.74 232.398L312.576 229.772C321.568 218.279 333.169 212.651 347.379 212.889C368.695 213.245 369.266 225.506 381.612 217.6C393.957 209.693 391.504 202.043 410.821 202.366C430.138 202.689 432.023 224.057 448.083 220.198C458.79 217.626 466.009 221.692 469.74 232.398Z" fill="#211A38"/>
<path id="Oval Copy 4" fill-rule="evenodd" clip-rule="evenodd" d="M337.105 101.942C355.974 104.593 372.921 94.9941 374.958 80.501C376.995 66.0078 363.35 52.1092 344.482 49.4574C325.613 46.8056 308.666 56.4049 306.629 70.898C304.592 85.3911 318.237 99.2898 337.105 101.942Z" fill="#F49F41"/>
<path id="Oval Copy 3" fill-rule="evenodd" clip-rule="evenodd" d="M333.956 124.355C377.435 130.465 411.745 142.088 414.858 119.938C417.971 97.7879 386.152 68.4415 342.672 62.3309C299.193 56.2202 260.518 75.6593 257.405 97.8092C254.292 119.959 290.476 118.244 333.956 124.355Z" fill="#EC737F"/>
<path id="Oval Copy 3_2" fill-rule="evenodd" clip-rule="evenodd" d="M257.009 97.7536C260.332 74.1075 301.03 56.0746 342.728 61.9348C384.426 67.795 418.577 96.3474 415.254 119.993C414.029 128.705 408.1 132.714 397.129 133.244C389.606 133.608 382.734 132.838 364.56 129.764L353.226 127.819C345.136 126.433 339.843 125.586 333.9 124.751L331.578 124.43C327.276 123.846 323.064 123.334 317.558 122.715L306.911 121.548C285.647 119.214 278.391 118.074 270.779 115.487L270.355 115.341C260.254 111.802 255.801 106.345 257.009 97.7536ZM414.461 119.882C417.709 96.7729 383.932 68.5335 342.617 62.727C301.301 56.9205 261.049 74.7557 257.801 97.8649C256.638 106.139 260.964 111.307 271.036 114.73L271.274 114.81C278.329 117.181 285.255 118.327 303.774 120.396L314.566 121.578C322.732 122.477 328.059 123.122 334.011 123.959L336.335 124.291C340.945 124.961 345.432 125.681 351.492 126.711L362.162 128.545C382.177 131.965 389.309 132.822 397.091 132.445L397.536 132.422C407.872 131.824 413.315 128.04 414.461 119.882Z" fill="#961C28"/>
<path id="Oval" fill-rule="evenodd" clip-rule="evenodd" d="M331.399 142.543C374.879 148.653 412.244 138.533 414.858 119.938C417.471 101.343 384.342 81.315 340.863 75.2044C297.384 69.0937 260.018 79.2143 257.405 97.8092C254.792 116.404 287.92 136.432 331.399 142.543Z" fill="#A9776F"/>
<path id="Path" d="M340.919 74.8083C384.595 80.9465 417.911 101.088 415.254 119.993C412.597 138.899 375.02 149.077 331.344 142.939C287.668 136.8 254.352 116.659 257.009 97.7535C258.378 88.0148 269.075 80.3343 286.181 76.2239C286.396 76.1723 286.612 76.3046 286.663 76.5194C286.715 76.7342 286.583 76.9501 286.368 77.0017C269.546 81.0439 259.112 88.535 257.801 97.8649C255.231 116.149 288.172 136.063 331.455 142.146C374.738 148.229 411.892 138.166 414.461 119.882C417.031 101.598 384.09 81.6835 340.807 75.6005C327.448 73.723 314.374 73.3413 302.542 74.416C302.322 74.4359 302.127 74.2738 302.107 74.0538C302.087 73.8338 302.249 73.6392 302.469 73.6192C314.364 72.5389 327.5 72.9224 340.919 74.8083Z" fill="#4F2E1E"/>
<path id="Oval_2" fill-rule="evenodd" clip-rule="evenodd" d="M333.209 129.669C353.171 132.475 370.475 126.768 371.859 116.924C373.242 107.08 358.181 96.825 338.219 94.0195C318.257 91.2139 300.953 96.9201 299.569 106.764C298.185 116.609 313.246 126.864 333.209 129.669Z" fill="#F09129"/>
<path id="Oval_3" fill-rule="evenodd" clip-rule="evenodd" d="M299.074 106.695C300.509 96.4818 318.088 90.6853 338.288 93.5243C358.489 96.3634 373.789 106.781 372.354 116.994C370.918 127.207 353.34 133.003 333.139 130.164C312.938 127.325 297.639 116.908 299.074 106.695ZM371.363 116.855C372.695 107.379 357.873 97.2865 338.149 94.5146C318.426 91.7426 301.396 97.3584 300.064 106.834C298.732 116.31 313.555 126.402 333.278 129.174C353.002 131.946 370.032 126.33 371.363 116.855Z" fill="white"/>
</g>
<path id="Oval_4" fill-rule="evenodd" clip-rule="evenodd" d="M118.54 434.671L368.478 440.645C368.478 440.645 371.294 122.71 372.085 117.08C373.469 107.235 358.408 96.9807 338.446 94.1752C318.483 91.3697 303.793 95.7955 299.146 105.955C294.498 116.115 118.54 434.671 118.54 434.671Z" fill="url(#paint0_linear)"/>
</g>
<g id="Group 13">
<path id="Path 102" fill-rule="evenodd" clip-rule="evenodd" d="M261.026 251.715C261.026 251.715 252.433 224.631 247.479 191.758C242.524 158.886 250.653 159.622 264.813 155.827C278.973 152.033 281.656 152.112 285.606 155.979C289.555 159.847 307.094 196.539 314.409 237.411C289.651 246.984 261.026 251.715 261.026 251.715Z" fill="#6D3E2C"/>
<path id="Shape" opacity="0.3" fill-rule="evenodd" clip-rule="evenodd" d="M262.613 156.398L263.21 156.59L263.615 156.142L264.813 155.827L265.749 155.578L264.464 156.993L273.764 159.974L280.021 153.08C280.522 153.128 280.985 153.21 281.419 153.325L275.019 160.377L284.319 163.357L287.943 159.361L288.355 160.077C288.426 160.201 288.497 160.328 288.569 160.457L285.573 163.76L291.231 165.571L291.711 166.556C291.792 166.724 291.873 166.893 291.955 167.064L284.687 164.736L278.125 171.968L287.425 174.948L292.852 168.967L293.397 170.152L288.679 175.351L296.782 177.946L297.435 179.539C297.544 179.808 297.654 180.078 297.764 180.351L291.785 186.942L301.085 189.923L301.33 189.652L301.986 191.47L301.453 191.302L294.891 198.534L304.191 201.514L305.073 200.541L305.496 201.86L305.445 201.917L305.521 201.94L305.964 203.341L304.559 202.893L297.997 210.125L307.297 213.105L308.478 211.802L308.859 213.168L308.551 213.508L308.992 213.65L309.367 215.028L307.665 214.484L301.103 221.716L310.402 224.696L311.506 223.48C311.618 223.952 311.729 224.425 311.838 224.899L311.657 225.099L311.902 225.177C312.006 225.629 312.109 226.082 312.211 226.535L310.771 226.075L304.208 233.307L314.248 236.524L314.409 237.411L313.803 237.642L303.322 234.282L296.76 241.514L299.868 242.511C299.206 242.72 298.542 242.927 297.877 243.132L295.874 242.49L294.328 244.194C293.601 244.407 292.871 244.616 292.139 244.823L294.619 242.088L285.32 239.106L278.756 246.338L282.171 247.433C281.42 247.614 280.667 247.793 279.912 247.969L277.871 247.314L276.596 248.721C275.925 248.868 275.253 249.014 274.58 249.157L276.615 246.912L267.316 243.93L260.827 251.082L260.411 249.754L266.062 243.528L257.798 240.88C257.567 240.05 257.337 239.216 257.11 238.379L262.956 231.937L254.781 229.315C254.565 228.427 254.351 227.535 254.14 226.639L259.85 220.346L252.184 217.889L251.9 216.538L260.735 219.37L267.298 212.139L257.999 209.157L251.789 216.001L251.491 214.545L256.745 208.755L249.951 206.577L249.707 205.24L257.63 207.779L264.192 200.548L254.893 197.566L249.415 203.603L249.153 202.107L253.639 197.164L248.036 195.367L247.828 194.042L254.524 196.187L261.086 188.957L251.787 185.974L247.346 190.867L247.127 189.322L250.533 185.573L246.515 184.283L246.388 182.982L251.418 184.596L257.98 177.365L248.681 174.383L246.039 177.291C246.024 176.685 246.018 176.098 246.02 175.531L247.427 173.982L246.067 173.543C246.085 173.12 246.11 172.708 246.14 172.308L248.312 173.005L254.875 165.774L248.437 163.711C248.656 163.343 248.89 162.998 249.137 162.673L255.761 164.798L262.323 157.567L260.415 156.954L262.613 156.398ZM292.768 230.899L286.205 238.131L295.505 241.111L302.068 233.881L292.768 230.899ZM274.765 235.722L268.202 242.955L277.502 245.935L284.064 238.705L274.765 235.722ZM264.211 232.339L257.647 239.571L266.947 242.552L273.51 235.321L264.211 232.339ZM282.214 227.515L275.651 234.747L284.95 237.728L291.513 230.497L282.214 227.515ZM300.216 222.691L293.654 229.923L302.954 232.904L309.516 225.673L300.216 222.691ZM271.659 224.131L265.096 231.364L274.396 234.344L280.958 227.113L271.659 224.131ZM289.663 219.307L283.099 226.54L292.399 229.52L298.962 222.289L289.663 219.307ZM261.105 220.748L254.541 227.98L263.841 230.961L270.404 223.73L261.105 220.748ZM279.108 215.924L272.545 223.156L281.845 226.137L288.407 218.906L279.108 215.924ZM297.11 211.1L290.548 218.332L299.848 221.313L306.41 214.082L297.11 211.1ZM268.553 212.54L261.99 219.773L271.29 222.753L277.853 215.522L268.553 212.54ZM286.557 207.716L279.993 214.949L289.293 217.929L295.856 210.698L286.557 207.716ZM294.004 199.509L287.442 206.741L296.742 209.722L303.305 202.491L294.004 199.509ZM276.002 204.333L269.439 211.565L278.739 214.546L285.301 207.315L276.002 204.333ZM283.451 196.125L276.888 203.358L286.188 206.338L292.75 199.107L283.451 196.125ZM265.448 200.949L258.884 208.182L268.184 211.162L274.747 203.931L265.448 200.949ZM290.899 187.918L284.336 195.15L293.636 198.131L300.199 190.9L290.899 187.918ZM272.896 192.742L266.333 199.974L275.633 202.955L282.195 195.724L272.896 192.742ZM262.342 189.358L255.778 196.59L265.078 199.571L271.641 192.34L262.342 189.358ZM280.345 184.534L273.782 191.766L283.082 194.747L289.644 187.516L280.345 184.534ZM287.793 176.327L281.231 183.559L290.53 186.539L297.093 179.309L287.793 176.327ZM269.791 181.151L263.227 188.383L272.527 191.363L279.09 184.133L269.791 181.151ZM277.239 172.943L270.676 180.175L279.976 183.156L286.538 175.925L277.239 172.943ZM259.236 177.767L252.673 184.999L261.973 187.98L268.535 180.749L259.236 177.767ZM266.685 169.559L260.121 176.792L269.421 179.772L275.984 172.541L266.685 169.559ZM256.13 166.176L249.567 173.408L258.867 176.389L265.429 169.158L256.13 166.176ZM274.133 161.352L267.57 168.584L276.87 171.565L283.433 164.334L274.133 161.352ZM263.579 157.968L257.016 165.201L266.315 168.181L272.878 160.95L263.579 157.968Z" fill="#A9776F"/>
<path id="Path 103" d="M266.848 163.421C267.075 163.36 267.309 163.473 267.406 163.679L267.436 163.76L281.981 218.044C282.049 218.3 281.897 218.563 281.641 218.632C281.414 218.693 281.181 218.58 281.083 218.374L281.054 218.293L266.508 164.009C266.44 163.753 266.592 163.49 266.848 163.421Z" fill="white"/>
<path id="Path 101" fill-rule="evenodd" clip-rule="evenodd" d="M269.076 275.657L258.808 249.293L315.288 234.159L319.736 262.083L269.076 275.657Z" fill="#EC737F"/>
<path id="Path 100" fill-rule="evenodd" clip-rule="evenodd" d="M267.534 319.478C267.534 319.478 278.479 348.677 295.428 365.084C297.93 383.342 299.344 385.124 304.779 390.248C310.215 395.372 313.273 397.822 315.052 397.346C316.831 396.869 311.184 387.775 310.493 385.195C309.802 382.615 308.561 376.125 309.312 375.924C310.063 375.723 310.811 382.726 312.409 384.681C314.008 386.636 315.112 384.947 314.516 380.765C313.919 376.582 313.661 368.801 310.559 365.997C307.456 363.193 304.789 361.167 300.878 352.666C296.967 344.164 290.972 326.444 288.471 317.11C285.97 307.776 267.534 319.478 267.534 319.478Z" fill="#F09129"/>
<path id="Path_2" fill-rule="evenodd" clip-rule="evenodd" d="M267.534 319.478C279.825 311.677 286.804 310.887 288.471 317.11C289.214 319.881 290.264 323.391 291.477 327.18L270.837 327.683C269.694 325.038 268.593 322.303 267.534 319.478Z" fill="#E68019"/>
<path id="Path 100 Copy" fill-rule="evenodd" clip-rule="evenodd" d="M347.444 298.066C347.444 298.066 352.564 328.826 346.089 351.509C353.052 368.572 352.718 370.823 350.573 377.978C348.428 385.133 347.004 388.784 345.225 389.261C343.447 389.737 343.79 379.038 343.098 376.458C342.407 373.878 340.237 367.638 339.486 367.839C338.734 368.04 341.589 374.479 341.182 376.972C340.775 379.464 338.974 378.554 337.399 374.633C335.825 370.713 332.158 363.845 333.442 359.866C334.727 355.886 336.024 352.798 335.16 343.48C334.296 334.162 330.628 315.818 328.127 306.484C325.626 297.15 347.444 298.066 347.444 298.066Z" fill="#F09129"/>
<path id="Path_3" fill-rule="evenodd" clip-rule="evenodd" d="M347.444 298.066C348.373 303.65 349.016 309.035 349.372 314.22L329.656 312.673L329.303 311.167C328.952 309.693 328.611 308.321 328.288 307.089L328.127 306.484C326.46 300.261 332.899 297.455 347.444 298.066Z" fill="#E68019"/>
<path id="Path 97" fill-rule="evenodd" clip-rule="evenodd" d="M275.365 244.856C275.365 244.856 249.606 276.215 265.492 325.203C277.485 321.99 290.252 318.569 290.252 318.569C290.252 318.569 285.339 291.353 285.483 282.616C295.177 280.018 315.106 274.678 315.106 274.678C315.106 274.678 323.644 293.201 327.749 308.522C335.215 306.521 352.606 301.861 352.606 301.861C352.606 301.861 333.999 245.787 302.046 237.707C291.593 240.508 275.365 244.856 275.365 244.856Z" fill="#EFB7C1"/>
<path id="Path_4" fill-rule="evenodd" clip-rule="evenodd" d="M284.048 265.394L284.443 267.047C285.318 270.527 287.687 277.531 295.863 279.834L285.483 282.616L285.479 283.265C285.494 287.079 286.134 293.174 287.398 301.551L286.878 299.9C284.604 292.564 283.233 286.505 282.765 281.724L282.688 280.874C281.837 270.873 283.425 263.068 284.048 265.394Z" fill="#EE94A7"/>
<path id="Path_5" fill-rule="evenodd" clip-rule="evenodd" d="M302.046 237.707C303.698 238.125 305.322 238.639 306.92 239.248C306.652 252.313 316.009 264.159 321.494 277.318C324.981 285.682 326.472 294.038 325.967 302.384C323.417 294.211 319.994 285.405 315.697 275.969L315.106 274.678L308.013 276.579C307.313 266.958 303.16 262.146 295.554 262.143L295.177 262.146C284.788 262.353 276.502 258.9 270.321 251.785C271.625 249.747 273.047 247.759 274.586 245.821L275.365 244.856L302.046 237.707Z" fill="#EE94A7"/>
<g id="Group 12">
<path id="Path 93" fill-rule="evenodd" clip-rule="evenodd" d="M263.611 237.585C263.611 237.585 257.947 225.387 258.103 217.027C258.259 208.667 270.518 200.369 281.953 198.695C293.388 197.022 298.351 206.243 298.351 206.243C298.351 206.243 302.173 205.21 303.672 210.804C305.171 216.398 305.71 228.417 305.71 228.417L263.611 237.585Z" fill="#8D6553"/>
<path id="Path 92" fill-rule="evenodd" clip-rule="evenodd" d="M267.034 235.829C267.034 235.829 265.957 232.887 262.902 232.812C259.847 232.738 256.929 235.474 259.538 240.448C262.147 245.421 268.44 245.468 269.258 242.322C270.076 239.176 267.034 235.829 267.034 235.829Z" fill="#F09129"/>
<path id="Path 92 Copy" fill-rule="evenodd" clip-rule="evenodd" d="M300.692 226.81C300.692 226.81 300.153 223.724 302.762 222.132C305.37 220.54 309.266 221.451 309.493 227.062C309.72 232.674 304.293 235.861 302.012 233.546C299.731 231.23 300.692 226.81 300.692 226.81Z" fill="#F09129"/>
<path id="Path 91" fill-rule="evenodd" clip-rule="evenodd" d="M298.235 215.149C298.235 215.149 294.772 222.406 283.372 222.296C271.972 222.186 266.063 221.776 265.218 230.728C264.374 239.68 273.036 255.553 284.293 259.159C295.55 262.766 301.985 255.002 304.037 244.871C306.088 234.74 298.235 215.149 298.235 215.149Z" fill="#F09129"/>
<path id="Path 94" d="M282.673 231.173C282.926 231.092 283.196 231.232 283.277 231.484C284.342 234.823 285.114 238.197 285.592 241.606L285.715 242.536C286.131 245.886 287.868 246.666 291.327 244.992C291.565 244.876 291.852 244.976 291.968 245.214C292.083 245.453 291.983 245.74 291.745 245.856C287.805 247.763 285.362 246.738 284.794 242.889L284.762 242.655C284.306 238.989 283.506 235.362 282.362 231.776C282.281 231.523 282.421 231.253 282.673 231.173Z" fill="#8D6553"/>
<g id="Group 11">
<path id="Path 95" d="M279.539 231.518C279.795 231.449 280.058 231.601 280.127 231.857C280.188 232.085 280.075 232.318 279.869 232.415L279.788 232.445L269.334 235.246C269.078 235.314 268.815 235.162 268.746 234.906C268.685 234.679 268.799 234.446 269.004 234.348L269.086 234.319L279.539 231.518Z" fill="#8D6553"/>
<path id="Path_6" fill-rule="evenodd" clip-rule="evenodd" d="M276.725 232.627C277.051 233.167 277.337 233.804 277.554 234.507L277.657 234.864C276.377 235.207 275.478 236.004 275.65 236.644C275.807 237.232 276.813 237.483 277.967 237.254C277.941 238.752 277.442 239.891 276.581 240.121C275.301 240.464 273.707 238.667 273.021 236.106C272.794 235.261 272.695 234.438 272.71 233.703L276.725 232.627Z" fill="#8D6553"/>
</g>
<g id="Group 10">
<path id="Path 95 Copy" d="M298.991 226.305C299.247 226.237 299.511 226.389 299.579 226.645C299.64 226.872 299.527 227.106 299.321 227.203L299.24 227.233L288.786 230.034C288.53 230.102 288.267 229.95 288.199 229.694C288.138 229.467 288.251 229.233 288.457 229.136L288.538 229.106L298.991 226.305Z" fill="#8D6553"/>
<path id="Path Copy 2" fill-rule="evenodd" clip-rule="evenodd" d="M295.271 227.658C295.597 228.197 295.883 228.834 296.1 229.537L296.203 229.894C294.923 230.237 294.024 231.034 294.195 231.675C294.353 232.262 295.358 232.514 296.513 232.285C296.487 233.783 295.987 234.921 295.127 235.152C293.847 235.495 292.253 233.697 291.567 231.137C291.34 230.291 291.241 229.469 291.256 228.734L295.271 227.658Z" fill="#8D6553"/>
</g>
<path id="Path 96" d="M295.601 248.291C295.857 248.223 296.12 248.375 296.189 248.631C296.25 248.858 296.137 249.091 295.931 249.189L295.85 249.218L284.63 252.225C284.374 252.293 284.111 252.141 284.042 251.885C283.981 251.658 284.095 251.424 284.3 251.327L284.382 251.297L295.601 248.291Z" fill="#8D6553"/>
<path id="Path 564" d="M264.907 233.435C265.165 233.373 265.425 233.531 265.487 233.789C267.262 241.132 269.594 246.506 272.465 249.908C272.636 250.111 272.611 250.413 272.408 250.584C272.205 250.755 271.903 250.73 271.732 250.527C268.749 246.993 266.361 241.49 264.554 234.014C264.491 233.757 264.65 233.497 264.907 233.435Z" fill="#8D6553"/>
<path id="Path 565" d="M297.75 214.787C297.994 214.685 298.276 214.8 298.378 215.045C304.682 230.127 306.2 241.911 302.889 250.405C302.793 250.652 302.514 250.774 302.267 250.678C302.02 250.582 301.898 250.304 301.994 250.057C305.197 241.839 303.71 230.289 297.492 215.415C297.39 215.17 297.505 214.889 297.75 214.787Z" fill="#8D6553"/>
<path id="Path 566" d="M274.743 252.775C274.923 252.581 275.227 252.569 275.422 252.749C281.095 257.992 286.309 260.274 291.065 259.642C295.818 259.01 299.109 256.554 300.99 252.239C301.095 251.996 301.378 251.884 301.621 251.99C301.864 252.096 301.975 252.379 301.87 252.622C299.854 257.248 296.276 259.917 291.191 260.593C286.108 261.269 280.634 258.873 274.77 253.454C274.575 253.274 274.563 252.97 274.743 252.775Z" fill="#8D6553"/>
<path id="Path 572" d="M298.571 210.295C298.836 210.277 299.065 210.476 299.083 210.741C299.368 214.815 297.316 218.145 292.996 220.687L292.668 220.876C290.802 221.929 288.953 222.128 283.147 222.132L280.296 222.132C279.816 222.135 279.387 222.141 278.965 222.151L278.712 222.157C269.641 222.397 265.477 224.789 265.509 232.033C265.51 232.299 265.296 232.514 265.031 232.516C264.766 232.517 264.55 232.303 264.549 232.038C264.514 224.227 269.038 221.522 278.303 221.209L278.686 221.197C279.54 221.175 280.382 221.168 281.568 221.17L284.224 221.168C288.97 221.138 290.65 220.913 292.196 220.04C296.438 217.645 298.39 214.584 298.126 210.808C298.109 210.573 298.265 210.365 298.486 210.309L298.571 210.295Z" fill="#4F2E1E"/>
</g>
<path id="Path 98" d="M287.2 309.479C287.456 309.41 287.719 309.562 287.788 309.818C287.849 310.046 287.736 310.279 287.53 310.376L287.448 310.406L270.539 314.937C270.283 315.006 270.02 314.854 269.951 314.598C269.89 314.37 270.004 314.137 270.209 314.04L270.291 314.01L287.2 309.479Z" fill="white"/>
<path id="Path 99" d="M343.406 294.419C343.662 294.35 343.925 294.502 343.994 294.758C344.055 294.986 343.941 295.219 343.736 295.316L343.654 295.346L325.523 300.204C325.267 300.273 325.003 300.121 324.935 299.865C324.874 299.637 324.987 299.404 325.193 299.307L325.274 299.277L343.406 294.419Z" fill="white"/>
<path id="Path 104" fill-rule="evenodd" clip-rule="evenodd" d="M257.845 155.031C255.273 155.972 251.451 156.492 246.828 144.407C242.204 132.323 241.019 127.24 243.379 126.608C245.739 125.975 251.828 133.175 256.269 140.97C260.711 148.764 260.416 154.09 257.845 155.031Z" fill="#4F2E1E"/>
<path id="Path 104 Copy" fill-rule="evenodd" clip-rule="evenodd" d="M268.721 152.116C271.419 151.646 274.988 150.185 272.95 137.408C270.912 124.631 269.398 119.636 267.037 120.268C264.677 120.901 263.004 130.18 263.055 139.151C263.106 148.122 266.024 152.587 268.721 152.116Z" fill="#4F2E1E"/>
<path id="Path 567" d="M260.078 298.459C260.342 298.434 260.576 298.628 260.601 298.892C261.269 306.112 262.99 314.859 265.763 325.13C265.832 325.386 265.681 325.649 265.425 325.718C265.169 325.787 264.905 325.636 264.836 325.38C262.05 315.06 260.319 306.261 259.645 298.981C259.623 298.746 259.774 298.535 259.993 298.474L260.078 298.459Z" fill="#EC737F"/>
<path id="Path 568" d="M271.007 250.102C271.178 249.9 271.481 249.874 271.683 250.046C271.885 250.217 271.911 250.52 271.739 250.722C266.514 256.899 262.726 266.917 260.399 280.773C260.355 281.035 260.108 281.211 259.846 281.167C259.585 281.123 259.408 280.876 259.452 280.614C261.806 266.603 265.65 256.433 271.007 250.102Z" fill="#EC737F"/>
<path id="Path 569" d="M306.223 276.562C306.479 276.493 306.742 276.645 306.811 276.901C306.872 277.129 306.758 277.362 306.553 277.459L306.471 277.489L285.952 282.986L285.95 283.092C285.85 287.589 286.444 293.464 287.734 300.71L287.87 301.465C287.918 301.726 287.745 301.975 287.484 302.023C287.223 302.071 286.973 301.898 286.926 301.637C285.484 293.728 284.843 287.384 285.003 282.6C285.009 282.419 285.116 282.259 285.275 282.183L285.359 282.152L306.223 276.562Z" fill="#EC737F"/>
<path id="Path 570" d="M319.439 246.537C319.611 246.336 319.914 246.312 320.116 246.485C331.016 255.811 339.465 267.685 345.461 282.1C345.563 282.345 345.447 282.626 345.202 282.728C344.957 282.83 344.676 282.714 344.574 282.469C338.635 268.19 330.275 256.441 319.492 247.214C319.29 247.042 319.267 246.739 319.439 246.537Z" fill="#EC737F"/>
<g id="Group 61">
<path id="Oval_5" fill-rule="evenodd" clip-rule="evenodd" d="M272.169 241.925C271.311 238.724 273.211 235.434 276.412 234.576C279.613 233.718 282.903 235.618 283.76 238.819C284.618 242.02 282.718 245.31 279.518 246.167C276.317 247.025 273.027 245.125 272.169 241.925ZM282.601 239.129C281.915 236.569 279.283 235.049 276.722 235.735C274.162 236.421 272.642 239.053 273.328 241.614C274.014 244.175 276.646 245.694 279.207 245.008C281.768 244.322 283.287 241.69 282.601 239.129Z" fill="white"/>
<path id="Oval Copy 14" fill-rule="evenodd" clip-rule="evenodd" d="M287.238 237.887C286.38 234.686 288.279 231.396 291.48 230.539C294.681 229.681 297.971 231.58 298.829 234.781C299.686 237.982 297.787 241.272 294.586 242.13C291.385 242.987 288.095 241.088 287.238 237.887ZM297.67 235.092C296.983 232.531 294.351 231.012 291.791 231.698C289.23 232.384 287.711 235.016 288.397 237.576C289.083 240.137 291.715 241.657 294.275 240.971C296.836 240.284 298.356 237.652 297.67 235.092Z" fill="white"/>
<path id="Path 574" d="M300.829 223.361L301.976 223.715L298.702 234.313L297.556 233.959L300.829 223.361Z" fill="white"/>
<path id="Path 575" d="M265.782 232.793L272.981 240.586L272.1 241.4L264.901 233.608L265.782 232.793Z" fill="white"/>
<path id="Path 576" d="M287.507 236.573L287.817 237.732L283.181 238.974L282.87 237.815L287.507 236.573Z" fill="white"/>
</g>
</g>
<g id="Group 16">
<path id="Path 107" fill-rule="evenodd" clip-rule="evenodd" d="M204 334.187L207.552 339.79L239.154 319.243L235.604 312.706L204 334.187Z" fill="#6D3E2C"/>
<path id="Path 106" fill-rule="evenodd" clip-rule="evenodd" d="M218.464 319.307L227.719 341.669L236.52 345.832L239.154 336.682L228.809 312L218.464 319.307Z" fill="#EFB7C1"/>
<path id="Path 571" d="M224.108 331.774C224.37 331.679 224.656 331.79 224.788 332.025L224.826 332.108L228.162 341.252L233.596 343.641C233.851 343.753 233.98 344.032 233.913 344.293L233.883 344.379C233.771 344.634 233.492 344.764 233.231 344.696L233.145 344.667L227.493 342.181C227.381 342.132 227.289 342.048 227.23 341.943L227.192 341.861L223.774 332.492C223.668 332.201 223.818 331.88 224.108 331.774Z" fill="#EC737F"/>
<path id="Path 573" d="M228.509 311.545C228.774 311.354 229.139 311.433 229.308 311.699L229.352 311.784L239.671 336.466C239.79 336.751 239.656 337.079 239.37 337.199C239.114 337.306 238.822 337.208 238.679 336.979L238.638 336.898L228.589 312.865L221.904 317.669C221.681 317.829 221.379 317.802 221.188 317.617L221.122 317.541C220.962 317.318 220.989 317.016 221.174 316.825L221.25 316.759L228.509 311.545Z" fill="#EC737F"/>
</g>
<path id="Oval_6" fill-rule="evenodd" clip-rule="evenodd" d="M347.5 244C349.433 244 351 242.433 351 240.5C351 238.567 349.433 237 347.5 237C345.567 237 344 238.567 344 240.5C344 242.433 345.567 244 347.5 244Z" fill="#6D3E2C"/>
<path id="Oval_7" fill-rule="evenodd" clip-rule="evenodd" d="M245.5 270C248.538 270 251 267.538 251 264.5C251 261.462 248.538 259 245.5 259C242.462 259 240 261.462 240 264.5C240 267.538 242.462 270 245.5 270Z" fill="#E68019"/>
<path id="Path 105" fill-rule="evenodd" clip-rule="evenodd" d="M332.191 190.389C332.191 190.389 330.131 180.108 343.299 176.561C342.542 184.112 341.857 190.984 337.096 192.473C332.335 193.963 335.021 185.569 336.48 183.359C337.939 181.15 335.621 182.704 334.015 186.121C332.409 189.538 332.191 190.389 332.191 190.389Z" fill="#F09129"/>
<path id="Path 105 Copy" fill-rule="evenodd" clip-rule="evenodd" d="M255.996 383.697C255.996 383.697 245.522 383.209 245.265 369.574C252.409 372.135 258.911 374.462 259.205 379.442C259.498 384.421 252.004 379.785 250.212 377.835C248.421 375.885 249.369 378.51 252.296 380.895C255.223 383.28 255.996 383.697 255.996 383.697Z" fill="#EC737F"/>
<path id="Shape_2" opacity="0.1" fill-rule="evenodd" clip-rule="evenodd" d="M169.44 192.215C187.271 182.029 207.339 182.866 214.538 190.836C215.098 191.353 215.572 191.937 215.951 192.587C220.675 200.682 208.996 216.103 189.867 227.031C172.478 236.965 154.918 239.766 148.318 234.115C147.727 233.792 147.165 233.188 146.625 232.263C140.999 222.621 150.31 203.143 169.44 192.215ZM167.117 186.868C172.675 183.693 178.867 183.213 183.457 185.137C178.628 186.357 173.666 188.3 168.866 191.042C164.562 193.501 160.755 196.393 157.503 199.508C158.282 194.77 161.746 189.936 167.117 186.868Z" fill="#211A38"/>
</g>
</g>
<defs>
<linearGradient id="paint0_linear" x1="212.411" y1="-29.3791" x2="65.8862" y2="353.896" gradientUnits="userSpaceOnUse">
<stop stop-color="#F9C453"/>
<stop offset="1" stop-color="white" stop-opacity="0.01"/>
</linearGradient>
</defs>
</svg>
