<svg width="606" height="489" viewBox="0 0 606 489" fill="none" xmlns="http://www.w3.org/2000/svg">
<g id="Beating Monster">
<rect width="606" height="489" fill="white"/>
<g id="Empty State 8">
<path id="Path 619" opacity="0.2" fill-rule="evenodd" clip-rule="evenodd" d="M239.093 130.47C239.093 130.47 239.205 112.055 227.266 108.783C215.327 105.512 207.604 119.934 197.707 119.627C187.811 119.319 184.851 114.87 177.16 114.87C169.469 114.87 169.364 120.923 153.385 123.712C137.407 126.501 138.241 130.47 138.241 130.47H239.093Z" fill="#2E144F"/>
<path id="Path 620" opacity="0.2" fill-rule="evenodd" clip-rule="evenodd" d="M338.9 179.054H443.604C443.604 179.054 435.749 168.271 423.238 169.483C410.727 170.694 410.333 175.331 400.183 168.278C390.033 161.226 385.394 159.246 377.702 161.226C370.011 163.207 365.374 173.11 354.072 170.694C342.77 168.278 338.9 179.054 338.9 179.054Z" fill="#2E144F"/>
<path id="Oval" opacity="0.1" fill-rule="evenodd" clip-rule="evenodd" d="M303.35 387.3C418.419 387.3 511.7 378.032 511.7 366.6C511.7 355.168 418.419 345.9 303.35 345.9C188.281 345.9 95 355.168 95 366.6C95 378.032 188.281 387.3 303.35 387.3Z" fill="#2E144F"/>
<path id="Path 5" fill-rule="evenodd" clip-rule="evenodd" d="M119.101 357.794C119.101 357.794 111.45 340.268 115.275 337.745C119.101 335.221 124.96 350.808 124.96 350.808C124.96 350.808 129.78 337.745 133.261 337.745C136.741 337.745 130.966 357.794 130.966 357.794H119.101Z" fill="#EE5C7E"/>
<path id="Path 222" fill-rule="evenodd" clip-rule="evenodd" d="M381.613 145.001C381.613 145.001 396.274 201.051 342.243 254.801C288.211 308.55 389.265 274.35 389.265 274.35C389.265 274.35 412.581 245.024 412.581 207.671C412.581 170.318 381.613 145.001 381.613 145.001Z" fill="#FFF5F5"/>
<path id="Path" fill-rule="evenodd" clip-rule="evenodd" d="M412.581 207.957C412.521 232.744 404.749 254.874 389.265 274.35C322.57 296.922 306.54 290.761 341.177 255.867L342.243 254.801C349.954 247.129 356.617 239.422 362.229 231.681L363.422 231.852C373.255 233.301 380.445 235.325 384.99 237.923L385.676 238.323C392.558 242.27 403.289 245.281 412.321 209.013L412.581 207.957Z" fill="#FADEDD"/>
<path id="Path_2" fill-rule="evenodd" clip-rule="evenodd" d="M297.5 228.638C390.504 228.638 466.075 284.618 467.577 354.103L467.6 356.213C467.6 360.91 463.792 364.718 459.095 364.718C459.095 364.718 412.581 373.8 292.822 373.8C173.063 373.8 135.905 364.718 135.905 364.718C131.285 364.718 127.525 361.034 127.403 356.443L127.4 356.213C127.4 285.755 203.556 228.638 297.5 228.638Z" fill="#AACDF1"/>
<path id="Path_3" fill-rule="evenodd" clip-rule="evenodd" d="M297.5 228.638C313.397 228.638 328.785 230.273 343.381 233.332C335.441 234.4 329.893 239.815 326.737 249.58L326.604 250.001C322.847 262.034 318.547 271.797 313.705 279.291L313.267 278.131C306.178 259.569 298.493 250.193 290.212 250.004L289.956 250.001C277.132 250.001 238.215 237.898 230.1 256.214C224.69 268.425 221.8 279.759 221.432 290.216C220.662 296.415 207.249 299.514 181.194 299.514C142.11 299.514 129.829 359.657 200.848 340.561C271.866 321.464 315.383 328.423 342.242 343.731C367.554 358.156 435.383 361.639 467.414 350.19C467.494 351.488 467.549 352.793 467.577 354.103L467.6 356.213C467.6 360.91 463.792 364.718 459.095 364.718C459.095 364.718 412.581 373.8 296.69 373.8C180.799 373.8 135.905 364.718 135.905 364.718C131.285 364.718 127.525 361.034 127.4 356.443V356.213C127.4 285.755 203.556 228.638 297.5 228.638Z" fill="#90BCE9"/>
<g id="Group 24">
<path id="Path 215" fill-rule="evenodd" clip-rule="evenodd" d="M273.486 158.185C273.486 158.185 266.107 160.458 252.794 175.107C239.48 189.756 218.194 155.071 195.408 158.185C209.671 170.318 209.747 182.402 215.284 202.429C220.821 222.456 248.486 240.547 280.377 210.329C312.268 180.111 273.486 158.185 273.486 158.185Z" fill="#FBD958"/>
<path id="Path_4" fill-rule="evenodd" clip-rule="evenodd" d="M266.162 169.623L284.951 169.623L287.279 172.395C289.981 175.62 292.354 178.478 294.398 180.969C296.179 189.999 291.505 199.785 280.377 210.329C257.788 231.732 237.32 228.899 225.333 218.309C246.289 225.188 261.578 209.473 259.133 200.277C256.46 190.226 247.137 194.419 241.354 191.752C235.572 189.086 228.915 180.541 230.211 180.111C231.507 179.681 242.32 189.999 253.119 184.42C260.185 180.77 264.504 175.951 266.076 169.964L266.162 169.623Z" fill="#F8B842"/>
<path id="Path 616" d="M217.658 178.656C217.895 178.475 218.233 178.52 218.415 178.756C228 191.275 238.268 197.293 249.235 196.873C260.259 196.45 271.092 191.294 281.742 181.381C281.96 181.178 282.302 181.19 282.505 181.409C282.708 181.627 282.696 181.969 282.478 182.172C271.65 192.25 260.58 197.518 249.276 197.952C237.916 198.388 227.338 192.187 217.557 179.413C217.376 179.176 217.421 178.837 217.658 178.656Z" fill="white"/>
<path id="Path 617" d="M277.535 202.027C277.757 201.828 278.099 201.847 278.298 202.069C278.497 202.291 278.478 202.632 278.255 202.831C265.015 214.679 249.502 216.22 231.83 207.464C231.563 207.331 231.454 207.007 231.586 206.74C231.718 206.473 232.042 206.364 232.31 206.496C249.599 215.063 264.636 213.569 277.535 202.027Z" fill="white"/>
<path id="Path 214" fill-rule="evenodd" clip-rule="evenodd" d="M275.094 207.671C275.094 207.671 273.093 214.056 263.88 217.334C254.667 220.612 252.236 227.326 248.34 234.885C244.444 242.444 233.401 240.296 233.401 240.296C233.401 240.296 242.04 256.679 259.133 254.557C276.226 252.436 290.21 237.391 290.21 235.693C290.21 233.996 275.094 207.671 275.094 207.671Z" fill="#C44472"/>
<path id="Path 213" fill-rule="evenodd" clip-rule="evenodd" d="M319.766 285.409C318.414 286.212 316.125 287.193 318.641 293.951C321.156 300.71 330.759 309.161 334.724 307.968C338.69 306.775 329.376 291.244 326.829 288.503C324.281 285.762 321.118 284.606 319.766 285.409Z" fill="#25144F"/>
<path id="Path 206" fill-rule="evenodd" clip-rule="evenodd" d="M268.987 163.426C268.987 163.426 247.932 198.988 271.866 203.302C271.866 211.244 271.866 222.456 271.866 222.456H320.968V202.349C320.968 202.349 329.347 201.547 331.046 194.551C332.745 187.554 331.41 170.742 319.965 161.3C308.519 151.859 268.987 163.426 268.987 163.426Z" fill="#EE5C7E"/>
<path id="Path_5" fill-rule="evenodd" clip-rule="evenodd" d="M259.133 189.755C263.024 192.433 270.351 186.986 270.351 187.963C270.351 189.042 263.88 194.947 271.865 198.126C277.112 200.214 285.872 199.038 298.145 194.597L298.689 194.398L276.734 206.98L271.866 206.313L271.866 203.302C263.409 201.778 259.165 197.328 259.133 189.952L259.133 189.755Z" fill="#C44472"/>
<path id="Path_6" fill-rule="evenodd" clip-rule="evenodd" d="M317.747 184.886C314.149 186.703 311.146 189.138 308.739 192.191C305.127 196.77 312.562 199.001 317.747 199.639C321.017 200.042 325.128 199.207 330.08 197.135C328.501 200.105 325.58 201.83 321.317 202.312L320.968 202.349L320.968 205.932L319.636 205.713C309.962 204.15 302.313 203.53 296.69 203.854C290.473 204.212 282.198 207.399 271.866 213.415L271.865 204.025L271.953 203.394L272.777 203.371C276.54 203.252 279.195 202.955 280.741 202.48L280.903 202.429C282.527 201.89 286.471 200.307 292.734 197.68L296.517 195.568C300.896 193.107 303.612 191.516 304.664 190.793L304.737 190.743C305.988 189.867 309.375 188.195 314.898 185.725L317.747 184.886Z" fill="#C44472"/>
<path id="Path 615" fill-rule="evenodd" clip-rule="evenodd" d="M319.677 184.324C319.677 184.324 317.319 179.387 315.512 175.477C313.705 171.567 313.929 175.692 310.609 177.404C307.288 179.116 297.775 176.758 288.199 180.541C295.392 180.111 299.92 180.022 304.362 180.541C308.803 181.06 319.677 184.324 319.677 184.324Z" fill="#C44472"/>
<path id="Path_7" fill-rule="evenodd" clip-rule="evenodd" d="M268.987 163.426C295.341 155.714 312.334 155.006 319.965 161.3C321.614 162.661 323.053 164.174 324.304 165.789C320.088 164.6 314.823 165.902 309.278 168.324C303.078 171.032 301.145 176.758 295.392 176.758C289.639 176.758 288.211 170.99 278.424 170.99C272.677 170.99 267.695 171.941 263.476 173.843C264.941 170.629 266.778 167.156 268.987 163.426Z" fill="#C44472"/>
<path id="Path 204" fill-rule="evenodd" clip-rule="evenodd" d="M300.586 171.076C300.586 171.076 312.294 163.956 318.841 163.029C325.387 162.102 322.66 158.479 320.341 156.461C318.022 154.442 311.104 149.226 307.78 150.542C304.455 151.858 296.69 164.871 296.69 164.871C296.69 164.871 281.863 150.781 279.044 151.32C276.226 151.858 267.28 156.536 264.548 160.704C261.817 164.871 268.049 168.324 272.59 168.324C277.132 168.324 295.824 172.268 295.824 172.268L300.586 171.076Z" fill="#F8B842"/>
<path id="Path_8" fill-rule="evenodd" clip-rule="evenodd" d="M307.78 150.542C309.803 149.741 313.157 151.36 315.996 153.205C313.605 153.302 311.366 154.412 309.278 156.533C304.768 161.117 303.408 165.38 303.574 169.313C302.801 169.753 302.009 170.218 301.198 170.706L300.586 171.076L295.824 172.268L293.386 171.758C291.804 171.43 290.305 171.125 288.891 170.844C288.707 169.419 288.081 167.885 286.637 166.907L285.662 166.254C283.669 164.93 281.418 163.51 278.911 161.992L279.509 162.243C284.789 164.438 287.429 164.955 287.429 163.796C287.429 161.994 275.16 153.558 265.892 159.074C269.488 155.397 276.59 151.789 279.044 151.32C280.923 150.96 286.805 155.478 296.69 164.871L297.419 163.659C302.215 155.75 305.669 151.378 307.78 150.542Z" fill="#E89127"/>
<path id="Path 205" d="M313.333 156.141C313.55 155.936 313.892 155.945 314.097 156.162C314.302 156.378 314.293 156.72 314.076 156.925L313.813 157.17C311.232 159.528 305.065 164.051 295.286 170.763C295.148 170.857 294.976 170.882 294.819 170.833L294.728 170.795L277.643 161.778C277.379 161.639 277.278 161.312 277.418 161.048C277.541 160.814 277.813 160.708 278.057 160.785L278.147 160.823L294.942 169.687L297.678 167.801C305.679 162.254 310.819 158.441 313.076 156.38L313.333 156.141Z" fill="white"/>
<path id="Path 200" fill-rule="evenodd" clip-rule="evenodd" d="M272.089 123.334C272.089 123.334 271.059 133.874 274.783 139.438C278.506 145.001 282.397 127.946 282.397 127.946L272.089 123.334Z" fill="#E36509"/>
<path id="Path 199" fill-rule="evenodd" clip-rule="evenodd" d="M313.126 136.566C313.126 136.566 318.19 114.123 312.196 108.6C306.203 103.076 295.412 107.667 288.798 114.679C282.183 121.692 273.34 118.75 274.783 113.284C276.226 107.817 276.793 111.888 279.471 113.284C282.15 114.679 287.391 111.882 283.985 105.749C280.579 99.6171 271.097 101.315 267.319 108.6C263.541 115.885 267.181 125.127 277.234 130.237C287.287 135.347 291.932 138.477 291.932 138.477L313.126 136.566Z" fill="#F6822E"/>
<path id="Path 198" fill-rule="evenodd" clip-rule="evenodd" d="M277.508 136.39C277.508 136.39 275.909 133.342 273.395 132.688C270.881 132.034 267.893 136.277 269.387 141.076C270.881 145.875 277.461 147.518 279.795 145.247C282.13 142.975 277.508 136.39 277.508 136.39Z" fill="#F7AE91"/>
<path id="Path 198 Copy" fill-rule="evenodd" clip-rule="evenodd" d="M307.463 134.805C307.463 134.805 308.623 131.565 311.021 130.567C313.419 129.569 316.969 133.356 316.157 138.316C315.345 143.275 309.059 145.819 306.431 143.894C303.803 141.97 307.463 134.805 307.463 134.805Z" fill="#F7AE91"/>
<path id="Path_9" fill-rule="evenodd" clip-rule="evenodd" d="M274.783 108.861C275.615 108.861 276.253 109.486 276.698 110.737L276.593 110.658C275.97 110.23 275.478 110.649 274.783 113.284C273.354 118.695 282.007 121.633 288.598 114.887L288.798 114.679C290.493 112.882 292.463 111.243 294.557 109.894C291.46 116.784 281.78 126.76 275.347 121.482C268.584 115.934 273.047 108.861 274.783 108.861Z" fill="#E36509"/>
<path id="Path 197" fill-rule="evenodd" clip-rule="evenodd" d="M277.234 130.237C277.234 130.237 274.063 148.515 280.865 154.91C287.666 161.305 293.373 163.256 295.19 167.205C297.007 171.154 299.471 163.724 304.214 159.294C308.957 154.865 311.656 147.34 310.847 139.834C310.038 132.328 305.412 125.382 305.412 125.382C305.412 125.382 299.944 131.556 293.077 132.883C286.209 134.21 277.234 130.237 277.234 130.237Z" fill="#F7AE91"/>
<path id="Path 201" d="M294.038 142.68C293.928 136.912 296.825 134.173 304.002 136.087C304.218 136.145 304.347 136.367 304.289 136.583C304.231 136.799 304.009 136.928 303.793 136.87C297.176 135.105 294.747 137.401 294.848 142.664C294.868 143.671 294.976 144.704 295.169 145.936L295.366 147.103C295.435 147.496 295.507 147.908 295.525 148.015L295.584 148.384C295.634 148.717 295.658 148.951 295.658 149.134C295.658 151.055 293.825 151.4 290.533 150.387C290.319 150.321 290.199 150.094 290.265 149.881C290.331 149.667 290.558 149.547 290.771 149.613C293.614 150.488 294.848 150.256 294.848 149.134L294.84 148.972C294.833 148.879 294.82 148.766 294.801 148.63L294.678 147.872C294.609 147.476 294.491 146.803 294.447 146.541C294.199 145.061 294.061 143.859 294.038 142.68Z" fill="#EF7C5B"/>
<path id="Path_10" d="M280.062 138.401C282.159 135.802 285.379 135.382 289.617 137.093C289.825 137.177 289.925 137.413 289.841 137.62C289.758 137.828 289.522 137.928 289.314 137.844C285.376 136.254 282.536 136.625 280.692 138.909C280.552 139.084 280.297 139.111 280.123 138.97C279.949 138.83 279.922 138.575 280.062 138.401Z" fill="#EF7C5B"/>
<path id="Path_11" fill-rule="evenodd" clip-rule="evenodd" d="M285.304 139.569C286.239 139.438 287.168 140.35 287.585 141.704L287.648 141.694C286.319 141.88 285.292 142.391 285.354 142.834C285.415 143.27 286.508 143.478 287.809 143.307C287.782 144.722 287.14 145.855 286.206 145.986C285.098 146.142 283.999 144.831 283.75 143.059C283.501 141.287 284.197 139.725 285.304 139.569Z" fill="#CD5C3B"/>
<path id="Path Copy 4" fill-rule="evenodd" clip-rule="evenodd" d="M300.694 138.759C301.629 138.628 302.558 139.54 302.975 140.893L303.038 140.884C301.709 141.07 300.682 141.581 300.744 142.024C300.805 142.46 301.898 142.668 303.199 142.497C303.172 143.912 302.53 145.045 301.596 145.176C300.488 145.332 299.389 144.021 299.14 142.249C298.891 140.477 299.587 138.915 300.694 138.759Z" fill="#CD5C3B"/>
<path id="Path 203" d="M299.722 151.568C299.882 151.412 300.139 151.416 300.295 151.576C300.45 151.737 300.447 151.993 300.286 152.149C297.785 154.58 294.302 155.364 289.88 154.519C289.66 154.477 289.516 154.265 289.558 154.045C289.6 153.825 289.812 153.681 290.032 153.723C294.212 154.522 297.427 153.798 299.722 151.568Z" fill="#EF7C5B"/>
<path id="Oval_2" fill-rule="evenodd" clip-rule="evenodd" d="M296.69 175.988C299.821 175.988 302.36 173.449 302.36 170.318C302.36 167.186 299.821 164.648 296.69 164.648C293.559 164.648 291.02 167.186 291.02 170.318C291.02 173.449 293.559 175.988 296.69 175.988Z" fill="#FF6A65"/>
<path id="Oval_3" fill-rule="evenodd" clip-rule="evenodd" d="M296.69 173.558C298.479 173.558 299.93 172.107 299.93 170.318C299.93 168.528 298.479 167.078 296.69 167.078C294.901 167.078 293.45 168.528 293.45 170.318C293.45 172.107 294.901 173.558 296.69 173.558Z" fill="white"/>
<path id="Path 209" fill-rule="evenodd" clip-rule="evenodd" d="M275.555 184.324C275.555 184.324 267.64 180.082 266.18 179.163C264.719 178.245 272.615 177.254 275.555 176.798C278.494 176.341 286.002 181.13 286.002 181.13C286.002 181.13 282.825 181.702 279.19 183.013C275.555 184.324 275.555 184.324 275.555 184.324Z" fill="#F7AE91"/>
<path id="Path 207" d="M273.317 184.884C286.587 178.199 302.107 177.826 319.848 183.745C320.413 183.934 320.302 184.763 319.707 184.797C317.097 184.942 310.472 188.108 299.99 194.259L298.964 194.863C287.703 201.52 278.662 204.521 271.813 203.839C271.516 203.81 271.299 203.545 271.329 203.248C271.358 202.952 271.623 202.735 271.919 202.765C278.375 203.407 287.018 200.587 297.823 194.281L299.499 193.295C307.713 188.476 313.559 185.482 317.108 184.296L317.572 184.147L317.391 184.091C301.026 179.048 286.68 179.552 274.331 185.587L273.803 185.849C273.537 185.983 273.212 185.876 273.078 185.609C272.944 185.343 273.051 185.018 273.317 184.884Z" fill="white"/>
<path id="Path 208" d="M293.09 197.972C293.175 197.686 293.475 197.523 293.761 197.608C304.689 200.853 313.75 202.251 320.935 201.81C321.233 201.791 321.489 202.018 321.507 202.315C321.526 202.613 321.299 202.869 321.002 202.888C313.673 203.338 304.493 201.921 293.454 198.643C293.168 198.559 293.005 198.258 293.09 197.972Z" fill="white"/>
<path id="Path 210" fill-rule="evenodd" clip-rule="evenodd" d="M334.101 210.329C334.101 210.329 310.616 211.652 288.309 214.61C266.001 217.568 264.297 223.414 262.724 230.101C261.151 236.788 266.301 245.67 280.847 245.67C295.392 245.67 321.496 232.066 328.366 228C335.237 223.933 337.427 220.316 337.427 217.463C337.427 214.61 334.101 210.329 334.101 210.329Z" fill="#6450A1"/>
<path id="Path_12" fill-rule="evenodd" clip-rule="evenodd" d="M337.421 217.708C337.3 220.474 335.118 223.928 328.708 227.796L328.366 228C321.496 232.066 295.392 245.67 280.847 245.67C267.667 245.67 262.201 238.378 262.461 232.034C273.97 245.411 292.827 233.931 303.307 224.811L303.938 224.256C314.471 214.886 322.931 220.612 330.08 220.612C333.29 220.612 335.697 219.692 337.299 217.852L337.421 217.708Z" fill="#57419C"/>
<path id="Path 211" fill-rule="evenodd" clip-rule="evenodd" d="M312.206 288.437C312.206 288.437 301.45 240.363 302.31 230.203C303.17 220.043 316.599 218.869 322.508 222.456C328.416 226.042 330.174 236.363 330.174 257.274C330.174 278.185 326.076 283.941 324.428 286.407C322.78 288.874 312.206 288.437 312.206 288.437Z" fill="#6450A1"/>
<path id="Path 212" fill-rule="evenodd" clip-rule="evenodd" d="M340.43 212.131C337.807 212.131 335.633 212.867 336.156 217.328C336.678 221.789 342.212 233.803 346.027 236.067C349.841 238.331 348.272 227.753 346.811 222.456C345.35 217.158 343.053 212.131 340.43 212.131Z" fill="#25144F"/>
<path id="Path 609" d="M277.114 129.749L277.196 129.754C277.416 129.789 277.567 129.997 277.531 130.218C275.69 141.729 276.823 149.71 280.879 154.17C281.029 154.336 281.017 154.592 280.851 154.742C280.686 154.893 280.43 154.881 280.279 154.715C276.021 150.032 274.855 141.82 276.732 130.09C276.763 129.897 276.925 129.758 277.114 129.749Z" fill="#EF7C5B"/>
<path id="Path 610" d="M307.233 128.46C307.431 128.355 307.676 128.43 307.781 128.628C312.791 138.085 312.791 147.152 307.773 155.777C307.661 155.97 307.413 156.036 307.219 155.923C307.026 155.811 306.961 155.563 307.073 155.369C311.947 146.992 311.947 138.222 307.065 129.007C306.96 128.809 307.036 128.564 307.233 128.46Z" fill="#EF7C5B"/>
<path id="Path 611" d="M271.742 132.545C273.842 131.87 275.585 132.562 276.874 134.565C276.995 134.753 276.94 135.003 276.752 135.124C276.564 135.245 276.314 135.191 276.193 135.003C275.097 133.3 273.729 132.757 271.99 133.317C271.777 133.385 271.549 133.268 271.48 133.055C271.412 132.842 271.529 132.614 271.742 132.545Z" fill="#EF7C5B"/>
<path id="Path 618" d="M305.106 223.823C310.592 219.715 316.496 219.093 322.733 221.965C323.004 222.09 323.123 222.411 322.998 222.682C322.873 222.952 322.553 223.071 322.282 222.946C316.404 220.239 310.922 220.817 305.754 224.688C303.214 226.59 302.442 231.514 303.211 239.424L303.301 240.314C303.867 245.653 304.885 251.152 307.153 261.785L309.245 271.56C310.348 276.787 310.949 279.896 311.536 283.408C311.585 283.702 311.387 283.98 311.092 284.029C310.798 284.078 310.52 283.88 310.471 283.586L310.134 281.628C309.527 278.193 308.812 274.677 307.505 268.57L305.97 261.415C303.7 250.741 302.714 245.311 302.165 239.828L302.136 239.529C301.332 231.256 302.15 226.037 305.106 223.823Z" fill="white"/>
</g>
<path id="Path 221" fill-rule="evenodd" clip-rule="evenodd" d="M198.836 140.806C198.836 140.806 138.574 199.218 175.397 279.291C198.373 329.254 217.932 303.776 229.393 277.551C237.057 260.012 225.778 241.077 211.723 228.084C204.632 221.528 198.244 213.034 195.408 202.429C187.343 172.268 198.836 140.806 198.836 140.806Z" fill="#FFF5F5"/>
<path id="Path_13" fill-rule="evenodd" clip-rule="evenodd" d="M187.67 257.223C201.43 273.962 218.284 277.514 238.232 267.879C237.391 279.473 230.428 290.267 219.12 295.468C202.745 302.998 183.395 295.975 175.629 279.784L175.397 279.291L174.67 277.691C157.404 239.234 157.026 204.545 173.534 173.623C168.376 211.616 173.088 239.483 187.67 257.223Z" fill="#FADEDD"/>
<path id="Path 216" d="M295.793 267.758C295.954 267.507 296.288 267.434 296.539 267.595C296.762 267.739 296.845 268.018 296.747 268.255L296.702 268.342L262.427 321.756C262.265 322.007 261.931 322.08 261.68 321.919C261.457 321.775 261.375 321.496 261.472 321.259L261.518 321.172L295.793 267.758Z" fill="white"/>
<path id="Path 217" d="M247.58 284.481C247.668 284.231 247.921 284.086 248.174 284.126L248.269 284.15L310.25 305.872C310.532 305.97 310.68 306.279 310.581 306.56C310.494 306.81 310.24 306.955 309.987 306.915L309.893 306.891L247.911 285.17C247.63 285.071 247.482 284.763 247.58 284.481Z" fill="white"/>
<path id="Path 218" d="M372.911 263.853C373.044 263.623 373.32 263.528 373.561 263.614L373.649 263.655L418.813 289.749C419.071 289.898 419.16 290.228 419.011 290.487C418.878 290.716 418.602 290.811 418.361 290.725L418.273 290.684L373.109 264.591C372.851 264.441 372.762 264.111 372.911 263.853Z" fill="white"/>
<path id="Path 219" d="M404.066 263.798C404.246 263.56 404.584 263.512 404.822 263.692C405.034 263.851 405.095 264.137 404.98 264.365L404.928 264.448L382.044 294.784C381.864 295.022 381.526 295.069 381.288 294.89C381.076 294.73 381.015 294.445 381.13 294.216L381.182 294.133L404.066 263.798Z" fill="white"/>
<path id="Path 220" d="M354.372 304.009C354.491 303.781 354.751 303.673 354.992 303.739L355.08 303.771L396.191 323.144C396.461 323.271 396.577 323.593 396.45 323.863C396.337 324.103 396.07 324.221 395.822 324.155L395.731 324.121L355.088 304.968L342.721 328.588C342.598 328.823 342.326 328.929 342.082 328.853L341.992 328.816C341.757 328.693 341.65 328.421 341.727 328.177L341.764 328.087L354.372 304.009Z" fill="white"/>
<path id="Path 612" d="M172.672 273.947C172.952 273.846 173.262 273.991 173.363 274.271C178.167 287.565 187.008 295.442 199.935 297.961C200.227 298.018 200.419 298.302 200.361 298.594C200.304 298.887 200.021 299.078 199.728 299.021C186.421 296.428 177.278 288.282 172.348 274.638C172.246 274.358 172.391 274.048 172.672 273.947Z" fill="white"/>
<path id="Path 613" d="M236.604 254.274C236.895 254.208 237.184 254.391 237.249 254.682C241.769 274.833 235.083 289.049 217.253 297.169C216.981 297.293 216.661 297.173 216.538 296.901C216.414 296.63 216.534 296.31 216.805 296.186C234.161 288.282 240.605 274.58 236.195 254.919C236.13 254.628 236.313 254.339 236.604 254.274Z" fill="white"/>
<path id="Path 614" d="M361.036 237.923C361.123 237.637 361.424 237.477 361.71 237.563C376.902 242.184 389.693 247.695 400.081 254.098C400.335 254.254 400.414 254.587 400.257 254.841C400.101 255.095 399.768 255.174 399.514 255.017C389.211 248.666 376.504 243.192 361.396 238.597C361.11 238.51 360.949 238.208 361.036 237.923Z" fill="white"/>
<path id="Path 2" fill-rule="evenodd" clip-rule="evenodd" d="M136.583 397.525C136.583 397.525 131.428 362.859 136.583 362.859C141.738 362.859 147.112 387.3 147.112 387.3C147.112 387.3 152.521 371.045 158.388 373.8C164.254 376.555 158.388 398 158.388 398L136.583 397.525Z" fill="#EE5C7E"/>
<path id="Path 3" fill-rule="evenodd" clip-rule="evenodd" d="M420.268 376.296C420.268 376.296 414.592 359.071 416.484 352.486C418.376 345.9 425.889 366.6 425.889 366.6C425.889 366.6 426.658 345.9 430.405 345.9C434.152 345.9 430.405 376.296 430.405 376.296H420.268Z" fill="#EE5C7E"/>
<path id="Path 4" fill-rule="evenodd" clip-rule="evenodd" d="M473.96 407.682C473.96 407.682 470.424 391.951 473.96 391.951C477.497 391.951 481.903 401.813 481.903 401.813C481.903 401.813 483.558 387.3 487.298 387.3C491.039 387.3 487.298 407.682 487.298 407.682H473.96Z" fill="#EE5C7E"/>
</g>
</g>
</svg>
