<svg width="606" height="489" viewBox="0 0 606 489" fill="none" xmlns="http://www.w3.org/2000/svg">
<g id="Configuration">
<rect width="606" height="489" fill="white"/>
<g id="Empty State 19">
<path id="Shape" opacity="0.2" fill-rule="evenodd" clip-rule="evenodd" d="M213 184.12V252H129L129 222.534C143.04 219.229 154.712 212.553 164.015 202.508L164.521 201.957C180.691 184.12 201.157 184.12 213 184.12ZM213 130L213.001 150.905C197.477 152.515 185.493 158.957 177.049 170.232L175.426 172.412C162.706 189.583 155.971 200.165 129.002 199.163L129 130H213Z" fill="#F687B7"/>
<path id="Shape_2" opacity="0.2" fill-rule="evenodd" clip-rule="evenodd" d="M105 178C112.18 178 118 183.82 118 191C118 198.18 112.18 204 105 204C97.8203 204 92 198.18 92 191C92 183.82 97.8203 178 105 178ZM107.245 186L100 190.854L107.245 195.709V186Z" fill="#F687B7"/>
<path id="Shape_3" opacity="0.2" fill-rule="evenodd" clip-rule="evenodd" d="M504 224C496.82 224 491 229.82 491 237C491 244.18 496.82 250 504 250C511.18 250 517 244.18 517 237C517 229.82 511.18 224 504 224ZM501.755 232L509 236.854L501.755 241.709V232Z" fill="#F687B7"/>
<rect id="Rectangle" opacity="0.2" x="224" y="129" width="84" height="123" fill="#F687B7"/>
<rect id="Rectangle Copy" opacity="0.2" x="396" y="170" width="84" height="123" fill="#F687B7"/>
<rect id="Rectangle_2" opacity="0.2" x="329" y="73" width="102" height="147" fill="#F687B7"/>
<path id="Rectangle_3" opacity="0.2" fill-rule="evenodd" clip-rule="evenodd" d="M440.9 62.1H319.1V230.9H440.9V62.1ZM437.1 65.9V227.1H322.9V65.9H437.1Z" fill="#F687B7"/>
<path id="Oval" opacity="0.2" fill-rule="evenodd" clip-rule="evenodd" d="M293.582 410.972C351.24 410.972 397.982 407.547 397.982 403.322C397.982 399.097 351.24 395.672 293.582 395.672C235.923 395.672 189.182 399.097 189.182 403.322C189.182 407.547 235.923 410.972 293.582 410.972Z" fill="#F687B7"/>
<g id="Group 67">
<path id="Path 501" fill-rule="evenodd" clip-rule="evenodd" d="M278.216 142.355L281.878 157.027L292.272 164.372L301.674 157.027L303.782 143.761L278.216 142.355Z" fill="#884E4E"/>
<path id="Path" fill-rule="evenodd" clip-rule="evenodd" d="M278.595 143.876C279.702 144.961 281.025 146.171 282.563 147.505C287.601 151.876 293.101 152.762 299.063 150.164C297.206 152.965 294.534 154.99 291.048 156.239C288.694 157.082 285.979 157.586 282.905 157.752L281.878 157.027L278.595 143.876Z" fill="#33242F"/>
<path id="Path 500" fill-rule="evenodd" clip-rule="evenodd" d="M254.563 160.772C254.563 160.772 265.49 158.059 268.405 152.169C271.319 146.28 271.167 140.948 274.837 142.355C278.507 143.761 278.063 147.334 283.674 154.789C289.285 162.245 293.793 161.984 299.878 152.169C305.962 142.355 309.009 138.136 310.601 140.948C312.194 143.761 315.17 155.127 323.178 160.772C331.185 166.417 300.217 169.917 291.048 169.917C281.878 169.917 254.563 160.772 254.563 160.772Z" fill="#FFF0E7"/>
<path id="Path 499" fill-rule="evenodd" clip-rule="evenodd" d="M302.109 95.962C302.109 95.962 295.741 91.6352 288.238 90.7139C280.734 89.7925 272.089 96.9826 269.874 104.305C267.66 111.628 271.932 121.004 274.98 125.04C278.028 129.076 302.109 95.962 302.109 95.962Z" fill="#FFB682"/>
<path id="Path 496" fill-rule="evenodd" clip-rule="evenodd" d="M274.279 121.67C274.279 121.67 272.803 119.539 270.995 119.539C269.186 119.539 267.749 122.099 268.715 126.122C269.681 130.145 274.41 131.997 275.699 129.924C276.987 127.851 274.279 121.67 274.279 121.67Z" fill="#884E4E"/>
<path id="Path 496 Copy" fill-rule="evenodd" clip-rule="evenodd" d="M307.797 121.67C307.797 121.67 309.273 119.539 311.082 119.539C312.891 119.539 314.327 122.099 313.361 126.122C312.395 130.145 307.666 131.997 306.378 129.924C305.089 127.851 307.797 121.67 307.797 121.67Z" fill="#884E4E"/>
<path id="Path 498" fill-rule="evenodd" clip-rule="evenodd" d="M276.114 113.213C276.114 113.213 280.421 100.041 291.048 93.0903C301.674 86.14 308.815 86.14 313.672 88.1866C318.528 90.2331 321.241 100.174 310.754 109.856C300.266 119.539 276.114 113.213 276.114 113.213Z" fill="#F86889"/>
<path id="Path 492" fill-rule="evenodd" clip-rule="evenodd" d="M273.327 117.337C273.327 117.337 272.725 137.53 279.93 146.284C287.136 155.038 298.386 153.168 303.482 146.284C308.577 139.401 309.302 121.16 308.577 113.62C307.853 106.079 291.653 104.294 283.654 108.101C275.654 111.907 273.327 117.337 273.327 117.337Z" fill="#884E4E"/>
<path id="Path 493" d="M277.972 118.689C281.221 115.689 284.481 114.926 287.691 116.448C289.874 117.483 290.415 120.938 290.083 127.07L289.998 128.445L289.736 132.031C289.491 135.549 289.517 136.652 289.861 137.139C290.717 138.349 292.179 138.349 294.384 137.037C294.555 136.935 294.776 136.992 294.878 137.162C294.979 137.333 294.923 137.554 294.752 137.656C292.263 139.136 290.392 139.136 289.273 137.554L289.204 137.448C288.794 136.778 288.758 135.736 288.995 132.293L289.259 128.697C289.302 128.084 289.335 127.561 289.364 127.031L289.402 126.239C289.627 120.938 289.079 117.903 287.382 117.099C284.461 115.713 281.508 116.404 278.46 119.218C278.314 119.353 278.086 119.344 277.952 119.198C277.817 119.052 277.826 118.824 277.972 118.689Z" fill="#33242F"/>
<path id="Path 494" d="M298.83 140.675C298.981 140.545 299.208 140.564 299.337 140.715C299.466 140.866 299.448 141.093 299.297 141.222C295.259 144.667 290.574 145.04 285.316 142.35C285.139 142.259 285.069 142.042 285.16 141.865C285.25 141.688 285.467 141.618 285.644 141.709C290.651 144.27 295.022 143.923 298.83 140.675Z" fill="#33242F"/>
<path id="Path 495" d="M295.147 117.646C297.701 115.459 301.111 115.459 305.314 117.599C305.491 117.689 305.562 117.906 305.472 118.083C305.381 118.26 305.165 118.331 304.987 118.24C301.021 116.221 297.918 116.221 295.616 118.193C295.465 118.322 295.238 118.305 295.108 118.154C294.979 118.003 294.996 117.775 295.147 117.646Z" fill="#33242F"/>
<path id="Path_2" fill-rule="evenodd" clip-rule="evenodd" d="M281.882 121.172C282.821 121.172 283.592 123.149 283.674 125.672L282.782 125.672C282.285 125.672 281.882 126.075 281.882 126.572C281.882 127.034 282.229 127.414 282.677 127.466L282.782 127.472L283.614 127.473C283.4 129.55 282.705 131.072 281.882 131.072C280.888 131.072 280.082 128.856 280.082 126.122C280.082 123.388 280.888 121.172 281.882 121.172Z" fill="#33242F"/>
<path id="Path Copy 14" fill-rule="evenodd" clip-rule="evenodd" d="M299.882 121.172C300.821 121.172 301.592 123.149 301.674 125.672L300.782 125.672C300.285 125.672 299.882 126.075 299.882 126.572C299.882 127.034 300.229 127.414 300.677 127.466L300.782 127.472L301.614 127.473C301.4 129.55 300.705 131.072 299.882 131.072C298.888 131.072 298.082 128.856 298.082 126.122C298.082 123.388 298.888 121.172 299.882 121.172Z" fill="#33242F"/>
<path id="Path 497" fill-rule="evenodd" clip-rule="evenodd" d="M273.28 121.172C273.28 121.172 281.062 108.808 292.272 110.526C303.482 112.244 311.619 123.464 319.941 106.164C311.68 107.64 310.089 106.654 301.674 102.294C293.259 97.933 285.644 98.7563 278.216 105.241C270.788 111.726 273.28 121.172 273.28 121.172Z" fill="#33242F"/>
<path id="Path 732" d="M273.268 121.917C273.467 121.91 273.633 122.066 273.64 122.265C274.088 135.666 277.513 144.595 283.882 149.081C284.044 149.195 284.083 149.42 283.969 149.582C283.854 149.745 283.63 149.784 283.467 149.669C276.88 145.029 273.376 135.893 272.92 122.289C272.914 122.09 273.07 121.924 273.268 121.917Z" fill="#33242F"/>
<path id="Path 733" d="M308.807 116C309.006 115.996 309.171 116.153 309.175 116.352L309.197 117.62C309.426 135.211 306.135 146.166 299.254 150.469C299.086 150.574 298.863 150.523 298.758 150.355C298.653 150.186 298.704 149.964 298.872 149.858C305.637 145.628 308.856 134.47 308.455 116.368C308.451 116.169 308.608 116.004 308.807 116Z" fill="#33242F"/>
<path id="Path 734" d="M281.71 101.972C288.469 98.4107 292.984 98.3198 298.626 100.743L298.973 100.894C299.293 101.036 299.618 101.186 299.977 101.355L302.764 102.705L303.462 103.039C303.573 103.091 303.682 103.142 303.789 103.192L304.106 103.339C308.605 105.402 311.804 106.413 313.665 106.377C313.863 106.373 314.028 106.531 314.032 106.73C314.035 106.929 313.877 107.093 313.679 107.097C311.677 107.136 308.399 106.1 303.806 103.993L303.155 103.69L299.944 102.136C299.571 101.958 299.238 101.803 298.919 101.659L298.681 101.552C293.07 99.0621 288.741 99.0815 282.046 102.609C275.161 106.237 272.363 112.38 273.637 121.12C273.665 121.317 273.529 121.5 273.332 121.528C273.135 121.557 272.953 121.421 272.924 121.224C271.609 112.193 274.543 105.748 281.71 101.972Z" fill="white"/>
<path id="Path 740" d="M279.718 149L278.395 146.738C278.113 146.261 277.859 145.838 277.723 145.624C276.455 143.626 275.46 142.715 274.378 142.715C272.771 142.715 272.162 143.143 271.482 144.752L271.359 145.053C271.213 145.423 271.058 145.862 270.864 146.445L269.846 149.599C269.772 149.828 269.698 150.05 269.623 150.277C268.197 154.579 265.241 157.453 260.782 158.875C260.593 158.935 260.39 158.831 260.33 158.641C260.27 158.452 260.374 158.249 260.564 158.189C264.805 156.837 267.587 154.132 268.94 150.05L269.162 149.375L270.004 146.76C270.352 145.685 270.585 145.024 270.819 144.471C271.609 142.604 272.474 141.995 274.378 141.995C275.793 141.995 276.939 143.044 278.331 145.238L278.804 146.017C279.401 147.017 280.253 148.484 280.336 148.63C281.171 150.038 281.853 151.059 282.584 151.939C282.711 152.092 282.69 152.319 282.537 152.446C282.384 152.573 282.157 152.552 282.03 152.399C281.27 151.484 280.569 150.435 279.718 149Z" fill="#33242F"/>
<path id="Path 741" d="M311.473 142.794C311.661 142.73 311.866 142.83 311.93 143.018C314.664 151.015 318.487 156.833 323.392 160.483C323.552 160.602 323.585 160.827 323.466 160.987C323.348 161.146 323.122 161.18 322.963 161.061C317.929 157.316 314.026 151.376 311.249 143.251C311.185 143.063 311.285 142.858 311.473 142.794Z" fill="#33242F"/>
</g>
<path id="Shape_4" fill-rule="evenodd" clip-rule="evenodd" d="M281.48 367.494L281.478 367.812C281.31 378.166 272.947 386.529 262.593 386.697L262.275 386.699H240.403V367.494H281.48ZM349.959 367.494V386.699H328.087C317.586 386.699 309.054 378.272 308.884 367.812L308.882 367.494H349.959Z" fill="#FF836F"/>
<path id="Shape_5" fill-rule="evenodd" clip-rule="evenodd" d="M349.959 367.494L349.958 380.895L313.212 379.643C310.568 376.41 308.957 372.298 308.884 367.812L308.882 367.494H349.959ZM281.48 367.494L281.478 367.812C281.413 371.76 280.158 375.419 278.055 378.444L240.402 377.16L240.403 367.494H281.48Z" fill="#EC5D46"/>
<path id="Path 508" fill-rule="evenodd" clip-rule="evenodd" d="M253.088 389.372C245.69 389.372 250.344 389.372 246.603 389.372C242.861 389.372 234.098 393.721 226.613 396.08C219.127 398.439 217.676 402.788 219.728 402.788C221.78 402.788 223.091 402.788 230.213 402.788C237.335 402.788 236.451 402.788 248.468 402.788C260.486 402.788 260.486 389.372 253.088 389.372Z" fill="#33242F"/>
<path id="Path 508 Copy" fill-rule="evenodd" clip-rule="evenodd" d="M337.357 389.372C344.755 389.372 340.101 389.372 343.842 389.372C347.583 389.372 356.346 393.721 363.832 396.08C371.317 398.439 372.768 402.788 370.716 402.788C368.664 402.788 367.353 402.788 360.232 402.788C353.11 402.788 353.994 402.788 341.976 402.788C329.959 402.788 329.959 389.372 337.357 389.372Z" fill="#33242F"/>
<path id="Path 505" fill-rule="evenodd" clip-rule="evenodd" d="M394.051 196.265L405.902 187.772L417.516 206.023C417.516 206.023 406.463 212.196 396.817 215.177C387.17 218.158 394.051 196.265 394.051 196.265Z" fill="#884E4E"/>
<path id="Path 504" fill-rule="evenodd" clip-rule="evenodd" d="M344.882 237.771C344.882 237.771 377.714 236.593 402.943 222.102C398.806 207.61 394.051 196.265 394.051 196.265C394.051 196.265 363.827 206.279 348.954 201.272C334.082 196.265 344.882 237.771 344.882 237.771Z" fill="#FFF0E7"/>
<path id="Path 746" d="M393.943 195.922C394.098 195.873 394.263 195.935 394.35 196.065L394.387 196.136L399.449 209.265C399.52 209.45 399.428 209.658 399.242 209.73C399.08 209.793 398.9 209.73 398.81 209.589L398.777 209.524L393.835 196.708L393.247 196.892C379.932 200.996 368.545 203.095 359.081 203.187L358.439 203.19C358.24 203.19 358.079 203.028 358.079 202.83C358.079 202.631 358.24 202.47 358.439 202.47C368.16 202.47 379.996 200.288 393.943 195.922Z" fill="#33242F"/>
<path id="Path 745" d="M393.122 226.915C393.305 226.836 393.517 226.921 393.595 227.104C393.674 227.286 393.589 227.498 393.406 227.577C380.762 233.003 367.833 236.119 354.622 236.925C354.423 236.937 354.253 236.786 354.241 236.588C354.229 236.389 354.38 236.219 354.578 236.207C367.706 235.406 380.554 232.309 393.122 226.915Z" fill="#33242F"/>
<rect id="Rectangle_4" x="230.582" y="160.772" width="129.6" height="213.3" rx="7.2" fill="#FFDAC2"/>
<path id="Path 507" d="M230.582 226.176C230.756 226.176 230.901 226.3 230.934 226.464L230.942 226.536V355.521C230.942 355.72 230.78 355.881 230.582 355.881C230.408 355.881 230.263 355.758 230.229 355.594L230.222 355.521V226.536C230.222 226.337 230.383 226.176 230.582 226.176Z" fill="#33242F"/>
<path id="Path 742" d="M347.377 160.412C347.576 160.412 347.737 160.573 347.737 160.772C347.737 160.946 347.613 161.091 347.449 161.125L347.377 161.132H258.803C258.605 161.132 258.443 160.971 258.443 160.772C258.443 160.598 258.567 160.453 258.731 160.419L258.803 160.412H347.377Z" fill="#33242F"/>
<g id="Group 68">
<rect id="Rectangle_5" x="237.6" y="169.8" width="116.28" height="195.795" rx="4.275" fill="#F86889"/>
<path id="Shape_6" fill-rule="evenodd" clip-rule="evenodd" d="M320.002 169.8C320.002 169.611 319.849 169.458 319.66 169.458H241.875L241.664 169.463C239.212 169.573 237.258 171.596 237.258 174.075V273.801L237.265 273.87C237.297 274.026 237.435 274.143 237.6 274.143C237.789 274.143 237.942 273.99 237.942 273.801V174.075L237.947 173.873C238.053 171.795 239.771 170.142 241.875 170.142H319.66L319.729 170.135C319.885 170.103 320.002 169.965 320.002 169.8ZM353.88 196.131C354.045 196.131 354.183 196.248 354.215 196.404L354.222 196.473V361.32C354.222 363.799 352.268 365.822 349.816 365.932L349.605 365.937H296.483C296.294 365.937 296.141 365.784 296.141 365.595C296.141 365.43 296.258 365.292 296.414 365.26L296.483 365.253H349.605C351.709 365.253 353.428 363.6 353.533 361.522L353.538 361.32V196.473C353.538 196.284 353.691 196.131 353.88 196.131ZM237.6 295.619C237.765 295.619 237.903 295.737 237.935 295.892L237.942 295.961V361.32C237.942 363.424 239.595 365.143 241.673 365.248L241.875 365.253H261.33C261.519 365.253 261.672 365.406 261.672 365.595C261.672 365.76 261.555 365.898 261.399 365.93L261.33 365.937H241.875C239.396 365.937 237.373 363.983 237.263 361.531L237.258 361.32V295.961C237.258 295.773 237.411 295.619 237.6 295.619Z" fill="#33242F"/>
</g>
<path id="Path_3" fill-rule="evenodd" clip-rule="evenodd" d="M291.534 164.292L329.914 208.443C330.892 209.568 330.773 211.274 329.647 212.252L320.138 220.518C319.013 221.497 317.307 221.377 316.329 220.252L298.51 199.753C297.88 202.319 296.241 204.524 293.594 206.369C285.443 212.05 280.958 211.495 283.584 214.524L284.385 215.417C286.519 217.86 286.004 218.722 274.378 229.863C261.603 242.106 241.264 246.642 230.582 231.224C219.9 215.806 256.238 215.467 272.882 203.958L274.088 203.128C281.451 198.085 287.417 194.458 291.986 192.248L277.95 176.101C276.971 174.976 277.091 173.271 278.216 172.292L287.725 164.026C288.851 163.048 290.556 163.167 291.534 164.292Z" fill="#EA4A6F"/>
<path id="Shape_7" fill-rule="evenodd" clip-rule="evenodd" d="M302.37 268.772C302.37 268.573 302.209 268.412 302.01 268.412H249.482L249.327 268.417C248.206 268.497 247.322 269.431 247.322 270.572V284.972L247.327 285.126C247.406 286.247 248.341 287.132 249.482 287.132H262.615L262.687 287.125C262.851 287.091 262.975 286.946 262.975 286.772C262.975 286.573 262.814 286.412 262.615 286.412H249.482L249.343 286.405C248.613 286.336 248.042 285.721 248.042 284.972V270.572L248.048 270.433C248.118 269.703 248.733 269.132 249.482 269.132H302.01L302.083 269.125C302.247 269.091 302.37 268.946 302.37 268.772ZM320.034 273.191C320.001 273.027 319.856 272.904 319.682 272.904C319.483 272.904 319.322 273.065 319.322 273.264V284.972L319.315 285.111C319.245 285.841 318.63 286.412 317.882 286.412H270.701L270.628 286.419C270.464 286.453 270.341 286.598 270.341 286.772C270.341 286.971 270.502 287.132 270.701 287.132H317.882L318.036 287.127C319.157 287.048 320.042 286.113 320.042 284.972V273.264L320.034 273.191Z" fill="#33242F"/>
<rect id="Rectangle Copy 7" x="272.882" y="294.872" width="72" height="18" rx="1.8" fill="#497886"/>
<rect id="Rectangle_6" x="247.682" y="329.972" width="21.6" height="21.6" fill="#FFB682"/>
<path id="Shape_8" fill-rule="evenodd" clip-rule="evenodd" d="M261.58 329.972C261.58 329.773 261.419 329.612 261.22 329.612H247.682L247.609 329.619C247.445 329.653 247.322 329.798 247.322 329.972V351.572L247.329 351.645C247.363 351.809 247.508 351.932 247.682 351.932H260.902L260.974 351.925C261.138 351.891 261.262 351.746 261.262 351.572L261.254 351.5C261.221 351.335 261.076 351.212 260.902 351.212L248.041 351.212V330.332L261.22 330.332L261.292 330.325C261.456 330.291 261.58 330.146 261.58 329.972ZM269.634 329.9C269.601 329.735 269.456 329.612 269.282 329.612C269.083 329.612 268.922 329.773 268.922 329.972V347.321L268.929 347.393C268.963 347.557 269.108 347.681 269.282 347.681C269.48 347.681 269.642 347.52 269.642 347.321V329.972L269.634 329.9Z" fill="#33242F"/>
<rect id="Rectangle Copy 8" x="285.482" y="329.972" width="21.6" height="21.6" fill="#497886"/>
<path id="Rectangle Copy 9" fill-rule="evenodd" clip-rule="evenodd" d="M323.282 329.612H344.882C345.08 329.612 345.242 329.773 345.242 329.972V351.572C345.242 351.771 345.08 351.932 344.882 351.932H323.282C323.083 351.932 322.922 351.771 322.922 351.572V329.972C322.922 329.773 323.083 329.612 323.282 329.612ZM344.521 351.212V330.332H323.641V351.212H344.521Z" fill="#33242F"/>
<rect id="Rectangle_7" x="287.963" y="157.755" width="63.9" height="18" rx="2.7" transform="rotate(49 287.963 157.755)" fill="#FFB682"/>
<path id="Shape_9" fill-rule="evenodd" clip-rule="evenodd" d="M316.896 191.038C317.046 190.908 317.062 190.681 316.932 190.531L290.006 159.556L289.884 159.424C288.76 158.273 286.919 158.185 285.689 159.254L277.167 166.663L277.117 166.716C277.015 166.849 277.017 167.039 277.131 167.171C277.262 167.321 277.489 167.336 277.639 167.206L286.161 159.798L286.286 159.697C287.259 158.96 288.65 159.094 289.463 160.028L316.388 191.003L316.441 191.053C316.574 191.155 316.765 191.153 316.896 191.038ZM328.216 207.902C329.367 206.778 329.455 204.937 328.385 203.707L325.077 199.901L325.024 199.851C324.891 199.749 324.701 199.751 324.569 199.866C324.419 199.996 324.404 200.223 324.534 200.373L327.842 204.179L327.943 204.303C328.68 205.276 328.546 206.668 327.611 207.48L318.102 215.747L317.977 215.848C317.004 216.584 315.613 216.45 314.801 215.516L278.877 174.19L278.824 174.14C278.691 174.039 278.501 174.041 278.369 174.155C278.219 174.285 278.203 174.513 278.334 174.663L314.257 215.988L314.379 216.12C315.503 217.272 317.344 217.359 318.574 216.29L328.084 208.024L328.216 207.902Z" fill="#33242F"/>
<path id="Path 503" fill-rule="evenodd" clip-rule="evenodd" d="M266.684 197.221C266.684 197.221 275.805 185.782 278.216 182.783C280.628 179.783 290.452 177.929 294.351 176.225C298.251 174.522 296.024 179.811 289.525 182.783C283.026 185.754 286.616 184.151 290.999 190.686C295.382 197.221 295.896 196.924 292.71 201.472C289.525 206.02 275.645 213.071 275.645 213.071L266.684 197.221Z" fill="#884E4E"/>
<path id="Path 502" fill-rule="evenodd" clip-rule="evenodd" d="M230.582 177.449C230.582 177.449 231.86 198.147 243.889 204.487C255.918 210.828 266.684 197.221 266.684 197.221L279.922 215.86C279.922 215.86 269.448 236.078 247.924 237.68C226.4 239.282 212.235 219.474 215.592 201.699C218.948 183.923 230.582 177.449 230.582 177.449Z" fill="#FFF0E7"/>
<path id="Oval_2" fill-rule="evenodd" clip-rule="evenodd" d="M254.882 197.672C261.343 197.672 266.582 192.434 266.582 185.972C266.582 179.51 261.343 174.272 254.882 174.272C248.42 174.272 243.182 179.51 243.182 185.972C243.182 192.434 248.42 197.672 254.882 197.672Z" fill="#77B5AA"/>
<path id="Oval_3" fill-rule="evenodd" clip-rule="evenodd" d="M242.822 185.972C242.822 179.312 248.221 173.912 254.882 173.912C261.542 173.912 266.942 179.312 266.942 185.972C266.942 192.633 261.542 198.032 254.882 198.032C248.221 198.032 242.822 192.633 242.822 185.972ZM266.222 185.972C266.222 179.709 261.145 174.632 254.882 174.632C248.619 174.632 243.542 179.709 243.542 185.972C243.542 192.235 248.619 197.312 254.882 197.312C261.145 197.312 266.222 192.235 266.222 185.972Z" fill="#33242F"/>
<rect id="Rectangle_8" x="403.354" y="174.617" width="74.7" height="18" rx="1.8" transform="rotate(43 403.354 174.617)" fill="#77B5AA"/>
<path id="Shape_10" fill-rule="evenodd" clip-rule="evenodd" d="M452.05 220.028C452.186 219.882 452.178 219.654 452.032 219.519L404.916 175.582L404.799 175.48C403.925 174.774 402.641 174.854 401.863 175.688L392.042 186.22L391.941 186.336C391.234 187.21 391.314 188.494 392.149 189.273L417.961 213.343L418.019 213.387C418.162 213.474 418.351 213.452 418.47 213.325C418.605 213.18 418.597 212.952 418.452 212.816L392.64 188.746L392.543 188.647C392.056 188.097 392.058 187.258 392.569 186.711L402.389 176.179L402.489 176.082C403.038 175.596 403.877 175.598 404.425 176.108L451.541 220.045L451.599 220.089C451.742 220.177 451.932 220.155 452.05 220.028ZM455.289 228.971C455.377 228.828 455.355 228.639 455.227 228.521C455.082 228.385 454.854 228.393 454.719 228.538L446.674 237.165L446.575 237.262C446.026 237.748 445.186 237.746 444.639 237.236L424.316 218.284L424.258 218.24C424.115 218.153 423.925 218.175 423.807 218.302C423.671 218.447 423.679 218.675 423.825 218.811L444.148 237.763L444.264 237.864C445.138 238.57 446.422 238.491 447.201 237.656L455.245 229.029L455.289 228.971Z" fill="#33242F"/>
<path id="Path 506" fill-rule="evenodd" clip-rule="evenodd" d="M397.982 196.792C397.982 196.792 407.997 192.92 409.157 194.56C410.317 196.199 400.977 201.424 400.977 201.424" fill="#884E4E"/>
<path id="Path 735" d="M215.078 203.599L215.151 203.602C215.348 203.63 215.485 203.812 215.456 204.009C214.841 208.29 215.979 215.613 218.928 221.654C223.042 230.08 230.151 235.765 240.639 237.415C256.304 239.881 269.28 232.654 279.614 215.673C279.717 215.503 279.939 215.449 280.109 215.553C280.279 215.656 280.332 215.878 280.229 216.047L279.597 217.068C269.222 233.553 256.184 240.591 240.527 238.127C229.796 236.438 222.494 230.599 218.281 221.97C215.268 215.799 214.108 208.33 214.744 203.907C214.768 203.735 214.911 203.609 215.078 203.599Z" fill="#33242F"/>
<path id="Path 736" d="M230.398 177.562C230.63 177.425 230.925 177.582 230.941 177.851C231.584 188.922 234.753 196.905 240.432 201.823C246.08 206.713 252.469 207.319 259.674 203.637C259.851 203.547 260.068 203.617 260.159 203.794C260.249 203.971 260.179 204.188 260.002 204.279C252.541 208.091 245.836 207.455 239.96 202.367C234.329 197.491 231.114 189.731 230.304 179.108L230.259 178.488L229.913 178.706C223.887 182.557 219.637 188.38 217.161 196.192L216.991 196.74C216.933 196.93 216.732 197.038 216.542 196.98C216.352 196.922 216.244 196.721 216.302 196.531C218.913 187.91 223.614 181.581 230.398 177.562Z" fill="#33242F"/>
<path id="Path 737" d="M248.176 160.412C248.375 160.412 248.536 160.573 248.536 160.772C248.536 160.946 248.413 161.091 248.249 161.125L248.176 161.132H237.782C234.083 161.132 231.07 164.068 230.946 167.737L230.942 167.972V177.872C230.942 178.071 230.781 178.232 230.582 178.232C230.408 178.232 230.263 178.109 230.229 177.945L230.222 177.872V167.972C230.222 163.879 233.475 160.545 237.537 160.416L237.782 160.412H248.176Z" fill="#33242F"/>
<path id="Path 738" d="M360.182 316.03C360.356 316.03 360.501 316.154 360.534 316.318L360.542 316.39V366.872C360.542 370.965 357.288 374.299 353.226 374.428L352.982 374.432H238.522C238.323 374.432 238.162 374.271 238.162 374.072C238.162 373.898 238.286 373.753 238.45 373.719L238.522 373.712H352.982C356.681 373.712 359.694 370.776 359.818 367.107L359.822 366.872V316.39C359.822 316.192 359.983 316.03 360.182 316.03Z" fill="#33242F"/>
<path id="Path 739" d="M360.182 177.512C360.356 177.512 360.501 177.635 360.534 177.8L360.542 177.872V303.872C360.542 304.071 360.38 304.232 360.182 304.232C360.008 304.232 359.863 304.109 359.829 303.945L359.822 303.872V177.872C359.822 177.673 359.983 177.512 360.182 177.512Z" fill="#33242F"/>
<path id="Path 743" d="M406.393 193.906L406.845 193.829C408.663 193.545 409.645 193.764 409.645 194.691C409.645 196.439 407.686 197.947 401.86 201.329L401.31 201.646L401.28 201.865C401.017 203.674 400.607 205.045 400.04 205.981L399.917 206.175C399.805 206.34 399.582 206.384 399.417 206.273C399.252 206.162 399.208 205.938 399.319 205.773C399.918 204.884 400.357 203.416 400.62 201.378C400.634 201.266 400.7 201.168 400.797 201.112L402.154 200.323C407.083 197.428 408.925 195.971 408.925 194.691C408.925 194.43 408.252 194.316 406.746 194.575L406.525 194.614C404.664 194.96 401.853 195.8 398.102 197.132C397.915 197.198 397.709 197.1 397.642 196.913C397.576 196.726 397.674 196.52 397.861 196.453L398.788 196.128C402.112 194.971 404.645 194.231 406.393 193.906Z" fill="#33242F"/>
<path id="Path 744" d="M293.985 175.751C295.047 175.366 295.689 175.29 296.31 175.566C297.193 175.958 296.959 177.286 295.955 178.696C294.928 180.14 293.226 181.542 291.043 182.615L290.653 182.801C289.899 183.15 287.981 184.013 287.735 184.127L287.377 184.296C286.891 184.531 286.624 184.687 286.484 184.813C286.408 184.881 286.394 184.894 286.417 184.946L286.442 184.994C286.477 185.059 286.534 185.14 286.621 185.248L286.792 185.451L289.489 188.545C289.596 188.67 289.694 188.786 289.78 188.888L289.862 188.985C291.166 190.548 292.452 192.235 293.863 194.278C297.277 199.221 290.509 206.774 277.515 212.449C277.333 212.528 277.121 212.445 277.041 212.263C276.962 212.081 277.045 211.868 277.227 211.789C289.85 206.276 296.302 199.076 293.271 194.688C292.012 192.865 290.855 191.33 289.696 189.914L289.132 189.237C288.616 188.628 287.761 187.649 287.19 187L286.14 185.797C285.982 185.609 285.88 185.469 285.808 185.335C285.599 184.946 285.661 184.587 286 184.28C286.205 184.094 286.515 183.912 287.069 183.645L288.079 183.18C288.778 182.864 289.838 182.384 290.351 182.148C292.611 181.104 294.356 179.701 295.369 178.279C296.14 177.195 296.289 176.345 296.017 176.224C295.644 176.058 295.205 176.094 294.431 176.357L294.23 176.428C294.319 176.395 291.885 177.356 290.738 177.75L289.639 178.104C288.49 178.47 286.679 179.043 285.736 179.35L285.441 179.446C284.268 179.835 283.266 180.188 282.404 180.523L282.088 180.648C280.467 181.297 279.435 181.864 279.133 182.284L278.802 182.73C277.81 184.038 275.517 186.896 271.915 191.314C271.79 191.469 271.563 191.492 271.409 191.366C271.255 191.24 271.232 191.014 271.357 190.86L274.66 186.791C276.758 184.193 278.055 182.549 278.548 181.863C278.963 181.287 280.063 180.683 281.82 179.98C282.662 179.643 283.636 179.292 284.779 178.908L285.878 178.547C287.34 178.076 289.947 177.255 290.388 177.108L290.638 177.022C291.81 176.612 294.055 175.725 293.985 175.751Z" fill="#33242F"/>
</g>
<path id="Path_4" opacity="0.2" fill-rule="evenodd" clip-rule="evenodd" d="M184.75 331.434C195.144 321.895 202.765 317.126 207.614 317.126C212.463 317.126 206.858 327.529 190.8 348.337L192.377 347.527C209.114 338.993 217.483 336.961 217.483 341.428C217.483 345.654 209.997 353.063 195.024 363.656L218 363.656V380.656H134V363.656L153.224 363.656L152.334 362.585C137.968 345.242 132.045 334.859 134.564 331.434C137.255 327.775 144.204 331.107 155.408 341.428L154.06 338.715C139.808 309.882 134.655 294.205 138.601 291.685C142.67 289.087 150.41 296.368 161.823 313.528L162.28 311.819C169.744 284.165 177.235 269.585 184.75 268.078C192.419 266.541 192.419 287.659 184.75 331.434Z" fill="#F687B7"/>
<path id="Path 202" opacity="0.2" fill-rule="evenodd" clip-rule="evenodd" d="M393.624 380.656C393.624 380.656 382.242 341.804 387.933 338.646C393.624 335.489 404.351 365.595 404.351 365.595C404.351 365.595 406.509 332.626 421.804 324.328C437.1 316.03 417.516 367.494 417.516 367.494C417.516 367.494 433.594 345.151 440.9 351.932C448.206 358.713 431 380.895 431 380.895L393.624 380.656Z" fill="#F687B7"/>
</g>
</svg>
