<svg width="606" height="489" viewBox="0 0 606 489" fill="none" xmlns="http://www.w3.org/2000/svg">
<g id="Document">
<rect width="606" height="489" fill="white"/>
<g id="Empty State 17">
<path id="Path" opacity="0.12" fill-rule="evenodd" clip-rule="evenodd" d="M322 139.312H330V131.312H324V123.312H376V131.312H382V139.312H374V147.312H396C391.582 147.312 388 143.73 388 139.312V123.312L401.705 123.311C401.229 120.635 400.704 117.978 400.128 115.34C398.181 115.713 395.993 114.883 394.979 112.517C393.615 109.337 393.888 104.219 395.799 97.164C401.158 102.957 403.837 107.514 403.837 110.834C403.837 112.928 402.633 114.401 401.086 115.052L401.204 115.584C401.756 118.142 402.262 120.718 402.721 123.311L404.691 123.311C405.458 117.653 406.472 112.395 407.734 107.537C404.64 105.803 402.867 101.328 404.394 95.7483C406.323 88.7036 411.443 84.1208 419.755 82C423.328 91.3246 422.671 98.8093 417.782 104.454C414.692 108.022 411.315 108.914 408.659 107.96C407.437 112.69 406.451 117.807 405.7 123.311L424 123.312V139.312C424 143.73 420.418 147.312 416 147.312H431V157.312H418L416.119 181.006C416.052 181.85 415.347 182.501 414.5 182.501C413.653 182.501 412.948 181.85 412.881 181.006L411 157.312H333L331.119 181.006C331.052 181.85 330.347 182.501 329.5 182.501C328.653 182.501 327.948 181.85 327.881 181.006L326 157.312H313V147.312H322V139.312Z" fill="#FFB8B8"/>
<path id="Path_2" opacity="0.12" fill-rule="evenodd" clip-rule="evenodd" d="M452.53 264.797L470.802 217.359C471 216.844 470.743 216.265 470.228 216.067C470.113 216.023 469.992 216 469.869 216H390.758C388.69 216 386.835 217.273 386.092 219.203L369.223 263H343.825C342.445 263 341.325 264.119 341.325 265.5C341.325 266.881 342.445 268 343.825 268H290V277H315V370H319V277H471V370H475V277H501V268H447.864C449.932 268 451.787 266.727 452.53 264.797Z" fill="#FFB8B8"/>
<path id="Oval" opacity="0.12" fill-rule="evenodd" clip-rule="evenodd" d="M287 406C381.441 406 458 400.627 458 394C458 387.373 381.441 382 287 382C192.559 382 116 387.373 116 394C116 400.627 192.559 406 287 406Z" fill="#FFB8B8"/>
<path id="Shape" opacity="0.12" fill-rule="evenodd" clip-rule="evenodd" d="M216 187.2H250.8V256.8H216V187.2ZM296.4 187.2V256.8H261.6V187.2H296.4ZM296.4 176.4H261.6V102H296.4V176.4ZM250.8 102V176.4H216V102H250.8Z" fill="#FFB8B8"/>
<path id="Shape_2" opacity="0.12" fill-rule="evenodd" clip-rule="evenodd" d="M160.992 119.622C161.269 119.814 161.516 120.045 161.727 120.306L161.878 120.509L177.601 143.227L188 143.227V211.227H130V143.227L140.398 143.227L156.122 120.509C157.222 118.919 159.402 118.522 160.992 119.622ZM178 153.227H140V201.227H178V153.227ZM157.046 120.94L156.944 121.078L141.615 143.227H176.384L161.056 121.078C160.885 120.83 160.67 120.616 160.423 120.445C159.335 119.692 157.859 119.921 157.046 120.94ZM159 120.227C160.105 120.227 161 121.123 161 122.227C161 123.332 160.105 124.227 159 124.227C157.895 124.227 157 123.332 157 122.227C157 121.123 157.895 120.227 159 120.227Z" fill="#FFB8B8"/>
<path id="Path 464" fill-rule="evenodd" clip-rule="evenodd" d="M265.829 214.166C265.829 214.166 254.021 212.403 243.783 217.414C233.545 222.426 218.811 236.211 218.811 240.369C218.811 244.528 227.001 249.43 232.956 246.979C238.912 244.528 247.441 237.246 247.441 237.246L245.292 256.968H307.291C307.291 256.968 305.568 217.987 295.752 216.076C285.936 214.166 277.99 214.166 277.99 214.166H265.829Z" fill="#CC5D5E"/>
<path id="Path_3" fill-rule="evenodd" clip-rule="evenodd" d="M256.513 213.85C259.3 213.605 262.16 213.675 265.094 214.063L265.829 214.166H277.99C280.037 214.166 282.178 214.261 284.412 214.451L283.78 215.999C278.648 228.472 274.966 234.681 272.734 234.628C270.345 234.571 264.767 227.662 256.001 213.899L256.513 213.85Z" fill="#E6AD9A"/>
<path id="Path 463" fill-rule="evenodd" clip-rule="evenodd" d="M261.99 214.479C261.99 214.479 270.017 225.792 272.085 228.12C274.154 230.448 277.853 222.498 278.942 215.198C279.164 213.707 279.775 208.817 279.164 207.605C277.351 204.014 270.364 204.462 261.182 206.592C260.526 206.744 261.99 214.479 261.99 214.479Z" fill="#774537"/>
<g id="Group 65">
<path id="Path 459" fill-rule="evenodd" clip-rule="evenodd" d="M254.539 197.326C254.539 197.326 256.584 193.818 251.817 187.781C247.049 181.744 252.29 173.335 260.282 169.756C268.274 166.176 273.618 161.539 280.479 171.038C291.72 171.824 289.982 179.593 289.982 181.614C289.982 183.636 286.137 197.326 286.137 197.326H254.539Z" fill="#3F272E"/>
<path id="Path 458" fill-rule="evenodd" clip-rule="evenodd" d="M257.073 193.747C257.073 193.747 256.406 191.824 254.025 192.391C251.644 192.958 249.258 199.864 257.972 202.02C266.685 204.176 257.073 193.747 257.073 193.747Z" fill="#A36348"/>
<path id="Path 458 Copy" fill-rule="evenodd" clip-rule="evenodd" d="M283.885 193.747C283.885 193.747 284.551 191.824 286.932 192.391C289.313 192.958 291.7 199.864 282.986 202.02C274.272 204.176 283.885 193.747 283.885 193.747Z" fill="#A36348"/>
<path id="Path 457" fill-rule="evenodd" clip-rule="evenodd" d="M269.57 180.869C261.546 183.62 256.406 185.25 256.406 192.943C256.406 200.636 257.87 210.066 264.248 214.355C270.627 218.644 276.073 215.794 277.822 214.355C279.572 212.915 283.236 209.827 284.332 197.272C285.428 184.717 282.08 183.41 280.248 181.785C278.416 180.159 277.594 178.117 269.57 180.869Z" fill="#A36348"/>
<path id="Path 460" d="M260.026 190.974C263.285 188.717 266.109 188.717 268.346 191.031C269.347 192.068 269.663 193.62 269.663 196.293L269.653 197.188L269.617 198.812C269.587 200.704 269.656 201.526 269.933 202.197C270.281 203.042 270.97 203.206 272.459 202.54C272.686 202.439 272.952 202.54 273.054 202.767C273.155 202.994 273.054 203.26 272.827 203.362C270.918 204.215 269.669 203.917 269.101 202.54C268.73 201.641 268.672 200.683 268.728 198.225L268.758 196.941L268.763 196.284C268.76 193.855 268.481 192.467 267.698 191.657C265.797 189.689 263.462 189.689 260.538 191.714C260.334 191.856 260.053 191.805 259.912 191.6C259.771 191.396 259.821 191.116 260.026 190.974Z" fill="#774537"/>
<path id="Path 461" d="M273.593 191.086C275.905 188.706 278.866 188.706 282.331 191.025C282.538 191.164 282.593 191.443 282.455 191.65C282.317 191.856 282.037 191.911 281.831 191.773C278.699 189.677 276.216 189.677 274.239 191.713C274.066 191.891 273.781 191.895 273.603 191.722C273.424 191.549 273.42 191.264 273.593 191.086Z" fill="#774537"/>
<path id="Path 462" d="M275.674 206.238C275.869 206.084 276.152 206.118 276.306 206.313C276.46 206.508 276.426 206.791 276.231 206.945C273.404 209.175 270.069 209.648 266.284 208.37C266.048 208.29 265.922 208.035 266.001 207.799C266.081 207.564 266.336 207.437 266.572 207.517C270.078 208.701 273.094 208.273 275.674 206.238Z" fill="#774537"/>
<path id="Path_4" fill-rule="evenodd" clip-rule="evenodd" d="M262.982 193.191C263.889 193.191 264.639 194.365 264.764 195.892L263.882 195.891C263.385 195.891 262.982 196.294 262.982 196.791C262.982 197.253 263.329 197.633 263.777 197.685L263.882 197.691L264.609 197.692C264.32 198.756 263.7 199.491 262.982 199.491C261.988 199.491 261.182 198.081 261.182 196.341C261.182 194.602 261.988 193.191 262.982 193.191Z" fill="#5C2924"/>
<path id="Path Copy 13" fill-rule="evenodd" clip-rule="evenodd" d="M277.382 193.191C278.289 193.191 279.039 194.365 279.164 195.892L278.282 195.891C277.785 195.891 277.382 196.294 277.382 196.791C277.382 197.253 277.729 197.633 278.177 197.685L278.282 197.691L279.009 197.692C278.72 198.756 278.1 199.491 277.382 199.491C276.388 199.491 275.582 198.081 275.582 196.341C275.582 194.602 276.388 193.191 277.382 193.191Z" fill="#5C2924"/>
<path id="Path 709" d="M257 189.29C257.248 189.309 257.433 189.525 257.414 189.773C256.712 198.979 258.098 206.119 261.554 211.201C261.694 211.406 261.641 211.686 261.435 211.826C261.229 211.966 260.95 211.913 260.81 211.707C257.225 206.435 255.8 199.098 256.517 189.704C256.536 189.456 256.752 189.271 257 189.29Z" fill="#774537"/>
<path id="Path 710" d="M284.524 191.812C284.773 191.812 284.974 192.013 284.974 192.262C284.974 207.369 280.802 215.814 272.392 217.434C272.148 217.481 271.912 217.321 271.865 217.077C271.818 216.833 271.978 216.597 272.222 216.55C280.101 215.032 284.074 206.99 284.074 192.262C284.074 192.013 284.276 191.812 284.524 191.812Z" fill="#774537"/>
</g>
<path id="Path 465" d="M249.113 224.551C249.189 224.285 249.465 224.131 249.731 224.206C249.996 224.281 250.151 224.558 250.075 224.824C249.366 227.322 248.652 231.487 247.937 237.307C247.904 237.581 247.654 237.776 247.38 237.742C247.106 237.708 246.911 237.459 246.945 237.185L247.089 236.034C247.762 230.764 248.435 226.94 249.113 224.551Z" fill="#AF2E2F"/>
<path id="Path_5" fill-rule="evenodd" clip-rule="evenodd" d="M346.5 237.415C350.09 237.415 353 240.325 353 243.915C353 247.505 355.91 250.415 359.5 250.415H396C397.657 250.415 399 251.758 399 253.415C399 253.415 399 334.295 399 374.735C399 380.628 373.811 392.415 373.811 392.415C373.811 394.072 372.468 395.415 370.811 395.415H167C165.343 395.415 164 394.072 164 392.415V253.415C164 251.758 165.343 250.415 167 250.415H248.5C252.09 250.415 255 247.505 255 243.915C255 240.325 257.91 237.415 261.5 237.415H346.5Z" fill="#E6AD9A"/>
<path id="Path_6" fill-rule="evenodd" clip-rule="evenodd" d="M223.534 250.416C228.247 255.338 228.696 257.799 224.882 257.799C219.179 257.799 214.575 255.338 211.071 250.415L223.534 250.416Z" fill="#DE8F75"/>
<path id="Path 719" d="M241.413 249.915C241.689 249.915 241.913 250.139 241.913 250.415C241.913 250.661 241.736 250.865 241.503 250.907L241.413 250.915H170.423C170.147 250.915 169.923 250.691 169.923 250.415C169.923 250.17 170.1 249.966 170.333 249.923L170.423 249.915H241.413Z" fill="#AF2E2F"/>
<path id="Path_7" fill-rule="evenodd" clip-rule="evenodd" d="M291.008 237.414L315.865 237.416L316.106 238.783C319.91 260.811 317.33 267.7 308.367 259.452C299.713 251.488 293.927 244.142 291.008 237.414Z" fill="#DE8F75"/>
<path id="Path 470" fill-rule="evenodd" clip-rule="evenodd" d="M215.068 245.292C215.068 245.292 214.704 237.511 222.176 235.337C229.649 233.163 233.955 237.144 235.382 240.315C236.809 243.485 235.521 252.243 228.485 253.179C221.449 254.114 215.068 245.292 215.068 245.292Z" fill="#CC5D5E"/>
<g id="Group 55">
<path id="Path 466" fill-rule="evenodd" clip-rule="evenodd" d="M233.022 242.54C232.471 240.545 232.163 238.799 224.538 238.799C216.913 238.799 214.06 239.232 214.06 244.535C214.06 249.838 220.015 255.401 223.541 256.968C227.068 258.534 228.782 255.863 230.295 252.54C231.808 249.217 233.573 244.535 233.022 242.54Z" fill="#A36348"/>
<path id="Path 467" d="M217.704 243.874C217.973 243.81 218.243 243.975 218.307 244.244C219.085 247.494 220.974 250.975 223.981 254.682C224.155 254.896 224.122 255.211 223.908 255.385C223.693 255.559 223.378 255.526 223.204 255.312C220.11 251.497 218.151 247.887 217.335 244.477C217.27 244.208 217.436 243.938 217.704 243.874Z" fill="#774537"/>
<path id="Path 468" d="M228.523 243.862C228.798 243.883 229.005 244.123 228.984 244.398L228.927 245.029L228.885 245.436C228.799 246.256 228.685 247.17 228.543 248.154C228.134 250.965 227.571 253.777 226.826 256.406C226.713 256.803 226.597 257.193 226.477 257.577C226.395 257.84 226.115 257.987 225.851 257.905C225.587 257.823 225.44 257.542 225.523 257.279C225.64 256.904 225.753 256.522 225.864 256.133C226.595 253.551 227.151 250.781 227.553 248.01C227.647 247.363 227.728 246.747 227.797 246.169L227.891 245.331C227.942 244.848 227.973 244.504 227.987 244.322C228.008 244.047 228.248 243.841 228.523 243.862Z" fill="#774537"/>
<path id="Path 469" d="M223.542 240.773C223.787 240.748 224.007 240.904 224.073 241.131L224.09 241.22L225.379 254.065C225.407 254.339 225.207 254.584 224.932 254.612C224.688 254.636 224.467 254.481 224.401 254.253L224.384 254.164L223.095 241.32C223.067 241.045 223.268 240.8 223.542 240.773Z" fill="#774537"/>
<path id="Path 714" d="M214.209 240.976C216.385 237.985 224.143 236.914 229.657 238.845C233.606 240.228 234.361 243.873 232.022 249.491C231.916 249.746 231.623 249.867 231.368 249.761C231.113 249.655 230.993 249.362 231.099 249.107C233.244 243.953 232.621 240.943 229.327 239.789C224.184 237.988 216.886 238.995 215.017 241.564C214.855 241.788 214.542 241.837 214.319 241.674C214.096 241.512 214.046 241.199 214.209 240.976Z" fill="#774537"/>
</g>
<path id="Path 716" fill-rule="evenodd" clip-rule="evenodd" d="M164.611 393.415L185.848 258.947C186.078 257.489 187.335 256.415 188.811 256.415H410.218C412.822 256.415 414.732 258.864 414.097 261.39L380.912 393.415H164.611Z" fill="#4B5B5E"/>
<path id="Rectangle" fill-rule="evenodd" clip-rule="evenodd" d="M205.563 261.307H429.979C432.188 261.307 433.979 263.098 433.979 265.307C433.979 265.659 433.933 266.01 433.841 266.35L400.397 390.24C399.573 393.294 396.802 395.415 393.639 395.415H166.611C165.507 395.415 164.611 394.52 164.611 393.415C164.611 393.239 164.635 393.064 164.681 392.894L198.805 266.483C199.629 263.429 202.4 261.307 205.563 261.307Z" fill="#F9F1E6"/>
<path id="Path_8" fill-rule="evenodd" clip-rule="evenodd" d="M180.326 334.936C230.765 324.186 268.674 360.827 313.372 374.57C341.46 383.206 373.524 377.109 409.564 356.28L400.397 390.24C399.573 393.294 396.802 395.415 393.639 395.415H166.611C165.507 395.415 164.611 394.52 164.611 393.415C164.611 393.239 164.635 393.064 164.681 392.894L180.326 334.936Z" fill="#FEE6C4"/>
<path id="Path_9" fill-rule="evenodd" clip-rule="evenodd" d="M323.545 261.307L325.192 270.56C320.382 268.612 316.442 265.528 313.372 261.308L323.545 261.307Z" fill="#EDCDA0"/>
<path id="Path 472" fill-rule="evenodd" clip-rule="evenodd" d="M309.511 242.906L314.603 261.307H318.148C318.148 261.307 323.644 270.56 325.093 270.56C326.543 270.56 327.632 266.197 327.632 266.197C327.632 266.197 328.811 268.799 329.7 267.498C330.589 266.197 330.355 265.035 331.922 263.578C333.489 262.121 334.281 250.991 333.101 248.793C331.922 246.596 328.344 241.056 328.344 241.056L321.59 237.415H308.367L309.511 242.906Z" fill="#A36348"/>
<path id="Path 471" fill-rule="evenodd" clip-rule="evenodd" d="M295.752 216.076C295.752 216.076 295.446 226.682 299.295 235.337C303.145 243.992 306.84 247.935 308.208 247.935C309.575 247.935 312.186 239.732 318.108 239.732C324.03 239.732 327.141 241.056 328.344 241.056C329.547 241.056 324.413 232.036 316.654 225.666C308.895 219.297 295.752 216.076 295.752 216.076Z" fill="#CC5D5E"/>
<path id="Path 473" d="M314.625 253.532C314.849 253.431 315.108 253.507 315.242 253.702L315.287 253.781L318.603 261.101C318.717 261.352 318.606 261.649 318.354 261.763C318.131 261.864 317.872 261.787 317.737 261.592L317.693 261.514L314.376 254.194C314.262 253.942 314.373 253.646 314.625 253.532Z" fill="#774537"/>
<path id="Path 474" d="M320.851 253.516C321.112 253.424 321.397 253.561 321.489 253.821C323.583 259.762 324.982 264.652 325.684 268.497C325.734 268.769 325.554 269.029 325.282 269.079C325.01 269.128 324.75 268.948 324.7 268.677C324.009 264.891 322.624 260.048 320.546 254.154C320.454 253.893 320.591 253.608 320.851 253.516Z" fill="#774537"/>
<path id="Path 475" d="M326.91 250.973C327.181 250.923 327.442 251.102 327.493 251.373C328.248 255.437 328.46 260.387 328.132 266.225C328.116 266.501 327.88 266.712 327.604 266.697C327.329 266.681 327.118 266.445 327.133 266.169C327.457 260.405 327.249 255.533 326.509 251.556C326.459 251.284 326.638 251.023 326.91 250.973Z" fill="#774537"/>
<path id="Path 476" d="M331.4 253.487C331.676 253.487 331.9 253.711 331.9 253.987C331.9 256.546 331.697 260.202 331.29 264.958C331.267 265.233 331.025 265.437 330.749 265.414C330.474 265.39 330.27 265.148 330.294 264.873L330.479 262.6C330.76 258.963 330.9 256.092 330.9 253.987C330.9 253.711 331.124 253.487 331.4 253.487Z" fill="#774537"/>
<path id="Path 711" d="M297.002 228.601C297.268 228.527 297.543 228.683 297.617 228.949C299.242 234.817 301.634 239.974 304.791 244.426C304.951 244.651 304.898 244.963 304.673 245.123C304.448 245.283 304.136 245.229 303.976 245.004C300.749 240.456 298.309 235.192 296.653 229.216C296.58 228.95 296.736 228.675 297.002 228.601Z" fill="#AF2E2F"/>
<path id="Path 712" d="M218.575 236.216C222.704 234.001 226.698 233.545 230.526 234.865C230.787 234.955 230.926 235.239 230.836 235.5C230.746 235.761 230.461 235.9 230.2 235.81C226.648 234.585 222.941 235.009 219.048 237.097C218.804 237.228 218.501 237.137 218.371 236.893C218.24 236.65 218.331 236.347 218.575 236.216Z" fill="#AF2E2F"/>
<path id="Path 713" d="M233.775 237.603C234.002 237.445 234.313 237.501 234.471 237.728C237.57 242.185 236.933 246.987 232.629 252.004C232.449 252.213 232.133 252.237 231.923 252.057C231.714 251.878 231.69 251.562 231.87 251.352C235.897 246.659 236.468 242.352 233.65 238.299C233.492 238.072 233.548 237.76 233.775 237.603Z" fill="#AF2E2F"/>
<path id="Path 715" d="M308.696 246.86C311.977 240.087 317.282 237.691 324.456 239.746C324.722 239.822 324.875 240.098 324.799 240.364C324.723 240.629 324.446 240.783 324.181 240.707C317.476 238.786 312.666 240.959 309.596 247.296C309.476 247.545 309.177 247.649 308.928 247.528C308.68 247.408 308.576 247.109 308.696 246.86Z" fill="#AF2E2F"/>
<path id="Path 717" d="M299.295 236.746C299.571 236.746 299.795 236.97 299.795 237.246C299.795 237.491 299.618 237.695 299.385 237.738L299.295 237.746H265.829C265.552 237.746 265.329 237.522 265.329 237.246C265.329 237 265.505 236.796 265.739 236.754L265.829 236.746H299.295Z" fill="#AF2E2F"/>
<path id="Path 718" d="M164 272.631C164.245 272.631 164.45 272.808 164.492 273.041L164.5 273.131V353.133C164.5 353.409 164.276 353.633 164 353.633C163.755 353.633 163.55 353.456 163.508 353.222L163.5 353.133V273.131C163.5 272.855 163.724 272.631 164 272.631Z" fill="#AF2E2F"/>
<path id="Path 765" d="M430.136 260.807C432.622 260.807 434.636 262.822 434.636 265.307C434.636 265.605 434.607 265.901 434.548 266.193L434.48 266.482L426.158 297.261C426.086 297.528 425.812 297.686 425.545 297.614C425.308 297.55 425.157 297.325 425.177 297.089L425.193 297L433.515 266.221C433.595 265.923 433.636 265.616 433.636 265.307C433.636 263.439 432.172 261.912 430.328 261.813L430.136 261.807H414.189C413.913 261.807 413.689 261.584 413.689 261.307C413.689 261.062 413.866 260.858 414.099 260.815L414.189 260.807H430.136Z" fill="#AF2E2F"/>
</g>
</g>
</svg>
