<svg width="606" height="489" viewBox="0 0 606 489" fill="none" xmlns="http://www.w3.org/2000/svg">
<g id="Dog in Space">
<rect width="606" height="489" fill="white"/>
<g id="Empty State 12">
<path id="Oval" opacity="0.3" fill-rule="evenodd" clip-rule="evenodd" d="M198 265C228.376 265 253 240.376 253 210C253 179.624 228.376 155 198 155C167.624 155 143 179.624 143 210C143 240.376 167.624 265 198 265Z" fill="#600D05"/>
<path id="Oval Copy" opacity="0.3" fill-rule="evenodd" clip-rule="evenodd" d="M425 370C435.493 370 444 361.493 444 351C444 340.507 435.493 332 425 332C414.507 332 406 340.507 406 351C406 361.493 414.507 370 425 370Z" fill="#600D05"/>
<path id="Oval Copy 2" opacity="0.1" fill-rule="evenodd" clip-rule="evenodd" d="M276 136C286.493 136 295 127.493 295 117C295 106.507 286.493 98 276 98C265.507 98 257 106.507 257 117C257 127.493 265.507 136 276 136Z" fill="#600D05"/>
<path id="Star Copy" opacity="0.1" fill-rule="evenodd" clip-rule="evenodd" d="M353.5 151.32L348.504 153.377L348.916 147.99L345.416 143.873L350.667 142.6L353.5 138L356.333 142.6L361.584 143.873L358.084 147.99L358.496 153.377L353.5 151.32Z" fill="#600D05"/>
<path id="Star Copy 3" opacity="0.1" fill-rule="evenodd" clip-rule="evenodd" d="M163.5 325.32L158.504 327.377L158.916 321.99L155.416 317.873L160.667 316.6L163.5 312L166.333 316.6L171.584 317.873L168.084 321.99L168.496 327.377L163.5 325.32Z" fill="#600D05"/>
<path id="Star Copy 5" opacity="0.3" fill-rule="evenodd" clip-rule="evenodd" d="M429.5 286.32L424.504 288.377L424.916 282.99L421.416 278.873L426.667 277.6L429.5 273L432.333 277.6L437.584 278.873L434.084 282.99L434.496 288.377L429.5 286.32Z" fill="#600D05"/>
<path id="Star Copy 7" opacity="0.1" fill-rule="evenodd" clip-rule="evenodd" d="M470.5 320.857L460.802 324.849L461.601 314.391L454.808 306.401L465 303.93L470.5 295L476 303.93L486.192 306.401L479.399 314.391L480.198 324.849L470.5 320.857Z" fill="#600D05"/>
<path id="Star Copy 2" opacity="0.1" fill-rule="evenodd" clip-rule="evenodd" d="M382.5 383.052L379.855 384.141L380.073 381.289L378.22 379.109L381 378.435L382.5 376L384 378.435L386.78 379.109L384.927 381.289L385.145 384.141L382.5 383.052Z" fill="#600D05"/>
<path id="Star Copy 6" opacity="0.3" fill-rule="evenodd" clip-rule="evenodd" d="M307.5 164.052L304.855 165.141L305.073 162.289L303.22 160.109L306 159.435L307.5 157L309 159.435L311.78 160.109L309.927 162.289L310.145 165.141L307.5 164.052Z" fill="#600D05"/>
<path id="Star Copy 4" opacity="0.3" fill-rule="evenodd" clip-rule="evenodd" d="M178.5 292.052L175.855 293.141L176.073 290.289L174.22 288.109L177 287.435L178.5 285L180 287.435L182.78 288.109L180.927 290.289L181.145 293.141L178.5 292.052Z" fill="#600D05"/>
<path id="Star Copy 8" opacity="0.3" fill-rule="evenodd" clip-rule="evenodd" d="M429.5 162.052L426.855 163.141L427.073 160.289L425.22 158.109L428 157.435L429.5 155L431 157.435L433.78 158.109L431.927 160.289L432.145 163.141L429.5 162.052Z" fill="#600D05"/>
<g id="Group 40">
<path id="Oval_2" fill-rule="evenodd" clip-rule="evenodd" d="M302.5 381C357.452 381 402 336.452 402 281.5C402 226.548 357.452 182 302.5 182C247.548 182 203 226.548 203 281.5C203 336.452 247.548 381 302.5 381Z" fill="#FFAB2A"/>
<path id="Oval_3" fill-rule="evenodd" clip-rule="evenodd" d="M302.5 375.5C354.415 375.5 396.5 333.415 396.5 281.5C396.5 229.585 382.069 303.595 302.5 303.595C222.931 303.595 208.5 229.585 208.5 281.5C208.5 333.415 250.585 375.5 302.5 375.5Z" fill="#FF8426"/>
<path id="Path" d="M302.5 181.55C357.701 181.55 402.45 226.299 402.45 281.5C402.45 336.701 357.701 381.45 302.5 381.45C247.299 381.45 202.55 336.701 202.55 281.5C202.55 281.252 202.751 281.05 203 281.05C203.249 281.05 203.45 281.252 203.45 281.5C203.45 336.204 247.796 380.55 302.5 380.55C357.204 380.55 401.55 336.204 401.55 281.5C401.55 226.796 357.204 182.45 302.5 182.45C302.251 182.45 302.05 182.249 302.05 182C302.05 181.752 302.251 181.55 302.5 181.55Z" fill="#373482"/>
<path id="Path_2" d="M213.087 324.38C213.257 324.199 213.542 324.19 213.723 324.36C213.904 324.53 213.913 324.815 213.743 324.996C186.703 353.776 174.651 376.624 181.761 386.409C194.341 403.724 262.366 376.115 333.388 324.514C404.41 272.913 451.689 216.749 439.109 199.435C433 191.027 413.312 193.046 384.807 204.704C384.577 204.798 384.314 204.688 384.22 204.458C384.126 204.228 384.236 203.965 384.466 203.871C413.357 192.055 433.369 190.003 439.837 198.906C452.903 216.889 405.427 273.287 333.917 325.242C262.408 377.197 194.098 404.921 181.033 386.938C173.536 376.619 185.734 353.493 213.087 324.38Z" fill="#373482"/>
</g>
<g id="Group 39">
<path id="Path 349" fill-rule="evenodd" clip-rule="evenodd" d="M305.766 287.609C305.766 287.609 324.147 281.4 327.922 263.4C331.698 245.4 320.089 222.063 321.782 216.609C323.476 211.155 341.162 212.287 351.506 226.208C361.85 240.128 362.375 265.477 345.862 279.328C352.16 279.328 354.527 275.998 355.529 278.216C356.53 280.433 347.632 291.096 331.338 290.147C338.262 292.827 342.183 293.332 332.307 297.844C322.431 302.355 303.083 291.882 303.083 291.882L305.766 287.609Z" fill="#A64F12"/>
<path id="Path 348" fill-rule="evenodd" clip-rule="evenodd" d="M298.963 359.398C298.963 359.398 317.566 336.314 321.04 317.882C324.514 299.45 315.426 285.953 301.463 276.088C287.499 266.223 280.993 293.18 280.993 293.18L298.963 359.398Z" fill="#A64F12"/>
<path id="Oval_4" fill-rule="evenodd" clip-rule="evenodd" d="M184.46 240.6C184.46 201.863 215.863 170.46 254.6 170.46C293.337 170.46 324.74 201.863 324.74 240.6C324.74 279.337 293.337 310.74 254.6 310.74C215.863 310.74 184.46 279.337 184.46 240.6ZM323.66 240.6C323.66 202.459 292.741 171.54 254.6 171.54C216.459 171.54 185.54 202.459 185.54 240.6C185.54 278.741 216.459 309.66 254.6 309.66C292.741 309.66 323.66 278.741 323.66 240.6Z" fill="white"/>
<g id="Group 38">
<path id="Path 344" fill-rule="evenodd" clip-rule="evenodd" d="M246.327 336.147C246.327 336.147 254.312 362.552 260.666 368.352C267.02 374.152 273.26 372.526 276.197 359.875C279.133 347.224 271.037 336.147 265.852 336.147C260.666 336.147 246.327 336.147 246.327 336.147Z" fill="#FFDDB0"/>
<path id="Path 345" d="M260.916 359.33C261.191 359.216 261.507 359.348 261.621 359.623C263.232 363.525 265.084 366.931 267.176 369.84C267.35 370.082 267.295 370.42 267.053 370.594C266.811 370.768 266.473 370.713 266.299 370.471C264.157 367.49 262.265 364.012 260.623 360.035C260.509 359.76 260.64 359.444 260.916 359.33Z" fill="#373482"/>
<path id="Path 346" d="M267.023 356.449C267.314 356.385 267.602 356.569 267.666 356.861L267.934 358.099C268.884 362.563 269.49 366.154 269.751 368.878C269.78 369.175 269.562 369.438 269.265 369.467C268.968 369.495 268.704 369.278 268.676 368.981C268.396 366.06 267.707 362.095 266.611 357.092C266.547 356.8 266.731 356.513 267.023 356.449Z" fill="#373482"/>
<path id="Path 347" d="M271.913 358.858C272.211 358.852 272.458 359.088 272.464 359.386C272.533 362.583 272.382 365.326 272.009 367.615C271.961 367.91 271.684 368.109 271.389 368.061C271.095 368.014 270.895 367.736 270.943 367.442C271.305 365.223 271.452 362.545 271.384 359.41C271.378 359.112 271.615 358.865 271.913 358.858Z" fill="#373482"/>
</g>
<path id="Path 334" fill-rule="evenodd" clip-rule="evenodd" d="M211.631 290.857C211.631 290.857 207.395 319.399 209.513 327.579C211.631 335.759 238.498 343.667 252.495 343.667C266.493 343.667 271.612 343.427 273.904 352.257C276.197 361.087 273.523 373.735 280.535 380.178C287.548 386.621 295.815 387.699 300.497 372.998C305.179 358.296 308.138 303.005 295.523 293.18C282.908 283.355 211.631 290.857 211.631 290.857Z" fill="#FFDDB0"/>
<path id="Path_3" fill-rule="evenodd" clip-rule="evenodd" d="M288.88 290.147C291.759 290.962 293.973 291.973 295.523 293.18C303.159 299.127 305.088 321.731 304.384 341.909C300.625 342.973 297.469 343.208 294.916 342.61L293.962 342.388C289.72 341.421 291.405 342.165 286.737 345.695L286.408 345.94C280.993 349.929 285.79 352.457 280.993 354.356C279.033 355.132 276.91 355.764 274.626 356.251C274.458 354.86 274.232 353.52 273.904 352.257C272.293 346.05 269.284 344.324 262.775 343.847C266.379 338.575 267.788 334.977 267.002 333.053L266.779 332.494C265.362 328.823 266.058 328.078 268.665 322.535C271.344 316.841 269.11 312.884 274.648 308.436L275.004 308.158C277.886 305.962 282.146 300.525 287.783 291.846L288.88 290.147Z" fill="#A64F12"/>
<path id="Path 333" fill-rule="evenodd" clip-rule="evenodd" d="M208.842 284.814C208.842 284.814 204.063 292.481 208.842 299.45C213.62 306.419 236.286 311.613 253.345 311.613C270.404 311.613 290.18 308.271 295.343 299.45C300.505 290.629 289.982 282.012 289.982 282.012L208.842 284.814Z" fill="#2C5E43"/>
<path id="Path 325" fill-rule="evenodd" clip-rule="evenodd" d="M225.495 227.468C225.495 227.468 248.026 214.6 276.517 224.836C280.51 215.813 286.185 209.992 291.877 211.352C297.569 212.711 302.907 217.115 309.354 219.312C315.8 221.509 312.905 229.935 308.005 234.614C303.106 239.292 298.478 248.553 298.478 248.553C298.478 248.553 304.837 266.484 303.23 272.34C301.623 278.196 294.082 292.729 285.861 298.039C277.64 303.348 235.665 309.057 214.054 293.462C207.812 288.957 202.292 280.84 201.073 275.872C198.954 267.228 205.799 244.651 205.799 244.651C205.799 244.651 194.745 237.201 192.356 231.019C189.967 224.836 197.867 227.299 201.073 221.012C204.279 214.725 206.411 211.465 211.234 213.095C216.057 214.725 225.495 227.468 225.495 227.468Z" fill="#FFDDB0"/>
<path id="Path 331" fill-rule="evenodd" clip-rule="evenodd" d="M242.175 287.936C242.175 287.936 242.827 294.091 244.105 295.929C247.62 300.986 253.063 299.986 255.604 296.752C258.146 293.518 257.897 287.936 257.897 287.936C257.897 287.936 256.526 287.936 253.735 287.333C250.944 286.729 249.227 284.355 249.227 284.355C249.227 284.355 248.468 286.347 246.128 287.142C243.788 287.936 242.175 287.936 242.175 287.936Z" fill="#FF4C45"/>
<path id="Path 332" d="M249.127 284.284C249.42 284.229 249.703 284.422 249.758 284.715C250.165 286.879 250.289 289.707 250.135 293.204C250.122 293.502 249.87 293.733 249.572 293.72C249.274 293.706 249.043 293.454 249.056 293.156C249.207 289.736 249.086 286.986 248.696 284.914C248.641 284.621 248.834 284.339 249.127 284.284Z" fill="#373482"/>
<path id="Path_4" fill-rule="evenodd" clip-rule="evenodd" d="M291.877 211.352C297.341 212.657 302.48 216.767 308.585 219.038L309.354 219.312C315.708 221.477 312.986 229.696 308.214 234.411L308.005 234.614C304.739 237.733 301.563 242.379 298.478 248.553C300.178 253.347 301.451 257.493 302.297 260.993L300.444 262.136C294.972 265.545 287.845 270.378 284.586 276.229L284.186 276.937C279.061 285.899 276.539 285.467 273.295 279.703C269.968 273.793 261.981 267.128 258.867 257.375C255.754 247.623 250.836 241.167 246.71 242.431C242.641 243.678 237.803 262.014 235.602 268.332L235.51 268.592C233.354 274.65 226.892 283.328 223.954 283.328C221.066 283.328 210.751 274.451 209.059 270.219L208.981 270.008C208.244 267.86 205.597 266.136 201.04 264.838C201.768 259.443 203.355 252.713 205.799 244.651C198.43 239.684 193.949 235.14 192.356 231.019C189.967 224.836 197.867 227.299 201.073 221.012L201.608 219.974C204.529 214.371 206.684 211.557 211.234 213.095C214.45 214.181 219.203 218.972 225.495 227.468C240.516 218.889 257.523 218.012 276.517 224.836C280.51 215.813 286.185 209.992 291.877 211.352Z" fill="#A64F12"/>
<path id="Path 326" d="M213.049 221.798C213.344 221.751 213.62 221.953 213.666 222.247L213.933 223.976C215.703 235.651 216.017 242.554 214.826 244.896C213.474 247.554 210.31 247.554 205.554 245.132C205.289 244.997 205.183 244.672 205.318 244.406C205.453 244.14 205.779 244.035 206.044 244.17C210.338 246.356 212.871 246.356 213.863 244.406C214.958 242.254 214.556 234.842 212.599 222.415C212.553 222.12 212.754 221.844 213.049 221.798Z" fill="#373482"/>
<path id="Path 327" d="M289.982 216.069C290.251 216.069 290.473 216.265 290.515 216.522L290.522 216.609V238.968C290.522 242.434 291.607 245.876 293.24 247.881C294.832 249.835 296.539 250.027 298.064 248.206C298.255 247.977 298.596 247.947 298.825 248.139C299.053 248.33 299.083 248.671 298.892 248.899C296.893 251.286 294.393 251.005 292.403 248.563C290.667 246.433 289.526 242.932 289.447 239.365L289.442 238.968V216.609C289.442 216.311 289.684 216.069 289.982 216.069Z" fill="#373482"/>
<path id="Path 328" fill-rule="evenodd" clip-rule="evenodd" d="M257.024 268.541C258.155 266.153 256.413 263.4 253.77 263.4H244.222C241.41 263.4 239.684 266.479 241.151 268.878L246.531 277.675C248.024 280.116 251.63 279.924 252.856 277.338L257.024 268.541Z" fill="#0E2143"/>
<path id="Path 329" d="M249.227 275.548C249.495 275.548 249.718 275.743 249.76 276L249.767 276.088V283.877C249.767 286.923 245.286 288.915 239.815 288.391C236.108 288.037 232.912 286.479 230.246 283.731C230.039 283.517 230.044 283.175 230.258 282.967C230.472 282.76 230.814 282.765 231.022 282.979C233.51 285.545 236.469 286.986 239.918 287.316C244.742 287.778 248.53 286.148 248.682 284.011L248.687 283.877V276.088C248.687 275.789 248.929 275.548 249.227 275.548Z" fill="#373482"/>
<path id="Path 330" d="M268.251 283.531C268.442 283.302 268.783 283.272 269.012 283.463C269.241 283.654 269.271 283.995 269.08 284.224C266.705 287.062 263.152 288.476 258.466 288.476C253.767 288.476 250.519 287.217 248.78 284.659C248.613 284.412 248.677 284.076 248.924 283.908C249.17 283.741 249.506 283.805 249.674 284.052C251.18 286.268 254.091 287.396 258.466 287.396C262.852 287.396 266.098 286.104 268.251 283.531Z" fill="#373482"/>
<path id="Path_5" fill-rule="evenodd" clip-rule="evenodd" d="M224.6 245.4C227.166 245.4 229.262 250.183 229.393 256.2L227.6 256.2C225.943 256.2 224.6 257.543 224.6 259.2C224.6 260.79 225.838 262.092 227.403 262.194L227.6 262.2L228.828 262.202C228.017 265.773 226.428 268.2 224.6 268.2C221.949 268.2 219.8 263.096 219.8 256.8C219.8 250.504 221.949 245.4 224.6 245.4Z" fill="#111C30"/>
<path id="Path Copy 7" fill-rule="evenodd" clip-rule="evenodd" d="M276.2 245.4C278.766 245.4 280.862 250.183 280.993 256.2L279.2 256.2C277.543 256.2 276.2 257.543 276.2 259.2C276.2 260.79 277.438 262.092 279.003 262.194L279.2 262.2L280.428 262.202C279.617 265.773 278.028 268.2 276.2 268.2C273.549 268.2 271.4 263.096 271.4 256.8C271.4 250.504 273.549 245.4 276.2 245.4Z" fill="#111C30"/>
<path id="Path 335" d="M283.485 366.387C283.77 366.298 284.073 366.456 284.162 366.741C285.606 371.347 286.328 376.1 286.328 380.996C286.328 381.295 286.086 381.536 285.788 381.536C285.49 381.536 285.248 381.295 285.248 380.996C285.248 376.209 284.543 371.565 283.132 367.064C283.043 366.779 283.201 366.476 283.485 366.387Z" fill="#373482"/>
<path id="Path 336" d="M292.18 365.205C292.478 365.205 292.72 365.447 292.72 365.745C292.72 372.116 292.124 377.762 290.93 382.686C290.859 382.976 290.567 383.154 290.278 383.083C289.988 383.013 289.81 382.721 289.88 382.431C291.053 377.596 291.64 372.034 291.64 365.745C291.64 365.447 291.882 365.205 292.18 365.205Z" fill="#373482"/>
<path id="Path 337" d="M298.963 365.205C299.261 365.205 299.503 365.447 299.503 365.745C299.503 368.428 298.522 372.747 296.563 378.737C296.47 379.02 296.165 379.175 295.882 379.082C295.598 378.989 295.444 378.685 295.536 378.401L295.876 377.349C297.575 372.006 298.423 368.129 298.423 365.745C298.423 365.447 298.665 365.205 298.963 365.205Z" fill="#373482"/>
<g id="Group 37">
<path id="Path 338" fill-rule="evenodd" clip-rule="evenodd" d="M207.819 345.608C211.505 353.147 219.211 354.173 224.922 353.147C230.634 352.12 238.349 324.035 236.035 315.133C233.721 306.231 217.635 300.946 208.807 311.613C199.979 322.28 204.133 338.07 207.819 345.608Z" fill="#A64F12"/>
<path id="Path 339" d="M216.746 335.608C217.014 335.608 217.237 335.803 217.279 336.06L217.286 336.148V351.584C217.286 351.882 217.044 352.124 216.746 352.124C216.477 352.124 216.255 351.928 216.213 351.672L216.206 351.584V336.148C216.206 335.849 216.448 335.608 216.746 335.608Z" fill="#373482"/>
<path id="Path 340" d="M224.654 339.614L224.741 339.616C225.008 339.644 225.209 339.863 225.224 340.122L225.221 340.21L224.007 351.641C223.976 351.938 223.71 352.153 223.413 352.121C223.146 352.093 222.946 351.875 222.931 351.615L222.933 351.527L224.147 340.096C224.176 339.829 224.394 339.628 224.654 339.614Z" fill="#373482"/>
<path id="Path 341" d="M207.671 335.618C207.964 335.559 208.248 335.748 208.307 336.041C209.182 340.373 210.576 344.47 212.49 348.333C212.623 348.6 212.513 348.924 212.246 349.057C211.979 349.189 211.655 349.08 211.522 348.812C209.566 344.865 208.142 340.678 207.249 336.254C207.19 335.962 207.379 335.677 207.671 335.618Z" fill="#373482"/>
</g>
<path id="Path 342" d="M235.937 314.602C236.231 314.548 236.512 314.742 236.566 315.035C237.746 321.442 236.574 329.868 233.066 340.325C232.971 340.607 232.665 340.76 232.382 340.665C232.099 340.57 231.947 340.264 232.042 339.981C235.497 329.683 236.645 321.428 235.504 315.231C235.45 314.937 235.644 314.656 235.937 314.602Z" fill="#373482"/>
<path id="Path 343" d="M213.32 307.059C213.573 306.901 213.906 306.978 214.065 307.231C214.223 307.484 214.146 307.817 213.893 307.975C208.253 311.501 204.988 316.976 204.085 324.445C204.049 324.741 203.78 324.952 203.484 324.916C203.188 324.88 202.977 324.611 203.013 324.315C203.954 316.532 207.394 310.765 213.32 307.059Z" fill="#373482"/>
<path id="Path 635" d="M240.171 341.942C244.317 342.828 249.56 343.29 255.897 343.324L258.01 343.33C264.05 343.366 266.711 343.682 269.269 344.895C272.757 346.551 274.661 349.821 275.166 355.424L275.388 357.822C276.01 364.348 276.665 369.764 277.354 374.067C277.401 374.361 277.201 374.638 276.906 374.685C276.612 374.732 276.335 374.532 276.288 374.237L276.122 373.177C275.407 368.492 274.73 362.607 274.091 355.521C273.617 350.271 271.915 347.347 268.805 345.871L268.465 345.716C266.185 344.719 263.582 344.443 257.976 344.41L256.663 344.406C249.911 344.406 244.34 343.938 239.945 342.999C239.654 342.936 239.468 342.649 239.53 342.358C239.586 342.095 239.824 341.918 240.084 341.931L240.171 341.942Z" fill="#373482"/>
<path id="Path 636" d="M301.178 256.878C301.452 256.762 301.769 256.89 301.885 257.165C304.84 264.155 304.84 271.062 301.883 277.849C296.811 289.489 290.019 297.489 281.176 300.662C280.895 300.762 280.586 300.616 280.485 300.336C280.384 300.055 280.53 299.746 280.811 299.645C289.323 296.592 295.929 288.811 300.893 277.418C303.731 270.904 303.731 264.305 300.891 257.585C300.774 257.311 300.903 256.994 301.178 256.878Z" fill="#373482"/>
<path id="Path 637" d="M201.055 264.298L201.142 264.308C201.435 264.365 201.627 264.648 201.57 264.941C199.734 274.404 202.784 282.65 210.758 289.743C223.184 300.798 240.497 304.8 267.235 302.252C267.532 302.223 267.796 302.441 267.824 302.738C267.852 303.035 267.635 303.298 267.338 303.327C240.327 305.901 222.721 301.832 210.04 290.55C201.789 283.211 198.599 274.584 200.51 264.735C200.561 264.472 200.795 264.29 201.055 264.298Z" fill="#373482"/>
<path id="Path 638" d="M296.755 294.142C297.008 293.984 297.341 294.061 297.499 294.313C303.332 303.63 305.795 319.495 304.923 341.93C304.912 342.228 304.661 342.46 304.363 342.448C304.065 342.437 303.833 342.186 303.844 341.888L303.902 340.272C304.587 318.89 302.136 303.755 296.584 294.887C296.426 294.634 296.502 294.301 296.755 294.142Z" fill="#373482"/>
<path id="Path 639" d="M309.356 282.537C309.568 282.328 309.91 282.33 310.119 282.543C318.971 291.543 323.047 301.782 322.321 313.227C322.302 313.525 322.046 313.751 321.748 313.732C321.451 313.713 321.225 313.457 321.243 313.159C321.949 302.029 317.992 292.087 309.349 283.3C309.14 283.088 309.143 282.746 309.356 282.537Z" fill="#373482"/>
<path id="Path 640" d="M250.962 219.748C263.877 219.748 274.279 222.437 282.156 227.826C282.402 227.995 282.465 228.331 282.297 228.577C282.128 228.823 281.792 228.886 281.546 228.718C273.865 223.462 263.674 220.828 250.962 220.828C250.664 220.828 250.422 220.587 250.422 220.288C250.422 219.99 250.664 219.748 250.962 219.748Z" fill="#373482"/>
<path id="Path 641" d="M237.032 221.817C237.316 221.725 237.62 221.881 237.712 222.165C237.804 222.449 237.648 222.753 237.364 222.845C230.494 225.068 225.037 228.093 220.988 231.916C220.771 232.121 220.429 232.111 220.224 231.894C220.02 231.677 220.029 231.336 220.246 231.131C224.421 227.19 230.018 224.087 237.032 221.817Z" fill="#373482"/>
</g>
<path id="Rectangle" opacity="0.3" fill-rule="evenodd" clip-rule="evenodd" d="M382.536 101.917L397.9 109.71L424.405 102.859C427.334 102.102 430.42 102.26 433.252 103.305L433.765 103.505C434.791 103.916 435.288 105.08 434.877 106.106C434.684 106.588 434.31 106.977 433.834 107.188L389.431 126.958C387.917 127.632 386.144 126.951 385.47 125.438L383.553 121.132C383.05 120.002 383.074 118.711 383.61 117.605L383.716 117.4C384.354 116.251 384.414 114.868 383.88 113.668L379.804 104.515C379.355 103.506 379.809 102.323 380.818 101.874C381.368 101.629 381.999 101.645 382.536 101.917Z" fill="#600D05"/>
</g>
</g>
</svg>
