<svg width="606" height="489" viewBox="0 0 606 489" fill="none" xmlns="http://www.w3.org/2000/svg">
<g id="Getting Lost">
<rect width="606" height="489" fill="white"/>
<g id="Empty State 3">
<path id="Path 766" opacity="0.1" fill-rule="evenodd" clip-rule="evenodd" d="M170 83.9869H306.203C306.203 83.9869 297.705 55.5758 269.96 64.9615C242.215 74.3472 245.393 56.7069 213.316 49.9583C181.24 43.2097 170 83.9869 170 83.9869Z" fill="#211A38"/>
<path id="Path 768" opacity="0.1" fill-rule="evenodd" clip-rule="evenodd" d="M190.452 281.758H436C436 281.758 415.423 254.848 382.121 254.848C348.819 254.848 347.577 273.725 328.52 261.225C309.462 248.726 313.511 237.002 283.331 237.002C253.151 237.002 249.598 269.876 224.624 263.517C199.65 257.159 190.452 281.758 190.452 281.758Z" fill="#211A38"/>
<g id="Group">
<path id="Path" fill-rule="evenodd" clip-rule="evenodd" d="M262.12 245L262.119 337.669L263.051 336.296C264.803 333.681 265.898 331.857 266.334 330.824C267.727 327.529 267.829 314.805 269.614 314.805C271.398 314.805 270.856 328.801 269.614 334.412C268.957 337.375 266.46 343.428 262.12 352.57L262.12 446H247.12L247.119 298.777C244.383 295.489 242.554 292.869 241.632 290.918L241.447 290.516C239.75 286.721 237.943 279.953 239.754 279.953C241.382 279.953 242.566 285.089 247.119 291.253L247.12 245H262.12Z" fill="#493E3C"/>
<path id="Path 561 Copy" d="M250.62 338C250.865 338 251.069 338.177 251.112 338.41L251.12 338.5V398.835C251.12 399.111 250.896 399.335 250.62 399.335C250.374 399.335 250.17 399.158 250.128 398.925L250.12 398.835V338.5C250.12 338.224 250.343 338 250.62 338Z" fill="white"/>
<path id="Path 561 Copy 2" d="M257.62 257C257.865 257 258.069 257.177 258.112 257.41L258.12 257.5V317.835C258.12 318.111 257.896 318.335 257.62 318.335C257.374 318.335 257.17 318.158 257.128 317.925L257.12 317.835V257.5C257.12 257.224 257.343 257 257.62 257Z" fill="white"/>
</g>
<g id="Group Copy">
<path id="Path_2" fill-rule="evenodd" clip-rule="evenodd" d="M352.88 106.504L352.88 411.02L351.949 409.647C350.197 407.032 349.102 405.208 348.666 404.175C347.273 400.88 347.171 388.156 345.386 388.156C343.602 388.156 344.144 402.153 345.386 407.764C346.043 410.727 348.54 416.779 352.88 425.921L352.88 446H367.88L367.881 156.923C370.617 153.635 372.446 151.015 373.368 149.064L373.552 148.662C375.25 144.867 375.391 138.099 375.246 138.099C375.1 138.099 372.434 143.235 367.881 149.399L367.88 106.504H352.88Z" fill="#493E3C"/>
<path id="Path 561 Copy_2" d="M363.5 351C363.254 351 363.05 351.177 363.008 351.41L363 351.5V411.835C363 412.111 363.224 412.335 363.5 412.335C363.745 412.335 363.949 412.158 363.992 411.925L364 411.835V351.5C364 351.224 363.776 351 363.5 351Z" fill="white"/>
<path id="Path 561 Copy 2_2" d="M362.5 121C362.254 121 362.05 121.177 362.008 121.41L362 121.5V181.835C362 182.111 362.224 182.335 362.5 182.335C362.745 182.335 362.949 182.158 362.992 181.925L363 181.835V121.5C363 121.224 362.776 121 362.5 121Z" fill="white"/>
</g>
<path id="Path 73" fill-rule="evenodd" clip-rule="evenodd" d="M293.615 226.097C293.615 226.097 285.028 228.358 280.757 229.125C276.485 229.892 269.779 229.125 268.977 227.611C268.174 226.097 267.61 223.676 267.61 223.676C267.61 223.676 260.049 223.278 258.873 220.564C257.697 217.85 253.516 199.818 256.872 179.979C260.228 160.141 259.815 158.154 280.757 155.442C301.698 152.731 293.615 226.097 293.615 226.097Z" fill="#EF793F"/>
<path id="Path_3" fill-rule="evenodd" clip-rule="evenodd" d="M287.204 156.828L287.072 156.831C280.339 156.982 272.49 160.497 268.846 163.117C266.449 164.842 263.413 165.761 259.738 165.874C262.124 158.804 266.473 157.292 280.757 155.442C283.203 155.126 285.352 155.587 287.204 156.828Z" fill="#D84B25"/>
<path id="Shape" fill-rule="evenodd" clip-rule="evenodd" d="M280.543 181.524L294.269 219.803C294.069 221.852 293.851 223.95 293.615 226.097L291.328 226.692C286.735 227.873 283.212 228.684 280.757 229.125C276.485 229.892 269.779 229.125 268.977 227.611C268.799 227.276 268.631 226.909 268.471 226.508C271.857 227.436 273.936 226.492 274.709 223.676C275.964 219.105 275.73 205.549 274.709 197.827C274.041 192.775 270.594 190.151 264.37 189.957L264.015 189.949L280.543 181.524ZM265.268 200.981C265.268 207.291 265.99 214.528 267.434 222.692L267.61 223.676C262.569 223.411 259.656 222.374 258.873 220.564L258.777 220.327C258.709 220.149 258.635 219.933 258.555 219.679C264.545 215.96 262.073 207.996 265.268 200.981Z" fill="#D84B25"/>
<path id="Path_4" fill-rule="evenodd" clip-rule="evenodd" d="M277.035 140.518L285.13 155.442C285.13 155.442 266.767 160.066 266.651 160.068C263.89 160.116 261.578 155.903 261.486 150.657C261.395 145.411 263.559 141.119 266.32 141.071L277.035 140.518Z" fill="#3D6FB3"/>
<path id="Path_5" fill-rule="evenodd" clip-rule="evenodd" d="M273.085 145.157L282.976 151.473L285.13 155.442L266.909 160.009C266.746 160.048 266.66 160.068 266.651 160.068C263.89 160.116 261.578 155.903 261.486 150.657C261.461 149.191 261.611 147.799 261.902 146.554C263.787 146.104 265.169 154.208 266.02 151.394C266.892 148.514 265.633 145.157 267.151 145.224C268.162 145.269 269.213 146.711 270.302 149.55L270.566 150.114C272.559 154.311 273.699 155.587 273.987 153.944C274.277 152.291 274.007 149.508 273.179 145.596L273.085 145.157Z" fill="#2C4F99"/>
<path id="Path 76" d="M265.633 140.878C268.288 140.878 270.595 144.621 270.595 150.293C270.595 154.599 269.821 157.368 268.207 158.597C268.031 158.731 267.78 158.697 267.646 158.521C267.512 158.346 267.546 158.095 267.722 157.961C269.081 156.926 269.795 154.371 269.795 150.293C269.795 145.006 267.744 141.678 265.633 141.678C265.412 141.678 265.233 141.499 265.233 141.278C265.233 141.057 265.412 140.878 265.633 140.878Z" fill="#193674"/>
<path id="Path 77" d="M264.066 145.792C264.926 144.547 266.084 144.425 267.114 145.846C269.015 148.469 268.19 156.189 266.173 156.836C264.84 157.264 263.951 156.093 263.445 153.619C263.401 153.402 263.54 153.191 263.757 153.147C263.973 153.102 264.184 153.242 264.229 153.458C264.651 155.523 265.238 156.296 265.929 156.074C267.332 155.624 268.088 148.552 266.466 146.316C265.785 145.375 265.291 145.427 264.724 146.247C264.241 146.945 263.841 148.179 263.841 148.733C263.841 148.953 263.662 149.133 263.441 149.133C263.22 149.133 263.041 148.953 263.041 148.733C263.041 148.013 263.493 146.621 264.066 145.792Z" fill="#193674"/>
<path id="Path 74" d="M265.268 197.427C265.489 197.427 265.668 197.606 265.668 197.827C265.668 207.154 266.446 215.745 268.003 223.599C268.046 223.815 267.905 224.026 267.688 224.069C267.471 224.112 267.261 223.971 267.218 223.754C265.651 215.847 264.868 207.205 264.868 197.827C264.868 197.606 265.047 197.427 265.268 197.427Z" fill="#85260C"/>
<path id="Path 75" d="M276.59 188.567C276.811 188.567 276.99 188.746 276.99 188.967C276.99 203.511 277.878 215.913 279.652 226.172C279.69 226.39 279.544 226.597 279.326 226.634C279.108 226.672 278.901 226.526 278.864 226.308C277.081 216 276.19 203.553 276.19 188.967C276.19 188.746 276.369 188.567 276.59 188.567Z" fill="#85260C"/>
<path id="Path 71" fill-rule="evenodd" clip-rule="evenodd" d="M297.86 330.824C297.86 330.824 290.03 331.938 288.531 334.236C287.031 336.535 294.636 339.339 294.636 339.339C294.636 339.339 291.38 351.255 291.38 361.913C291.38 372.572 297.116 368.075 298.714 357.927C300.312 347.779 301.365 334.236 301.365 334.236L297.86 330.824Z" fill="#493E3C"/>
<path id="Path 72" fill-rule="evenodd" clip-rule="evenodd" d="M390.54 297.522C390.54 297.522 383.943 306.649 385.799 309.294C387.656 311.94 393.094 305.944 393.094 305.944C393.094 305.944 391.553 319.472 395.49 329.956C399.427 340.44 402.482 330.055 401.348 317.829C400.214 305.604 396.771 297.522 396.771 297.522H390.54Z" fill="#493E3C"/>
<path id="Path 63" fill-rule="evenodd" clip-rule="evenodd" d="M286.792 155C286.792 155 275.419 164.211 264.47 168.054C253.522 171.897 249.851 166.672 252.389 159.321C254.926 151.97 261.907 145.157 261.907 145.157L246.795 136.735C246.795 136.735 229.94 151.469 228.1 173.42C226.26 195.37 250.309 196.521 260.252 192.928C270.195 189.334 277.339 188.281 279.258 198.954C281.176 209.628 291.625 241.41 308.136 253.348C322.676 243.224 348.819 213.158 348.819 213.158C348.819 213.158 328.768 178.261 323.319 162.227C317.869 146.193 298.996 151.97 298.996 151.97L286.792 155Z" fill="#468676"/>
<path id="Path_6" fill-rule="evenodd" clip-rule="evenodd" d="M251.671 162.448C251.109 168.03 255.157 171.323 264.47 168.054C266.404 167.375 268.348 166.571 270.302 165.641L269.512 166.254C261.826 172.152 256.571 174.139 253.746 172.215C250.955 170.314 250.23 167.164 251.572 162.764L251.671 162.448Z" fill="#275248"/>
<path id="Path_7" fill-rule="evenodd" clip-rule="evenodd" d="M325.184 167.219C327.541 173.072 330.966 180.306 335.459 188.919C332.048 193.734 327.23 206.406 329.745 234.035L328.582 235.224C320.5 243.444 313.685 249.485 308.136 253.348C305.69 251.579 303.376 249.375 301.204 246.868L308.136 169.043L325.184 167.219Z" fill="#275248"/>
<path id="Path_8" fill-rule="evenodd" clip-rule="evenodd" d="M283.361 157.663C286.779 158.968 289.454 161.388 291.385 164.922C295.978 173.327 295.619 186.18 293.615 196.219C292.462 201.999 289.165 208.119 283.726 214.582C282.125 210.119 280.908 206.044 280.102 202.809C285.469 194.495 287.966 186.347 287.595 178.366C287.215 170.215 283.997 164.558 277.939 161.396C279.701 160.28 281.471 159.064 283.248 157.747L283.361 157.663Z" fill="#275248"/>
<path id="Path_9" fill-rule="evenodd" clip-rule="evenodd" d="M304.419 150.719C305.194 155.394 306.591 161.758 308.136 166.773C298.678 165.022 290.41 161.992 283.331 157.686C284.194 157.045 285.059 156.382 285.925 155.695L286.792 155L298.996 151.97C300.814 151.414 302.538 151.009 304.168 150.756L304.419 150.719Z" fill="white"/>
<path id="Shape_2" fill-rule="evenodd" clip-rule="evenodd" d="M248.9 143.918L258.649 148.651C257.466 150.055 256.42 151.476 255.51 152.913L246.232 147.487L248.9 143.918ZM243.051 140.286L246.232 142.269L243.375 146.146L239.484 144.328C240.372 143.22 241.311 142.136 242.3 141.076L243.051 140.286Z" fill="white"/>
<path id="Path_10" fill-rule="evenodd" clip-rule="evenodd" d="M290.257 44.1629C290.569 42.5693 293.023 42.1003 293.822 46.1395C294.628 50.2109 294.033 65.186 295.618 73.0759C297.3 81.4426 301.256 82.2371 307.486 85.001L307.485 47.0697H325.485L325.487 110.412L326.402 109.522L327.287 108.642C334.679 101.213 338.795 94.9889 339.635 89.9708L339.77 89.1259L339.902 88.2301C341.337 78.1938 343.05 56.1589 345.846 56.1589C348.819 56.1589 345.348 85.7286 343.678 94.535C342.3 101.802 331.073 112.749 325.484 121.732L325.485 445.07H307.485L307.485 302.046C298.122 296.812 292.717 291.405 291.271 285.827L290.569 283.084L289.986 280.757C289.431 278.524 288.819 276.016 288.149 273.232L286.789 267.531L284.583 258.131L285.476 256.489C285.575 256.308 285.74 256.172 285.938 256.111C286.356 255.98 286.802 256.214 286.932 256.633L287.754 259.306L288.307 261.136L289.524 265.24L290.632 269.039L292.195 274.473C294.499 282.536 299.596 288.653 307.486 292.822L307.486 99.5993L306.183 98.2529C297.398 89.13 292.572 83.1535 291.704 80.3232C290.257 75.6061 289.945 45.7566 290.257 44.1629Z" fill="#493E3C"/>
<path id="Path_11" fill-rule="evenodd" clip-rule="evenodd" d="M325.484 153.119L325.484 209.691L307.485 216.908L307.486 185.803L311.4 178.54C318.14 166.067 322.835 157.594 325.484 153.119Z" fill="#342A28"/>
<path id="Path_12" fill-rule="evenodd" clip-rule="evenodd" d="M325.486 245.237L325.486 335.264L324.524 335.756C320.099 337.985 314.42 340.42 307.485 343.062L307.485 302.046C306.293 301.38 305.166 300.711 304.102 300.039L304.183 299.934C315.512 284.835 322.613 266.603 325.486 245.237Z" fill="#342A28"/>
<path id="Path 561" d="M319.483 142.331C319.728 142.331 319.932 142.507 319.975 142.741L319.983 142.831V275.643C319.983 275.919 319.759 276.143 319.483 276.143C319.237 276.143 319.033 275.966 318.991 275.733L318.983 275.643V142.831C318.983 142.554 319.207 142.331 319.483 142.331Z" fill="white"/>
<g id="Group 6">
<path id="Path 57" fill-rule="evenodd" clip-rule="evenodd" d="M306.99 134.697C306.99 134.697 310.589 125.318 308.136 117.197C305.684 109.076 293.702 104.577 284.93 110.476C276.158 116.375 306.99 134.697 306.99 134.697Z" fill="#D84B25"/>
<path id="Path 56" fill-rule="evenodd" clip-rule="evenodd" d="M296.714 124.383C296.714 124.383 292.726 113.039 284.843 106.271C276.96 99.5032 261.932 98.8762 264.838 110.381C267.745 121.886 296.714 124.383 296.714 124.383Z" fill="#3D6FB3"/>
<path id="Path 55" fill-rule="evenodd" clip-rule="evenodd" d="M270.195 131.561C270.195 131.561 257.974 131.83 251.772 125.276C245.569 118.722 251.033 105.979 266.078 109.766C281.122 113.553 281.81 118.083 293.009 121.159C304.208 124.235 306.989 127.743 306.989 132.525C306.989 137.306 270.195 131.561 270.195 131.561Z" fill="#493E3C"/>
<path id="Path 53" fill-rule="evenodd" clip-rule="evenodd" d="M270.195 131.561C270.195 131.561 270.579 143.46 275.431 150.804C280.282 158.147 290.257 157.045 290.257 157.045C290.257 157.045 296.837 161.617 304.815 163.19C302.522 154.783 300.614 146.658 301.701 140.902C305.996 140.902 308.959 136.616 307.932 132.184C306.905 127.752 301.051 127.752 299.342 132.892C291.474 133.543 286.589 129.191 283.552 127.124C278.335 130.45 270.195 131.561 270.195 131.561Z" fill="#EF793F"/>
<path id="Path_13" fill-rule="evenodd" clip-rule="evenodd" d="M279.359 133.518C276.909 135.957 274.403 139.062 271.84 142.831C271.12 140.338 270.906 139.66 270.649 136.694L279.359 133.518Z" fill="#D84B25"/>
<path id="Path_14" fill-rule="evenodd" clip-rule="evenodd" d="M298.777 147.487C299.349 151.97 297.637 157.681 296.131 160.401C294.314 159.569 292.566 158.593 290.885 157.472L290.257 157.045C292.456 156.474 294.326 155.341 295.866 153.645L296.285 153.174C297.546 151.723 298.777 148.139 298.777 147.487Z" fill="#D84B25"/>
<path id="Path 54" d="M299.027 144.758C299.247 144.775 299.412 144.967 299.395 145.187C298.913 151.543 295.896 155.648 290.38 157.426C290.17 157.493 289.944 157.378 289.876 157.168C289.809 156.957 289.924 156.732 290.134 156.664C295.33 154.989 298.139 151.168 298.598 145.127C298.614 144.906 298.806 144.741 299.027 144.758Z" fill="#D84B25"/>
<path id="Path_15" d="M281.293 134.719C281.486 134.613 281.729 134.683 281.836 134.877C282.516 136.112 282.832 137.564 282.914 139.385L282.931 139.898C282.939 140.24 282.939 140.592 282.933 141.032L282.9 142.637C282.863 144.677 282.937 145.488 283.276 146.178C283.709 147.059 284.625 147.325 286.429 146.879C286.644 146.826 286.86 146.957 286.913 147.171C286.966 147.386 286.835 147.603 286.621 147.656C284.49 148.182 283.184 147.803 282.558 146.53C282.178 145.757 282.076 144.97 282.092 143.173L282.133 141.028C282.142 140.38 282.137 139.928 282.114 139.421C282.038 137.712 281.747 136.373 281.135 135.263C281.029 135.069 281.099 134.826 281.293 134.719Z" fill="#D84B25"/>
<path id="Path 58" d="M273.076 137.475C275.665 137.415 278.337 137.76 281.091 138.51C281.304 138.568 281.43 138.788 281.372 139.001C281.314 139.214 281.094 139.34 280.881 139.282C278.199 138.552 275.604 138.216 273.094 138.275C272.873 138.28 272.69 138.106 272.685 137.885C272.68 137.664 272.855 137.481 273.076 137.475Z" fill="#B83410"/>
<path id="Path 59" d="M295.619 135.201C295.839 135.201 296.019 135.38 296.019 135.601C296.019 135.822 295.839 136.001 295.619 136.001C292.777 136.001 289.897 136.741 286.973 138.225C286.776 138.325 286.536 138.247 286.436 138.05C286.336 137.853 286.414 137.612 286.611 137.512C289.643 135.973 292.647 135.201 295.619 135.201Z" fill="#B83410"/>
<path id="Path 60" fill-rule="evenodd" clip-rule="evenodd" d="M275.212 137.869L279 138.382L279.138 139.739C279.138 139.739 277.18 139.404 276.7 140.646C276.22 141.887 279.359 141.677 279.359 141.677C279.359 141.677 278.743 144.237 277.318 143.984C275.392 143.641 275.212 137.869 275.212 137.869Z" fill="#B83410"/>
<path id="Path 61" fill-rule="evenodd" clip-rule="evenodd" d="M288.958 136.924C288.958 136.924 288.794 141.326 291.205 142.978C293.616 144.631 293.822 140.35 293.822 140.35C293.822 140.35 292.178 140.841 291.385 140.35C290.591 139.858 290.996 138.249 293.822 138.486C293.489 136.735 293.147 135.601 293.147 135.601L288.958 136.924Z" fill="#B83410"/>
<path id="Path 62" d="M291.704 147.67C291.925 147.67 292.104 147.849 292.104 148.07C292.104 148.291 291.925 148.47 291.704 148.47C290.066 148.47 287.384 149.743 283.714 152.298C283.533 152.425 283.283 152.38 283.157 152.199C283.031 152.017 283.076 151.768 283.257 151.642C287.055 148.997 289.852 147.67 291.704 147.67Z" fill="#D84B25"/>
<path id="Path 43" d="M280.245 103.081C280.355 102.89 280.599 102.823 280.791 102.932C287.502 106.762 292.65 113.043 296.236 121.759C296.32 121.963 296.223 122.197 296.018 122.281C295.814 122.365 295.58 122.267 295.496 122.063C291.975 113.504 286.941 107.364 280.394 103.627C280.202 103.518 280.136 103.273 280.245 103.081Z" fill="#193674"/>
<path id="Path 44" d="M302.021 136.338C302.24 136.365 302.396 136.565 302.368 136.785C301.668 142.362 301.668 147.112 302.365 151.031C302.404 151.248 302.259 151.456 302.041 151.495C301.824 151.533 301.616 151.389 301.578 151.171C300.865 147.165 300.865 142.337 301.574 136.685C301.599 136.493 301.755 136.35 301.94 136.336L302.021 136.338Z" fill="#D84B25"/>
<path id="Path 45" d="M299.901 108.896C300 108.699 300.241 108.619 300.438 108.719C308.498 112.784 311.192 120.372 308.525 131.356C308.473 131.571 308.257 131.703 308.042 131.651C307.827 131.598 307.696 131.382 307.748 131.168C310.333 120.519 307.775 113.316 300.078 109.433C299.881 109.334 299.801 109.093 299.901 108.896Z" fill="#193674"/>
</g>
<path id="Path 64" fill-rule="evenodd" clip-rule="evenodd" d="M270.763 136.735C276.371 135.087 281.485 129.899 279.359 129.899C277.233 129.899 264.47 128.737 261.544 129.899C258.618 131.06 248.9 137.869 248.9 137.869L259.812 144.006C259.812 144.006 265.155 138.382 270.763 136.735Z" fill="#EF793F"/>
<path id="Path 68" fill-rule="evenodd" clip-rule="evenodd" d="M307.486 193.272C307.486 193.272 299.847 196.706 298.777 198.787C297.707 200.868 299.237 207.705 300.06 212.008C300.882 216.31 304.826 215.06 307.486 213.623C310.145 212.185 315.918 203.922 315.918 203.922L307.486 193.272Z" fill="#EF793F"/>
<path id="Path 65" fill-rule="evenodd" clip-rule="evenodd" d="M325.485 150.02V168.069L305.787 193.294C305.787 193.294 308.268 200.538 315.636 206.406C327.867 196.268 345.846 177.916 345.846 168.069C345.846 158.222 325.485 150.02 325.485 150.02Z" fill="#468676"/>
<path id="Path_16" fill-rule="evenodd" clip-rule="evenodd" d="M312.742 184.388C314.786 188.845 318.784 193.474 324.735 198.275C323.453 199.504 322.172 200.694 320.913 201.831C316.709 198.916 312.892 194.502 309.462 188.59L312.742 184.388Z" fill="white"/>
<path id="Path 66" d="M330.41 162.906C330.567 162.75 330.82 162.751 330.976 162.907C331.132 163.064 331.132 163.317 330.975 163.473L330.409 164.043C324.673 169.873 316.57 179.789 306.108 193.782C305.976 193.959 305.725 193.995 305.548 193.863C305.371 193.731 305.335 193.48 305.467 193.303L307.022 191.231C317.098 177.844 324.892 168.405 330.41 162.906Z" fill="#275248"/>
<path id="Path 67" fill-rule="evenodd" clip-rule="evenodd" d="M281.53 210.393C286.774 202.37 289.684 193.168 290.257 182.788C291.196 165.801 280.937 161.094 278.544 161.001L278.473 161C276.218 161 279.236 156.744 282.88 155.658C286.525 154.572 294.494 157.412 297.357 168.069C300.22 178.726 299.074 197.973 290.977 208.915C289.123 211.421 287.468 213.219 286.012 214.31L285.771 214.485C284.418 215.441 282.546 215.118 281.59 213.765C280.881 212.76 280.857 211.423 281.53 210.393Z" fill="#D84B25"/>
<path id="Path 69" fill-rule="evenodd" clip-rule="evenodd" d="M325.471 238.063C325.471 238.063 325.364 268.322 321.217 283.476C317.07 298.63 293.615 329.456 293.615 329.456L305.829 343.522C305.829 343.522 342.003 316.192 351.082 300.461C360.162 284.729 351.082 254.848 351.082 254.848C351.082 254.848 365.899 247.307 370.143 248.229C374.386 249.15 384.935 302.025 384.935 302.025L402.455 297.788C402.455 297.788 402.656 239.487 395.303 221.662C387.95 203.837 348.819 213.158 348.819 213.158L325.471 238.063Z" fill="#3D6FB3"/>
<path id="Path_17" fill-rule="evenodd" clip-rule="evenodd" d="M357.043 211.436C369.596 209.204 379.192 209.499 385.83 212.32C382.687 215.119 377.87 216.275 371.381 215.788C365.594 215.353 360.7 213.923 356.701 211.498L357.043 211.436Z" fill="#2C4F99"/>
<path id="Path_18" fill-rule="evenodd" clip-rule="evenodd" d="M383.626 237.329L383.628 238.219C383.628 253.177 387.075 255.897 385.45 276.038L385.392 276.74C384.402 288.404 386.363 296.321 391.276 300.492L384.935 302.025L384.101 297.878C377.511 265.368 372.858 248.818 370.142 248.229C367.362 247.625 361.178 249.745 351.59 254.591L351.082 254.848L347.009 244.5C349.912 239.568 354.569 235.758 360.98 233.07C370.449 229.099 374.217 233.571 377.935 228.492L378.552 227.62C381.949 222.93 383.56 223.662 383.626 237.329Z" fill="#2C4F99"/>
<path id="Path_19" fill-rule="evenodd" clip-rule="evenodd" d="M335.15 260.393L335.459 261.225C341.117 276.241 336.001 298.288 301.534 318.726C312.396 303.485 318.957 291.735 321.217 283.476C323.894 273.694 325.308 259.192 325.46 239.969L325.471 238.063L330.629 232.56C330.095 241.415 331.602 250.693 335.15 260.393Z" fill="#2C4F99"/>
<path id="Path_20" fill-rule="evenodd" clip-rule="evenodd" d="M326.254 244.513L325.387 245.091C325.417 243.667 325.439 242.215 325.453 240.734L326.778 239.57C339.889 228.012 348.824 218.856 353.584 212.101C354.824 211.845 356.037 211.613 357.224 211.404C346.7 226.63 336.377 237.666 326.254 244.513Z" fill="#D84B25"/>
<path id="Path 70" d="M345.886 242.239C346.087 242.147 346.324 242.236 346.416 242.437L346.688 243.039C347.899 245.742 349.487 249.63 351.455 254.703C351.535 254.909 351.433 255.141 351.227 255.221C351.021 255.301 350.789 255.199 350.709 254.993L350.263 253.846C348.358 248.967 346.833 245.274 345.688 242.769C345.596 242.568 345.685 242.331 345.886 242.239Z" fill="#193674"/>
<path id="Path 78" d="M328.296 260.894C328.479 260.77 328.728 260.819 328.851 261.002C334.412 269.245 335.649 279.259 332.573 291.017C329.503 302.752 320.267 316.111 304.874 331.11C304.715 331.265 304.462 331.261 304.308 331.103C304.154 330.945 304.157 330.692 304.315 330.537C319.614 315.63 328.773 302.383 331.799 290.814C334.82 279.268 333.612 269.489 328.188 261.449C328.065 261.266 328.113 261.017 328.296 260.894Z" fill="#193674"/>
<path id="Path 79" d="M350.83 245.76C360.113 238.196 368.04 235.303 374.613 237.134C381.281 238.992 387.169 257.833 392.541 293.901C392.573 294.12 392.422 294.323 392.204 294.356C391.985 294.388 391.782 294.237 391.749 294.019L391.43 291.903C386.211 257.668 380.452 239.592 374.398 237.905C368.126 236.157 360.437 238.964 351.335 246.38C351.164 246.519 350.912 246.494 350.772 246.322C350.633 246.151 350.658 245.899 350.83 245.76Z" fill="#193674"/>
<g id="Group 9">
<g id="Group 8">
<path id="Path 89" d="M373.35 206.541C373.543 206.541 373.704 206.678 373.741 206.86L373.75 206.941V212.386C373.75 212.5 373.701 212.606 373.62 212.681L373.552 212.731L369.212 215.283C369.021 215.395 368.776 215.331 368.664 215.141C368.566 214.974 368.603 214.766 368.741 214.641L368.806 214.593L372.949 212.157L372.95 206.941C372.95 206.748 373.087 206.586 373.269 206.549L373.35 206.541Z" fill="#85260C"/>
<path id="Path 90" d="M372.949 212.386C372.949 212.096 373.243 211.911 373.497 212.014L373.565 212.05L377.542 214.601C377.728 214.721 377.782 214.968 377.663 215.154C377.558 215.317 377.356 215.378 377.182 215.311L377.11 215.275L373.749 213.117L373.749 215.987C373.749 216.181 373.612 216.342 373.43 216.379L373.349 216.387C373.156 216.387 372.995 216.25 372.958 216.068L372.949 215.987V212.386Z" fill="#85260C"/>
</g>
<g id="Group 8 Copy">
<path id="Path 89_2" d="M384.348 206.541C384.541 206.541 384.702 206.678 384.74 206.86L384.748 206.941V212.386C384.748 212.5 384.7 212.606 384.618 212.681L384.551 212.731L380.21 215.283C380.02 215.395 379.774 215.331 379.662 215.141C379.564 214.974 379.601 214.766 379.739 214.641L379.805 214.593L383.947 212.157L383.948 206.941C383.948 206.748 384.085 206.586 384.267 206.549L384.348 206.541Z" fill="#85260C"/>
<path id="Path 90_2" d="M383.948 212.386C383.948 212.096 384.242 211.911 384.496 212.014L384.564 212.05L388.54 214.601C388.726 214.721 388.78 214.968 388.661 215.154C388.557 215.317 388.354 215.378 388.181 215.311L388.108 215.275L384.747 213.117L384.748 215.987C384.748 216.181 384.611 216.342 384.428 216.379L384.348 216.387C384.154 216.387 383.993 216.25 383.956 216.068L383.948 215.987V212.386Z" fill="#85260C"/>
</g>
<path id="Path 80" fill-rule="evenodd" clip-rule="evenodd" d="M368.362 169C368.362 169 359.958 188.604 364.726 200.395C369.495 212.187 389.135 212.139 392.476 200.395C395.818 188.651 386.966 169 386.966 169C386.966 169 384.678 177.92 378.196 177.92C371.714 177.92 368.362 169 368.362 169Z" fill="#EF793F"/>
<path id="Path 82" fill-rule="evenodd" clip-rule="evenodd" d="M370.549 188.479C370.549 188.479 365.8 199.64 371.591 205.222C377.382 210.804 387.818 208.54 388.56 199.33C389.302 190.121 382.748 185.485 382.748 185.485L374.534 186.401L370.549 188.479Z" fill="#FFD398"/>
<path id="Path 559" d="M386.125 188.771C386.313 188.654 386.559 188.712 386.676 188.899C388.216 191.381 389.002 194.249 389.035 197.496C389.038 197.717 388.86 197.898 388.639 197.9C388.418 197.902 388.238 197.725 388.235 197.504C388.204 194.399 387.457 191.674 385.996 189.321C385.88 189.134 385.937 188.887 386.125 188.771Z" fill="#85260C"/>
<path id="Path 83" d="M371.904 194.717C372.004 194.659 372.126 194.677 372.205 194.754L372.246 194.807L374.467 198.624L375.938 195.7C375.99 195.598 376.103 195.546 376.211 195.568L376.274 195.589C376.377 195.641 376.428 195.754 376.407 195.862L376.385 195.925L374.706 199.262C374.628 199.417 374.427 199.442 374.311 199.331L374.267 199.275L371.814 195.059C371.744 194.939 371.785 194.786 371.904 194.717Z" fill="#C68936"/>
<path id="Path 84" d="M383.86 194.401C383.921 194.277 384.071 194.225 384.195 194.286C384.298 194.336 384.351 194.449 384.331 194.557L384.31 194.62L382.395 198.545C382.323 198.693 382.136 198.727 382.016 198.632L381.969 198.583L379.883 195.727C379.801 195.615 379.826 195.459 379.937 195.377C380.03 195.31 380.154 195.315 380.24 195.383L380.286 195.432L382.128 197.953L383.86 194.401Z" fill="#C68936"/>
<path id="Path 85" d="M376.661 198.215C376.763 198.161 376.885 198.184 376.96 198.264L376.999 198.318L378.51 201.161L379.859 198.328C379.908 198.224 380.02 198.17 380.128 198.189L380.192 198.21C380.296 198.259 380.35 198.371 380.331 198.479L380.31 198.543L378.748 201.825C378.671 201.987 378.461 202.012 378.345 201.894L378.302 201.835L376.557 198.553C376.493 198.431 376.539 198.279 376.661 198.215Z" fill="#C68936"/>
<path id="Path 86" d="M385.169 198.901L385.234 198.916C385.342 198.956 385.405 199.063 385.395 199.172L385.38 199.238L383.741 203.588C383.677 203.757 383.468 203.8 383.342 203.689L383.3 203.64L381.265 200.615C381.187 200.5 381.218 200.345 381.332 200.268C381.428 200.203 381.552 200.214 381.635 200.285L381.679 200.335L383.444 202.958L384.912 199.062C384.944 198.975 385.019 198.918 385.104 198.903L385.169 198.901Z" fill="#C68936"/>
<path id="Path 87" d="M380.758 202.301C380.835 202.186 380.991 202.156 381.105 202.233C381.201 202.297 381.238 202.416 381.203 202.52L381.173 202.58L378.959 205.869C378.87 206.001 378.689 206.014 378.581 205.912L378.539 205.862L376.795 203.07C376.722 202.953 376.758 202.799 376.875 202.726C376.972 202.665 377.096 202.679 377.176 202.754L377.219 202.805L378.759 205.269L380.758 202.301Z" fill="#C68936"/>
<path id="Path 88" d="M371.894 200.186C371.991 200.124 372.115 200.137 372.196 200.21L372.24 200.261L374.405 203.621L375.951 201.191C376.012 201.094 376.13 201.054 376.235 201.086L376.296 201.114C376.393 201.176 376.433 201.293 376.401 201.398L376.373 201.459L374.618 204.219C374.533 204.354 374.35 204.371 374.24 204.271L374.197 204.22L371.82 200.532C371.745 200.416 371.778 200.261 371.894 200.186Z" fill="#C68936"/>
<path id="Path 81" fill-rule="evenodd" clip-rule="evenodd" d="M375.055 190.726L378.007 194.933L380.737 190.726L377.896 185.94L375.055 190.726Z" fill="#D84B25"/>
<g id="Group 7">
<path id="Oval" fill-rule="evenodd" clip-rule="evenodd" d="M372.507 191.44C375.545 191.44 378.007 188.978 378.007 185.94C378.007 182.903 375.545 180.44 372.507 180.44C369.47 180.44 367.007 182.903 367.007 185.94C367.007 188.978 369.47 191.44 372.507 191.44Z" fill="white"/>
<path id="Oval Copy" fill-rule="evenodd" clip-rule="evenodd" d="M383.507 191.44C386.545 191.44 389.007 188.978 389.007 185.94C389.007 182.903 386.545 180.44 383.507 180.44C380.47 180.44 378.007 182.903 378.007 185.94C378.007 188.978 380.47 191.44 383.507 191.44Z" fill="white"/>
<path id="Oval_2" fill-rule="evenodd" clip-rule="evenodd" d="M374.007 188.44C375.112 188.44 376.007 187.545 376.007 186.44C376.007 185.336 375.112 184.44 374.007 184.44C372.903 184.44 372.007 185.336 372.007 186.44C372.007 187.545 372.903 188.44 374.007 188.44Z" fill="#493E3C"/>
<path id="Oval Copy 2" fill-rule="evenodd" clip-rule="evenodd" d="M382.007 188.44C383.112 188.44 384.007 187.545 384.007 186.44C384.007 185.336 383.112 184.44 382.007 184.44C380.903 184.44 380.007 185.336 380.007 186.44C380.007 187.545 380.903 188.44 382.007 188.44Z" fill="#493E3C"/>
</g>
<path id="Path 555" d="M368.038 168.353C368.119 168.147 368.352 168.047 368.557 168.128C368.762 168.21 368.863 168.442 368.781 168.647C364.99 178.215 363.269 186.971 363.615 194.916C363.625 195.136 363.453 195.323 363.233 195.333C363.012 195.342 362.825 195.171 362.816 194.95C362.464 186.885 364.207 178.019 368.038 168.353Z" fill="#85260C"/>
<path id="Path 556" d="M389.455 174.567C389.665 174.499 389.891 174.615 389.958 174.825C394.271 188.252 394.885 197.515 391.742 202.649C388.597 207.785 383.819 210.116 377.469 209.62C377.249 209.602 377.084 209.41 377.101 209.19C377.118 208.969 377.311 208.805 377.531 208.822C383.587 209.295 388.075 207.106 391.059 202.232C394.044 197.356 393.443 188.291 389.197 175.07C389.129 174.86 389.245 174.634 389.455 174.567Z" fill="#85260C"/>
<path id="Path 557" d="M369.118 191.996C369.185 191.785 369.409 191.668 369.62 191.735C369.831 191.801 369.948 192.026 369.882 192.236C368.37 197.039 369.046 201.272 371.908 204.977C372.043 205.152 372.011 205.404 371.836 205.539C371.661 205.674 371.41 205.641 371.275 205.466C368.249 201.549 367.53 197.044 369.118 191.996Z" fill="#85260C"/>
<path id="Path 558" d="M387.949 201.187C388.025 200.98 388.255 200.873 388.462 200.949C388.67 201.026 388.776 201.255 388.7 201.463C386.972 206.169 383.212 208.572 377.505 208.642C377.284 208.645 377.103 208.468 377.1 208.247C377.097 208.026 377.274 207.845 377.495 207.842C382.884 207.776 386.341 205.567 387.949 201.187Z" fill="#85260C"/>
<path id="Path 560" d="M380.401 190.508C380.521 190.323 380.769 190.27 380.954 190.39C381.116 190.496 381.177 190.698 381.109 190.872L381.072 190.944L378.343 195.151C378.206 195.362 377.917 195.39 377.74 195.231L377.68 195.163L374.727 190.956C374.6 190.775 374.644 190.526 374.825 190.399C374.983 190.288 375.194 190.307 375.329 190.435L375.382 190.496L377.994 194.218L380.401 190.508Z" fill="#85260C"/>
</g>
<path id="Path 42" d="M281.485 130.862C281.706 130.862 281.885 131.041 281.885 131.262C281.885 132.102 281.323 132.786 280.208 133.443C279.444 133.893 278.401 134.348 276.845 134.929L275.651 135.362C273.936 135.971 270.741 137.085 270.779 137.072C266.147 138.707 262.6 141.101 260.127 144.253C259.99 144.427 259.739 144.457 259.565 144.321C259.391 144.185 259.361 143.933 259.497 143.759C262.069 140.481 265.744 138.001 270.513 136.317L277.878 133.703C279.254 133.193 279.071 133.195 279.708 132.81L279.802 132.753C280.699 132.225 281.085 131.755 281.085 131.262C281.085 131.041 281.265 130.862 281.485 130.862Z" fill="#D84B25"/>
<path id="Path 46" d="M298.771 178.92C298.992 178.916 299.174 179.093 299.177 179.314C299.423 195.34 295.39 207.016 287.056 214.312C286.889 214.457 286.637 214.44 286.491 214.274C286.346 214.108 286.362 213.855 286.529 213.71C294.664 206.587 298.62 195.136 298.377 179.326C298.374 179.105 298.55 178.923 298.771 178.92Z" fill="#85260C"/>
<path id="Path 47" d="M297.732 323.773C297.875 323.643 298.087 323.637 298.237 323.747L298.297 323.802L312.2 339.208C312.348 339.372 312.335 339.625 312.171 339.773C312.028 339.903 311.816 339.909 311.666 339.799L311.606 339.744L297.703 324.338C297.555 324.174 297.568 323.921 297.732 323.773Z" fill="#193674"/>
<path id="Path 553" d="M402.38 291.75C402.597 291.706 402.808 291.845 402.852 292.062C402.891 292.251 402.789 292.436 402.618 292.509L402.54 292.534L383.708 296.381C383.492 296.425 383.281 296.285 383.236 296.069C383.198 295.88 383.3 295.694 383.471 295.621L383.548 295.597L402.38 291.75Z" fill="#193674"/>
<path id="Path 554" d="M288.849 192.872L288.929 192.883C289.144 192.934 289.276 193.15 289.224 193.365C288.185 197.679 285.091 205.25 282.634 209.461L282.398 209.858C280.845 212.424 281.349 213.918 283.976 214.649C284.189 214.708 284.314 214.929 284.254 215.142C284.195 215.355 283.975 215.479 283.762 215.42C280.676 214.562 279.931 212.543 281.591 209.652L281.714 209.444C284.162 205.398 287.393 197.55 288.447 193.178C288.492 192.99 288.663 192.865 288.849 192.872Z" fill="#85260C"/>
<path id="Path_21" d="M278.263 158.464C281.575 155.14 285.493 154.545 289.922 156.685C293.428 158.379 296.068 162.928 297.889 170.311C297.942 170.525 297.811 170.742 297.597 170.795C297.382 170.848 297.165 170.717 297.113 170.502C295.342 163.329 292.814 158.97 289.574 157.405C285.447 155.411 281.897 155.95 278.83 159.028C278.674 159.185 278.42 159.185 278.264 159.029C278.107 158.873 278.107 158.62 278.263 158.464Z" fill="#85260C"/>
<path id="Path 562" d="M314 114.776C314.245 114.776 314.45 114.952 314.492 115.186L314.5 115.276V147.487C314.5 147.763 314.276 147.987 314 147.987C313.755 147.987 313.55 147.81 313.508 147.577L313.5 147.487V115.276C313.5 114.999 313.724 114.776 314 114.776Z" fill="white"/>
<path id="Path 563" d="M319.483 56.5632C319.728 56.5632 319.932 56.7401 319.975 56.9734L319.983 57.0632V70.7629C319.983 71.0391 319.759 71.2629 319.483 71.2629C319.237 71.2629 319.033 71.0861 318.991 70.8528L318.983 70.7629V57.0632C318.983 56.7871 319.207 56.5632 319.483 56.5632Z" fill="white"/>
<path id="Path 561 Copy_3" d="M314 370.047C314.245 370.047 314.45 370.223 314.492 370.457L314.5 370.547V430.882C314.5 431.158 314.276 431.382 314 431.382C313.755 431.382 313.55 431.205 313.508 430.972L313.5 430.882V370.547C313.5 370.27 313.724 370.047 314 370.047Z" fill="white"/>
<path id="Path 767" opacity="0.1" fill-rule="evenodd" clip-rule="evenodd" d="M348.819 149.779H435.033C435.033 149.779 429.876 131.381 411.528 131.381C393.181 131.381 386.768 146.808 374.451 143.216C362.134 139.624 348.819 149.779 348.819 149.779Z" fill="#211A38"/>
</g>
</g>
</svg>
