<svg width="606" height="489" viewBox="0 0 606 489" fill="none" xmlns="http://www.w3.org/2000/svg">
<g id="Grinding">
<rect width="606" height="489" fill="white"/>
<g id="Empty State 9">
<rect id="Rectangle" opacity="0.3" x="366" y="100.394" width="26.4" height="264.8" fill="#F4AECC"/>
<rect id="Rectangle Copy 3" opacity="0.3" x="330" y="100.394" width="26.4" height="264.8" fill="#F687B7"/>
<path id="Oval" opacity="0.15" fill-rule="evenodd" clip-rule="evenodd" d="M294.4 396.2C330.851 396.2 360.4 391.007 360.4 384.6C360.4 378.193 330.851 373 294.4 373C257.949 373 228.4 378.193 228.4 384.6C228.4 391.007 257.949 396.2 294.4 396.2Z" fill="#261D47"/>
<rect id="Rectangle_2" opacity="0.3" x="414.8" y="163.594" width="14.4" height="187.2" fill="#F4AECC"/>
<rect id="Rectangle_3" opacity="0.3" x="318.8" y="100.394" width="20.8" height="205.6" fill="#F4AECC"/>
<path id="Path" opacity="0.3" fill-rule="evenodd" clip-rule="evenodd" d="M198 100.394L198.001 225.159C202.461 221.122 205.404 216.798 206.83 212.186L206.996 211.633C209.672 202.422 210.752 185.194 212.278 185.194C213.834 185.194 211.313 213.646 209.964 219.02C208.77 223.777 202.88 228.258 198 236.639L198 342.794H175.6L175.6 188.975C169.849 185.48 163.97 186.255 161.752 175.622L161.37 173.766C160 167.043 158.53 159.013 156.96 149.678L156.367 146.116L155.794 142.614C155.785 142.56 155.781 142.505 155.781 142.45C155.781 141.887 156.238 141.43 156.801 141.43C157.513 141.43 158.139 141.897 158.342 142.579L160.352 149.379C162.81 157.751 164.64 164.215 165.841 168.771L166.235 170.282L166.709 172.161C168.206 177.771 171.986 178.866 175.6 179.404L175.6 100.394H198Z" fill="#F687B7"/>
<rect id="Rectangle_4" opacity="0.3" x="218.8" y="100.394" width="15.2" height="226.4" fill="#F4AECC"/>
<path id="Path_2" fill-rule="evenodd" clip-rule="evenodd" d="M214.7 297.194C243.714 297.194 267.682 318.796 271.399 346.794H158C161.717 318.796 185.685 297.194 214.7 297.194Z" fill="#F4AECC"/>
<path id="Path 760" d="M245.185 326.553C245.352 326.444 245.575 326.492 245.683 326.658C245.778 326.804 245.754 326.993 245.634 327.111L245.578 327.156L214.896 347.096C214.729 347.205 214.506 347.157 214.398 346.991C214.303 346.845 214.327 346.656 214.446 346.538L214.503 346.493L245.185 326.553Z" fill="white"/>
<path id="Path 761" d="M226.494 300.995C226.662 301.04 226.77 301.198 226.759 301.365L226.747 301.437L215.047 344.496C214.995 344.688 214.797 344.801 214.605 344.749C214.437 344.703 214.33 344.546 214.34 344.379L214.352 344.307L226.053 301.248C226.098 301.08 226.255 300.972 226.422 300.983L226.494 300.995Z" fill="white"/>
<path id="Path 762" d="M186.101 307.55C186.227 307.434 186.412 307.425 186.547 307.517L186.61 307.572L206.029 328.739C206.163 328.885 206.154 329.113 206.007 329.248C205.881 329.363 205.696 329.372 205.561 329.28L205.498 329.226L186.08 308.058C185.945 307.912 185.955 307.684 186.101 307.55Z" fill="white"/>
<path id="Path 763" d="M163.81 330.377L214.808 346.451C214.997 346.511 215.103 346.713 215.043 346.903C214.991 347.069 214.829 347.17 214.663 347.153L214.591 347.138L163.594 331.064C163.404 331.004 163.299 330.802 163.359 330.612C163.411 330.446 163.572 330.345 163.739 330.362L163.81 330.377Z" fill="white"/>
<path id="Path Copy 5" fill-rule="evenodd" clip-rule="evenodd" d="M440 329.994C456.573 329.994 470.636 340.719 475.6 355.594H404.4C409.364 340.719 423.427 329.994 440 329.994Z" fill="#F4AECC"/>
<path id="Path_3" fill-rule="evenodd" clip-rule="evenodd" d="M388 339.594C408.675 339.594 426.218 353.001 432.412 371.594H343.588C349.781 353.001 367.325 339.594 388 339.594Z" fill="#F687B7"/>
<g id="Group 25">
<path id="Path 258" fill-rule="evenodd" clip-rule="evenodd" d="M333.072 326.919C333.072 326.919 318.917 374.435 317.042 378.893C315.166 383.35 318.243 383.35 327.406 383.35C336.569 383.35 345.371 383.639 345.371 382.315C345.371 380.991 330.04 372.858 330.04 370.6C330.04 368.342 352.534 326.773 352.534 323.606C352.534 320.439 333.072 326.919 333.072 326.919Z" fill="#EE5B7E"/>
<path id="Path_4" fill-rule="evenodd" clip-rule="evenodd" d="M348.26 322.756L350.571 325.284C348.657 328.451 345.505 331.628 341.113 334.814C334.591 339.546 326.289 370.252 324.613 373.723L324.564 373.82C323.572 375.696 330.346 378.682 344.886 382.777C342.96 383.552 335.549 383.357 327.794 383.351L325.015 383.347C317.809 383.313 315.402 382.947 316.978 379.047L317.121 378.697C318.507 375.222 323.824 357.963 333.072 326.919L334.556 326.43C340.697 324.425 345.265 323.201 348.26 322.756Z" fill="#CD4877"/>
<path id="Path 246" fill-rule="evenodd" clip-rule="evenodd" d="M314.892 223.57C314.892 223.57 322.731 209.134 332.596 207.036C342.461 204.939 341.662 197.166 338.453 195.672C335.245 194.179 320.716 194.222 310.723 201.861C300.73 209.5 303.269 221.209 306.389 224.567C309.51 227.925 314.892 223.57 314.892 223.57Z" fill="#CD4877"/>
<path id="Path_5" fill-rule="evenodd" clip-rule="evenodd" d="M307.479 204.966C309.992 205.088 312.463 205.635 314.892 206.606C318.993 208.246 316.873 211.89 320.228 210.078L320.4 209.983C322.654 208.712 326.28 207.454 331.279 206.207L332.264 205.966L332.72 207.009L332.596 207.036C326.124 208.412 320.306 213.772 315.142 223.115L314.892 223.57C311.304 226.473 308.469 226.806 306.389 224.567C303.705 221.678 301.451 212.61 307.235 205.269L307.479 204.966Z" fill="#B53160"/>
<path id="Path 257" fill-rule="evenodd" clip-rule="evenodd" d="M266.634 320.439C266.634 320.439 260.266 367.759 259.184 370.35C258.103 372.942 252.433 379.663 252.433 381.628C252.433 383.592 267.679 383.34 268.803 383.34C269.928 383.34 267.679 373.28 268.803 368.545C269.928 363.81 287.296 324.105 287.296 324.105L266.634 320.439Z" fill="#EE5B7E"/>
<path id="Path_6" fill-rule="evenodd" clip-rule="evenodd" d="M266.634 320.439L287.296 324.105L284.991 329.384L282.866 330.263C279.398 331.691 276.296 332.935 273.559 333.994C267.778 336.231 262.615 370.25 262.615 371.594C262.615 371.995 266.718 377.459 269.11 382.649C269.074 383.09 268.981 383.34 268.803 383.34L266.36 383.35C261.757 383.344 252.433 383.164 252.433 381.628C252.433 379.663 258.103 372.942 259.184 370.35L259.23 370.229C259.942 368.138 262.082 353.969 265.649 327.724L266.634 320.439Z" fill="#CD4877"/>
<path id="Path 255" fill-rule="evenodd" clip-rule="evenodd" d="M283.6 268.4C283.6 268.4 273.996 292.651 266.343 304.904C258.69 317.158 263.808 326.055 272.752 328.439C281.696 330.822 294.256 326.019 296.87 320.176C299.483 314.333 307.2 298.732 307.2 298.732C307.2 298.732 322.184 322.327 325.284 327.288C328.384 332.249 337.393 333.827 342.638 332.047C347.884 330.268 353.369 326.275 355.442 320.176C357.516 314.078 349.688 303.635 340.857 294.903C332.027 286.17 317.269 261.194 317.269 261.194L283.6 268.4Z" fill="#4F4780"/>
<path id="Path_7" fill-rule="evenodd" clip-rule="evenodd" d="M283.6 268.4L317.269 261.194L318.257 262.858C318.42 263.133 318.583 263.406 318.746 263.677L318.8 263.555C316.119 269.662 312.918 274.745 309.197 278.804L305.571 278.79C296.39 278.775 285.026 279.316 274.602 289.399C277.334 283.605 280.212 276.91 283.236 269.316L283.6 268.4Z" fill="#413474"/>
<path id="Path_8" fill-rule="evenodd" clip-rule="evenodd" d="M315.166 283.733C316.543 293.55 319.004 300.458 322.551 304.457L322.749 304.676C328.228 310.621 325.394 317.668 327.6 323.744C328.658 326.657 331.711 329.65 336.761 332.722C332.231 332.47 327.391 330.661 325.284 327.288L318.624 316.738L307.2 298.732L315.166 283.733Z" fill="#413474"/>
<path id="Path 252" fill-rule="evenodd" clip-rule="evenodd" d="M283.6 259.542L279.001 271.667C279.001 271.667 295.264 276.472 309.429 276.472C315.726 270.099 319.538 261.194 319.538 261.194L314.439 255.303L295.87 252.234L283.6 259.542Z" fill="#EE5B7E"/>
<path id="Path_9" fill-rule="evenodd" clip-rule="evenodd" d="M295.87 252.234L314.439 255.303L319.538 261.194C318.558 263.483 317.455 265.646 316.229 267.684L315.724 267.493C310.823 265.676 300.774 262.851 295.024 264.353C291.325 265.319 286.858 265.454 281.622 264.759L283.6 259.542L295.87 252.234Z" fill="#CD4877"/>
<path id="Path 253" d="M316.952 259.958C317.046 259.782 317.264 259.716 317.439 259.81C317.615 259.904 317.681 260.123 317.587 260.298C315.315 264.534 312.134 268.633 308.047 272.593C307.985 272.653 307.904 272.689 307.818 272.694C299.945 273.163 291.204 271.955 281.593 269.072C281.403 269.014 281.294 268.814 281.352 268.623C281.409 268.433 281.609 268.325 281.8 268.382C291.045 271.155 299.467 272.365 307.065 272.013L307.642 271.982L308.116 271.517C311.69 267.967 314.527 264.312 316.627 260.552L316.952 259.958Z" fill="white"/>
<path id="Path 254" d="M302.777 256.994C302.941 256.937 303.119 257.006 303.204 257.15L303.235 257.216L307.54 269.659C307.605 269.847 307.506 270.052 307.318 270.117C307.153 270.173 306.976 270.104 306.89 269.96L306.86 269.894L302.554 257.452C302.489 257.264 302.589 257.059 302.777 256.994Z" fill="white"/>
<path id="Path 245" fill-rule="evenodd" clip-rule="evenodd" d="M266.803 230.92C266.803 230.92 261.459 239.424 265.603 250.936C269.748 262.448 290.061 267.52 295.854 256.693C301.646 245.865 293.582 230.92 293.582 230.92H266.803Z" fill="#CD4877"/>
<path id="Path_10" fill-rule="evenodd" clip-rule="evenodd" d="M293.582 230.92C298.958 240.883 299.715 249.474 295.853 256.693C293.065 261.906 286.91 263.433 280.815 262.331L281.468 261.98C284.885 260.11 286.283 258.655 282.699 254.701L282.53 254.517C278.309 249.966 277.225 241.367 274.531 243.371L274.434 243.447C271.667 245.732 269.748 242.794 268.456 241.161C267.785 240.314 266.237 240.126 263.81 240.598C263.943 237.246 264.865 234.143 266.576 231.291L266.803 230.92H293.582Z" fill="#B53160"/>
<path id="Path 243" fill-rule="evenodd" clip-rule="evenodd" d="M301.957 205.966L306.73 201.861H311.32L310.723 207.036L314.892 208.799L313.162 215.496L304.4 217.329L301.957 205.966Z" fill="#EE5B7E"/>
<path id="Path 747" d="M311.289 201.502L311.361 201.503C311.534 201.523 311.664 201.662 311.679 201.829L311.678 201.902L311.112 206.81L315.033 208.467C315.173 208.527 315.259 208.667 315.252 208.815L315.241 208.889L313.511 215.586C313.461 215.779 313.265 215.895 313.072 215.845C312.904 215.801 312.794 215.646 312.803 215.478L312.814 215.406L314.466 209.009L310.583 207.368C310.46 207.316 310.379 207.202 310.365 207.074L310.366 206.995L310.963 201.82C310.983 201.647 311.122 201.517 311.289 201.502Z" fill="white"/>
<path id="Path 240" fill-rule="evenodd" clip-rule="evenodd" d="M268.456 225.263L259.104 232.064L261.522 237.121L268.456 234.062L270.857 239.538L276.837 236.586L280.192 242.794L289.764 239.538V232.911L273.688 224.567L268.456 225.263Z" fill="#EE5B7E"/>
<path id="Path_11" fill-rule="evenodd" clip-rule="evenodd" d="M285.929 230.92L289.764 232.911V239.538L280.192 242.794L278.557 239.769C278.69 237.072 279.136 234.336 279.895 231.561L280.076 230.92L285.929 230.92Z" fill="#CD4877"/>
<path id="Path 237" fill-rule="evenodd" clip-rule="evenodd" d="M274.948 216.675L268.456 225.263C268.456 225.263 277.371 228.35 287.58 235.909C297.789 243.468 309.51 230.448 309.51 223.562C309.51 216.675 301.957 205.966 301.957 205.966L291.98 209.343L274.948 216.675Z" fill="#644FA1"/>
<path id="Path_12" fill-rule="evenodd" clip-rule="evenodd" d="M280.033 230.501C284.308 219.084 293.085 213.571 306.364 213.962L306.818 213.977C308.612 217.626 309.51 220.821 309.51 223.562C309.51 230.448 297.789 243.468 287.58 235.909C284.968 233.975 282.42 232.261 279.935 230.766L280.033 230.501Z" fill="#4E3A89"/>
<path id="Path 236" fill-rule="evenodd" clip-rule="evenodd" d="M275.267 210.312C275.267 210.312 276.085 207.153 283.464 205.626C290.843 204.099 293.582 205.966 293.582 205.966C293.582 205.966 294.164 209.706 293.582 212.186C292.999 214.666 288.226 215.027 288.226 215.027L275.267 210.312Z" fill="#B73563"/>
<path id="Path 228" fill-rule="evenodd" clip-rule="evenodd" d="M257.667 180.1C257.667 180.1 246.494 181.641 243.505 192.776C240.516 203.91 249.546 209.493 249.546 209.493C249.546 209.493 244.648 209.099 243.505 214.013C242.362 218.927 247.162 228.862 258.699 226.651C270.237 224.441 271.709 208.175 268.971 201.048C266.233 193.921 257.667 180.1 257.667 180.1Z" fill="#FAD754"/>
<path id="Path_13" fill-rule="evenodd" clip-rule="evenodd" d="M255.02 183.294L260.575 184.881C264.677 191.767 267.476 197.156 268.971 201.048C271.709 208.175 270.237 224.441 258.699 226.651C255.427 227.278 252.697 226.928 250.49 225.993C255.132 226.464 260.014 224.24 260.014 218.111C260.014 209.843 255.02 209.493 252.857 199.627C251.447 193.192 252.106 187.842 254.835 183.577L255.02 183.294Z" fill="#FFC658"/>
<path id="Path 227" fill-rule="evenodd" clip-rule="evenodd" d="M258.607 178.963C258.607 178.963 254.826 178.861 253.217 185.819C251.607 192.778 255.649 199.31 260.459 198.348C265.27 197.387 258.607 178.963 258.607 178.963Z" fill="#EE5B7E"/>
<path id="Path 226" fill-rule="evenodd" clip-rule="evenodd" d="M280.192 173.693C280.192 173.693 287.42 181.244 285.011 185.45C282.602 189.657 270.237 177.116 270.237 177.116L280.192 173.693Z" fill="#FFC658"/>
<path id="Path 225" fill-rule="evenodd" clip-rule="evenodd" d="M277.635 204.954C277.635 204.954 268.029 206.428 260.221 200.232C252.412 194.035 253.222 178.641 263.829 172.487C274.436 166.333 280.635 169.892 281.639 172.487C282.643 175.082 279.662 178.963 279.662 178.963L277.635 204.954Z" fill="#FAD754"/>
<path id="Path 223" fill-rule="evenodd" clip-rule="evenodd" d="M269.983 196.388C269.983 196.388 266.803 195.506 266.803 199.111C266.803 202.717 272.358 203.132 272.358 203.132C272.358 203.132 279.572 207.382 281.224 214.966C291.143 220.938 293.349 219.038 293.349 217.194C293.349 215.35 290.232 211.291 292.19 205.783C294.147 200.276 293.743 193.5 289.384 187.627C285.025 181.753 279.662 178.963 279.662 178.963C279.662 178.963 276.712 182.442 270.911 185.034C265.11 187.627 269.983 196.388 269.983 196.388Z" fill="#F8AE91"/>
<path id="Path_14" fill-rule="evenodd" clip-rule="evenodd" d="M274.939 204.901C280.649 208.445 286.461 209.644 290.101 207.409C289.777 208.491 287.33 212.678 280.269 211.89C279.176 209.24 277.465 206.963 275.135 205.057L274.939 204.901Z" fill="#D2787C"/>
<path id="Path 229" d="M249.232 209.317C249.33 209.144 249.549 209.082 249.722 209.179C253.29 211.184 254.527 213.851 253.409 216.103C252.397 218.143 249.747 219.07 247.416 218.051C247.234 217.971 247.151 217.759 247.231 217.577C247.31 217.395 247.522 217.312 247.705 217.391C249.687 218.258 251.924 217.476 252.764 215.783C253.69 213.918 252.634 211.641 249.37 209.807C249.196 209.71 249.135 209.49 249.232 209.317Z" fill="white"/>
<path id="Path 230" d="M282.623 182.121C282.739 181.96 282.964 181.924 283.125 182.04C283.287 182.156 283.323 182.381 283.207 182.542C281.144 185.404 280.389 187.43 280.87 188.561C281.039 188.96 281.361 189.414 281.837 189.942C282.049 190.178 282.282 190.418 282.569 190.701L283.854 191.941C285.247 193.296 285.371 193.523 285.371 194.11C285.371 195.116 284.451 195.736 282.751 196.027C282.555 196.061 282.369 195.929 282.336 195.733C282.302 195.537 282.434 195.351 282.63 195.318C284.024 195.078 284.651 194.656 284.651 194.11L284.646 194.033C284.605 193.725 284.289 193.363 282.982 192.1L282.444 191.583C281.961 191.12 281.613 190.77 281.302 190.424C280.778 189.842 280.413 189.329 280.207 188.843C279.593 187.397 280.421 185.176 282.623 182.121Z" fill="#D2787C"/>
<path id="Path 231" d="M276.186 188.355C276.378 188.302 276.576 188.415 276.629 188.606C276.675 188.774 276.595 188.947 276.446 189.023L276.378 189.049L270.249 190.744C270.057 190.797 269.859 190.685 269.806 190.493C269.759 190.325 269.84 190.152 269.989 190.076L270.057 190.05L276.186 188.355Z" fill="#D2787C"/>
<path id="Path_15" d="M281.594 198.543C283.06 197.709 285.458 197.455 288.803 197.756C289.001 197.774 289.147 197.949 289.129 198.147C289.111 198.345 288.937 198.491 288.738 198.473C285.527 198.184 283.259 198.424 281.95 199.169C281.06 199.675 280.604 200.547 280.808 201.212C281.034 201.952 282.035 202.368 283.765 202.159C285.053 202.004 286.076 201.591 286.841 200.925C286.991 200.794 287.219 200.81 287.349 200.96C287.48 201.11 287.464 201.337 287.314 201.468C286.433 202.235 285.275 202.702 283.851 202.874C281.814 203.12 280.467 202.56 280.119 201.422C279.807 200.402 280.434 199.203 281.594 198.543Z" fill="#D2787C"/>
<path id="Path 233" fill-rule="evenodd" clip-rule="evenodd" d="M276.457 191.293C276.457 191.293 275.569 191.927 275.569 192.398C275.569 192.869 276.223 193.306 277.223 192.398C278.069 193.389 277.838 194.438 277.395 194.875C276.951 195.312 275.501 195.153 274.359 193.223C273.217 191.293 274.221 190.747 275.024 190.572C275.828 190.397 276.457 191.293 276.457 191.293Z" fill="#D2787C"/>
<path id="Path 233 Copy" fill-rule="evenodd" clip-rule="evenodd" d="M285.412 185.944C285.412 185.944 284.524 186.577 284.524 187.048C284.524 187.519 285.178 187.957 286.177 187.048C287.023 188.039 286.793 189.089 286.349 189.526C285.906 189.962 284.456 189.804 283.314 187.874C282.172 185.944 283.175 185.397 283.979 185.223C284.782 185.048 285.412 185.944 285.412 185.944Z" fill="#D2787C"/>
<path id="Path 234" fill-rule="evenodd" clip-rule="evenodd" d="M274.948 216.675L275.267 210.312C275.267 210.312 287.068 212.158 288.771 213.796C290.473 215.434 291.98 218.854 291.98 218.854C291.98 218.854 285.896 219.335 281.345 218.424C276.793 217.513 274.948 216.675 274.948 216.675Z" fill="#EE5B7E"/>
<path id="Path 235" fill-rule="evenodd" clip-rule="evenodd" d="M293.061 217.909C293.061 217.909 291.052 212.618 292.317 210.709C293.582 208.799 293.582 205.966 293.582 205.966L295.853 211.519C295.853 211.519 295.572 212.945 294.786 214.666C294 216.387 293.061 217.909 293.061 217.909Z" fill="#EE5B7E"/>
<path id="Path 238" d="M271.406 223.423C271.488 223.242 271.701 223.161 271.882 223.242C278.495 226.209 284.271 229.723 289.211 233.784C289.365 233.91 289.387 234.137 289.261 234.291C289.134 234.444 288.908 234.466 288.754 234.34C283.865 230.321 278.143 226.84 271.587 223.899C271.406 223.817 271.325 223.604 271.406 223.423Z" fill="white"/>
<path id="Path 239" d="M300.52 207.618C300.681 207.502 300.906 207.538 301.022 207.699C304.419 212.403 306.549 216.79 307.407 220.864C307.448 221.058 307.323 221.249 307.129 221.29C306.934 221.331 306.743 221.207 306.702 221.012C305.867 217.046 303.781 212.748 300.439 208.121C300.322 207.96 300.358 207.735 300.52 207.618Z" fill="white"/>
<path id="Path 241" d="M270.717 228.657C270.805 228.479 271.021 228.405 271.199 228.493C271.355 228.57 271.431 228.745 271.389 228.907L271.363 228.975L268.779 234.221C268.691 234.399 268.475 234.473 268.297 234.385C268.141 234.308 268.065 234.133 268.107 233.971L268.133 233.903L270.717 228.657Z" fill="white"/>
<path id="Path 242" d="M277.751 230.241L277.824 230.243C277.997 230.265 278.125 230.406 278.137 230.573L278.135 230.646L277.557 235.101C277.531 235.298 277.351 235.437 277.154 235.412C276.981 235.389 276.853 235.248 276.841 235.081L276.843 235.008L277.421 230.554C277.443 230.381 277.584 230.253 277.751 230.241Z" fill="white"/>
<path id="Path 244" d="M310.54 206.726C310.712 206.625 310.932 206.682 311.033 206.853C311.122 207.003 311.089 207.191 310.965 207.303L310.906 207.346L306.572 209.905C306.401 210.006 306.18 209.949 306.079 209.778C305.991 209.628 306.023 209.44 306.147 209.328L306.206 209.285L310.54 206.726Z" fill="white"/>
<path id="Path 247" fill-rule="evenodd" clip-rule="evenodd" d="M337.452 208.696C337.452 208.696 332.847 210.039 331.115 207.036C329.383 204.034 330.668 198.332 335.917 195.264C341.167 192.195 346.122 192.815 348.27 194.906C350.418 196.998 348.131 201.562 344.375 204.736C340.619 207.91 337.452 208.696 337.452 208.696Z" fill="#F8AE91"/>
<path id="Path 248" fill-rule="evenodd" clip-rule="evenodd" d="M341.661 210.432C340.662 211.304 339.145 211.201 338.273 210.202L336.044 207.647C335.171 206.646 335.277 205.125 336.282 204.255L348.854 193.375C349.85 192.514 351.354 192.615 352.225 193.603L354.414 196.087C355.293 197.085 355.194 198.607 354.192 199.481L341.661 210.432Z" fill="#D79413"/>
<path id="Path 249" fill-rule="evenodd" clip-rule="evenodd" d="M341.609 205.21L349.637 198.036C350.822 196.976 352.252 196.228 353.798 195.858L380.373 189.492L395.413 191.819L365.95 204.822L342.202 206.604C341.762 206.637 341.378 206.307 341.345 205.866C341.326 205.618 341.424 205.376 341.609 205.21Z" fill="#F4E4A8"/>
<path id="Path 250" d="M378.059 191.571C378.196 191.427 378.424 191.421 378.568 191.558C378.691 191.676 378.713 191.86 378.631 192.001L378.581 192.067L366.211 205.07C366.074 205.214 365.846 205.22 365.702 205.083C365.578 204.966 365.557 204.781 365.639 204.64L365.689 204.574L378.059 191.571Z" fill="white"/>
<path id="Path 251" d="M395.345 191.465C395.541 191.428 395.729 191.556 395.766 191.752C395.799 191.923 395.705 192.088 395.55 192.152L395.48 192.173L350.912 200.641C350.717 200.678 350.529 200.549 350.492 200.354C350.459 200.183 350.553 200.017 350.708 199.954L350.778 199.933L395.345 191.465Z" fill="white"/>
<path id="Path 256" d="M314.861 283.542C314.966 283.374 315.188 283.323 315.357 283.428C315.526 283.533 315.577 283.755 315.471 283.924L314.953 284.766C312.768 288.365 310.292 293.072 307.525 298.886C307.44 299.066 307.225 299.142 307.045 299.057C306.866 298.971 306.789 298.756 306.875 298.577C309.874 292.275 312.535 287.264 314.861 283.542Z" fill="#1B1540"/>
<path id="Path 224" d="M258.163 198.156C258.321 198.036 258.547 198.067 258.667 198.226C261.362 201.793 265.2 203.91 270.201 204.582C270.398 204.609 270.536 204.79 270.509 204.987C270.483 205.184 270.302 205.322 270.105 205.296C264.919 204.599 260.908 202.386 258.092 198.66C257.973 198.501 258.004 198.276 258.163 198.156Z" fill="white"/>
<path id="Path 232" d="M268.311 233.733C268.47 233.662 268.653 233.717 268.75 233.854L268.786 233.917L271.035 239.048L276.678 236.263C276.83 236.188 277.01 236.23 277.114 236.356L277.154 236.415L280.364 242.355L289.648 239.197C289.813 239.141 289.99 239.212 290.074 239.356L290.105 239.422C290.161 239.587 290.091 239.764 289.946 239.849L289.88 239.879L280.308 243.135C280.166 243.183 280.011 243.138 279.917 243.026L279.876 242.965L276.685 237.062L271.016 239.861C270.855 239.941 270.664 239.888 270.564 239.748L270.527 239.683L268.271 234.537L261.667 237.45C261.508 237.521 261.325 237.466 261.228 237.33L261.192 237.266C261.122 237.107 261.176 236.925 261.313 236.828L261.376 236.792L268.311 233.733Z" fill="white"/>
<g id="Group 69">
<path id="Path 748" d="M294.762 257.746C294.899 257.602 295.127 257.596 295.271 257.733C295.415 257.87 295.422 258.097 295.285 258.242C291.923 261.79 287.653 263.387 282.504 263.027C282.306 263.013 282.157 262.841 282.17 262.643C282.184 262.445 282.356 262.295 282.555 262.309C287.492 262.654 291.551 261.136 294.762 257.746Z" fill="white"/>
<path id="Oval Copy 29" fill-rule="evenodd" clip-rule="evenodd" d="M306.4 262.6C319.434 262.6 330 252.034 330 239C330 225.966 319.434 215.4 306.4 215.4C293.366 215.4 282.8 225.966 282.8 239C282.8 252.034 293.366 262.6 306.4 262.6Z" fill="#D79413"/>
<path id="Oval_2" fill-rule="evenodd" clip-rule="evenodd" d="M307.2 261.194C320.234 261.194 330.8 250.628 330.8 237.594C330.8 224.56 320.234 213.994 307.2 213.994C294.166 213.994 283.6 224.56 283.6 237.594C283.6 250.628 294.166 261.194 307.2 261.194Z" fill="#FFC658"/>
<path id="Oval_3" fill-rule="evenodd" clip-rule="evenodd" d="M307.2 257.994C318.467 257.994 327.6 248.861 327.6 237.594C327.6 226.327 318.467 217.194 307.2 217.194C295.933 217.194 286.8 226.327 286.8 237.594C286.8 248.861 295.933 257.994 307.2 257.994Z" fill="#4F4780"/>
<path id="Path_16" fill-rule="evenodd" clip-rule="evenodd" d="M307.2 217.194C318.467 217.194 327.6 226.327 327.6 237.594C327.6 241.547 326.476 245.238 324.529 248.363C325.98 245.559 326.8 242.375 326.8 239C326.8 227.733 317.667 218.6 306.4 218.6C299.084 218.6 292.668 222.451 289.067 228.237C292.46 221.677 299.306 217.194 307.2 217.194Z" fill="#393165"/>
<path id="Oval Copy 5" fill-rule="evenodd" clip-rule="evenodd" d="M306.4 252.2C313.69 252.2 319.6 246.29 319.6 239C319.6 231.71 313.69 225.8 306.4 225.8C299.11 225.8 293.2 231.71 293.2 239C293.2 246.29 299.11 252.2 306.4 252.2Z" fill="#393165"/>
<path id="Oval_4" fill-rule="evenodd" clip-rule="evenodd" d="M307.2 250.794C314.49 250.794 320.4 244.884 320.4 237.594C320.4 230.304 314.49 224.394 307.2 224.394C299.91 224.394 294 230.304 294 237.594C294 244.884 299.91 250.794 307.2 250.794Z" fill="#CD4877"/>
</g>
<path id="Path 749" d="M265.809 324.506C265.931 324.349 266.157 324.32 266.314 324.442C272.876 329.525 280.585 329.975 289.5 325.777C289.68 325.693 289.894 325.77 289.979 325.95C290.064 326.129 289.987 326.344 289.807 326.429C280.659 330.737 272.662 330.27 265.873 325.011C265.716 324.89 265.687 324.664 265.809 324.506Z" fill="#1B1540"/>
<path id="Path 750" d="M314.968 311.087C315.134 310.977 315.358 311.024 315.467 311.19L320.224 318.449C323.608 323.641 325.672 326.888 326.422 328.197C327.354 329.827 331.352 331.966 335.463 332.489C341.112 333.207 346.648 331.22 351.39 325.877C351.522 325.728 351.75 325.714 351.898 325.846C352.047 325.978 352.061 326.206 351.929 326.354C347.026 331.879 341.253 333.951 335.372 333.203C331.057 332.654 326.857 330.407 325.797 328.555L325.476 328.01C324.118 325.748 320.579 320.269 314.865 311.585C314.756 311.419 314.802 311.196 314.968 311.087Z" fill="#1B1540"/>
</g>
<g id="Group 26">
<path id="Path 263" fill-rule="evenodd" clip-rule="evenodd" d="M478.814 89C481.14 97.8345 484.979 118.095 467.708 134.982C450.438 151.868 471.639 159.784 482.613 147.383C493.588 134.982 493.588 102.353 478.814 89Z" fill="#F687B7"/>
<path id="Path 261" fill-rule="evenodd" clip-rule="evenodd" d="M498.157 168.034C498.157 168.034 510.601 171.297 514.666 165.073C518.731 158.849 509.007 150.338 493.715 154.594C478.423 158.849 494.691 156.556 501.16 156.556C507.628 156.556 512.196 158.733 512.196 162.128C512.196 165.522 506.087 167.193 497.109 164.66C488.13 162.128 498.157 168.034 498.157 168.034Z" fill="#F4AECC"/>
<path id="Path_17" fill-rule="evenodd" clip-rule="evenodd" d="M443.2 120.394C474.791 120.394 500.4 146.003 500.4 177.594C500.4 196.766 490.968 213.734 476.491 224.113C478.141 232.686 482.544 238.913 489.7 242.794L490.226 243.467C495.684 250.531 494.34 251.609 486.194 246.702C479.23 242.506 474.643 235.861 472.435 226.768C463.88 231.866 453.882 234.794 443.2 234.794C441.734 234.794 440.281 234.739 438.843 234.631C440.102 239.142 441.636 241.863 443.446 242.794C445.819 244.014 448.913 242.949 452.727 239.598L452.977 239.376V244.64C447.039 248.731 442.367 249.046 438.961 245.586C436.293 242.877 434.336 238.982 433.09 233.903C406.321 229.13 386 205.735 386 177.594C386 175.696 386.092 173.82 386.273 171.969C382.453 171.163 379.314 171.924 376.857 174.251C372.135 178.724 370.205 182.558 364.872 183.813C359.539 185.067 352.084 176.248 353.463 175.25C354.842 174.251 360.823 178.981 360.823 177.796C360.823 176.612 355.854 169.122 357.501 168.11C359.147 167.098 364.872 174.282 364.872 173.022L364.869 172.84C364.825 171.321 364.339 166.469 365.95 166.469C367.632 166.469 368.32 175.202 369.899 175.202C371.345 175.202 376.797 165.733 386.785 168.106C391.303 141.031 414.842 120.394 443.2 120.394Z" fill="#F4AECC"/>
<path id="Path 259" d="M386.36 171.62C390.903 172.754 395.065 175.064 398.844 178.543C398.99 178.678 399 178.906 398.865 179.052C398.73 179.198 398.503 179.208 398.356 179.073C394.664 175.673 390.609 173.423 386.186 172.319C385.993 172.27 385.876 172.075 385.924 171.882C385.966 171.713 386.121 171.602 386.288 171.61L386.36 171.62Z" fill="white"/>
<path id="Path 260" d="M386.883 167.76C392.668 169.407 397.157 172.027 400.342 175.623C400.474 175.772 400.46 176 400.311 176.131C400.163 176.263 399.935 176.249 399.803 176.101C396.715 172.614 392.345 170.063 386.686 168.452C386.495 168.398 386.384 168.199 386.438 168.007C386.486 167.84 386.644 167.734 386.811 167.747L386.883 167.76Z" fill="white"/>
<path id="Path 262" fill-rule="evenodd" clip-rule="evenodd" d="M386.273 96.202C380.073 99.3549 368.087 138.05 398.6 159.627C401.83 161.369 407.692 160.429 410.878 155.602C411.959 153.964 412.564 151.805 412.691 149.124L412.706 148.738C412.771 146.545 411.551 144.516 409.583 143.547C391.749 134.76 383.979 118.979 386.273 96.202Z" fill="#F687B7"/>
<path id="Path 264" d="M437.663 227.366C437.862 227.366 438.023 227.527 438.023 227.726C438.023 229.295 438.412 231.57 439.191 234.539C439.241 234.732 439.126 234.928 438.934 234.979C438.742 235.029 438.545 234.914 438.494 234.722C437.701 231.698 437.303 229.369 437.303 227.726C437.303 227.527 437.464 227.366 437.663 227.366Z" fill="white"/>
<path id="Path 265" d="M432.387 228.654C432.586 228.654 432.747 228.815 432.747 229.014C432.747 230.301 432.977 231.904 433.44 233.818C433.486 234.012 433.368 234.206 433.174 234.253C432.981 234.299 432.787 234.181 432.74 233.987C432.265 232.022 432.027 230.365 432.027 229.014C432.027 228.815 432.188 228.654 432.387 228.654Z" fill="white"/>
<path id="Path 266" fill-rule="evenodd" clip-rule="evenodd" d="M455.6 249.954C455.6 249.954 452.367 261.532 450.487 261.532C448.608 261.532 447.049 234.825 447.828 225.054C448.608 215.284 456.971 212.261 462.523 217.553C468.075 222.844 471.374 251.178 471.374 254.055C471.374 256.933 464.724 246.851 464.724 246.851C464.724 246.851 463.74 260.199 462.523 261.532C461.306 262.866 455.6 249.954 455.6 249.954Z" fill="#F687B7"/>
<path id="Path 266 Copy" fill-rule="evenodd" clip-rule="evenodd" d="M487.898 269.969C487.898 269.969 481.778 280.316 479.962 279.829C478.147 279.343 483.553 253.142 486.835 243.906C490.117 234.67 498.977 233.915 502.971 240.463C506.965 247.011 502.817 275.233 502.073 278.013C501.328 280.792 497.514 269.333 497.514 269.333C497.514 269.333 493.108 281.972 491.588 282.944C490.068 283.917 487.898 269.969 487.898 269.969Z" fill="#F687B7"/>
<path id="Path 267" d="M476.538 214.617C476.735 214.643 476.874 214.824 476.848 215.021C476.326 218.998 476.326 222.003 476.84 224.024C476.889 224.217 476.773 224.413 476.58 224.462C476.388 224.511 476.192 224.395 476.143 224.202C475.601 222.075 475.601 218.987 476.134 214.927C476.157 214.755 476.298 214.627 476.465 214.615L476.538 214.617Z" fill="white"/>
<path id="Path 268" d="M471.374 217.233C471.573 217.233 471.734 217.394 471.734 217.593C471.734 220.563 472.084 223.595 472.786 226.688C472.83 226.882 472.708 227.075 472.515 227.119C472.321 227.163 472.128 227.042 472.084 226.848C471.371 223.703 471.014 220.618 471.014 217.593C471.014 217.394 471.175 217.233 471.374 217.233Z" fill="white"/>
<path id="Path 751" d="M458.241 214.838C462.358 214.838 465.905 218.82 467.947 228.943C467.987 229.138 467.86 229.328 467.666 229.367C467.471 229.406 467.281 229.28 467.242 229.085L467.052 228.182C465.086 219.183 461.947 215.672 458.415 215.561L458.241 215.558L458.064 215.558C456.199 215.554 455.08 215.677 453.779 216.203C451.142 217.271 449.344 219.736 448.672 224.167C447.752 230.227 447.752 238.737 448.674 249.689C448.691 249.887 448.544 250.061 448.346 250.078C448.148 250.095 447.974 249.948 447.957 249.749C447.03 238.746 447.03 230.185 447.96 224.059C448.669 219.386 450.626 216.703 453.509 215.536C454.826 215.003 455.953 214.853 457.684 214.839L458.241 214.838Z" fill="white"/>
<path id="Path 752" d="M494.534 151.5C494.717 151.422 494.928 151.507 495.006 151.69C501.635 167.176 502.065 183.166 496.3 199.643C496.235 199.83 496.029 199.929 495.841 199.864C495.654 199.798 495.555 199.593 495.621 199.405C501.327 183.096 500.901 167.292 494.344 151.973C494.266 151.79 494.351 151.579 494.534 151.5Z" fill="white"/>
</g>
<g id="Group 27">
<path id="Path 270" fill-rule="evenodd" clip-rule="evenodd" d="M200.091 333.994C200.091 333.994 197.964 368.557 173.862 378.681C149.761 388.805 183.201 398.079 186.977 391.647C212.747 374.536 200.091 333.994 200.091 333.994Z" fill="#F687B7"/>
<path id="Path 271" fill-rule="evenodd" clip-rule="evenodd" d="M127.61 378.321C127.61 378.321 101.629 367.235 102.358 331.27C86.9951 366.709 106.16 394.442 122.5 394.28C138.841 394.118 127.61 378.321 127.61 378.321Z" fill="#F687B7"/>
<path id="Path 269" fill-rule="evenodd" clip-rule="evenodd" d="M104.847 396.748H191.533C191.533 396.748 178.906 364.803 148.19 364.803C117.474 364.803 104.847 396.748 104.847 396.748Z" fill="#F4AECC"/>
</g>
<path id="Path 753" d="M418.76 355.274C418.937 355.183 419.154 355.252 419.245 355.429C419.325 355.584 419.281 355.769 419.151 355.874L419.09 355.914L390.308 370.752C390.131 370.843 389.914 370.774 389.823 370.597C389.743 370.443 389.787 370.257 389.917 370.152L389.978 370.112L418.76 355.274Z" fill="white"/>
<path id="Path 754" d="M388 344.085C388.174 344.085 388.319 344.209 388.353 344.373L388.36 344.445V367.192C388.36 367.391 388.199 367.552 388 367.552C387.826 367.552 387.681 367.429 387.647 367.265L387.64 367.192V344.445C387.64 344.246 387.801 344.085 388 344.085Z" fill="white"/>
<path id="Path 755" d="M362.065 352.772C362.162 352.627 362.345 352.575 362.5 352.638L362.564 352.672L383.924 366.892C384.089 367.003 384.134 367.226 384.024 367.392C383.928 367.536 383.744 367.589 383.589 367.526L383.525 367.492L362.165 353.271C362 353.161 361.955 352.938 362.065 352.772Z" fill="white"/>
<path id="Path 756" d="M350.629 364.839L373.103 368.541C373.299 368.573 373.432 368.758 373.4 368.955C373.371 369.126 373.226 369.249 373.059 369.256L372.986 369.251L350.512 365.549C350.316 365.517 350.183 365.332 350.215 365.136C350.244 364.964 350.389 364.841 350.556 364.834L350.629 364.839Z" fill="white"/>
<path id="Path 757" d="M463.82 343.075C463.999 342.99 464.214 343.066 464.299 343.246C464.373 343.403 464.324 343.587 464.19 343.688L464.127 343.725L440.554 354.874C440.374 354.959 440.16 354.883 440.075 354.703C440 354.546 440.05 354.362 440.184 354.261L440.246 354.223L463.82 343.075Z" fill="white"/>
<path id="Path 758" d="M434.391 332.41C434.557 332.359 434.732 332.435 434.812 332.582L434.84 332.649L440.344 350.689C440.402 350.879 440.295 351.08 440.105 351.138C439.939 351.189 439.764 351.114 439.684 350.966L439.656 350.899L434.151 332.859C434.093 332.669 434.201 332.468 434.391 332.41Z" fill="white"/>
<path id="Path 759" d="M414.463 344.317C414.525 344.155 414.692 344.063 414.857 344.09L414.928 344.109L437.376 352.635C437.562 352.706 437.655 352.914 437.584 353.1C437.523 353.262 437.356 353.354 437.19 353.327L437.12 353.308L414.672 344.782C414.486 344.711 414.393 344.503 414.463 344.317Z" fill="white"/>
<path id="Path 2" fill-rule="evenodd" clip-rule="evenodd" d="M396.907 392C396.907 392 393.093 366 396.907 366C400.721 366 401.936 381.285 401.936 381.285C401.936 381.285 405.664 367.436 409.456 370.366C413.249 373.296 413.473 386.715 413.473 386.715C413.473 386.715 417.275 379 419.092 379C420.908 379 419.092 392 419.092 392H396.907Z" fill="#CD4877"/>
<path id="Path 2 Copy" fill-rule="evenodd" clip-rule="evenodd" d="M244.474 361C244.474 361 247.526 340 244.474 340C241.423 340 240.451 352.345 240.451 352.345C240.451 352.345 237.469 341.16 234.435 343.526C231.401 345.893 231.222 356.732 231.222 356.732C231.222 356.732 228.18 350.5 226.727 350.5C225.273 350.5 226.727 361 226.727 361H244.474Z" fill="#CD4877"/>
</g>
</g>
</svg>
