<svg width="606" height="489" viewBox="0 0 606 489" fill="none" xmlns="http://www.w3.org/2000/svg">
<g id="Groceries Shopping">
<rect width="606" height="489" fill="white"/>
<g id="Empty State 2">
<path id="Shape" opacity="0.1" fill-rule="evenodd" clip-rule="evenodd" d="M455.5 240.5V320H397V240.5H455.5ZM298 240.5V320H151V240.5H298ZM343 240.5V320H329.5V240.5H343ZM320.5 240.5V320H307V240.5H320.5ZM388 240.5V320H352V240.5H388ZM187 149V228.5H151V149H187ZM410.5 149V228.5H374.5V149H410.5ZM455.5 149V228.5H419.5V149H455.5ZM365.5 149V228.5H218.5V149H365.5ZM209.5 149V228.5H196V149H209.5Z" fill="#1E47A8"/>
<path id="Oval" opacity="0.2" fill-rule="evenodd" clip-rule="evenodd" d="M296.2 398.6C338.284 398.6 372.4 394.302 372.4 389C372.4 383.698 338.284 379.4 296.2 379.4C254.116 379.4 220 383.698 220 389C220 394.302 254.116 398.6 296.2 398.6Z" fill="#2A1111"/>
<g id="Group 5">
<path id="Oval_2" fill-rule="evenodd" clip-rule="evenodd" d="M402.4 186.2C422.282 186.2 438.4 170.082 438.4 150.2C438.4 130.318 422.282 114.2 402.4 114.2C382.518 114.2 366.4 130.318 366.4 150.2C366.4 170.082 382.518 186.2 402.4 186.2Z" fill="#7B448E"/>
<path id="+" fill-rule="evenodd" clip-rule="evenodd" d="M404.934 165.406V153.138H417.088V148.357H404.934V136.03H399.808V148.357H387.712V153.138H399.808V165.406H404.934Z" fill="white"/>
</g>
<path id="Path 36" fill-rule="evenodd" clip-rule="evenodd" d="M263.571 251.379L255.243 372.451H266.406C275.63 372.451 283.551 365.891 285.27 356.828L299.71 280.692L308.939 355.599C310.125 365.222 318.299 372.451 327.995 372.451H339.081L334.596 254.471L263.571 251.379Z" fill="#7B448E"/>
<path id="Path" fill-rule="evenodd" clip-rule="evenodd" d="M263.571 251.379L334.596 254.471L335.007 265.31L333.698 265.177C325.969 264.438 320.533 264.743 317.391 266.092C311.422 268.655 307.787 284.109 309.06 309.95L309.144 311.545C309.873 324.521 309.549 337.128 308.174 349.368L299.71 280.692L288.697 338.758C288.08 337.946 287.484 336.684 286.909 334.972L286.487 333.696C282.144 320.422 280.904 310.836 286.909 296.379L287.465 295.053C293.423 280.933 298.289 272.455 286.909 269.561C280.018 267.808 271.944 266.025 262.687 264.212L263.571 251.379Z" fill="#6C3382"/>
<path id="Path 551" d="M270.434 255.846C270.732 255.866 270.964 256.1 270.991 256.388L270.992 256.485L263.507 366.186C263.484 366.516 263.198 366.766 262.868 366.744C262.57 366.723 262.338 366.489 262.311 366.202L262.31 366.104L269.795 256.404C269.817 256.073 270.104 255.823 270.434 255.846Z" fill="#FFF1D9"/>
<path id="Path 52" fill-rule="evenodd" clip-rule="evenodd" d="M365.438 180.464C365.438 180.464 374.26 167.644 376.376 165.887C378.491 164.13 386.049 163.372 390.75 161.811C395.451 160.25 393.266 164.729 387.607 167.203C381.948 169.676 378.598 172.621 379.376 172.621C380.153 172.621 389.279 167.23 389.279 169.103C389.279 170.976 384.561 175.329 381.968 179.38C379.376 183.432 370.829 185.709 370.829 185.709L365.438 180.464Z" fill="#FFB594"/>
<path id="Path 35" fill-rule="evenodd" clip-rule="evenodd" d="M284.113 136.386C284.113 136.386 258.7 148.87 270.393 164.222C258.201 182.489 253.499 216.656 253.499 216.656C253.499 216.656 240.004 234.915 260.872 243.157L259.372 259.825H339.081L333.336 223.071C333.336 223.071 347.486 232.178 358.906 225.087C370.327 217.996 380.154 187.308 380.154 187.308C380.154 187.308 376.316 175.075 361.717 179.832C356.178 193.6 355.913 200.181 348.492 198.105C341.071 196.03 334.138 169.491 326.084 161.811C333.336 154.728 333.189 139.478 312.681 136.386C292.174 133.293 284.113 136.386 284.113 136.386Z" fill="#F7636F"/>
<path id="Path_2" fill-rule="evenodd" clip-rule="evenodd" d="M293.952 134.854C298.95 134.746 305.194 135.257 312.681 136.386C318.964 137.333 323.335 139.421 326.169 142.066C325.038 150.269 317.984 157.939 308.152 159.5C300.481 160.717 294.202 159.574 289.315 156.069L288.861 155.734L293.952 134.854Z" fill="#C24656"/>
<path id="Path_3" fill-rule="evenodd" clip-rule="evenodd" d="M327.551 197.332C333.234 206.87 339.607 215.86 345.081 219.845C350.973 224.133 357.655 223.571 367.078 216.699C364.426 220.555 361.702 223.351 358.906 225.087C351.424 229.733 343.063 229.164 333.823 223.38L333.336 223.071L327.551 197.332Z" fill="#C24656"/>
<path id="Path_4" fill-rule="evenodd" clip-rule="evenodd" d="M335.264 235.409L335.835 239.065L333.757 239.077C313.161 239.247 298.093 240.642 288.554 243.262L288.081 243.394C278.566 246.101 269.341 247.749 260.406 248.337L260.872 243.157C259.278 242.527 257.835 241.854 256.542 241.137L255.243 235.41L335.264 235.409Z" fill="#C24656"/>
<path id="Star" fill-rule="evenodd" clip-rule="evenodd" d="M300.398 219.219C299.656 218.792 298.744 218.792 298.002 219.219L290.455 223.564C288.657 224.6 286.48 223.019 286.909 220.988L288.71 212.468C288.887 211.631 288.605 210.763 287.97 210.19L281.505 204.355C279.964 202.964 280.795 200.406 282.859 200.186L291.519 199.266C292.37 199.175 293.108 198.639 293.457 197.858L297.009 189.906C297.855 188.011 300.545 188.011 301.391 189.906L304.943 197.858C305.292 198.639 306.03 199.175 306.881 199.266L315.541 200.186C317.605 200.406 318.436 202.964 316.895 204.355L310.43 210.19C309.795 210.763 309.513 211.631 309.69 212.468L311.491 220.988C311.92 223.019 309.743 224.6 307.945 223.564L300.398 219.219Z" fill="#7B448E"/>
<path id="Shape_2" fill-rule="evenodd" clip-rule="evenodd" d="M301.842 189.463C301.529 188.881 301.031 188.417 300.423 188.146C300.121 188.011 299.766 188.146 299.631 188.449C299.496 188.752 299.631 189.106 299.934 189.241C300.339 189.422 300.663 189.746 300.843 190.151L304.395 198.103L304.483 198.282C304.947 199.161 305.82 199.757 306.817 199.862C307.147 199.898 307.442 199.659 307.477 199.329C307.512 199 307.274 198.704 306.944 198.669C306.306 198.601 305.752 198.199 305.491 197.613L301.939 189.662L301.842 189.463ZM297.253 189.358C297.526 189.48 297.663 189.78 297.589 190.059L297.556 190.151L294.005 198.103C293.596 199.018 292.759 199.664 291.78 199.835L291.583 199.862L282.923 200.783C282.482 200.83 282.074 201.038 281.777 201.367C281.111 202.105 281.169 203.243 281.907 203.909C282.153 204.131 282.172 204.511 281.95 204.757C281.728 205.003 281.349 205.022 281.103 204.8C279.873 203.69 279.776 201.793 280.886 200.563C281.331 200.069 281.927 199.739 282.577 199.621L282.796 199.59L291.456 198.669C292.041 198.607 292.555 198.264 292.838 197.756L292.909 197.613L296.461 189.662C296.596 189.359 296.951 189.223 297.253 189.358ZM315.604 199.59L315.507 199.587L315.412 199.6C315.167 199.654 314.972 199.859 314.944 200.123C314.909 200.453 315.148 200.748 315.477 200.783C316.466 200.888 317.182 201.775 317.077 202.763C317.03 203.204 316.822 203.612 316.493 203.909L310.028 209.744L309.884 209.883C309.192 210.596 308.896 211.611 309.103 212.592C309.171 212.916 309.49 213.123 309.814 213.055C310.138 212.986 310.345 212.668 310.277 212.344C310.144 211.716 310.356 211.065 310.832 210.635L317.297 204.8L317.456 204.646C317.912 204.168 318.2 203.551 318.27 202.89C318.445 201.243 317.252 199.765 315.604 199.59ZM288.372 209.744C289.116 210.416 289.472 211.411 289.332 212.395L289.297 212.592L287.496 221.112C287.428 221.437 287.11 221.644 286.785 221.575C286.494 221.514 286.296 221.25 286.31 220.961L286.322 220.864L288.123 212.344C288.256 211.716 288.044 211.065 287.568 210.635C287.322 210.413 287.302 210.034 287.524 209.788C287.747 209.542 288.126 209.522 288.372 209.744ZM300.509 218.599L300.697 218.699L308.244 223.044C308.628 223.266 309.081 223.337 309.515 223.246C310.487 223.04 311.109 222.085 310.903 221.112C310.835 220.788 311.042 220.47 311.366 220.401C311.691 220.333 312.009 220.54 312.078 220.864C312.42 222.485 311.384 224.077 309.763 224.42C309.112 224.557 308.436 224.474 307.841 224.188L307.645 224.084L300.098 219.739C299.593 219.448 298.981 219.421 298.456 219.66L298.302 219.739L290.754 224.084C290.467 224.25 290.1 224.151 289.935 223.864C289.786 223.605 289.851 223.282 290.075 223.1L290.156 223.044L297.703 218.699C298.506 218.237 299.47 218.175 300.316 218.514L300.509 218.599Z" fill="white"/>
<path id="Path_5" fill-rule="evenodd" clip-rule="evenodd" d="M326.084 161.811L326.355 162.077C327.967 163.703 329.535 166.069 331.071 168.826C320.736 170.182 311.735 173.365 304.068 178.372C306.273 175.139 308.887 172.419 311.909 170.212C314.722 168.158 319.012 165.588 324.779 162.505L326.084 161.811Z" fill="#C24656"/>
<path id="Path 37" fill-rule="evenodd" clip-rule="evenodd" d="M237.808 388.61C241.306 388.892 246.091 388.56 252.161 387.615C266.191 385.432 268.096 379.528 268.096 377.116C268.096 374.704 263.601 372.388 252.161 375.76C246.298 377.487 241.219 380.223 236.923 383.965L236.39 384.438C235.407 385.327 235.331 386.845 236.22 387.828C236.63 388.281 237.198 388.561 237.808 388.61Z" fill="#C24656"/>
<path id="Path 37 Copy" fill-rule="evenodd" clip-rule="evenodd" d="M357.37 388.61C353.871 388.892 349.086 388.56 343.016 387.615C328.987 385.432 327.081 379.528 327.081 377.116C327.081 374.704 331.576 372.388 343.016 375.76C348.879 377.487 353.958 380.223 358.254 383.965L358.787 384.438C359.77 385.327 359.846 386.845 358.957 387.828C358.547 388.281 357.979 388.561 357.37 388.61Z" fill="#C24656"/>
<path id="Path 38" d="M320.764 175.074C321.07 174.948 321.421 175.095 321.546 175.401C325.702 185.547 329.826 201.395 333.926 222.959C333.987 223.284 333.774 223.598 333.448 223.66C333.123 223.722 332.809 223.508 332.747 223.183L332.375 221.245C328.412 200.741 324.43 185.607 320.436 175.856C320.31 175.55 320.457 175.199 320.764 175.074Z" fill="#C24656"/>
<path id="Path 39" d="M262.792 210.333C263.117 210.268 263.433 210.48 263.497 210.805C263.561 211.13 263.35 211.446 263.025 211.51C259.899 212.129 256.87 213.975 253.935 217.069C253.707 217.309 253.327 217.319 253.086 217.091C252.846 216.863 252.836 216.483 253.064 216.243C256.159 212.98 259.402 211.004 262.792 210.333Z" fill="#C24656"/>
<path id="Path 40" d="M265.979 209.412C276.255 209.412 282.579 212.883 284.79 219.84C286.984 226.747 284.844 233.325 278.439 239.493C278.2 239.723 277.82 239.716 277.59 239.477C277.36 239.238 277.368 238.858 277.606 238.629C283.702 232.758 285.692 226.643 283.646 220.204C281.616 213.815 275.781 210.612 265.979 210.612C265.647 210.612 265.379 210.344 265.379 210.012C265.379 209.681 265.647 209.412 265.979 209.412Z" fill="#C24656"/>
<path id="Path 41" d="M276.288 175.434C276.396 175.121 276.737 174.954 277.051 175.061C277.364 175.169 277.531 175.51 277.424 175.823C273.506 187.254 270.576 198.684 268.633 210.113C268.578 210.44 268.268 210.659 267.941 210.604C267.614 210.548 267.395 210.238 267.45 209.912C269.404 198.418 272.35 186.926 276.288 175.434Z" fill="#C24656"/>
<g id="Group 4">
<path id="Shape_3" fill-rule="evenodd" clip-rule="evenodd" d="M347.705 250.779C350.688 250.779 353.105 253.196 353.105 256.179C353.105 256.395 353.092 256.611 353.066 256.826L353.018 257.147L338.434 337.168C337.982 339.649 335.878 341.475 333.381 341.594L333.122 341.6H262.208C259.783 341.6 257.67 339.986 257.012 337.668L256.947 337.417L256.896 337.168L242.312 257.147C242.254 256.828 242.225 256.504 242.225 256.179C242.225 253.384 244.353 251.07 247.11 250.804L247.37 250.785L247.625 250.779H347.705ZM272.633 319.944H254.976L258.073 336.939L258.119 337.158C258.544 338.978 260.121 340.292 261.975 340.394L262.208 340.4L274.11 340.4L272.633 319.944ZM321.996 319.944H298.265V340.4H320.519L321.996 319.944ZM297.065 319.944H273.836L275.313 340.4H297.065V319.944ZM340.352 319.944H323.199L321.721 340.4L333.122 340.4C335.076 340.4 336.761 339.055 337.208 337.173L337.254 336.953L340.352 319.944ZM270.959 296.789H250.757L254.757 318.744H272.545L270.959 296.789ZM297.065 296.789H272.162L273.749 318.744H297.065V296.789ZM323.669 296.789H298.265V318.744H322.082L323.669 296.789ZM344.571 296.789H324.872L323.286 318.744H340.571L344.571 296.789ZM269.251 273.144H246.446L250.537 295.589H270.872L269.251 273.144ZM297.065 273.144H270.455L272.076 295.589H297.065V273.144ZM325.376 273.144H298.265V295.589H323.755L325.376 273.144ZM348.882 273.144H326.58L324.959 295.589H344.791L348.882 273.144ZM267.722 251.978L247.639 251.979L247.414 251.984C245.185 252.094 243.425 253.937 243.425 256.179C243.425 256.347 243.435 256.515 243.455 256.682L243.493 256.932L246.228 271.944H269.165L267.722 251.978ZM297.065 251.978H268.926L270.368 271.944H297.065V251.978ZM326.905 251.978H298.265V271.944H325.463L326.905 251.978ZM347.705 251.979L328.11 251.978L326.667 271.944H349.1L351.837 256.932C351.867 256.766 351.888 256.599 351.898 256.431L351.905 256.179C351.905 253.937 350.148 252.104 347.936 251.985L347.705 251.979Z" fill="#2C264D"/>
</g>
<g id="Group 2">
<path id="Path_6" fill-rule="evenodd" clip-rule="evenodd" d="M272.481 340.945V363.145H324.553L324.553 340.945H329.353L329.353 363.145H336.201V367.945H332.895L332.896 377.116H328.096L328.095 367.945H270.495L270.496 377.116H265.696L265.695 367.945H261.081V363.145H267.681V340.945H272.481Z" fill="#2C264D"/>
</g>
<rect id="Rectangle" x="261.081" y="374.545" width="13.2" height="14.4" rx="1.2" fill="#2C264D"/>
<rect id="Rectangle Copy" x="323.481" y="374.545" width="13.2" height="14.4" rx="1.2" fill="#2C264D"/>
<path id="Path 48" fill-rule="evenodd" clip-rule="evenodd" d="M336.681 233.01C342.54 233.01 347.308 237.674 347.477 243.491L347.481 243.81V251.379H342.681V243.81C342.681 240.583 340.135 237.952 336.942 237.815L336.681 237.81H258.681C255.455 237.81 252.823 240.357 252.687 243.549L252.681 243.81V251.379H247.881V243.81C247.881 237.952 252.546 233.183 258.363 233.014L258.681 233.01H336.681Z" fill="#2C264D"/>
<g id="Group 60">
<path id="Path 31" fill-rule="evenodd" clip-rule="evenodd" d="M277.932 133.293C277.932 133.293 273.46 127.719 271.169 117.433C268.879 107.148 271.606 99.7872 280.057 101.639C280.057 94.3756 286.207 93.1744 289.544 93.775C293.169 87.2368 299.343 88.5089 303.175 91.142C308.542 88.4702 311.083 91.7005 311.083 95.3081C316.836 95.3081 317.926 99.2082 317.381 103.607C327.191 103.607 326.639 110.673 323.815 118.566C320.991 126.459 318.692 132.413 318.692 132.413L277.932 133.293Z" fill="#493E3C"/>
<path id="Path 30" fill-rule="evenodd" clip-rule="evenodd" d="M277.932 133.294C277.932 133.294 278.041 115.03 290.969 109.44C303.897 103.85 316.836 115.314 316.836 131.372C305.848 140.323 277.932 133.294 277.932 133.294Z" fill="#F7636F"/>
<path id="Path 29" fill-rule="evenodd" clip-rule="evenodd" d="M282.087 133.845C280.723 131.2 280.057 128.178 276.48 128.958C272.903 129.738 271.264 138.104 282.087 140.323C282.087 137.424 282.087 136.326 282.087 133.845Z" fill="#FFB594"/>
<path id="Path 29 Copy" fill-rule="evenodd" clip-rule="evenodd" d="M312.681 133.845C314.046 131.2 314.712 128.178 318.289 128.958C321.866 129.738 323.504 138.104 312.681 140.323C312.681 137.424 312.681 136.326 312.681 133.845Z" fill="#FFB594"/>
<path id="Path 28" fill-rule="evenodd" clip-rule="evenodd" d="M313.458 127.453C315.074 132.212 316.207 143.512 310.686 152.346C305.166 161.179 293.3 160.833 286.036 153.105C278.771 145.378 279.648 132.14 280.904 128.245C282.159 124.35 288.124 114.983 297.707 114.983C307.29 114.983 311.841 122.693 313.458 127.453Z" fill="#FFB594"/>
<path id="Path 544" d="M280.053 129.145C280.385 129.143 280.655 129.41 280.657 129.741C280.714 139.343 282.048 146.323 284.628 150.667C284.798 150.952 284.704 151.32 284.419 151.489C284.134 151.658 283.766 151.565 283.597 151.28C280.886 146.716 279.516 139.544 279.457 129.749C279.455 129.417 279.722 129.147 280.053 129.145Z" fill="#C24656"/>
<path id="Path_7" fill-rule="evenodd" clip-rule="evenodd" d="M288.081 129.745C289.48 129.745 290.654 131.275 290.987 133.347L291.081 133.345C289.093 133.345 287.481 133.882 287.481 134.545C287.481 135.197 289.041 135.728 290.985 135.745C290.654 137.815 289.479 139.345 288.081 139.345C286.424 139.345 285.081 137.196 285.081 134.545C285.081 131.894 286.424 129.745 288.081 129.745Z" fill="#493E3C"/>
<path id="Path Copy" fill-rule="evenodd" clip-rule="evenodd" d="M307.281 129.745C308.679 129.745 309.854 131.275 310.187 133.347L310.281 133.345C308.293 133.345 306.681 133.882 306.681 134.545C306.681 135.197 308.241 135.728 310.185 135.745C309.854 137.815 308.679 139.345 307.281 139.345C305.624 139.345 304.281 137.196 304.281 134.545C304.281 131.894 305.624 129.745 307.281 129.745Z" fill="#493E3C"/>
<path id="Path 32" d="M283.712 127.249C288.25 123.175 292.305 122.788 295.621 126.221C297.089 127.742 297.455 130.08 297.29 134.292L297.216 135.791L297.126 137.391C296.956 140.698 297.028 142.047 297.51 143.08C298.103 144.348 299.465 144.433 302.322 142.89C302.614 142.732 302.978 142.841 303.135 143.132C303.293 143.424 303.184 143.788 302.893 143.945C299.51 145.773 297.382 145.641 296.423 143.588C295.826 142.311 295.743 140.905 295.924 137.389L296.055 135.043L296.09 134.269C296.241 130.387 295.915 128.254 294.757 127.055C291.945 124.143 288.615 124.46 284.513 128.142C284.267 128.363 283.888 128.342 283.666 128.096C283.445 127.849 283.465 127.47 283.712 127.249Z" fill="#F7636F"/>
<path id="Path 33" d="M306.12 124.055C308.307 124.055 310.109 124.951 311.476 126.717C311.679 126.979 311.631 127.356 311.369 127.558C311.107 127.761 310.73 127.713 310.527 127.451C309.386 125.978 307.933 125.255 306.12 125.255C304.286 125.255 302.622 125.998 301.105 127.509C300.87 127.743 300.49 127.742 300.256 127.507C300.022 127.273 300.023 126.893 300.258 126.659C301.992 124.931 303.955 124.055 306.12 124.055Z" fill="#F7636F"/>
<path id="Path 34" d="M304.376 148.169C304.642 147.972 305.018 148.028 305.215 148.294C305.412 148.56 305.356 148.936 305.09 149.133C300.699 152.387 296.223 152.387 291.817 149.134C291.551 148.937 291.494 148.562 291.691 148.295C291.888 148.028 292.263 147.972 292.53 148.169C296.512 151.108 300.409 151.108 304.376 148.169Z" fill="#F7636F"/>
<path id="Path 545" d="M314.774 130.819C315.105 130.813 315.379 131.077 315.385 131.408C315.642 145.477 312.588 154.216 306.116 157.547C299.689 160.854 293.516 160.194 287.708 155.584C287.449 155.378 287.405 155 287.611 154.741C287.817 154.481 288.195 154.438 288.454 154.644C293.896 158.963 299.563 159.569 305.567 156.48C311.526 153.413 314.435 145.09 314.185 131.43C314.179 131.099 314.443 130.825 314.774 130.819Z" fill="#C24656"/>
</g>
<path id="Path 49" fill-rule="evenodd" clip-rule="evenodd" d="M265.979 223.972C260.711 225.311 255.386 228.769 253.499 234.32C251.613 239.871 257.233 246.455 267.045 244.924C276.856 243.394 280.772 240.082 280.772 231.993C280.772 223.903 271.246 222.634 265.979 223.972Z" fill="#FFB594"/>
<path id="Path 50" d="M269.978 163.789C270.217 163.559 270.597 163.567 270.826 163.806C274.065 167.179 279.082 169.862 285.882 171.841L287.742 172.372C294.542 174.342 297.762 175.875 297.762 177.452C297.762 177.783 297.494 178.052 297.162 178.052C296.864 178.052 296.617 177.834 296.57 177.549L296.562 177.452C296.562 176.706 293.1 175.137 286.576 173.286L286.181 173.175C278.874 171.127 273.465 168.286 269.961 164.637C269.731 164.398 269.739 164.018 269.978 163.789Z" fill="#C24656"/>
<path id="Path 51" d="M325.819 161.273C326.116 161.126 326.476 161.248 326.622 161.545C326.769 161.842 326.647 162.202 326.35 162.349C311.859 169.501 303.816 176.603 302.184 183.569C302.108 183.891 301.785 184.092 301.462 184.016C301.14 183.94 300.94 183.617 301.015 183.295C302.753 175.883 311.034 168.57 325.819 161.273Z" fill="#C24656"/>
<path id="Path 546" d="M258.515 226.977C258.78 226.778 259.156 226.832 259.355 227.097C259.554 227.362 259.5 227.738 259.235 227.937C254.064 231.819 252.665 235.901 254.901 240.345C255.05 240.641 254.931 241.002 254.635 241.151C254.339 241.3 253.978 241.18 253.829 240.884C251.306 235.871 252.913 231.182 258.515 226.977Z" fill="#C24656"/>
<path id="Path 547" d="M262.662 224.553C268.068 222.123 272.92 222.123 277.157 224.581C280.079 226.277 281.465 229.273 281.536 232.875C281.589 235.586 280.809 238.512 279.908 239.422C279.674 239.658 279.294 239.659 279.059 239.426C278.824 239.193 278.822 238.813 279.055 238.578C279.683 237.943 280.384 235.316 280.336 232.898C280.273 229.68 279.069 227.078 276.555 225.619C272.674 223.368 268.227 223.368 263.154 225.648C262.852 225.784 262.497 225.649 262.361 225.346C262.225 225.044 262.36 224.689 262.662 224.553Z" fill="#C24656"/>
<path id="Path 548" d="M269.917 163.857C270.118 163.594 270.495 163.544 270.758 163.745C271.021 163.946 271.071 164.323 270.87 164.586C265.905 171.079 261.533 182.046 257.776 197.474C257.698 197.796 257.374 197.993 257.052 197.915C256.73 197.837 256.532 197.512 256.611 197.19C260.403 181.615 264.83 170.509 269.917 163.857Z" fill="#C24656"/>
<path id="Path 549" d="M361.161 179.606C361.286 179.299 361.636 179.151 361.943 179.276C362.25 179.401 362.398 179.751 362.273 180.058L361.401 182.222C359.449 187.096 358.087 190.741 357.316 193.152C356.432 195.918 354.106 198.359 351.355 198.649C347.772 199.028 343.976 195.965 340.216 188.978C340.059 188.686 340.168 188.322 340.46 188.165C340.751 188.008 341.115 188.118 341.272 188.409C344.828 195.015 348.244 197.771 351.229 197.456C353.438 197.223 355.42 195.143 356.173 192.787L356.349 192.245C357.276 189.44 358.88 185.229 361.161 179.606Z" fill="#C24656"/>
<path id="Path 550" d="M326.815 174.857C327.085 174.664 327.46 174.727 327.652 174.996C332.171 181.329 336.924 189.337 341.911 199.023L342.88 200.919C346.399 207.863 350.158 210.321 354.139 209.372C357.132 208.658 359.99 206.222 363.168 202.328C366.151 198.675 368.923 193.069 371.47 185.517C371.576 185.203 371.916 185.034 372.23 185.14C372.544 185.246 372.713 185.587 372.607 185.901C370.018 193.577 367.186 199.305 364.098 203.087C360.762 207.173 357.745 209.746 354.418 210.539C349.895 211.618 345.704 208.948 342.007 201.846L340.846 199.575C335.882 189.936 331.158 181.975 326.675 175.694C326.483 175.424 326.545 175.049 326.815 174.857Z" fill="#FFF1D9"/>
<path id="Path 552" d="M328.254 262.877C328.552 262.864 328.809 263.07 328.868 263.353L328.881 263.45L333.251 359.585C333.267 359.916 333.01 360.197 332.679 360.212C332.381 360.226 332.124 360.019 332.065 359.737L332.053 359.64L327.682 263.504C327.667 263.173 327.923 262.893 328.254 262.877Z" fill="#FFF1D9"/>
</g>
</g>
</svg>
