<svg width="606" height="489" viewBox="0 0 606 489" fill="none" xmlns="http://www.w3.org/2000/svg">
<g id="Investigating">
<rect width="606" height="489" fill="white"/>
<g id="Empty State 7">
<path id="Path" opacity="0.3" fill-rule="evenodd" clip-rule="evenodd" d="M242 89V287H231L230.999 163.848L230.28 163.193C227.128 160.303 225.104 158.133 224.207 156.683L224.054 156.423C222.996 154.523 221.609 150.149 219.894 143.302C219.814 142.982 220.009 142.658 220.329 142.578C220.376 142.566 220.425 142.56 220.474 142.56C220.923 142.56 221.317 142.861 221.435 143.295L221.676 144.169C223.523 150.741 225.25 154.356 226.858 155.013C228.117 155.528 229.498 156.219 230.999 157.086L231 89H242Z" fill="#22134C"/>
<rect id="Rectangle Copy 4" opacity="0.3" x="201" y="89" width="11" height="198" fill="#22134C"/>
<path id="Path_2" opacity="0.3" fill-rule="evenodd" clip-rule="evenodd" d="M305 89L305.001 117.62C311.03 114.342 315.203 109.273 317.522 102.413C317.636 102.076 317.952 101.849 318.308 101.849C318.346 101.849 318.384 101.853 318.421 101.862C318.682 101.924 318.844 102.187 318.782 102.448C318.096 105.341 316.087 109.591 312.758 115.198C310.822 118.457 307.7 120.425 305.001 121.374L305 287H294V89H305Z" fill="#22134C"/>
<g id="Group 23">
<path id="Path 191" fill-rule="evenodd" clip-rule="evenodd" d="M189.825 305.878C189.825 305.878 181.689 289.82 187.073 280.844C192.457 271.869 195.651 267.5 189.825 265.234C184 262.967 179.113 255.106 187.073 250.859C195.032 246.613 191.844 248.959 187.922 237.589C184 226.22 183.137 208.817 192.457 207.777C201.777 206.736 208.209 219.582 208.209 232.832C208.209 246.083 206.582 246.34 218.558 249.197C230.535 252.054 226.59 261.696 218.558 265.234C210.526 268.771 211.238 274.328 218.558 274.328C225.879 274.328 229.285 286.903 223.922 294.816C218.558 302.729 197.56 312.158 197.56 312.158L189.825 305.878Z" fill="#25144F"/>
<path id="Path 192" d="M194.962 220.294C195.228 220.218 195.504 220.372 195.58 220.637L195.912 221.814C200.523 238.472 204.051 262.525 206.498 293.982C206.52 294.257 206.314 294.498 206.039 294.519C205.763 294.541 205.523 294.335 205.501 294.06L205.325 291.829C202.831 260.785 199.261 237.143 194.619 220.912C194.543 220.647 194.697 220.37 194.962 220.294Z" fill="white"/>
</g>
<g id="Group 20 Copy 4">
<path id="Path_3" fill-rule="evenodd" clip-rule="evenodd" d="M167.436 290C147.119 290 130.461 305.66 128.872 325.568H206C204.411 305.66 187.752 290 167.436 290Z" fill="#E15A71"/>
<path id="Path_4" fill-rule="evenodd" clip-rule="evenodd" d="M197.874 304.805C190.704 309.516 184.868 316.437 180.367 325.567L206 325.568C205.397 318.008 202.62 311.061 198.296 305.351L197.874 304.805Z" fill="#C82C46"/>
<path id="Path 133" d="M145.657 304.244C145.456 304.054 145.14 304.063 144.95 304.263C144.781 304.441 144.769 304.711 144.909 304.902L144.969 304.97L167.092 325.931C167.293 326.121 167.609 326.112 167.799 325.912C167.968 325.734 167.98 325.464 167.84 325.273L167.78 325.205L145.657 304.244Z" fill="white"/>
<path id="Path 134" d="M132.574 311.693C132.318 311.592 132.027 311.718 131.926 311.974C131.835 312.203 131.925 312.458 132.126 312.583L132.207 312.623L160.605 323.849C160.862 323.951 161.152 323.825 161.254 323.568C161.344 323.34 161.254 323.085 161.053 322.96L160.972 322.919L132.574 311.693Z" fill="white"/>
<path id="Path 135" d="M176.784 293.507C176.55 293.434 176.302 293.543 176.193 293.754L176.159 293.837L168.811 317.624C168.729 317.887 168.877 318.167 169.141 318.249C169.376 318.321 169.623 318.213 169.732 318.002L169.766 317.919L177.114 294.132C177.196 293.868 177.048 293.588 176.784 293.507Z" fill="white"/>
<path id="Path 136" d="M192.804 299.04C192.628 298.869 192.358 298.855 192.165 298.993L192.097 299.052L168.929 323.037C168.737 323.235 168.743 323.552 168.941 323.744C169.118 323.914 169.387 323.929 169.58 323.79L169.648 323.731L192.816 299.747C193.008 299.548 193.003 299.232 192.804 299.04Z" fill="white"/>
</g>
<g id="Group 20 Copy">
<path id="Path_5" fill-rule="evenodd" clip-rule="evenodd" d="M248.273 283C282.134 283 309.899 309.1 312.547 342.28H184C186.648 309.1 214.413 283 248.273 283Z" fill="#E15A71"/>
<path id="Path 133_2" d="M284.801 306.982C285.002 306.792 285.318 306.801 285.508 307.001C285.677 307.179 285.689 307.449 285.549 307.64L285.489 307.708L248.617 342.643C248.417 342.833 248.1 342.824 247.91 342.624C247.742 342.446 247.73 342.176 247.87 341.985L247.929 341.917L284.801 306.982Z" fill="white"/>
<path id="Path 134_2" d="M306.499 319.465C306.755 319.364 307.046 319.49 307.147 319.746C307.238 319.975 307.148 320.23 306.947 320.355L306.866 320.395L259.536 339.105C259.279 339.206 258.989 339.081 258.887 338.824C258.797 338.595 258.886 338.341 259.088 338.215L259.168 338.175L306.499 319.465Z" fill="white"/>
<path id="Path 135_2" d="M232.791 289.163C233.026 289.091 233.273 289.2 233.383 289.41L233.417 289.493L245.663 329.138C245.745 329.401 245.597 329.681 245.333 329.763C245.099 329.835 244.851 329.727 244.742 329.516L244.708 329.433L232.461 289.789C232.38 289.525 232.528 289.245 232.791 289.163Z" fill="white"/>
<path id="Path 136_2" d="M206.225 298.306C206.401 298.136 206.671 298.121 206.863 298.26L206.932 298.319L245.545 338.293C245.737 338.491 245.732 338.808 245.533 339C245.356 339.17 245.087 339.185 244.894 339.046L244.826 338.987L206.212 299.013C206.021 298.815 206.026 298.498 206.225 298.306Z" fill="white"/>
</g>
<path id="Path_6" opacity="0.3" fill-rule="evenodd" clip-rule="evenodd" d="M395 89L395.001 184.12C397.089 181.936 398.383 179.89 398.884 177.984L399.347 176.149C400.433 171.762 402.205 164.368 402.879 165.466C403.662 166.741 400.75 177.639 399.817 181.772C399.303 184.049 397.697 187.228 395 191.312L395 287H371L371 152.437C368.467 150.43 366.783 148.311 365.949 146.081L365.536 144.993L365.093 143.856C364.255 141.726 363.268 139.351 362.132 136.731C362.105 136.669 362.091 136.604 362.091 136.537C362.091 136.298 362.264 136.1 362.49 136.058L362.578 136.051H363.32L363.718 136.656C365.286 139.061 366.555 141.287 367.526 143.335C368.266 144.895 369.423 145.998 370.999 146.644L371 89H395Z" fill="#22134C"/>
<rect id="Rectangle Copy 10" opacity="0.3" x="359" y="89" width="24" height="198" fill="#22134C"/>
<rect id="Rectangle Copy 11" opacity="0.3" x="237" y="89" width="24" height="198" fill="#22134C"/>
<rect id="Rectangle Copy 2" opacity="0.3" x="338" y="89" width="11" height="198" fill="#22134C"/>
<path id="Oval" opacity="0.2" fill-rule="evenodd" clip-rule="evenodd" d="M321.5 396C362.645 396 396 389.732 396 382C396 374.268 362.645 368 321.5 368C280.355 368 247 374.268 247 382C247 389.732 280.355 396 321.5 396Z" fill="#2E144F"/>
<path id="Path 193" fill-rule="evenodd" clip-rule="evenodd" d="M433.139 357.249C433.139 357.249 447.03 328.554 478.548 321.879C459.421 352.07 433.139 357.249 433.139 357.249Z" fill="#C82C46"/>
<path id="Path 194" d="M473.551 324.832C473.773 324.667 474.086 324.714 474.251 324.935C474.397 325.132 474.377 325.401 474.215 325.575L474.148 325.635L441.203 350.128C440.982 350.293 440.668 350.247 440.504 350.025C440.357 349.828 440.377 349.559 440.539 349.385L440.606 349.325L473.551 324.832Z" fill="white"/>
<path id="Path 195" fill-rule="evenodd" clip-rule="evenodd" d="M427.165 355.391C427.165 355.391 431.316 337.583 438 319.292C444.684 301 449.429 296.2 454.144 298.384C458.858 300.568 436.357 355.391 436.357 355.391H427.165Z" fill="#25144F"/>
<g id="Group 20 Copy 3">
<path id="Path_7" fill-rule="evenodd" clip-rule="evenodd" d="M385.436 265C365.119 265 348.461 280.66 346.872 300.568H424C422.411 280.66 405.752 265 385.436 265Z" fill="#E15A71"/>
<path id="Path 133_3" d="M363.657 279.244C363.456 279.054 363.14 279.063 362.95 279.263C362.781 279.441 362.769 279.711 362.909 279.902L362.969 279.97L385.092 300.931C385.293 301.121 385.609 301.112 385.799 300.912C385.968 300.734 385.98 300.464 385.84 300.273L385.78 300.205L363.657 279.244Z" fill="white"/>
<path id="Path 134_3" d="M350.574 286.693C350.318 286.592 350.027 286.718 349.926 286.974C349.835 287.203 349.925 287.458 350.126 287.583L350.207 287.623L378.605 298.849C378.862 298.951 379.152 298.825 379.254 298.568C379.344 298.34 379.254 298.085 379.053 297.96L378.972 297.919L350.574 286.693Z" fill="white"/>
<path id="Path 135_3" d="M394.784 268.507C394.55 268.434 394.302 268.543 394.193 268.754L394.159 268.837L386.811 292.624C386.729 292.887 386.877 293.167 387.141 293.249C387.376 293.321 387.623 293.213 387.732 293.002L387.766 292.919L395.114 269.132C395.196 268.868 395.048 268.588 394.784 268.507Z" fill="white"/>
<path id="Path 136_3" d="M410.804 274.04C410.628 273.869 410.358 273.855 410.165 273.993L410.097 274.052L386.929 298.037C386.737 298.235 386.743 298.552 386.941 298.744C387.118 298.914 387.387 298.929 387.58 298.79L387.648 298.731L410.816 274.747C411.008 274.548 411.003 274.232 410.804 274.04Z" fill="white"/>
</g>
<g id="Group 22">
<path id="Path 184" fill-rule="evenodd" clip-rule="evenodd" d="M285.921 373.423C279.684 375.991 268.246 380.939 266.094 386.286C263.941 391.633 299.563 383.536 299.563 377.52C299.563 371.504 292.159 370.854 285.921 373.423Z" fill="#634EA4"/>
<path id="Path 184 Copy" fill-rule="evenodd" clip-rule="evenodd" d="M315.572 370.267C309.478 373.158 298.315 378.698 296.445 384.15C294.575 389.603 329.724 379.653 329.409 373.645C329.094 367.637 321.666 367.376 315.572 370.267Z" fill="#634EA4"/>
<path id="Path 190" fill-rule="evenodd" clip-rule="evenodd" d="M317.707 134.098C317.707 134.098 322.323 132.569 325.733 135.568C329.143 138.568 329.666 146.735 326.858 149.085C324.05 151.435 317.707 134.098 317.707 134.098Z" fill="#2E144F"/>
<path id="Path 188" fill-rule="evenodd" clip-rule="evenodd" d="M314.334 177.149C314.334 177.149 327.926 176.96 329.639 166.271C331.352 155.581 328.655 145.008 321.986 136.744C315.318 128.48 304.997 122.976 298.449 127.148C291.901 131.319 314.334 177.149 314.334 177.149Z" fill="#4AA7E1"/>
<path id="Path 187" fill-rule="evenodd" clip-rule="evenodd" d="M285.313 156.848C285.313 156.848 276.717 142.39 273.821 132.562C270.925 122.735 278.698 116.4 286.25 117.495C293.801 118.59 304.616 124.107 308.959 142.046C313.302 159.984 312.68 164.533 312.68 164.533L285.313 156.848Z" fill="#407FCD"/>
<path id="Path_8" fill-rule="evenodd" clip-rule="evenodd" d="M273.334 130.337C276.261 134.479 280.839 136.997 289.082 139.055L290.109 139.305C297.899 141.148 304.594 146.271 310.195 154.673L308.655 155.601C305.367 157.577 302.38 159.339 299.694 160.887L285.313 156.848C279.582 147.209 275.752 139.114 273.821 132.562C273.608 131.838 273.452 131.133 273.35 130.448L273.334 130.337Z" fill="#2A66AF"/>
<path id="Path 181" fill-rule="evenodd" clip-rule="evenodd" d="M360.21 290C360.21 290 383.014 336.953 334.518 331.41C339.103 353.211 339.913 363.637 311.697 368.549C309.78 365.022 308.941 363.808 308.941 363.808C308.941 363.808 304.511 371.459 284.743 371.459C273.091 352.827 252.189 311.211 253.906 292.815C255.623 274.42 311.697 258.951 311.697 258.951L360.21 290Z" fill="#2E144F"/>
<path id="Path 701" d="M309.317 293.834C312.32 286.384 323.618 290.173 334.77 302.192L335.108 302.559C341.008 309.008 347.423 313.335 351.306 313.276C355.613 313.211 356.653 307.589 353.201 295.66C353.124 295.395 353.277 295.118 353.542 295.041C353.807 294.964 354.084 295.117 354.161 295.382L354.408 296.253C357.716 308.157 356.478 314.197 351.321 314.276C347.141 314.339 340.689 310.04 334.702 303.594L334.37 303.234C323.533 291.388 312.856 287.728 310.244 294.208C308.472 298.603 314.033 319.767 326.886 357.165C326.976 357.426 326.837 357.711 326.576 357.801C326.314 357.89 326.03 357.751 325.94 357.49L324.415 353.028C312.498 317.972 307.476 298.398 309.317 293.834Z" fill="white"/>
<path id="Path 178" fill-rule="evenodd" clip-rule="evenodd" d="M251.92 254.911C251.92 254.911 243.63 238.642 243.63 235.737C243.63 232.832 243.929 222.875 245.852 220.024C247.775 217.173 254.871 220.541 259.445 223.923C264.019 227.305 264.671 236.055 267.135 242.485C269.6 248.914 259.445 256.227 259.445 256.227L251.92 254.911Z" fill="#9B4932"/>
<path id="Path 176" fill-rule="evenodd" clip-rule="evenodd" d="M293.462 308.318C293.462 308.318 306.96 308.141 312.231 300.415C317.503 292.688 315.645 284.989 309.78 283.872C303.916 282.755 287.649 285.274 287.649 285.274L289 303.442L293.462 308.318Z" fill="#9B4932"/>
<path id="Path 160" fill-rule="evenodd" clip-rule="evenodd" d="M303.333 195.791C303.333 195.791 315.706 198.85 317.707 213.973C328.713 223.166 329.393 231.959 332.026 243.563C338.976 254.032 360.21 290 360.21 290C360.21 290 344.778 295.749 324.056 276.63C316.738 287.916 308.986 290 293.462 290C291.061 301.088 293.462 308.318 293.462 308.318C293.462 308.318 267.537 306.176 254.054 294.588C240.57 283.001 245.998 266.332 254.054 259.193C252.684 256.982 251.92 254.911 251.92 254.911C251.92 254.911 261.4 251.439 267.135 242.485C272.871 233.53 274.35 229.781 279.667 225.497C275.564 227.194 266.53 229.496 266.53 229.496C266.53 229.496 272.012 222.216 274.683 215.052C277.355 207.888 303.333 195.791 303.333 195.791Z" fill="#4AA7E1"/>
<path id="Path 603" fill-rule="evenodd" clip-rule="evenodd" d="M308.959 253.619C308.959 253.619 304.462 260.345 296.056 258.644C287.649 256.943 278.043 235.737 278.043 235.737C278.043 235.737 277.543 239.18 277.543 242.443C277.543 245.707 278.543 253.053 278.543 253.053C278.543 253.053 284.027 257.603 290.258 260.994C296.489 264.385 302.692 263.039 305.604 260.076C308.515 257.113 308.959 253.619 308.959 253.619Z" fill="#407FCD"/>
<path id="Path_9" fill-rule="evenodd" clip-rule="evenodd" d="M257.846 264.385C261.011 270.188 265.921 275.529 272.576 280.408C279.017 285.129 285.744 288.276 292.76 289.848L293.462 290C292.973 292.257 292.634 294.395 292.443 296.412C274.144 290.305 262.612 279.63 257.846 264.385Z" fill="#407FCD"/>
<path id="Path_10" fill-rule="evenodd" clip-rule="evenodd" d="M332.026 246.169C335.332 259.846 335.616 272.393 332.879 283.81C330.022 281.815 327.081 279.422 324.056 276.63C328.213 268.265 330.581 261.464 331.159 256.227L331.446 253.557C331.833 249.833 332.026 247.37 332.026 246.169Z" fill="#407FCD"/>
<path id="Path 161" d="M275.686 214.767C275.951 214.69 276.229 214.843 276.306 215.108C277.472 219.136 279.349 222.666 281.74 225.717C283.215 227.599 284.795 229.184 286.374 230.48C286.925 230.932 287.436 231.316 287.893 231.632L288.238 231.864C288.332 231.925 288.404 231.97 288.453 231.999C288.538 232.05 288.607 232.125 288.649 232.215L299.925 256.013C300.043 256.262 299.937 256.56 299.687 256.679C299.437 256.797 299.139 256.69 299.021 256.441L287.809 232.776L287.588 232.633L287.325 232.454C286.845 232.123 286.312 231.723 285.739 231.253C284.106 229.912 282.475 228.276 280.953 226.333C278.486 223.186 276.549 219.543 275.345 215.386C275.268 215.121 275.421 214.844 275.686 214.767Z" fill="white"/>
<path id="Path 162" d="M308.959 201.013C309.235 201.013 309.459 201.237 309.459 201.513C309.459 201.753 309.446 201.996 309.419 202.239C309.102 205.142 307.047 208.082 303.515 211.48L302.954 212.012C302.572 212.369 302.171 212.736 301.721 213.14L299.523 215.095L299.177 215.412C298.309 216.219 297.878 216.716 297.878 216.835C297.878 217.773 300.227 223.177 304.781 232.615C304.901 232.864 304.797 233.163 304.548 233.283C304.3 233.403 304.001 233.298 303.881 233.05L302.15 229.436C298.604 221.967 296.878 217.861 296.878 216.835C296.878 216.283 297.365 215.71 298.653 214.534L300.71 212.702C301.532 211.97 302.188 211.369 302.822 210.759C306.196 207.514 308.141 204.73 308.425 202.131C308.448 201.923 308.459 201.717 308.459 201.513C308.459 201.237 308.683 201.013 308.959 201.013Z" fill="white"/>
<path id="Path 163" d="M317.707 213.473C317.983 213.473 318.207 213.697 318.207 213.973C318.207 219.743 315.912 225.288 311.339 230.594C311.159 230.803 310.843 230.826 310.634 230.646C310.425 230.466 310.402 230.15 310.582 229.941C315.005 224.808 317.207 219.489 317.207 213.973C317.207 213.697 317.431 213.473 317.707 213.473Z" fill="white"/>
<path id="Path 164" d="M289.816 225.986C289.946 225.742 290.248 225.649 290.492 225.779C290.736 225.908 290.829 226.211 290.7 226.455C289.843 228.069 289.449 229.338 289.499 230.239C289.515 230.515 289.304 230.751 289.028 230.767C288.752 230.782 288.516 230.571 288.501 230.295C288.438 229.175 288.882 227.747 289.816 225.986Z" fill="white"/>
<path id="Path 165" d="M308.868 238.261C309.139 238.21 309.4 238.39 309.451 238.661C312.853 256.973 305.032 266.521 293.259 262.676C286.552 260.486 277.739 253.873 266.78 242.837C266.586 242.641 266.587 242.325 266.783 242.13C266.979 241.935 267.295 241.937 267.49 242.133L268.551 243.194C278.914 253.488 287.265 259.666 293.569 261.725C304.523 265.303 311.746 256.486 308.468 238.844C308.417 238.572 308.596 238.311 308.868 238.261Z" fill="white"/>
<path id="Path 166" d="M332.026 243.063C332.303 243.063 332.526 243.286 332.526 243.563C332.526 253.841 331.031 262.312 328.033 268.977C327.92 269.228 327.624 269.341 327.372 269.228C327.12 269.114 327.008 268.818 327.121 268.566C330.055 262.044 331.526 253.709 331.526 243.563C331.526 243.286 331.75 243.063 332.026 243.063Z" fill="white"/>
<path id="Path 167" d="M257.572 263.967C257.803 263.816 258.113 263.88 258.264 264.111C267.291 277.886 279.053 286.346 293.569 289.511C293.839 289.57 294.01 289.837 293.951 290.107C293.892 290.376 293.625 290.547 293.356 290.489C278.576 287.265 266.594 278.648 257.428 264.659C257.277 264.428 257.341 264.118 257.572 263.967Z" fill="white"/>
<path id="Path 168" d="M278.517 232.341C278.789 232.391 278.968 232.651 278.918 232.923C277.908 238.406 277.908 244.76 278.922 251.985C278.96 252.258 278.769 252.511 278.496 252.55C278.222 252.588 277.97 252.397 277.931 252.124C276.903 244.799 276.903 238.338 277.935 232.742C277.979 232.5 278.19 232.332 278.427 232.332L278.517 232.341Z" fill="white"/>
<path id="Path 169" fill-rule="evenodd" clip-rule="evenodd" d="M263.56 174.087C263.56 174.087 254.861 169.237 252.724 158.99C250.587 148.742 261.003 139.024 274.326 146.379C283.89 142.76 292.37 142.608 301.665 147.236C310.961 151.864 326.841 168.107 316.425 184.654C306.01 201.201 263.56 174.087 263.56 174.087Z" fill="#22134C"/>
<g id="Group 63">
<path id="Path 159" fill-rule="evenodd" clip-rule="evenodd" d="M263.56 174.087C263.56 174.087 258.04 200.721 273.52 210.057C289 219.393 290.258 226.22 290.258 226.22C290.258 226.22 296.809 215.656 300.071 207.905C303.333 200.154 305.906 197.252 311.509 195.153C317.112 193.054 318.083 186.882 317.598 182.575C317.112 178.268 309.426 172.149 304.748 180.544C296.519 176.776 295.633 167.878 295.633 167.878C295.633 167.878 287.201 176.744 278.157 176.744C269.114 176.744 263.56 174.087 263.56 174.087Z" fill="#9B4932"/>
<path id="Path_11" fill-rule="evenodd" clip-rule="evenodd" d="M272.62 209.487C280.926 213.125 287.154 213.755 291.302 211.378C289.793 215.618 288.192 218.438 286.5 219.836C283.698 216.845 279.371 213.585 273.52 210.057C273.298 209.923 273.08 209.786 272.864 209.647L272.62 209.487Z" fill="#7F321C"/>
<path id="Shape" fill-rule="evenodd" clip-rule="evenodd" d="M308.991 196.263C305.138 198.282 302.904 201.279 300.256 207.468L300.071 207.905C297.896 213.072 294.625 219.177 290.258 226.22C290.154 225.654 289.976 225.075 289.725 224.483C295.656 213.973 299.358 193.9 308.991 196.263Z" fill="#7F321C"/>
<path id="Path 171" d="M264.867 182.923C269.701 181.589 272.759 183.432 273.808 188.314C273.862 188.566 273.915 188.825 273.968 189.094L274.086 189.705C274.145 190.02 274.205 190.353 274.268 190.719L274.541 192.31C275.775 199.537 277.056 201.546 281.483 200.676C281.754 200.623 282.017 200.8 282.07 201.071C282.124 201.341 281.947 201.604 281.676 201.657C278.813 202.22 276.863 201.466 275.605 199.493C274.724 198.109 274.268 196.51 273.687 193.234L273.084 189.783C273.056 189.636 273.026 189.484 272.987 189.288C272.935 189.024 272.883 188.77 272.83 188.524C271.902 184.206 269.414 182.706 265.133 183.887C264.867 183.96 264.591 183.804 264.518 183.538C264.445 183.272 264.601 182.996 264.867 182.923Z" fill="#5F2616"/>
<path id="Path 172" d="M291.302 202.5C291.578 202.5 291.802 202.724 291.802 203C291.802 203.276 291.578 203.5 291.302 203.5C286.888 203.5 283.233 204.69 280.316 207.066C280.102 207.24 279.787 207.208 279.612 206.994C279.438 206.78 279.47 206.465 279.684 206.29C282.788 203.762 286.667 202.5 291.302 202.5Z" fill="#5F2616"/>
<path id="Path 173" d="M270.492 190.751C270.755 190.667 271.036 190.813 271.12 191.076C271.204 191.339 271.059 191.62 270.796 191.704C268.405 192.466 266.395 192.466 264.78 191.677C264.532 191.556 264.43 191.256 264.551 191.008C264.672 190.76 264.972 190.657 265.22 190.778C266.576 191.442 268.328 191.442 270.492 190.751Z" fill="#22134C"/>
<path id="Path 174" fill-rule="evenodd" clip-rule="evenodd" d="M287.266 188.771C287.266 188.771 285.418 188.901 284.767 190.402C284.116 191.903 286.298 191.996 287.824 191.199C287.646 193.9 286.851 194.874 285.492 195.033C284.132 195.192 282.802 193.278 282.802 190.555C282.802 187.832 284.202 187.223 285.313 187.223C286.424 187.223 287.266 188.771 287.266 188.771Z" fill="#22134C"/>
<path id="Path 175" d="M287.824 180.746C288.1 180.746 288.324 180.97 288.324 181.246C288.324 181.522 288.1 181.746 287.824 181.746C283.801 181.746 280.51 183.183 277.915 186.069C277.731 186.274 277.415 186.291 277.209 186.106C277.004 185.922 276.987 185.606 277.172 185.4C279.958 182.302 283.52 180.746 287.824 180.746Z" fill="#5F2616"/>
</g>
<path id="Path 170" d="M274.231 145.806C274.366 145.565 274.67 145.478 274.911 145.613C279.984 148.439 282.015 153.214 281.104 158.389C280.305 162.923 277.294 166.917 273.949 167.801C273.682 167.871 273.408 167.712 273.338 167.445C273.267 167.178 273.426 166.904 273.693 166.834C276.619 166.061 279.383 162.396 280.119 158.215C280.959 153.445 279.11 149.096 274.425 146.486C274.183 146.352 274.097 146.048 274.231 145.806Z" fill="white"/>
<path id="Path 177" d="M313.669 294.333C313.936 294.262 314.21 294.421 314.281 294.688C314.352 294.955 314.193 295.229 313.926 295.3C308.692 296.692 303.85 297.066 299.401 296.418C299.128 296.378 298.938 296.125 298.978 295.851C299.018 295.578 299.272 295.389 299.545 295.429C303.853 296.056 308.56 295.692 313.669 294.333Z" fill="#5F2616"/>
<g id="Group 64">
<path id="Path 606" fill-rule="evenodd" clip-rule="evenodd" d="M253.5 227.361C253.5 227.361 254.787 225.036 254.787 218.508C254.787 211.979 254.787 211.238 254.787 211.238H250L253.5 227.361Z" fill="#C82C46"/>
<path id="Path 180" fill-rule="evenodd" clip-rule="evenodd" d="M260.831 211.979C260.831 211.979 265.86 208.187 266.746 204.509C267.633 200.831 266.774 190.956 261.931 185.589C257.088 180.223 250.277 174.856 241.251 180.223C232.224 185.589 260.831 211.979 260.831 211.979Z" fill="#C82C46"/>
<path id="Path 179" fill-rule="evenodd" clip-rule="evenodd" d="M246.357 210.912C248.642 218.14 249.693 224.435 252.362 227C255.031 229.565 252.362 213.905 252.362 213.905C252.362 213.905 258.012 214.772 260.831 211.979C263.65 209.186 267.27 197.136 258.728 186.662C250.185 176.187 237.54 178.008 235.41 187.658C233.28 197.307 239.823 206.891 246.357 210.912Z" fill="#E15A71"/>
<path id="Oval_2" fill-rule="evenodd" clip-rule="evenodd" d="M257.488 208.963C261.732 205.879 261.357 198.127 256.65 191.649C251.943 185.17 244.687 182.418 240.442 185.502C236.197 188.586 236.572 196.338 241.279 202.816C245.986 209.295 253.243 212.047 257.488 208.963Z" fill="#4AA7E1"/>
<path id="Shape_2" fill-rule="evenodd" clip-rule="evenodd" d="M252.755 187.542C254.154 188.659 255.481 190.039 256.65 191.648L256.448 191.374L247.97 208.76C246.559 208.021 245.164 207.017 243.862 205.776L252.755 187.542ZM248.923 185.212C249.519 185.467 250.115 185.771 250.705 186.121L242.065 203.836C241.796 203.507 241.534 203.167 241.279 202.816C241.087 202.553 240.903 202.287 240.726 202.019L248.923 185.212Z" fill="white"/>
</g>
<path id="Path 182" d="M286.238 311.891C286.463 311.792 286.721 311.873 286.853 312.069L286.896 312.149L309.399 363.608C309.509 363.861 309.394 364.156 309.141 364.266C308.916 364.365 308.658 364.285 308.526 364.088L308.483 364.009L285.98 312.549C285.869 312.296 285.985 312.001 286.238 311.891Z" fill="white"/>
<path id="Path 183" d="M330.399 311.86C330.639 311.809 330.875 311.94 330.965 312.159L330.991 312.246L335.007 331.307C335.064 331.577 334.891 331.842 334.621 331.899C334.381 331.95 334.145 331.819 334.055 331.599L334.029 331.513L330.013 312.452C329.956 312.182 330.129 311.917 330.399 311.86Z" fill="white"/>
<path id="Path 185" d="M262.316 251.638C262.546 251.485 262.857 251.548 263.01 251.777L263.545 252.571C265.843 255.939 268.982 260.055 272.963 264.917C273.138 265.131 273.107 265.446 272.893 265.621C272.679 265.795 272.364 265.764 272.189 265.55L271.246 264.393C267.382 259.629 264.359 255.609 262.177 252.332C262.024 252.102 262.086 251.791 262.316 251.638Z" fill="white"/>
<path id="Path 186" d="M273.073 291.654C273.162 291.393 273.446 291.253 273.708 291.342C280.206 293.555 285.833 295.019 290.586 295.732C290.859 295.773 291.047 296.028 291.006 296.301C290.965 296.574 290.711 296.762 290.437 296.721C285.62 295.998 279.937 294.52 273.385 292.288C273.124 292.199 272.984 291.915 273.073 291.654Z" fill="white"/>
<path id="Path 189" d="M308.902 135.464C315.335 133.762 322.239 137.499 324.066 144.463C325.35 149.359 324.078 155.48 320.283 162.831C320.157 163.076 319.855 163.172 319.61 163.046C319.364 162.919 319.268 162.617 319.395 162.372C323.086 155.221 324.309 149.334 323.098 144.716C321.416 138.302 315.069 134.867 309.157 136.43C308.89 136.501 308.617 136.342 308.546 136.075C308.476 135.808 308.635 135.534 308.902 135.464Z" fill="white"/>
<path id="Path 604" d="M312.704 296.931C312.927 296.768 313.24 296.816 313.403 297.039C313.567 297.262 313.518 297.575 313.295 297.738C309.535 300.493 304.529 302.374 298.283 303.39C298.011 303.434 297.754 303.249 297.709 302.976C297.665 302.704 297.85 302.447 298.123 302.403C304.223 301.411 309.082 299.584 312.704 296.931Z" fill="#5F2616"/>
<path id="Path 605" d="M313.698 290.739C313.968 290.684 314.232 290.858 314.287 291.129C314.343 291.4 314.168 291.664 313.897 291.719C309.832 292.548 304.114 292.745 296.733 292.314C296.457 292.298 296.247 292.062 296.263 291.786C296.279 291.51 296.515 291.3 296.791 291.316L298.141 291.389C304.791 291.716 309.98 291.498 313.698 290.739Z" fill="#5F2616"/>
<path id="Path 607" d="M245.032 223.325C245.306 223.291 245.556 223.486 245.59 223.76C246.039 227.377 247.86 230.901 251.071 234.335C251.259 234.537 251.248 234.853 251.047 235.042C250.845 235.231 250.529 235.22 250.34 235.018C246.993 231.438 245.074 227.725 244.598 223.883C244.564 223.609 244.758 223.359 245.032 223.325Z" fill="#5F2616"/>
<path id="Path 608" d="M244.442 231.785C244.697 231.681 244.989 231.803 245.094 232.059C246.289 234.983 247.713 237.54 249.364 239.73C249.53 239.95 249.486 240.264 249.266 240.43C249.045 240.596 248.732 240.552 248.566 240.332C246.861 238.071 245.395 235.439 244.168 232.438C244.064 232.182 244.186 231.89 244.442 231.785Z" fill="#5F2616"/>
<path id="Path 702" d="M343.347 291.656C343.61 291.572 343.891 291.716 343.976 291.979C346.939 301.187 350.436 307.862 354.452 312.001C354.645 312.199 354.64 312.515 354.442 312.708C354.243 312.9 353.927 312.895 353.735 312.697C349.595 308.431 346.03 301.627 343.024 292.286C342.939 292.023 343.084 291.741 343.347 291.656Z" fill="white"/>
</g>
<g id="Group 20 Copy 2">
<path id="Path_12" fill-rule="evenodd" clip-rule="evenodd" d="M407.149 332C390.896 332 377.569 344.528 376.298 360.454H438C436.729 344.528 423.402 332 407.149 332Z" fill="#E15A71"/>
<path id="Path 133_4" d="M389.794 343.323C389.594 343.133 389.277 343.141 389.087 343.342C388.919 343.52 388.907 343.79 389.047 343.981L389.106 344.049L406.805 360.817C407.005 361.007 407.322 360.999 407.512 360.798C407.681 360.62 407.693 360.35 407.552 360.159L407.493 360.091L389.794 343.323Z" fill="white"/>
<path id="Path 134_4" d="M379.296 349.262C379.039 349.16 378.749 349.286 378.647 349.543C378.557 349.771 378.647 350.026 378.848 350.151L378.929 350.192L401.647 359.172C401.904 359.274 402.194 359.148 402.296 358.891C402.386 358.663 402.297 358.408 402.095 358.283L402.015 358.242L379.296 349.262Z" fill="white"/>
<path id="Path 135_4" d="M414.657 334.71C414.422 334.637 414.175 334.746 414.066 334.957L414.032 335.04L408.153 354.069C408.072 354.333 408.219 354.613 408.483 354.695C408.718 354.767 408.965 354.658 409.074 354.448L409.109 354.364L414.987 335.335C415.068 335.071 414.921 334.791 414.657 334.71Z" fill="white"/>
<path id="Path 136_4" d="M427.513 339.16C427.336 338.989 427.066 338.975 426.874 339.113L426.806 339.172L408.271 358.36C408.079 358.558 408.085 358.875 408.283 359.067C408.46 359.237 408.73 359.252 408.922 359.114L408.99 359.055L427.525 339.867C427.717 339.668 427.711 339.352 427.513 339.16Z" fill="white"/>
</g>
<path id="Path 196" opacity="0.3" fill-rule="evenodd" clip-rule="evenodd" d="M219.411 382.472C228.857 380.973 244.838 383.101 241.158 388.05C237.478 392.999 205.365 390.199 201.5 394.526C197.635 398.852 184.235 400.12 167.671 398.796C151.107 397.473 137.084 394.716 152.96 386.907C168.836 379.098 191.604 386.907 197.324 386.907C203.043 386.907 209.965 383.971 219.411 382.472Z" fill="#22134C"/>
<path id="Path 2" fill-rule="evenodd" clip-rule="evenodd" d="M360.076 398.622C360.076 398.622 355.924 371 360.076 371C364.228 371 368.556 390.474 368.556 390.474C368.556 390.474 372.912 377.523 377.637 379.718C382.363 381.913 377.637 399 377.637 399L360.076 398.622Z" fill="#2E144F"/>
<path id="Path 2 Copy" fill-rule="evenodd" clip-rule="evenodd" d="M201.698 345.703C201.698 345.703 198.301 324 201.698 324C205.095 324 208.637 339.301 208.637 339.301C208.637 339.301 212.201 329.125 216.067 330.85C219.933 332.574 216.067 346 216.067 346L201.698 345.703Z" fill="#2E144F"/>
</g>
</g>
</svg>
