<svg width="606" height="489" viewBox="0 0 606 489" fill="none" xmlns="http://www.w3.org/2000/svg">
<g id="Lost">
<rect width="606" height="489" fill="white"/>
<g id="Empty State 10">
<path id="404" opacity="0.21" fill-rule="evenodd" clip-rule="evenodd" d="M246.888 241.301V219.575H257.294V201.293H246.888V138.926H223.192V139.137L182.2 205.09L183.606 219.575H223.192V241.301H246.888ZM223.192 201.293H204.77L221.716 172.184L223.192 169.793V201.293ZM296.656 242.707C307.953 242.707 316.707 238.957 322.918 231.457C329.128 223.957 332.234 213.293 332.234 199.465V180.832C332.234 167.051 329.117 156.387 322.882 148.84C316.648 141.293 307.859 137.52 296.515 137.52C285.171 137.52 276.394 141.27 270.183 148.77C263.972 156.27 260.867 166.934 260.867 180.762V199.465C260.867 213.2 263.984 223.84 270.218 231.387C276.453 238.934 285.265 242.707 296.656 242.707ZM296.656 224.426C292.484 224.426 289.437 222.657 287.515 219.118C285.593 215.579 284.632 209.989 284.632 202.348V176.192C284.773 169.348 285.769 164.239 287.621 160.864C289.472 157.489 292.437 155.801 296.515 155.801C300.687 155.801 303.734 157.618 305.656 161.25C307.578 164.883 308.539 170.379 308.539 177.739V203.051C308.492 210.411 307.507 215.813 305.586 219.258C303.664 222.704 300.687 224.426 296.656 224.426ZM400.565 241.301V219.575H410.971V201.293H400.565V138.926H376.869V139.137L335.877 205.09L337.284 219.575H376.869V241.301H400.565ZM376.869 201.293H358.448L375.393 172.184L376.869 169.793V201.293Z" fill="#192B3B"/>
<path id="Path 632" opacity="0.1" fill-rule="evenodd" clip-rule="evenodd" d="M144 125.104C159.919 125.104 224.737 125.104 224.737 125.104C224.737 125.104 220.504 110 205.657 110C190.81 110 182.699 116.605 173.35 116.605C164.001 116.605 149.098 112.584 144 125.104Z" fill="#373482"/>
<path id="Path 632 Copy" opacity="0.1" fill-rule="evenodd" clip-rule="evenodd" d="M371 191.104C386.919 191.104 451.737 191.104 451.737 191.104C451.737 191.104 447.504 176 432.657 176C417.81 176 409.699 182.605 400.35 182.605C391.001 182.605 376.098 178.584 371 191.104Z" fill="#373482"/>
<path id="Path 296" fill-rule="evenodd" clip-rule="evenodd" d="M219.469 271.954C219.469 271.954 248.258 247.074 257.016 250.44C265.774 253.806 268.835 246.667 292.802 233.318C316.77 219.969 342.38 213.379 363.632 219.969C384.885 226.558 375.26 232.105 388.562 238.388C401.864 244.671 410.693 287.223 410.693 287.223H204.493L219.469 271.954Z" fill="#FAE6CE"/>
<path id="Path" fill-rule="evenodd" clip-rule="evenodd" d="M244.359 271.951L244.578 271.954C249.224 271.954 255.835 277.044 264.411 287.223L204.493 287.223L219.469 271.954C223.683 268.312 227.575 265.125 231.145 262.391C235.786 268.656 240.19 271.843 244.359 271.951Z" fill="#FCD4BF"/>
<path id="Path_2" fill-rule="evenodd" clip-rule="evenodd" d="M410.693 287.223L348.333 287.222C354.644 273.445 370.218 270.213 383.437 262.102C390.636 257.685 395.122 252.501 396.896 246.549C402.161 254.707 406.76 268.266 410.693 287.223Z" fill="#FCD4BF"/>
<path id="Path 295" fill-rule="evenodd" clip-rule="evenodd" d="M278.589 306.847C274.998 299.551 270.123 295.903 263.966 295.903C254.729 295.903 252.08 284.128 244.775 281.725C237.552 279.35 228.626 284.02 228.424 281.805L228.416 281.564C228.248 278.68 224.002 262.643 214.299 258.147L213.997 258.011C210.802 256.626 207.391 254.348 203.766 251.178L203.362 250.822C195.745 244.054 184.113 244.621 177.191 252.098L171.716 258.011L157.718 263.594C152.501 265.674 148.514 270.017 146.886 275.393L146.58 276.402C145.127 281.2 141.817 285.218 137.385 287.561L136.272 288.15C132.469 290.161 129.283 293.167 127.054 296.848L121 306.847H278.589Z" fill="#FAE6CE"/>
<path id="Path 297" fill-rule="evenodd" clip-rule="evenodd" d="M315.4 342.211C315.4 342.211 318.985 327.6 328.196 314.421C337.407 301.242 358.84 295.351 367.381 284.602C375.921 273.853 387.177 284.834 394.59 274.807C402.002 264.78 407.083 258.391 420.467 274.807C433.851 291.223 430.501 306.202 454.121 306.847C477.741 307.491 484.6 342.211 484.6 342.211H315.4Z" fill="#FAE6CE"/>
<path id="Oval" opacity="0.2" fill-rule="evenodd" clip-rule="evenodd" d="M329.8 380.7C365.986 380.7 395.32 377.476 395.32 373.5C395.32 369.524 365.986 366.3 329.8 366.3C293.614 366.3 264.28 369.524 264.28 373.5C264.28 377.476 293.614 380.7 329.8 380.7Z" fill="#162635"/>
<g id="Group 32">
<path id="Path 290" fill-rule="evenodd" clip-rule="evenodd" d="M280.861 228.936C280.861 228.936 275.478 238.125 277.951 265.012C280.425 291.9 284.316 285.985 280.861 302.298C277.406 318.611 268.743 332.813 275.914 346.667C283.085 360.52 304.016 360.52 304.016 360.52C304.016 360.52 316.074 305.046 316.892 294.726C320.167 306.247 327.726 342.417 339.778 350.818C351.83 359.219 370.881 349.25 370.881 349.25C370.881 349.25 328.566 233.693 325.373 228.936C322.179 224.179 280.861 228.936 280.861 228.936Z" fill="#35476A"/>
<path id="Path_3" fill-rule="evenodd" clip-rule="evenodd" d="M280.861 228.936L282.499 228.75C308.995 225.766 323.286 225.828 325.373 228.936L325.465 229.083C325.68 229.443 325.993 230.081 326.404 230.997L324.188 233.28C320.664 235.805 314.264 237.493 304.988 238.343L303.707 238.459C291.044 239.643 283.312 242.428 277.599 260.724C276.479 245.156 277.566 234.56 280.861 228.936Z" fill="#162635"/>
<g id="Group 30">
<path id="Path 286" fill-rule="evenodd" clip-rule="evenodd" d="M316.892 203.493C320.779 210.987 325.937 214.337 332.367 213.543C341.915 212.364 345.936 194.971 347.059 184.764L347.093 184.457C347.456 181.021 344.966 177.94 341.53 177.576C338.408 177.246 338.141 178.306 337.218 181.264C332.367 196.818 327.938 198.567 325.614 183.874L325.544 183.424C322.631 164.5 319.747 171.189 316.892 203.493Z" fill="#58B48A"/>
<path id="Path_4" fill-rule="evenodd" clip-rule="evenodd" d="M322.657 188.357L322.711 189.175C323.557 201.058 326.251 207.376 330.794 208.128C334.29 208.707 337.64 208.241 340.846 206.731C338.69 210.437 335.909 213.105 332.367 213.543C328.961 213.963 325.913 213.221 323.221 211.317C321.341 206.778 321.154 199.125 322.657 188.357Z" fill="#3CA286"/>
<path id="Path 275" fill-rule="evenodd" clip-rule="evenodd" d="M323.673 133.596C323.673 133.596 326.477 123.41 321.827 117.167C319.909 110.699 311.877 106.415 301.947 108.557C292.016 110.699 286.04 122.064 286.04 131.785C286.04 141.505 288.967 157.973 283.397 164.853C277.827 171.733 286.229 177.402 291.309 180.053C296.389 182.704 316.144 180.796 319.909 175.468C323.673 170.141 319.815 161.996 320.821 151.336C321.827 140.676 323.673 133.596 323.673 133.596Z" fill="#35476A"/>
<path id="Path 273" fill-rule="evenodd" clip-rule="evenodd" d="M296.255 129.946C295.954 128.997 294.061 128.167 292.504 129.325C290.947 130.483 290.947 135.996 297.206 136.704C303.465 137.411 297.725 132.819 296.255 129.946Z" fill="#FFBB8A"/>
<path id="Path 274" fill-rule="evenodd" clip-rule="evenodd" d="M319.159 128.465C319.159 128.465 319.527 126.599 321.719 126.599C323.911 126.599 324.177 132.707 321.16 134.718C318.143 136.728 319.159 128.465 319.159 128.465Z" fill="#FFBB8A"/>
<path id="Path 279" fill-rule="evenodd" clip-rule="evenodd" d="M299.626 140.716C299.626 140.716 300.634 158.812 294.944 159.828C289.254 160.844 286.069 155.856 279.692 156.627C273.315 157.398 271.124 166.441 272.681 183.422C274.238 200.404 281.341 213.14 281.341 213.14L277.296 233.318H329.481C329.481 233.318 319.57 206.013 322.471 190.026C325.373 174.038 328.617 163.029 325.544 159.828C322.471 156.627 313.861 159.298 312.267 156.627C310.674 153.956 312.267 143.887 312.267 143.887L299.626 140.716Z" fill="#58B48A"/>
<path id="Shape" fill-rule="evenodd" clip-rule="evenodd" d="M289.443 194.185L290.899 198.715L278.657 207.728C277.474 205.029 276.455 202.204 275.599 199.254L289.443 194.185ZM288.874 185.633V190.48L274.196 193.621C273.768 191.585 273.41 189.495 273.123 187.351L288.874 185.633Z" fill="white"/>
<path id="Path 624" fill-rule="evenodd" clip-rule="evenodd" d="M290.104 173.646C290.104 173.646 288.874 182.885 288.874 188.925C288.874 194.964 290.434 201.166 294.128 201.828C297.822 202.49 301.612 197.71 304.378 192.77C307.144 187.829 304.841 189.128 299.484 187.451C294.128 185.774 290.104 173.646 290.104 173.646Z" fill="#3CA286"/>
<path id="Path_5" fill-rule="evenodd" clip-rule="evenodd" d="M299.764 144.333L311.789 147.344C311.445 150.318 311.38 152.645 311.594 154.324C308.116 159.831 302.869 162.584 295.854 162.584C289.859 162.584 285.023 160.574 281.344 156.552C286.664 156.708 289.768 160.752 294.944 159.828C298.338 159.222 299.945 154.057 299.764 144.333Z" fill="#3CA286"/>
<path id="Path_6" fill-rule="evenodd" clip-rule="evenodd" d="M317.481 196.467C314.365 210.73 308.818 220.431 300.84 225.571C293.5 230.3 285.941 231.442 278.163 228.998L281.341 213.14C284.816 217.006 288.611 219.282 292.728 219.969C298.902 220.998 304.35 217.017 308.301 212.358C310.936 209.252 313.995 203.955 317.481 196.467Z" fill="#3CA286"/>
<path id="Path 623" d="M324.221 180.833L324.298 180.846C324.529 180.907 324.666 181.144 324.605 181.374C321.941 191.45 321.5 201.522 323.283 211.596C323.325 211.831 323.168 212.055 322.933 212.096C322.698 212.138 322.474 211.981 322.432 211.746C320.627 201.548 321.074 191.349 323.77 181.153C323.824 180.948 324.017 180.817 324.221 180.833Z" fill="white"/>
<path id="Path_7" fill-rule="evenodd" clip-rule="evenodd" d="M299.626 140.716L312.267 143.887C311.825 146.685 311.566 149.054 311.493 150.995C307.921 152.883 303.978 152.392 299.664 149.524C299.818 147.182 299.816 144.444 299.658 141.309L299.626 140.716Z" fill="#FF8B61"/>
<g id="Group 31">
<path id="Path 272" fill-rule="evenodd" clip-rule="evenodd" d="M296.255 129.946C296.466 133.072 296.596 136.213 298.848 142.357C301.101 148.501 307.862 149.772 310.851 148.906C313.839 148.04 318.35 144.239 319.963 135.445C321.577 126.651 319.279 120.24 319.279 120.24C319.279 120.24 315.661 123.36 310.851 123.36C306.04 123.36 300.521 122.209 296.255 129.946Z" fill="#FFBB8A"/>
<path id="Path 276" d="M313.015 126.653C314.617 125.842 316.539 126.337 318.755 128.076C318.896 128.187 318.92 128.39 318.81 128.531C318.699 128.672 318.496 128.696 318.355 128.586C316.316 126.986 314.643 126.555 313.308 127.231C311.87 127.959 311.69 129.589 312.251 133.979L312.469 135.591C313.049 139.845 312.105 141.015 308.349 139.89C308.178 139.838 308.08 139.658 308.132 139.486C308.183 139.315 308.364 139.217 308.535 139.269C311.703 140.218 312.325 139.546 311.857 135.91L311.606 134.044C311 129.317 311.206 127.569 313.015 126.653Z" fill="#EF7C5B"/>
<path id="Path 277" d="M299.916 127.805C302.765 126.287 305.24 126.103 307.309 127.283C307.465 127.372 307.519 127.569 307.43 127.725C307.341 127.88 307.144 127.934 306.988 127.846C305.134 126.788 302.889 126.955 300.221 128.377C300.063 128.461 299.867 128.401 299.782 128.243C299.698 128.085 299.758 127.889 299.916 127.805Z" fill="#EF7C5B"/>
<path id="Path 278" d="M306.364 142.846C308.676 141.534 311.096 141.293 313.601 142.125C313.77 142.181 313.862 142.365 313.806 142.535C313.75 142.704 313.566 142.796 313.396 142.74C311.067 141.966 308.837 142.188 306.684 143.409C306.528 143.498 306.331 143.443 306.242 143.288C306.154 143.132 306.209 142.934 306.364 142.846Z" fill="#EF7C5B"/>
<path id="Path_8" fill-rule="evenodd" clip-rule="evenodd" d="M303.999 129.143C304.845 129.143 305.566 129.955 305.832 131.087L304.971 131.087C304.434 131.087 303.999 131.522 303.999 132.059C303.999 132.564 304.384 132.98 304.877 133.027L304.971 133.031L305.832 133.032C305.565 134.164 304.845 134.975 303.999 134.975C302.925 134.975 302.055 133.67 302.055 132.059C302.055 130.449 302.925 129.143 303.999 129.143Z" fill="#CD5C3B"/>
<path id="Path Copy 6" fill-rule="evenodd" clip-rule="evenodd" d="M315.663 129.143C316.509 129.143 317.23 129.955 317.496 131.087L316.635 131.087C316.098 131.087 315.663 131.522 315.663 132.059C315.663 132.564 316.048 132.98 316.541 133.027L316.635 133.031L317.496 133.032C317.229 134.164 316.509 134.975 315.663 134.975C314.589 134.975 313.719 133.67 313.719 132.059C313.719 130.449 314.589 129.143 315.663 129.143Z" fill="#CD5C3B"/>
<path id="Path 621" d="M296.301 129.637C296.48 129.626 296.633 129.763 296.643 129.941C296.822 133.024 297.21 135.678 297.806 137.902C297.853 138.075 297.75 138.252 297.577 138.299C297.405 138.345 297.227 138.243 297.18 138.07C296.571 135.8 296.177 133.103 295.997 129.979C295.986 129.8 296.123 129.647 296.301 129.637Z" fill="#EF7C5B"/>
<path id="Path 622" d="M320.544 126.036C320.723 126.031 320.872 126.171 320.878 126.35C321.118 134.348 319.642 140.61 316.438 145.13C316.334 145.276 316.132 145.31 315.986 145.207C315.84 145.103 315.806 144.901 315.909 144.755C319.022 140.364 320.466 134.238 320.23 126.37C320.224 126.191 320.365 126.042 320.544 126.036Z" fill="#EF7C5B"/>
</g>
<path id="Path 280" d="M320.265 186.596C320.497 186.65 320.642 186.882 320.588 187.115C315.821 207.642 304.869 220.401 295.39 220.401C290.278 220.401 286.058 218.521 282.76 214.774C282.603 214.595 282.62 214.322 282.799 214.164C282.978 214.007 283.251 214.024 283.409 214.203C286.542 217.763 290.525 219.537 295.39 219.537C304.384 219.537 315.06 207.1 319.746 186.919C319.794 186.713 319.983 186.575 320.187 186.585L320.265 186.596Z" fill="white"/>
<path id="Path 281" d="M290.356 172.653C290.588 172.705 290.735 172.936 290.683 173.168C289.472 178.606 288.982 185.725 289.53 191.292C290.159 197.683 292.027 201.396 294.944 201.396C299.365 201.396 303.946 194.796 308.522 181.534C308.6 181.308 308.846 181.189 309.071 181.266C309.297 181.344 309.417 181.59 309.339 181.816L308.968 182.876C304.393 195.78 299.769 202.26 294.944 202.26C291.395 202.26 289.339 198.173 288.67 191.377C288.113 185.716 288.609 178.506 289.84 172.981C289.886 172.774 290.074 172.635 290.278 172.643L290.356 172.653Z" fill="white"/>
<g id="Group 29">
<path id="Rectangle" fill-rule="evenodd" clip-rule="evenodd" d="M333.514 152.824H320.554C319.162 152.824 318.034 153.952 318.034 155.344V179.104C318.034 180.495 319.162 181.624 320.554 181.624H333.514C334.905 181.624 336.034 180.495 336.034 179.104V155.344C336.034 153.952 334.905 152.824 333.514 152.824Z" fill="#FFB9A0"/>
<path id="Rectangle Copy 5" fill-rule="evenodd" clip-rule="evenodd" d="M335.674 152.824H322.714C321.322 152.824 320.194 153.952 320.194 155.344V179.104C320.194 180.495 321.322 181.624 322.714 181.624H335.674C337.065 181.624 338.194 180.495 338.194 179.104V155.344C338.194 153.952 337.065 152.824 335.674 152.824Z" fill="#FAE6CE"/>
</g>
<g id="Group 28">
<path id="Path 282" fill-rule="evenodd" clip-rule="evenodd" d="M309.999 182.454C309.999 182.454 317.819 186.204 318.993 186.204C320.167 186.204 323.07 176.969 324.008 175.504C324.946 174.038 324.374 166.653 324.66 164.119C324.946 161.585 323.771 160.686 322.243 160.686C320.715 160.686 315.731 165.615 312.597 168.361C309.463 171.107 309.999 182.454 309.999 182.454Z" fill="#FFBB8A"/>
<path id="Path 283" d="M323.078 165.877C323.151 165.714 323.343 165.641 323.506 165.714C323.646 165.777 323.719 165.927 323.691 166.072L323.668 166.143L321.281 171.445C321.207 171.608 321.015 171.68 320.852 171.607C320.712 171.544 320.639 171.394 320.667 171.25L320.69 171.178L323.078 165.877Z" fill="#EF7C5B"/>
<path id="Path 284" d="M322.418 161.48C322.539 161.348 322.744 161.339 322.876 161.46C322.989 161.564 323.011 161.73 322.939 161.858L322.895 161.918L315.622 169.828C315.501 169.959 315.296 169.968 315.164 169.847C315.051 169.743 315.029 169.578 315.101 169.45L315.145 169.389L322.418 161.48Z" fill="#EF7C5B"/>
<path id="Path 285" d="M323.092 162.422C323.182 162.267 323.38 162.214 323.535 162.304C323.668 162.38 323.726 162.537 323.683 162.678L323.654 162.746L317.592 173.237C317.503 173.392 317.305 173.445 317.15 173.355C317.017 173.278 316.959 173.122 317.002 172.981L317.031 172.912L323.092 162.422Z" fill="#EF7C5B"/>
</g>
<path id="Path 287" fill-rule="evenodd" clip-rule="evenodd" d="M346.364 180.717C346.364 180.717 344.256 168.761 342.537 166.698C340.818 164.635 337.186 160.686 336.394 160.686C335.601 160.686 335.654 170.371 336.394 172.937C337.133 175.504 337.248 180.717 338.554 180.717C339.859 180.717 346.364 180.717 346.364 180.717Z" fill="#FFBB8A"/>
<path id="Path 288" d="M335.607 162.339C335.723 162.239 335.89 162.235 336.009 162.321L336.064 162.372L341.336 168.448C341.454 168.584 341.439 168.788 341.304 168.905C341.188 169.006 341.021 169.01 340.902 168.924L340.847 168.873L335.574 162.796C335.457 162.661 335.472 162.457 335.607 162.339Z" fill="#EF7C5B"/>
<path id="Path 289" d="M335.64 165.384C335.768 165.299 335.934 165.317 336.041 165.417L336.089 165.474L339.442 170.522C339.541 170.671 339.501 170.873 339.352 170.972C339.224 171.056 339.058 171.039 338.951 170.938L338.902 170.881L335.549 165.833C335.45 165.684 335.491 165.483 335.64 165.384Z" fill="#EF7C5B"/>
</g>
<path id="Path 291" d="M316.851 248.752C317.088 248.73 317.299 248.903 317.322 249.141C318.629 262.663 318.629 277.869 317.323 294.759C317.305 294.997 317.097 295.175 316.859 295.157C316.621 295.138 316.443 294.931 316.462 294.693C317.764 277.85 317.764 262.694 316.462 249.224C316.439 248.987 316.613 248.775 316.851 248.752Z" fill="white"/>
<path id="Path 292" d="M287.891 236.875C288.129 236.867 288.329 237.053 288.338 237.291C288.965 254.705 290.293 270.051 292.321 283.329L292.492 284.431C294.631 298.056 291.629 318.327 283.498 345.265C283.429 345.493 283.188 345.623 282.96 345.554C282.731 345.485 282.602 345.244 282.671 345.015L283.209 343.217C290.9 317.288 293.705 297.731 291.638 284.565C289.508 271 288.12 255.252 287.474 237.322C287.466 237.084 287.652 236.884 287.891 236.875Z" fill="white"/>
<path id="Path 293" d="M297.001 237.957C297.239 237.939 297.447 238.118 297.464 238.356C298.272 249.152 296.819 257.153 293.078 262.354C292.939 262.548 292.669 262.592 292.475 262.453C292.282 262.314 292.238 262.044 292.377 261.85C295.979 256.842 297.396 249.033 296.603 238.42C296.585 238.182 296.764 237.975 297.001 237.957Z" fill="white"/>
<path id="Path 294" fill-rule="evenodd" clip-rule="evenodd" d="M299.547 365.847C294.89 362.354 291.686 360.521 287.906 360.521C284.126 360.521 284.489 366.662 294.273 372.25C304.057 377.838 308.667 378.526 309.587 376.788C310.507 375.05 304.203 369.341 299.547 365.847Z" fill="#162635"/>
<path id="Path 294 Copy" fill-rule="evenodd" clip-rule="evenodd" d="M371.735 352.009C365.987 352.931 362.443 353.962 359.817 356.682C357.191 359.401 361.861 363.406 372.677 360.25C383.493 357.094 387.19 354.256 386.579 352.386C385.968 350.517 377.482 351.086 371.735 352.009Z" fill="#162635"/>
</g>
<path id="Path 703" d="M228.424 281.372C228.663 281.372 228.856 281.566 228.856 281.804C228.856 282.043 228.663 282.236 228.424 282.236C222.452 282.236 217.465 284.401 212.878 288.21L212.583 288.461C210.713 290.082 207.209 293.648 206.92 293.877C206.09 294.537 205.427 294.702 204.749 294.372C204.434 294.218 204.143 293.978 203.741 293.56L203.273 293.056L202.934 292.684L202.527 292.244C202.399 292.108 202.275 291.979 202.147 291.848C200.731 290.406 199.137 289.157 196.989 287.956L196.345 287.605C191.209 284.894 186.626 285.461 182.495 289.315C182.32 289.477 182.047 289.468 181.884 289.293C181.721 289.119 181.731 288.845 181.905 288.683C186.222 284.657 191.094 283.985 196.428 286.676L196.929 286.937C199.397 288.261 201.187 289.638 202.763 291.243L203.155 291.651L204.215 292.805L204.472 293.072C204.749 293.349 204.948 293.508 205.128 293.595C205.433 293.744 205.737 293.685 206.25 293.303L206.383 293.201C206.634 293.001 210.513 289.051 212.326 287.545C217.056 283.617 222.228 281.372 228.424 281.372Z" fill="white"/>
<path id="Path 704" d="M364.966 286.924L365.619 286.251C373.221 278.47 376.673 277.208 386.555 279.002C393.905 280.337 401.491 287.482 409.356 300.406C409.48 300.609 409.415 300.875 409.211 300.999C409.007 301.123 408.742 301.059 408.618 300.855L407.914 299.713C400.419 287.704 393.234 281.093 386.401 279.852L385.584 279.709C376.375 278.141 373.246 279.566 365.589 287.523C365.423 287.695 365.15 287.7 364.978 287.535C364.806 287.369 364.801 287.096 364.966 286.924Z" fill="white"/>
<path id="Path 2" fill-rule="evenodd" clip-rule="evenodd" d="M205.362 353.239C205.362 353.239 200.638 321 205.362 321C210.087 321 211.593 339.952 211.593 339.952C211.593 339.952 216.21 322.78 220.908 326.414C225.606 330.047 225.884 346.686 225.884 346.686C225.884 346.686 230.593 337.119 232.844 337.119C235.095 337.119 232.844 353.239 232.844 353.239H205.362Z" fill="#58B48A"/>
<path id="Path 3" fill-rule="evenodd" clip-rule="evenodd" d="M245.792 309.862C245.792 309.862 243.786 298.126 244.789 298.126C245.792 298.126 248.997 305.991 248.997 305.991C248.997 305.991 250.262 300.076 251.853 300.076C253.445 300.076 251.853 309.862 251.853 309.862H245.792Z" fill="#58B48A"/>
<path id="Path 413" fill-rule="evenodd" clip-rule="evenodd" d="M417.412 351.835C417.412 351.835 412.469 328.815 417.412 326.254C422.355 323.693 424.788 339.044 424.788 339.044C424.788 339.044 426.816 316.614 431.705 316.614C436.593 316.614 431.705 351.835 431.705 351.835H417.412Z" fill="#58B48A"/>
</g>
</g>
</svg>
