<svg width="606" height="489" viewBox="0 0 606 489" fill="none" xmlns="http://www.w3.org/2000/svg">
<g id="Oh Nooo~">
<rect width="606" height="489" fill="white"/>
<g id="Empty State 13">
<path id="Path 768" opacity="0.1" fill-rule="evenodd" clip-rule="evenodd" d="M53 234H249C249 234 232.575 212.355 205.993 212.355C179.411 212.355 178.42 227.539 163.208 217.485C147.996 207.43 151.228 198 127.138 198C103.048 198 100.212 224.443 80.277 219.328C60.3423 214.213 53 234 53 234Z" fill="#84A0E4"/>
<path id="Path 768 Copy" opacity="0.1" fill-rule="evenodd" clip-rule="evenodd" d="M556 284H399C399 284 412.157 266.564 433.45 266.564C454.742 266.564 455.536 278.795 467.721 270.696C479.907 262.597 477.318 255 496.614 255C515.911 255 518.182 276.301 534.151 272.181C550.119 268.061 556 284 556 284Z" fill="#84A0E4"/>
<path id="Shape" fill-rule="evenodd" clip-rule="evenodd" d="M206.743 180.38H207H211.48H211.98V180.88V294.62H214.838H214.84L215.392 294.618C215.392 294.618 215.392 294.618 215.393 294.618C220.14 294.588 223.671 294.169 226.022 293.386C228.444 292.578 230.046 291.256 230.909 289.445C231.77 287.637 232.483 284.924 233.031 281.273M233.031 281.271L233.105 280.768L233.168 280.34H233.6H238.36H238.859L238.86 280.839L238.869 284.937L238.869 284.938M238.916 314.665C238.276 308.007 237.928 298.096 237.869 284.942L237.869 284.941L237.861 281.34H234.032L234.021 281.418L234.02 281.42C233.467 285.105 232.736 287.934 231.811 289.875C230.807 291.984 228.956 293.462 226.338 294.334C223.835 295.169 220.177 295.588 215.398 295.618L215.396 295.618L214.842 295.62H214.84H211.48H210.98V295.12V181.38H207.257L116.5 308.161V313.38H189.08H189.58V313.88V367.98H210.98V313.88V313.368L211.492 313.38L213.967 313.439H213.967C221.126 313.616 226.819 313.812 231.046 314.029C234.823 314.222 237.456 314.433 238.916 314.665ZM239.176 315.726C239.177 315.726 239.178 315.727 239.179 315.727L239.375 315.769L240.048 315.913L239.977 315.229C239.3 308.625 238.93 298.532 238.869 284.938M239.176 315.726C237.933 315.479 235.219 315.244 230.995 315.028C226.781 314.812 221.097 314.615 213.943 314.439C213.943 314.439 213.943 314.439 213.943 314.439M211.98 314.392L213.943 314.439L211.98 314.392ZM211.98 314.392V368.48V368.98H211.48H189.08H188.58V368.48V314.38H116H115.5V313.88V308V307.839L115.593 307.709L206.593 180.589L206.743 180.38M301.56 81.5H302.06H304.06H304.56V82L304.56 180.414C305.355 180.391 306.155 180.38 306.96 180.38C320.107 180.38 331.863 183.433 342.214 189.55C352.567 195.667 360.657 204.372 366.484 215.65C372.313 226.932 375.22 239.893 375.22 254.52C375.22 269.522 372.219 282.994 366.207 294.925C360.194 306.855 351.781 316.258 340.968 323.122C330.148 329.991 317.78 333.42 303.88 333.42C290.918 333.42 279.255 330.366 268.906 324.25C258.554 318.134 250.418 309.429 244.497 298.152C238.574 286.87 235.62 273.814 235.62 259C235.62 244.185 238.574 230.808 244.492 218.878C250.411 206.946 258.778 197.542 269.592 190.678C279.008 184.701 289.668 181.328 301.56 180.553L301.56 82V81.5ZM302.56 82.5L302.56 181.023V181.494L302.089 181.522C290.165 182.228 279.515 185.564 270.128 191.522C259.475 198.284 251.229 207.547 245.388 219.322C239.546 231.099 236.62 244.322 236.62 259C236.62 273.679 239.546 286.57 245.383 297.688C251.222 308.811 259.233 317.373 269.414 323.39C279.598 329.407 291.082 332.42 303.88 332.42C317.607 332.42 329.786 329.036 340.432 322.278C351.086 315.515 359.379 306.251 365.314 294.475C371.247 282.7 374.22 269.385 374.22 254.52C374.22 240.027 371.34 227.228 365.596 216.11C359.85 204.988 351.887 196.427 341.706 190.41C331.523 184.394 319.946 181.38 306.96 181.38C305.991 181.38 305.03 181.396 304.077 181.429L303.56 181.447V180.93L303.56 82.5H302.56ZM282.683 194.09C289.023 188.318 296.282 185.42 304.44 185.42C317.314 185.42 327.819 191.208 335.929 202.712C344.043 214.223 348.06 231.801 348.06 255.36C348.06 270.33 346.329 283.31 342.857 294.291C339.386 305.266 334.495 313.704 328.16 319.567C321.82 325.433 314.561 328.38 306.4 328.38C293.526 328.38 283.021 322.592 274.911 311.088C266.796 299.576 262.78 281.905 262.78 258.16C262.78 243.19 264.511 230.21 267.983 219.229C271.454 208.254 276.346 199.86 282.683 194.09ZM304.44 186.42C296.545 186.42 289.523 189.215 283.357 194.83C277.188 200.446 272.373 208.666 268.937 219.531C265.503 230.39 263.78 243.263 263.78 258.16C263.78 281.828 267.79 299.25 275.729 310.512C283.672 321.781 293.887 327.38 306.4 327.38C314.293 327.38 321.313 324.54 327.48 318.833C333.652 313.122 338.467 304.854 341.903 293.989C345.337 283.13 347.06 270.257 347.06 255.36C347.06 231.879 343.05 214.55 335.111 203.288C327.168 192.019 316.953 186.42 304.44 186.42ZM189.58 213.465V215.04V295.12V295.62H189.08H132.52H131.555L132.112 294.832L188.672 214.752L189.58 213.465ZM133.485 294.62H188.58V216.615L133.485 294.62ZM439.9 213.465V215.04V295.12V295.62H439.4H382.84H381.875L382.432 294.832L438.992 214.752L439.9 213.465ZM383.805 294.62H438.9V216.615L383.805 294.62Z" fill="#B2D2EF"/>
<path id="Star" fill-rule="evenodd" clip-rule="evenodd" d="M181 124.805L173.947 127.708L174.528 120.103L169.587 114.292L177 112.495L181 106L185 112.495L192.413 114.292L187.472 120.103L188.053 127.708L181 124.805Z" fill="#B2D2EF"/>
<path id="Star Copy 2" opacity="0.1" fill-rule="evenodd" clip-rule="evenodd" d="M394 351.805L386.947 354.708L387.528 347.103L382.587 341.292L390 339.495L394 333L398 339.495L405.413 341.292L400.472 347.103L401.053 354.708L394 351.805Z" fill="#1E47A8"/>
<path id="Star Copy 4" fill-rule="evenodd" clip-rule="evenodd" d="M412 79.805L404.947 82.7082L405.528 75.1028L400.587 69.2918L408 67.4947L412 61L416 67.4947L423.413 69.2918L418.472 75.1028L419.053 82.7082L412 79.805Z" fill="#B2D2EF"/>
<path id="Star Copy" opacity="0.1" fill-rule="evenodd" clip-rule="evenodd" d="M249.5 163.393L235.099 169.321L236.287 153.793L226.199 141.929L241.334 138.26L249.5 125L257.666 138.26L272.801 141.929L262.713 153.793L263.901 169.321L249.5 163.393Z" fill="#1E47A8"/>
<path id="Star Copy 3" fill-rule="evenodd" clip-rule="evenodd" d="M255 389.445L237.954 396.461L239.36 378.082L227.419 364.039L245.334 359.695L255 344L264.666 359.695L282.581 364.039L270.64 378.082L272.046 396.461L255 389.445Z" fill="#B2D2EF"/>
<path id="Shape_2" fill-rule="evenodd" clip-rule="evenodd" d="M306.4 327.88C312.347 327.88 317.807 326.292 322.78 323.116L327.751 329.008C320.384 331.616 312.427 332.92 303.88 332.92C299.726 332.92 295.708 332.605 291.826 331.974C289.246 329.15 287.234 325.671 285.792 321.536C291.795 325.765 298.664 327.88 306.4 327.88ZM263.28 258.16C263.28 274.332 265.148 287.638 268.883 298.077C264.068 299.858 257.1 301.558 247.982 303.178C246.91 301.494 245.896 299.741 244.94 297.92C243.085 294.387 241.523 290.678 240.253 286.792C246.164 285.082 249.744 281.139 250.993 274.962L251.068 274.574C252.219 268.302 256.297 261.937 263.299 255.478C263.286 256.363 263.28 257.258 263.28 258.16Z" fill="#7FB1E4"/>
<g id="Group 41">
<path id="Path 356" fill-rule="evenodd" clip-rule="evenodd" d="M305.293 384.869C305.293 384.869 310.734 387.942 323.392 386.432C336.05 384.922 352.396 377.85 352.396 377.85L323.392 364.882L306.929 379.929L305.293 384.869Z" fill="#0E2143"/>
<path id="Path 369" fill-rule="evenodd" clip-rule="evenodd" d="M313.815 257.466C313.815 257.466 323.778 254.144 328.105 241.762C332.433 229.38 328.223 199.625 302.619 205.845C292.478 205.845 283.593 216.496 283.593 231.534C283.593 246.572 281.254 254.763 273.426 257.466C265.599 260.17 257.677 263.438 258.821 275.585C259.965 287.731 279.004 304.374 301.57 291.737C324.136 279.1 313.815 257.466 313.815 257.466Z" fill="#FBD7E8"/>
<path id="Path 650" d="M304.039 205.487C312.814 203.267 319.649 205.341 324.442 211.703C328.121 216.585 330.256 224.947 329.809 233.193C329.299 242.596 325.614 250.78 318.842 255.877C318.621 256.043 318.307 255.999 318.141 255.779C317.975 255.558 318.02 255.244 318.24 255.078C324.755 250.175 328.315 242.268 328.81 233.139C329.245 225.114 327.17 216.984 323.644 212.304C319.104 206.279 312.684 204.332 304.284 206.457C304.016 206.524 303.744 206.362 303.677 206.095C303.609 205.827 303.771 205.555 304.039 205.487Z" fill="#CB160E"/>
<path id="Path 364" fill-rule="evenodd" clip-rule="evenodd" d="M313.455 252.405C313.455 252.405 319.376 251.339 322.425 255.321C325.473 259.303 328.123 265.64 333.933 267.576C339.743 269.511 341.925 260.532 339.743 255.321C337.561 250.109 333.933 242.824 333.933 242.824L346.905 245.878C346.905 245.878 354.087 261.451 349.82 271.629C345.554 281.807 332.292 285.153 324.136 277.101C315.981 269.048 313.455 252.405 313.455 252.405Z" fill="#A73F1C"/>
<path id="Path 357" fill-rule="evenodd" clip-rule="evenodd" d="M323.587 379.405C323.587 379.405 320.652 381.327 320.652 389.365C320.652 397.403 326.571 406.01 330.247 406.594C333.924 407.178 328.622 386.785 327.633 383.095C326.644 379.405 323.587 379.405 323.587 379.405Z" fill="#0E2143"/>
<path id="Path 357 Copy" fill-rule="evenodd" clip-rule="evenodd" d="M348.762 376.544C348.762 376.544 346.379 379.119 348.324 386.918C350.268 394.717 358.093 401.637 361.802 401.314C365.511 400.991 355.433 382.487 353.581 379.146C351.728 375.804 348.762 376.544 348.762 376.544Z" fill="#0E2143"/>
<path id="Path 353" fill-rule="evenodd" clip-rule="evenodd" d="M322.425 290.946C322.425 290.946 321.892 292.594 317.583 292.594C313.274 292.594 315.889 285.398 315.889 285.398L321.864 285.684L322.425 290.946Z" fill="#6E0803"/>
<path id="Path 352" fill-rule="evenodd" clip-rule="evenodd" d="M297.731 290.946L298.795 301.797L318.253 300.27L321.864 285.684L311.538 284.577L297.731 290.946Z" fill="#CB160E"/>
<path id="Path" fill-rule="evenodd" clip-rule="evenodd" d="M311.538 284.577L321.864 285.684L320.444 291.422C319.605 290.953 318.648 290.526 317.574 290.142C314.816 289.156 308.422 289.596 298.393 291.462L297.793 291.573L297.731 290.946L311.538 284.577Z" fill="#6E0803"/>
<path id="Path 351" fill-rule="evenodd" clip-rule="evenodd" d="M299.969 252.888C299.969 252.888 295.915 251.273 294.197 254.187C292.478 257.102 290.759 263.405 292.478 270.695C294.197 277.984 297.731 290.946 297.731 290.946C297.731 290.946 311.786 287.751 315.943 287.751C320.101 287.751 322.425 290.946 322.425 290.946C322.425 290.946 328.415 274.51 326.708 268.228C325 261.947 317.783 251.485 313.455 252.405C309.127 253.324 299.969 252.888 299.969 252.888Z" fill="#FF4C45"/>
<path id="Path 350" fill-rule="evenodd" clip-rule="evenodd" d="M309.802 210.403C308.307 214.778 306.216 225.358 298.52 228.926C294.101 226.837 292.478 230.736 292.478 233.609C292.478 236.482 296.195 239.799 299.969 237.617C302.515 245.973 299.969 252.888 299.969 252.888L313.815 261.64C313.815 261.64 311.78 253.64 315.578 247.773C319.376 241.907 324.136 238.551 324.136 231.397C324.136 224.243 320.593 212.814 309.802 210.403Z" fill="#A73F1C"/>
<path id="Path_2" fill-rule="evenodd" clip-rule="evenodd" d="M304.815 241.997C306.656 245.125 308.743 246.911 311.077 247.356C313.137 247.748 315.561 246.617 318.348 243.963C317.421 245.149 316.473 246.391 315.578 247.773C314.388 249.612 313.815 251.354 313.079 254.463C311.621 253.475 309.584 252.146 308.307 250.626C306.729 248.748 305.565 245.872 304.815 241.997Z" fill="#862C0C"/>
<path id="Path 367" d="M313.453 220.398C314.048 218.477 315.431 217.678 317.408 218.109C317.7 218.172 317.884 218.46 317.821 218.751C317.757 219.043 317.47 219.228 317.178 219.164C315.747 218.852 314.913 219.334 314.485 220.717C314.328 221.226 314.389 221.813 314.766 223.384L315.133 224.859C315.185 225.07 315.229 225.255 315.271 225.434L315.311 225.613C316.062 228.986 315.665 231.02 313.234 231.94C312.955 232.046 312.644 231.905 312.538 231.626C312.432 231.347 312.573 231.036 312.852 230.93C314.553 230.286 314.884 228.853 314.316 226.125L314.177 225.499L313.708 223.606C313.273 221.801 313.218 221.159 313.453 220.398Z" fill="#68220A"/>
<path id="Path_3" fill-rule="evenodd" clip-rule="evenodd" d="M318.238 222.553C318.996 222.46 319.737 223.326 319.98 224.534L319.543 224.534C319.267 224.534 319.043 224.758 319.043 225.034C319.043 225.28 319.22 225.484 319.453 225.526L319.543 225.534L320.059 225.535C320.01 226.598 319.529 227.432 318.848 227.516C318.025 227.617 317.222 226.588 317.054 225.217C316.886 223.847 317.416 222.654 318.238 222.553Z" fill="#491604"/>
<path id="Path Copy 8" fill-rule="evenodd" clip-rule="evenodd" d="M308.258 222.541C309.016 222.448 309.757 223.314 310 224.523L309.563 224.523C309.287 224.523 309.063 224.746 309.063 225.023C309.063 225.268 309.24 225.472 309.473 225.514L309.563 225.523L310.079 225.523C310.03 226.587 309.549 227.42 308.868 227.504C308.045 227.605 307.242 226.576 307.074 225.205C306.906 223.835 307.436 222.642 308.258 222.541Z" fill="#491604"/>
<path id="Path 368" d="M312.811 234.776C313.844 233.159 315.008 232.662 316.064 233.632C316.284 233.834 316.298 234.176 316.097 234.395C315.895 234.615 315.553 234.629 315.334 234.428C314.901 234.031 314.444 234.226 313.722 235.357C312.449 237.35 312.083 239.979 312.934 241.041L313.081 241.201C313.127 241.241 313.137 241.198 313.276 240.973C313.493 240.623 313.705 240.06 313.946 239.239L314.456 237.388C314.534 237.114 314.598 236.912 314.662 236.741C314.766 236.461 315.076 236.318 315.356 236.422C315.636 236.526 315.778 236.837 315.674 237.116L315.608 237.309C315.584 237.381 315.56 237.462 315.533 237.552L315.059 239.279C314.76 240.333 314.502 241.044 314.195 241.541C313.692 242.354 312.943 242.595 312.263 241.909C310.843 240.476 311.254 237.215 312.811 234.776Z" fill="#68220A"/>
<path id="Path 354" fill-rule="evenodd" clip-rule="evenodd" d="M295.596 298.728C295.596 298.728 291.766 311.95 291.766 319.115C291.766 326.279 299.339 329.771 310.882 327.198C301.324 343.336 299.704 376.368 305.293 384.869C318.663 374.102 324.973 373.483 338.378 378.561C351.784 383.639 363 383.338 367.695 380.95C355.619 365.382 349.594 346.309 350.997 327.198C352.399 308.087 356.12 292.594 347.249 292.594C338.378 292.594 295.596 298.728 295.596 298.728Z" fill="#2C5E43"/>
<path id="Path_4" fill-rule="evenodd" clip-rule="evenodd" d="M299.388 327.153C310.061 316.414 321.316 313.797 318.745 316.803L318.663 316.896C316.53 319.23 313.936 322.664 310.882 327.198C306.206 328.24 302.182 328.287 299.048 327.498L299.388 327.153Z" fill="#0E2143"/>
<path id="Path 355" d="M343.048 307.005C343.124 306.74 343.4 306.586 343.666 306.662C343.931 306.738 344.085 307.014 344.009 307.28C335.924 335.611 334.342 354.761 339.206 364.662C339.328 364.91 339.225 365.209 338.978 365.331C338.73 365.453 338.43 365.35 338.308 365.103C333.299 354.907 334.898 335.563 343.048 307.005Z" fill="#0E2143"/>
<path id="Path 358" fill-rule="evenodd" clip-rule="evenodd" d="M260.786 298.168C260.786 298.168 284.997 286.907 291.766 277.613C298.535 268.32 298.971 257.632 297.731 254.636C296.491 251.64 293.026 250.607 288.547 258.393C284.067 266.179 276.539 281.939 256.099 287.563C245.093 282.069 241.343 281.592 243.218 284.577C245.093 287.563 247.054 289.771 247.054 289.771C247.054 289.771 231.06 285.355 231.06 287.563C231.06 289.771 236.294 291.743 236.294 291.743C236.294 291.743 230.466 292.505 233.38 294.291C236.294 296.077 239.721 295.593 239.721 295.593C239.721 295.593 237.902 296.39 237.902 298.168C237.902 299.946 244.654 299.093 244.654 299.093C244.654 299.093 238.699 301.797 244.654 301.797C250.609 301.797 260.786 298.168 260.786 298.168Z" fill="#A73F1C"/>
<path id="Path 359" d="M246.579 290.549C246.798 290.347 247.14 290.361 247.342 290.58C247.544 290.8 247.53 291.141 247.31 291.343C246.056 292.499 245.998 293.398 247.062 294.35C248.292 295.452 250.936 296.51 254.963 297.484C255.253 297.555 255.431 297.846 255.361 298.136C255.29 298.426 254.999 298.604 254.709 298.534C250.52 297.521 247.742 296.408 246.342 295.155C244.775 293.753 244.879 292.114 246.579 290.549Z" fill="#68220A"/>
<path id="Path 360" d="M257.518 288.456C257.816 288.456 258.058 288.698 258.058 288.996C258.058 292.139 255.07 294.115 249.313 295.011C249.018 295.057 248.742 294.855 248.696 294.561C248.651 294.266 248.852 293.99 249.147 293.944C254.441 293.12 256.978 291.442 256.978 288.996C256.978 288.698 257.22 288.456 257.518 288.456Z" fill="#68220A"/>
<path id="Path 361" d="M250.857 296.357C251.132 296.24 251.449 296.369 251.565 296.644C251.681 296.919 251.552 297.235 251.278 297.351L250.858 297.522C249.716 297.971 247.707 298.665 244.822 299.606C244.538 299.699 244.233 299.544 244.141 299.26C244.048 298.977 244.203 298.672 244.486 298.58L246.301 297.981C248.542 297.235 250.063 296.692 250.857 296.357Z" fill="#68220A"/>
<path id="Path 362" d="M246.414 293.945C246.708 293.896 246.986 294.096 247.034 294.39C247.078 294.655 246.921 294.906 246.674 294.989L246.589 295.011L239.809 296.125C239.514 296.174 239.236 295.975 239.188 295.68C239.145 295.415 239.302 295.164 239.548 295.081L239.633 295.06L246.414 293.945Z" fill="#68220A"/>
<path id="Path 363" d="M235.854 291.199L245.819 292.056C246.116 292.082 246.336 292.343 246.311 292.64C246.288 292.908 246.073 293.113 245.814 293.132L245.726 293.132L235.762 292.275C235.465 292.249 235.244 291.988 235.27 291.691C235.293 291.423 235.507 291.218 235.766 291.198L235.854 291.199Z" fill="#68220A"/>
<path id="Oval" fill-rule="evenodd" clip-rule="evenodd" d="M324.043 245.534C327.909 245.534 331.043 242.4 331.043 238.534C331.043 234.668 327.909 231.534 324.043 231.534C320.177 231.534 317.043 234.668 317.043 238.534C317.043 242.4 320.177 245.534 324.043 245.534Z" fill="#FFA010"/>
<path id="Path 365" fill-rule="evenodd" clip-rule="evenodd" d="M328.046 243.38L347.461 249.486C348.958 249.957 350.571 249.24 351.224 247.814C351.797 246.563 351.248 245.084 349.997 244.511C349.923 244.477 349.849 244.447 349.772 244.421L330.353 237.714C328.709 237.146 326.908 237.964 326.254 239.576C325.66 241.039 326.364 242.708 327.828 243.302C327.899 243.331 327.972 243.357 328.046 243.38Z" fill="#0E2143"/>
<path id="Path 366" fill-rule="evenodd" clip-rule="evenodd" d="M335 236.024C335 236.024 332.148 235.556 329.617 239.19C327.086 242.824 328.191 245.966 329.617 246.782C331.043 247.598 335.449 248.555 336.622 247.668C337.796 246.782 338.948 244.341 341.136 243.582C343.323 242.824 343.837 241.737 343.837 240.703C343.837 239.669 343.382 238.291 341.646 237.534C339.91 236.777 335 236.024 335 236.024Z" fill="#A73F1C"/>
<path id="Path 642" d="M297.865 264.008C298.131 264.082 298.287 264.358 298.213 264.624C294.658 277.413 285.536 287.091 270.887 293.644C270.635 293.756 270.339 293.643 270.226 293.391C270.114 293.139 270.227 292.844 270.479 292.731C284.869 286.294 293.779 276.841 297.249 264.356C297.315 264.119 297.54 263.97 297.776 263.992L297.865 264.008Z" fill="#68220A"/>
<path id="Path 643" d="M320.062 256.508C320.278 256.337 320.593 256.373 320.764 256.589C324.217 260.939 326.296 264.98 326.992 268.719C327.69 272.468 326.696 278.949 324.025 288.214C323.949 288.479 323.671 288.632 323.406 288.556C323.141 288.479 322.988 288.202 323.064 287.937L323.384 286.811C325.772 278.289 326.642 272.304 326.009 268.902C325.346 265.342 323.34 261.443 319.981 257.211C319.809 256.995 319.845 256.68 320.062 256.508Z" fill="#CB160E"/>
<path id="Path 644" fill-rule="evenodd" clip-rule="evenodd" d="M310.241 279.806C314.489 275.987 317.296 274.258 318.663 274.621C321.01 275.243 318.732 280.154 314.902 282.366C313.721 283.047 312.616 283.359 311.588 283.3L311.352 283.28C310.254 283.155 309.466 282.165 309.59 281.067C309.646 280.581 309.877 280.132 310.241 279.806Z" fill="#CB160E"/>
<path id="Path 645" d="M339.599 239.325C339.835 239.181 340.142 239.255 340.286 239.491C340.43 239.727 340.356 240.034 340.121 240.178C337.17 241.982 335.522 244.229 335.135 246.937C335.096 247.21 334.843 247.4 334.57 247.361C334.296 247.322 334.106 247.069 334.145 246.796C334.577 243.772 336.408 241.276 339.599 239.325Z" fill="#68220A"/>
<path id="Path 646" d="M336.281 237.543C336.499 237.373 336.813 237.411 336.983 237.629C337.153 237.847 337.114 238.161 336.897 238.331C333.476 241.004 331.874 243.601 332.026 246.119C332.043 246.395 331.833 246.632 331.557 246.648C331.282 246.665 331.045 246.455 331.028 246.179C330.853 243.275 332.626 240.398 336.281 237.543Z" fill="#68220A"/>
<path id="Path 647" d="M333.77 236.369C333.998 236.213 334.31 236.271 334.465 236.499C334.621 236.727 334.563 237.038 334.335 237.194C331.336 239.246 329.795 242.016 329.683 245.55C329.674 245.826 329.443 246.043 329.167 246.034C328.891 246.025 328.674 245.794 328.683 245.518C328.805 241.664 330.51 238.599 333.77 236.369Z" fill="#68220A"/>
<path id="Path 648" d="M289.935 211.623C290.145 211.444 290.461 211.469 290.64 211.679C290.819 211.889 290.794 212.205 290.584 212.384C286.623 215.762 284.579 222.335 284.504 232.123L284.502 232.681C284.502 247.248 281.951 253.55 275.2 257.336C274.959 257.471 274.655 257.385 274.519 257.145C274.384 256.904 274.47 256.599 274.711 256.464C281.008 252.932 283.441 247.072 283.501 233.211L283.502 232.681C283.502 222.321 285.628 215.295 289.935 211.623Z" fill="#CB160E"/>
<path id="Path 649" d="M266.833 259.555C267.074 259.418 267.379 259.503 267.515 259.743C267.651 259.983 267.567 260.288 267.327 260.425C262.175 263.346 259.489 267.083 259.21 271.66C258.926 276.308 260.091 280.513 262.707 284.293C262.864 284.52 262.808 284.831 262.581 284.989C262.354 285.146 262.042 285.089 261.885 284.862C259.141 280.897 257.915 276.47 258.212 271.599C258.513 266.657 261.406 262.633 266.833 259.555Z" fill="#CB160E"/>
<path id="Path 705" d="M307.043 217.994C308.213 217.994 309.312 218.267 310.333 218.81C310.596 218.95 310.696 219.277 310.555 219.54C310.415 219.804 310.088 219.903 309.825 219.763C308.961 219.303 308.037 219.074 307.043 219.074C306.745 219.074 306.503 218.833 306.503 218.534C306.503 218.236 306.745 217.994 307.043 217.994Z" fill="#68220A"/>
<path id="Path 706" d="M303.737 255.214C303.866 255.005 304.124 254.925 304.345 255.013L304.425 255.053L318.927 264.065C319.162 264.211 319.234 264.519 319.088 264.754C318.958 264.962 318.7 265.042 318.48 264.955L318.399 264.915L303.897 255.903C303.663 255.757 303.591 255.448 303.737 255.214Z" fill="#CB160E"/>
</g>
<path id="Shape_3" fill-rule="evenodd" clip-rule="evenodd" d="M337.273 134.65C336.102 128.009 340.595 119.342 348.516 121.366C356.438 123.391 357.543 136.166 353.492 145.643C351.039 151.383 348.384 155.725 345.996 159.832L348.625 168.335C352.447 167.056 356.782 167.583 359.244 169.169C362.914 171.533 366.42 175.372 367.691 181.762C368.512 185.888 368.102 190.482 365.316 194.876C363.462 197.801 361.165 199.774 358.702 200.941L363.522 216.538C364.534 220.404 362.872 223.254 358.536 225.089C352.031 227.843 343.714 224.276 345.044 218.596C346.375 212.917 359.566 211.282 361.167 215.754L358.474 206.869C357.973 205.22 357.442 203.48 356.884 201.65C350.349 203.682 343.149 200.567 340.059 194.854C335.484 186.396 335.487 178.24 340.375 165.492C341.373 162.89 342.44 160.434 343.492 158.088L341.457 150.866C339.053 142.242 337.658 136.837 337.273 134.65ZM346.88 169.069L344.719 162.064L344.651 162.185C343.611 164.046 342.647 165.906 341.803 167.876C338.766 174.966 337.907 182.708 340.076 188.726C342.244 194.744 349.347 198.295 354.737 195.754L355.037 195.608L347.7 171.731C346.761 172.574 345.921 173.634 345.219 174.883C342.792 179.196 342.707 189.406 351.628 190.934C348.157 191.546 339.862 188.212 341.152 177.613C341.68 173.279 343.996 170.559 346.88 169.069ZM349.309 170.548L356.739 194.591C360.736 191.776 362.564 187.137 362.458 182.836C362.336 177.872 360.405 171.193 355.839 169.769C353.552 169.056 351.288 169.392 349.309 170.548ZM339.694 129.247C338.773 131.598 339.463 137.072 341.765 145.667L342.103 146.899C342.551 148.478 343.403 151.347 344.66 155.505L345.322 154.042C348.647 146.673 351.259 140.296 350.089 133.663C348.358 123.844 341.432 124.805 339.694 129.247Z" fill="#2C5E43"/>
<path id="Shape_4" fill-rule="evenodd" clip-rule="evenodd" d="M377.652 168.446C378.15 168.322 378.653 168.595 378.83 169.063L378.865 169.175L387.28 202.929L387.292 202.992L387.332 203.135C388.156 206.442 384.507 209.926 379.373 211.301L379.08 211.376C373.793 212.695 368.766 211.342 367.926 207.974C367.086 204.605 370.89 201.051 376.177 199.733C379.322 198.949 382.374 199.109 384.508 200.076L376.924 169.659C376.79 169.123 377.116 168.58 377.652 168.446ZM376.661 201.673C372.303 202.76 369.37 205.5 369.866 207.49C370.363 209.48 374.238 210.522 378.597 209.436C382.955 208.349 385.887 205.609 385.391 203.619C384.895 201.629 381.019 200.587 376.661 201.673Z" fill="#2C5E43"/>
<path id="Path_5" fill-rule="evenodd" clip-rule="evenodd" d="M408.087 141.5C408.559 141.525 408.938 141.874 409.019 142.32L409.032 142.434C410.67 146.159 412.821 149.274 415.484 151.779L415.887 152.15C419.495 155.398 420.579 161.151 416.689 165.248L416.428 165.512C416.291 165.644 416.074 165.64 415.942 165.503C415.853 165.411 415.824 165.28 415.862 165.161L415.892 165.093C417.239 162.764 417.178 160.025 414.663 158.303C412.66 156.932 410.601 155.169 408.485 153.012L407.212 177.29L407.205 177.354L407.201 177.503C407.023 180.906 402.515 183.171 397.202 182.984L396.901 182.971C391.459 182.686 387.047 179.923 387.229 176.456C387.41 172.989 392.087 170.702 397.529 170.988C400.765 171.157 403.637 172.203 405.395 173.752L407.036 142.446C407.065 141.895 407.535 141.471 408.087 141.5Z" fill="#2C5E43"/>
<path id="Shape_5" fill-rule="evenodd" clip-rule="evenodd" d="M432.288 165.209L432.532 166.179C415.758 170.391 400.896 185.481 391.843 206.997L391.57 207.651C385.648 221.996 373.73 231.546 355.862 236.289L355.229 236.454L354.98 235.486C372.698 230.931 384.501 221.696 390.436 207.769L390.646 207.269C399.692 185.356 414.699 169.862 431.771 165.343L432.288 165.209ZM429.642 141.021L429.939 141.976C414.434 146.793 400.597 165.217 389.241 191.2C383.399 204.57 366.345 215.877 338.103 225.179L337.244 225.461L336.934 224.51C365.444 215.235 382.566 203.978 388.325 190.8C399.675 164.829 413.491 146.325 429.167 141.173L429.642 141.021ZM427.846 124.548L428.274 125.452C418.869 129.901 413.177 135.101 407.133 144.154L406.791 144.671C405.22 147.056 393.048 167.704 387.64 175.889C375.321 194.537 357.865 205.206 335.307 207.877L334.608 207.957L334.498 206.963C357.101 204.464 374.524 193.929 386.806 175.338L387.522 174.244C393.201 165.475 404.433 146.432 405.956 144.121C412.108 134.779 417.87 129.368 427.308 124.805L427.846 124.548ZM425.141 109.337L425.486 110.275C412.448 115.07 403.541 125.208 394.989 141.966L394.397 143.15L393.563 144.861C390.983 150.194 386.757 159.24 385.82 161.104C384.349 164.027 383.034 166.378 381.724 168.373C374.928 178.723 357.837 186.308 330.449 191.198L328.768 191.493L328.598 190.507C356.718 185.672 374.15 178.086 380.888 167.824C382.089 165.996 383.299 163.854 384.637 161.225L385.061 160.383L385.559 159.356C387.387 155.551 391.796 146.127 393.752 142.199L394.098 141.512C402.642 124.77 411.579 114.507 424.624 109.531L425.141 109.337Z" fill="#2C5E43"/>
</g>
</g>
</svg>
