<svg width="606" height="489" viewBox="0 0 606 489" fill="none" xmlns="http://www.w3.org/2000/svg">
<g id="Overcooking">
<rect width="606" height="489" fill="white"/>
<g id="Empty State 1">
<path id="Shape" opacity="0.1" fill-rule="evenodd" clip-rule="evenodd" d="M249.5 73C266.897 73 281 87.103 281 104.5C281 121.897 266.897 136 249.5 136C232.103 136 218 121.897 218 104.5C218 87.103 232.103 73 249.5 73ZM249.5 80C235.969 80 225 90.969 225 104.5C225 118.031 235.969 129 249.5 129C263.031 129 274 118.031 274 104.5C274 90.969 263.031 80 249.5 80ZM250.5 84.042V103.951L261.546 110.98L260.473 112.667L248.5 105.049V84.042H250.5Z" fill="#16263D"/>
<path id="Shape_2" opacity="0.1" fill-rule="evenodd" clip-rule="evenodd" d="M369.4 183.2H404.2V252.8H369.4V183.2ZM449.8 183.2V252.8H415V183.2H449.8ZM449.8 172.4H415V98H449.8V172.4ZM404.2 98V172.4H369.4V98H404.2Z" fill="#16263D"/>
<path id="Path 764" opacity="0.1" fill-rule="evenodd" clip-rule="evenodd" d="M319.359 63.5C320.139 63.5 320.78 64.0949 320.853 64.8555L320.859 65L320.859 299.272L498.526 317.535C499.302 317.615 499.878 318.272 499.873 319.036L499.865 319.181C499.785 319.956 499.128 320.533 498.364 320.527L498.22 320.519L319.206 302.119C318.489 302.045 317.933 301.474 317.866 300.769L317.859 300.627V65C317.859 64.1716 318.531 63.5 319.359 63.5Z" fill="#16263D"/>
<path id="Path 24" fill-rule="evenodd" clip-rule="evenodd" d="M178.189 252.62L179.27 259.874L198.764 257.605L197.762 250.536L178.189 252.62Z" fill="#734245"/>
<path id="Path 25" fill-rule="evenodd" clip-rule="evenodd" d="M207.357 249.549L208.432 256.722L225.22 255.205L224.036 247.442L207.357 249.549Z" fill="#734245"/>
<path id="Path 23" fill-rule="evenodd" clip-rule="evenodd" d="M189.906 362.471L180.601 269.038L283.168 256.722L289.607 333.71L189.906 362.471Z" fill="#734245"/>
<path id="Path 26" fill-rule="evenodd" clip-rule="evenodd" d="M189.906 361.623C189.906 361.623 144.823 333.46 161.506 295.091C178.189 256.722 190.425 249.488 173.453 218.233C156.481 186.978 148.142 150.288 173.453 130.54C198.764 110.792 183.959 106.029 183.959 61.9322C183.959 17.8356 239.158 -15.5131 259.622 7.48608C280.086 30.4853 299.243 60.3153 328.507 37.7665C357.77 15.2178 395.839 67.9578 376.805 119.531C357.77 171.105 310.085 177.976 315.842 204.154C321.599 230.331 344.682 242.541 307.072 267.119C269.462 291.697 189.906 361.623 189.906 361.623Z" fill="url(#paint0_linear)"/>
<path id="Path 27" fill-rule="evenodd" clip-rule="evenodd" d="M244.511 81.8556C253.192 109.976 252.807 133.479 243.358 152.364L242.276 154.513C224.72 189.208 212.713 204.055 225.22 241.175C237.855 278.674 239.494 298.109 225.644 315.225L225.22 315.743C210.914 332.986 222.62 356.375 246.041 332.986L247.456 331.567C270.705 308.16 300.745 272.846 289.607 224.622C278.242 175.414 256.177 166.186 305.357 118.697C354.044 71.6831 320.283 21.7464 290.508 20.7523L289.607 20.7373C263.541 20.7373 242.411 41.8679 242.411 67.9339C242.411 72.3584 243.033 76.7594 244.258 81.008L244.511 81.8556Z" fill="url(#paint1_linear)"/>
<g id="Group">
<path id="Oval" opacity="0.2" fill-rule="evenodd" clip-rule="evenodd" d="M361.6 372C398.382 372 428.2 363.404 428.2 352.8C428.2 342.196 398.382 333.6 361.6 333.6C324.818 333.6 295 342.196 295 352.8C295 363.404 324.818 372 361.6 372Z" fill="#2A1111"/>
<path id="Path 16" fill-rule="evenodd" clip-rule="evenodd" d="M383.027 347.286C383.027 347.286 394.139 357.814 399.863 361.126C405.587 364.439 398.212 350.286 392.652 345.205C387.092 340.124 383.027 347.286 383.027 347.286Z" fill="#734245"/>
<path id="Path 15" fill-rule="evenodd" clip-rule="evenodd" d="M346.213 352.252C346.213 352.252 325.104 350.667 310.724 339.583C296.345 328.499 310.511 310.682 320.323 310.019C330.136 309.356 339.4 311.027 339.4 311.027C339.4 311.027 345.447 311.333 357.344 314.404C369.241 317.474 388.717 325.257 388.717 325.257L346.213 352.252Z" fill="#978440"/>
<path id="Path 536" d="M326.369 314.105C337.146 315.972 347.411 318.915 357.164 322.932C357.47 323.058 357.616 323.409 357.49 323.715C357.364 324.022 357.013 324.168 356.707 324.041C347.036 320.058 336.855 317.14 326.164 315.288C325.838 315.231 325.619 314.921 325.675 314.594C325.726 314.3 325.983 314.094 326.272 314.096L326.369 314.105Z" fill="#6A5422"/>
<path id="Path 14" fill-rule="evenodd" clip-rule="evenodd" d="M337.937 335.157L345.228 355.952C345.228 355.952 400.923 346.41 415.716 342.044C430.508 337.678 429.919 318.967 424.964 313.797C420.01 308.626 411.374 307.96 387.822 316.923C364.27 325.887 337.937 335.157 337.937 335.157Z" fill="#978440"/>
<path id="Path 18" d="M357.729 327.144C358.04 327.029 358.385 327.187 358.501 327.497C358.605 327.777 358.487 328.084 358.236 328.227L358.148 328.269L338.698 335.512L345.795 355.754C345.893 356.035 345.77 356.341 345.516 356.479L345.427 356.518C345.145 356.617 344.84 356.494 344.702 356.24L344.662 356.151L337.371 335.355C337.274 335.078 337.392 334.776 337.64 334.635L337.728 334.594L357.729 327.144Z" fill="#6A5422"/>
<path id="Path 8" fill-rule="evenodd" clip-rule="evenodd" d="M364.89 248.666C364.89 248.666 356.135 261.562 352.393 279.055C348.651 296.548 339.4 310.962 339.4 310.962C339.4 310.962 348.258 312.586 354.948 317.854C361.639 323.122 371.727 323.869 381.855 320.392C391.983 316.914 397.593 313.875 403.353 307.689C409.114 301.503 410.886 292.348 407.12 279.055C403.353 265.762 391.436 250.988 384.159 243.846C376.882 236.703 364.89 248.666 364.89 248.666Z" fill="#FFD398"/>
<path id="Path 540" d="M363.679 250.364C363.876 250.097 364.252 250.041 364.518 250.239C364.784 250.436 364.84 250.812 364.643 251.078C359.981 257.369 356.087 266.744 352.975 279.2C352.895 279.522 352.569 279.717 352.248 279.637C351.926 279.557 351.731 279.231 351.811 278.909C354.958 266.314 358.909 256.8 363.679 250.364Z" fill="#C68936"/>
<path id="Path" fill-rule="evenodd" clip-rule="evenodd" d="M403.373 269.739L403.469 269.928C405.003 272.976 406.269 276.053 407.12 279.055C407.308 279.718 407.482 280.37 407.642 281.013C405.455 279.596 402.936 278.699 400.087 278.32C395.698 277.738 392.359 277.738 390.071 278.32L389.763 276.554C389.22 273.362 388.948 271.277 388.948 270.298L390.115 269.842C392.813 268.8 397.628 267.238 403.373 269.739Z" fill="#FFEBD0"/>
<path id="Path_2" fill-rule="evenodd" clip-rule="evenodd" d="M388.717 268.576L388.948 270.298C389.766 276.235 390.672 281.198 391.667 285.189C381.988 291.476 376.22 298.412 374.362 305.999L374.253 306.464L368.958 322.508C363.797 322.373 359.082 320.942 355.358 318.168L354.948 317.854C350.488 314.342 345.305 312.045 339.4 310.962C340.372 309.447 341.299 307.906 342.18 306.34C350.757 302.999 356.01 297.828 357.939 290.828L358.489 291.568C363.863 298.663 368.017 300.267 370.952 296.379C375.504 290.351 366.4 291.188 363.891 289.042C361.381 286.896 374.69 287.52 381.467 281.847C385.984 278.065 388.401 273.641 388.717 268.576Z" fill="#F6BB6F"/>
<path id="Path 2" fill-rule="evenodd" clip-rule="evenodd" d="M387.78 224.889C387.78 224.889 394.835 205.049 381.463 206.649C371.932 198.451 363.625 198.684 359.991 201.638C352.753 198.451 338.683 198.72 334.406 214.03C330.129 229.34 345.516 238.157 358.277 236.506C371.037 234.854 386.733 229.062 386.733 229.062L387.78 224.889Z" fill="#734245"/>
<path id="Path_3" fill-rule="evenodd" clip-rule="evenodd" d="M385.68 236.72V249.876C385.68 249.876 381.692 256.159 375.642 258.982C369.69 256.794 367.913 252.117 367.913 252.117C367.913 252.117 360.381 252.694 356.062 247.851C351.744 243.008 347.868 226.049 347.868 226.049C347.868 226.049 354.928 221.833 360.851 214.03C367.913 219.88 376.612 218.079 376.612 218.079C376.612 218.079 375.993 224.166 382.008 227.981C382.008 220.358 390.111 219.23 391.999 224.563C393.888 229.896 385.68 236.72 385.68 236.72Z" fill="#FFA080"/>
<path id="Path 3" d="M350.403 235.213C350.721 235.123 351.053 235.308 351.143 235.627C354.421 247.202 359.677 252.449 366.935 251.605C374.299 250.749 378.919 246.69 380.887 239.34C380.973 239.02 381.302 238.83 381.622 238.916C381.942 239.001 382.132 239.33 382.046 239.65C379.952 247.472 374.93 251.883 367.074 252.797C359.112 253.722 353.409 248.029 349.989 235.954C349.899 235.635 350.084 235.304 350.403 235.213Z" fill="#EE736A"/>
<path id="Path_4" fill-rule="evenodd" clip-rule="evenodd" d="M381.467 239.168C381.467 241.689 380.722 244.992 379.234 249.075C378.067 252.273 375.696 254.992 372.12 257.232C370.102 255.894 368.7 254.189 367.913 252.117L368.331 252.049C374.834 250.911 379.212 246.618 381.467 239.168Z" fill="#EE736A"/>
<path id="Path_5" fill-rule="evenodd" clip-rule="evenodd" d="M357.456 226.132C357.925 227.111 358.273 228.066 358.502 228.996C357.536 229.383 356.842 229.707 356.67 230.331C356.442 231.16 357.485 231.646 358.828 231.452L358.832 231.605C358.832 234.2 357.456 235.418 355.956 233.798C355.005 232.772 354.523 230.934 354.509 228.282L354.511 227.856L355.956 227.436L357.456 226.132Z" fill="#734245"/>
<path id="Path 4" d="M362.573 244.247C365.748 242.062 369.229 241.765 372.94 243.355C373.244 243.485 373.386 243.838 373.255 244.142C373.125 244.447 372.772 244.588 372.467 244.458C369.13 243.028 366.084 243.288 363.254 245.235C362.981 245.423 362.607 245.354 362.419 245.081C362.231 244.808 362.3 244.435 362.573 244.247Z" fill="#EE736A"/>
<path id="Path 5" d="M359.233 221.606C359.332 221.29 359.669 221.114 359.985 221.213C360.301 221.312 360.478 221.648 360.379 221.964C358.875 226.773 355.832 229.177 351.356 229.05C351.025 229.04 350.764 228.764 350.773 228.433C350.783 228.102 351.059 227.841 351.39 227.85C355.303 227.962 357.883 225.923 359.233 221.606Z" fill="#734245"/>
<path id="Path 6" d="M361.932 226.533C362.263 226.525 362.538 226.787 362.547 227.118C362.629 230.377 362.471 233.336 362.072 235.996L361.975 236.604C361.721 238.129 362.267 238.802 363.446 238.887C364.541 238.966 365.959 238.449 366.567 237.801C366.794 237.56 367.173 237.548 367.415 237.774C367.657 238.001 367.669 238.381 367.442 238.622C366.58 239.542 364.806 240.188 363.36 240.084C361.484 239.949 360.42 238.637 360.792 236.407C361.248 233.672 361.434 230.585 361.347 227.148C361.339 226.817 361.6 226.542 361.932 226.533Z" fill="#EE736A"/>
<path id="Path 7" d="M366.765 220.837C367.069 220.705 367.422 220.844 367.555 221.148C369.334 225.235 372.628 227.256 377.545 227.256C377.876 227.256 378.145 227.525 378.145 227.856C378.145 228.188 377.876 228.456 377.545 228.456C372.164 228.456 368.431 226.165 366.454 221.627C366.322 221.323 366.461 220.97 366.765 220.837Z" fill="#734245"/>
<path id="Path_6" fill-rule="evenodd" clip-rule="evenodd" d="M369.723 225.12L371.273 226.373L372.976 227.133C373.067 227.944 373.104 228.147 373.121 228.796C372.374 228.861 371.619 229.053 371.418 229.401C371.006 230.112 371.887 230.794 373.121 230.794C373.121 231.495 372.832 232.18 372.704 232.433C371.991 233.837 369.875 234.222 369.494 230.646C369.256 228.422 369.307 226.669 369.646 225.387L369.723 225.12Z" fill="#734245"/>
<path id="Path 9" d="M388.134 258.382C388.465 258.373 388.741 258.634 388.75 258.965C389.05 269.708 390.215 278.393 392.241 285.013C392.318 285.266 392.221 285.54 392.001 285.687C380.02 293.725 374.766 300.737 373.739 311.086C373.707 311.416 373.413 311.657 373.083 311.624C372.753 311.592 372.513 311.298 372.545 310.968C373.583 300.511 378.776 293.324 390.313 285.383L390.965 284.938L390.923 284.798C389.023 278.328 387.91 270.029 387.578 259.897L387.55 258.998C387.541 258.667 387.802 258.391 388.134 258.382Z" fill="#C68936"/>
<path id="Path 10" d="M378.121 301.136C388.13 299.757 393.252 304.724 393.252 315.743C393.252 316.074 392.983 316.343 392.652 316.343C392.32 316.343 392.052 316.074 392.052 315.743C392.052 305.424 387.541 301.049 378.285 302.324C377.956 302.37 377.654 302.14 377.608 301.812C377.563 301.484 377.793 301.181 378.121 301.136Z" fill="#C68936"/>
<path id="Path_7" fill-rule="evenodd" clip-rule="evenodd" d="M367.582 307.79C371.756 306.293 375.855 306.057 378.847 307.116L379.174 307.239L379.55 307.398C380.293 307.734 380.986 308.172 381.609 308.7C385.229 311.767 385.747 317.136 382.833 320.832L382.633 321.076L382.229 321.55L381.429 322.467C375.328 329.354 370.097 332.797 365.737 332.797C358.331 332.797 348.823 324.929 355.503 316.477C356.646 315.031 357.914 313.739 359.261 312.603C355.918 310.79 357.132 307.082 361.25 307.082C363.492 307.082 365.451 307.374 367.127 307.958L367.582 307.79Z" fill="#EE736A"/>
<path id="Path 11" d="M374.208 305.866C374.538 305.841 374.827 306.088 374.852 306.419C374.877 306.749 374.629 307.037 374.299 307.062C368.979 307.465 364.77 308.945 361.656 311.492C361.399 311.701 361.021 311.664 360.812 311.407C360.602 311.15 360.64 310.772 360.896 310.563C364.216 307.848 368.659 306.286 374.208 305.866Z" fill="#CB3B30"/>
<path id="Path 12" d="M382.098 315.227C382.383 315.058 382.751 315.151 382.92 315.436C383.09 315.721 382.996 316.089 382.711 316.259C380.937 317.313 379.602 318.512 377.529 320.775L376.374 322.054C373.018 325.786 371.063 327.396 367.946 328.385C363.432 329.817 359.328 329.094 355.704 326.225C355.444 326.019 355.401 325.642 355.606 325.382C355.812 325.122 356.189 325.079 356.449 325.284C359.758 327.904 363.446 328.553 367.583 327.241C370.344 326.365 372.141 324.93 375.174 321.592L376.053 320.616C378.547 317.843 380.029 316.457 382.098 315.227Z" fill="#CB3B30"/>
<path id="Path 13" d="M361.979 261.602L362.075 261.615C362.399 261.686 362.604 262.006 362.533 262.33C361.885 265.282 361.315 268.714 360.755 272.873L360.544 274.492C360.082 278.16 359.117 286.458 358.943 287.807L358.768 289.13C358.558 290.663 358.362 291.901 358.163 292.925C357.307 297.323 354.05 304.365 348.386 314.098C348.22 314.385 347.852 314.482 347.566 314.315C347.28 314.148 347.183 313.781 347.349 313.495L347.985 312.396C353.193 303.341 356.194 296.761 356.985 292.696L357.091 292.128C357.25 291.243 357.41 290.201 357.58 288.962L357.819 287.125C358.125 284.615 359.105 276.2 359.467 273.458L359.666 271.98C360.198 268.118 360.743 264.886 361.361 262.072C361.425 261.781 361.69 261.586 361.979 261.602Z" fill="#C68936"/>
<path id="Path 17" fill-rule="evenodd" clip-rule="evenodd" d="M334.233 345.738C332.701 347.61 330.735 350.626 328.335 354.783L327.977 355.412C323.93 362.618 322.416 369.233 326.376 366.464C330.336 363.695 340.015 352.36 340.765 348.272L340.771 348.072C340.771 346.036 339.121 344.386 337.086 344.386C336.059 344.386 335.083 344.814 334.388 345.56L334.233 345.738Z" fill="#734245"/>
<path id="Path 534" d="M425.5 328.004C425.773 327.817 426.147 327.886 426.334 328.159C426.522 328.433 426.452 328.806 426.179 328.994C419.889 333.311 394.801 340.449 350.7 350.502C350.376 350.576 350.055 350.373 349.981 350.05C349.908 349.727 350.11 349.406 350.433 349.332L355.607 348.146C396.283 338.765 419.644 332.024 425.5 328.004Z" fill="white"/>
<path id="Path 535" d="M306.775 324.772C307.068 324.617 307.431 324.73 307.585 325.023C310.533 330.628 318.893 336.494 332.659 342.547C332.962 342.68 333.1 343.034 332.966 343.338C332.833 343.641 332.479 343.779 332.176 343.646C318.18 337.491 309.632 331.494 306.523 325.582C306.369 325.289 306.481 324.926 306.775 324.772Z" fill="white"/>
<path id="Path 539" d="M407.502 280.429C407.825 280.352 408.148 280.551 408.226 280.873C411.276 293.612 409.327 303.085 402.329 309.198C402.079 309.416 401.7 309.39 401.482 309.14C401.264 308.891 401.29 308.512 401.539 308.294C408.159 302.512 410.014 293.495 407.059 281.152C406.981 280.83 407.18 280.506 407.502 280.429Z" fill="#C68936"/>
<path id="Path 543" d="M354.39 317.136C354.558 316.851 354.926 316.755 355.212 316.923C355.497 317.091 355.593 317.459 355.424 317.745C353.665 320.735 353.415 323.491 354.643 326.077C356.713 330.439 364.535 333.341 370.307 331.067C374.571 329.387 378.869 325.466 383.181 319.287C383.37 319.016 383.744 318.949 384.016 319.139C384.288 319.328 384.354 319.702 384.165 319.974C379.73 326.329 375.264 330.404 370.747 332.184C364.397 334.685 355.904 331.534 353.559 326.592C352.151 323.626 352.439 320.453 354.39 317.136Z" fill="#CB3B30"/>
</g>
<path id="Path 19" fill-rule="evenodd" clip-rule="evenodd" d="M199.885 285.645L189.906 362.471L197.319 367.762L295.023 337.722L319.36 270.641L313.746 267.119L199.885 285.645Z" fill="#AF612D"/>
<path id="Path_8" fill-rule="evenodd" clip-rule="evenodd" d="M313.746 267.119L319.36 270.641L209.144 290.987L197.319 367.762L189.906 362.471L199.885 285.645L313.746 267.119Z" fill="#734245"/>
<path id="Path 20" fill-rule="evenodd" clip-rule="evenodd" d="M218.197 312.081L210.914 353.872L287.585 331.041L299.421 295.091L218.197 312.081Z" fill="#FFD398"/>
<path id="Shape_3" fill-rule="evenodd" clip-rule="evenodd" d="M265.567 302.172L227.765 348.854L217.59 351.883L256.272 304.116L265.567 302.172ZM299.421 295.091L299.026 296.289L265.577 337.595L235.057 346.682L272.23 300.779L299.421 295.091Z" fill="white"/>
<path id="Path 21" fill-rule="evenodd" clip-rule="evenodd" d="M209.144 290.987L199.885 285.645L313.746 267.119L319.36 270.641L209.144 290.987Z" fill="#734245"/>
<path id="Path 22" fill-rule="evenodd" clip-rule="evenodd" d="M239.842 292.657L238.711 299.877L288.156 290.987L289.607 283.518L239.842 292.657Z" fill="#FFD398"/>
<path id="Path 537" d="M260.699 281.015C261.026 280.955 261.338 281.172 261.397 281.498C261.45 281.791 261.28 282.073 261.008 282.17L260.914 282.195L209.671 291.501L197.912 367.853C197.867 368.148 197.614 368.36 197.325 368.362L197.228 368.355C196.933 368.31 196.722 368.057 196.719 367.768L196.726 367.671L208.551 290.896C208.585 290.674 208.738 290.493 208.945 290.421L209.037 290.396L260.699 281.015Z" fill="white"/>
<path id="Path 538" d="M291.495 275.356C291.821 275.297 292.133 275.513 292.192 275.839C292.246 276.133 292.076 276.415 291.804 276.512L291.709 276.537L267.346 280.959C267.02 281.018 266.708 280.802 266.649 280.476C266.596 280.183 266.766 279.9 267.038 279.804L267.132 279.778L291.495 275.356Z" fill="white"/>
<path id="Path 541" d="M225.126 281.012C225.453 280.96 225.76 281.183 225.813 281.51C225.859 281.805 225.684 282.083 225.409 282.174L225.315 282.197L200.42 286.167L196.278 317.519C196.238 317.815 195.99 318.032 195.702 318.04L195.604 318.035C195.308 317.996 195.092 317.748 195.083 317.459L195.088 317.362L199.29 285.567C199.32 285.336 199.48 285.148 199.695 285.076L199.79 285.053L225.126 281.012Z" fill="white"/>
<path id="Path 542" d="M199.357 285.36C199.499 285.098 199.808 284.984 200.081 285.078L200.17 285.117L205.929 288.226C206.221 288.384 206.33 288.748 206.172 289.039C206.031 289.302 205.722 289.416 205.449 289.322L205.359 289.282L199.6 286.173C199.308 286.016 199.2 285.652 199.357 285.36Z" fill="white"/>
</g>
</g>
<defs>
<linearGradient id="paint0_linear" x1="146.256" y1="79.2465" x2="126.357" y2="499.627" gradientUnits="userSpaceOnUse">
<stop stop-color="#EEEEEE" stop-opacity="0.01"/>
<stop offset="1" stop-color="#7F6833"/>
</linearGradient>
<linearGradient id="paint1_linear" x1="219.67" y1="95.1754" x2="219.67" y2="380.526" gradientUnits="userSpaceOnUse">
<stop stop-color="#EEEEEE" stop-opacity="0.01"/>
<stop offset="1" stop-color="#7F6833"/>
</linearGradient>
</defs>
</svg>
