<svg width="606" height="489" viewBox="0 0 606 489" fill="none" xmlns="http://www.w3.org/2000/svg">
<g id="Repairman">
<rect width="606" height="489" fill="white"/>
<g id="Empty State 15">
<path id="Shape" opacity="0.4" fill-rule="evenodd" clip-rule="evenodd" d="M449 219V398H404V219H449ZM426 293H418V316H426V293ZM432 259H424V282H432V259ZM418 230H410V253H418V230Z" fill="#CDDCFF"/>
<path id="Path 768" opacity="0.293736" fill-rule="evenodd" clip-rule="evenodd" d="M366 167H503C503 167 491.519 151.969 472.939 151.969C454.359 151.969 453.666 162.513 443.033 155.531C432.4 148.549 434.659 142 417.821 142C400.982 142 399 160.363 385.066 156.811C371.132 153.259 366 167 366 167Z" fill="#CDDCFF"/>
<path id="Path 768 Copy 2" opacity="0.293736" fill-rule="evenodd" clip-rule="evenodd" d="M120 267H257C257 267 245.519 251.969 226.939 251.969C208.359 251.969 207.666 262.513 197.033 255.531C186.4 248.549 188.659 242 171.821 242C154.982 242 153 260.363 139.066 256.811C125.132 253.259 120 267 120 267Z" fill="#CDDCFF"/>
<path id="Shape_2" opacity="0.4" fill-rule="evenodd" clip-rule="evenodd" d="M212.825 165C213.828 165 214.795 165.377 215.534 166.057L220.835 170.938C221.574 171.618 222.541 171.995 223.545 171.995H226C228.209 171.995 230 173.786 230 175.995V191H242V185H269V206H242V197H230V202.995C230 205.204 228.209 206.995 226 206.995L220 206.995V399H190V206.995L180 206.995C177.791 206.995 176 205.204 176 202.995V197H96.037V228H98C98.5523 228 99 228.448 99 229V231C99 231.552 98.5523 232 98 232L96.7099 232C96.4083 234.873 95.4493 237.262 93.8327 239.168L93.5852 239.451C90.5805 242.77 92.392 246.495 95.1435 246.885C97.895 247.275 99.8258 246.05 100.124 243.569L100.155 243.282C100.381 240.874 99.9 238.295 101.754 240.657C103.682 243.115 103.519 250.556 95.7272 250.556C88.0327 250.556 87.4459 243.053 90.6117 239.581L90.7337 239.451C92.6705 237.45 93.7559 234.966 93.9899 232.001L92 232C91.4477 232 91 231.552 91 231V229C91 228.448 91.4477 228 92 228H94.037V197H87V191H176V175.995C176 173.786 177.791 171.995 180 171.995H187.26C188.275 171.995 189.253 171.609 189.995 170.914L195.152 166.081C195.893 165.387 196.871 165 197.887 165H212.825ZM205 387.156L193 397.378V398H217V397.379L205 387.156ZM217 376.934L205.771 386.5L217 396.065V376.934ZM193 376.935V396.064L204.229 386.5L193 376.935ZM217 375H193V375.621L205 385.843L217 375.62V375ZM205 363.156L193 373.378V374H217V373.379L205 363.156ZM217 352.934L205.771 362.5L217 372.065V352.934ZM193 352.935V372.064L204.229 362.5L193 352.935ZM217 351H193V351.621L205 361.843L217 351.62V351ZM205 339.156L193 349.378V350H217V349.379L205 339.156ZM217 328.934L205.771 338.5L217 348.065V328.934ZM193 328.935V348.064L204.229 338.5L193 328.935ZM217 327H193V327.621L205 337.843L217 327.62V327ZM205 315.156L193 325.378V326H217V325.379L205 315.156ZM217 304.934L205.771 314.5L217 324.065V304.934ZM193 304.935V324.064L204.229 314.5L193 304.935ZM217 303H193V303.621L205 313.843L217 303.62V303ZM205 291.156L193 301.378V302H217V301.379L205 291.156ZM217 280.934L205.771 290.5L217 300.065V280.934ZM193 280.935V300.064L204.229 290.5L193 280.935ZM217 279H193V279.621L205 289.843L217 279.62V279ZM205 267.156L193 277.378V278H217V277.379L205 267.156ZM217 256.934L205.771 266.5L217 276.065V256.934ZM193 256.935V276.064L204.229 266.5L193 256.935ZM217 255H193V255.621L205 265.843L217 255.62V255ZM205 243.156L193 253.378V254H217V253.379L205 243.156ZM217 232.934L205.771 242.5L217 252.065V232.934ZM193 232.935V252.064L204.229 242.5L193 232.935ZM217 231H193V231.621L205 241.843L217 231.62V231ZM205 219.156L193 229.378V230H217V229.379L205 219.156ZM217 208.934L205.771 218.5L217 228.065V208.934ZM193 208.935V228.064L204.229 218.5L193 208.935ZM217 207H193V207.621L205 217.843L217 207.62V207Z" fill="#CDDCFF"/>
<rect id="Rectangle" opacity="0.4" x="226" y="333" width="178" height="65" fill="#CDDCFF"/>
<path id="Path 771" opacity="0.4" fill-rule="evenodd" clip-rule="evenodd" d="M94 152H257C257 152 251.15 127.903 232.147 129.638C213.143 131.373 204.504 143.466 190.936 135.245C177.368 127.024 173.749 109 140.044 109C106.338 109 94 152 94 152Z" fill="#CDDCFF"/>
<path id="Path" fill-rule="evenodd" clip-rule="evenodd" d="M252.449 353.708L210.033 390.58L171.087 377.197L187.401 363.015L205.927 369.382L232.029 346.691L225.459 312.774L192.787 301.548L166.684 324.238L170.408 343.468L154.094 357.649L146.264 317.222L188.68 280.35L227.625 293.731L365.301 174.05L357.471 133.623L399.887 96.7509L438.831 110.131L422.517 124.313L403.993 117.949L377.891 140.639L384.461 174.556L417.133 185.783L443.236 163.092L439.51 143.861L455.824 129.679L463.656 170.109L421.24 206.98L382.294 193.598L244.617 313.278L252.449 353.708Z" fill="#C7E1FF"/>
<path id="Path_2" fill-rule="evenodd" clip-rule="evenodd" d="M268.397 258.288L285.402 277.824L244.617 313.278L245.149 316.024C242.763 313.682 239.347 313.182 234.9 314.523L234.602 314.615L239.369 304.395V293.889C239.369 291.919 240.443 287.53 242.59 280.722L268.397 258.288Z" fill="#94BFF1"/>
<path id="Path_3" fill-rule="evenodd" clip-rule="evenodd" d="M366.102 180.447C369.895 185.187 372.988 191.574 375.381 199.606L349.444 222.153L349.75 218.272C350.784 205.51 351.675 197.825 352.423 195.216C353.427 191.713 357.107 189.434 363.464 188.378L366.102 180.447Z" fill="#94BFF1"/>
<path id="Path 693" d="M399.651 96.4792C399.728 96.4117 399.83 96.3815 399.93 96.3934L400.004 96.4104L438.948 109.791C439.184 109.872 439.261 110.156 439.122 110.344L439.067 110.403L422.754 124.585C422.676 124.652 422.574 124.682 422.474 124.67L422.4 124.653L403.876 118.289C403.688 118.225 403.588 118.02 403.653 117.832C403.709 117.667 403.873 117.57 404.039 117.592L404.11 117.608L422.438 123.905L438.124 110.268L399.966 97.158L357.863 133.757L365.655 173.982C365.674 174.083 365.649 174.187 365.588 174.268L365.535 174.324L333.829 201.455C333.678 201.584 333.451 201.566 333.322 201.415C333.211 201.286 333.208 201.1 333.305 200.968L333.361 200.907L364.907 173.913L357.117 133.691C357.098 133.59 357.122 133.487 357.183 133.407L357.235 133.351L399.651 96.4792Z" fill="#6E3383"/>
<path id="Path 690" d="M192.429 301.296C192.507 301.229 192.608 301.198 192.708 301.21L192.782 301.227L225.575 312.434C225.763 312.498 225.864 312.703 225.8 312.891C225.743 313.056 225.58 313.153 225.414 313.132L225.343 313.115L192.745 301.975L167.076 324.373L170.762 343.399C170.795 343.57 170.701 343.736 170.547 343.8L170.477 343.821C170.306 343.854 170.14 343.761 170.076 343.606L170.055 343.536L166.331 324.307C166.311 324.206 166.336 324.103 166.396 324.023L166.448 323.967L192.429 301.296Z" fill="#6E3383"/>
<path id="Path 691" d="M300.673 264.269C300.823 264.138 301.05 264.155 301.18 264.305C301.292 264.434 301.296 264.619 301.2 264.752L301.144 264.813L245.01 313.414L252.803 353.639C252.822 353.74 252.798 353.843 252.737 353.924L252.685 353.98L210.269 390.851C210.192 390.919 210.09 390.949 209.99 390.937L209.916 390.92L170.97 377.537C170.734 377.456 170.657 377.173 170.796 376.984L170.851 376.925L187.165 362.744C187.242 362.676 187.344 362.646 187.444 362.658L187.518 362.675L206.044 369.041C206.232 369.106 206.332 369.311 206.267 369.499C206.211 369.663 206.047 369.76 205.881 369.739L205.81 369.722L187.48 363.423L171.794 377.059L209.952 390.171L252.056 353.573L244.264 313.347C244.244 313.246 244.269 313.142 244.329 313.062L244.381 313.006L300.673 264.269Z" fill="#6E3383"/>
<path id="Path 689" fill-rule="evenodd" clip-rule="evenodd" d="M253.8 264.541L274.9 290.755L358.96 216.369L337.675 192.185L253.8 264.541Z" fill="#FF8371"/>
<path id="Path_4" fill-rule="evenodd" clip-rule="evenodd" d="M264.983 254.893L327.925 200.597L328.891 201.51C339.171 211.177 345.223 215.28 347.047 213.818C348.249 212.855 349.458 210.567 350.673 206.955L358.141 215.438L358.473 216.799L283.638 283.024C282.285 276.228 277.828 269.24 270.264 262.058L269.916 261.729L264.983 254.893Z" fill="#F16550"/>
<path id="Path 404" fill-rule="evenodd" clip-rule="evenodd" d="M291.103 325.824C291.103 325.824 290.764 339.454 296.075 362.319C301.385 385.184 302.805 394.426 302.805 394.426H317.449C317.449 394.426 319.347 343.194 316.206 328.904C313.065 314.615 291.103 325.824 291.103 325.824Z" fill="#FEB593"/>
<path id="Path 405" fill-rule="evenodd" clip-rule="evenodd" d="M335.087 322.004C335.087 322.004 340.06 337.164 340.06 345.367C340.06 353.569 338.076 380.156 347.117 396.174C355.341 394.426 360.339 392.207 360.339 392.207C360.339 392.207 360.065 365.9 361.672 351.236C363.28 336.572 357.057 319.431 357.057 319.431L335.087 322.004Z" fill="#FEB593"/>
<path id="Path 403" fill-rule="evenodd" clip-rule="evenodd" d="M287.781 284.229C287.781 284.229 293.53 288.001 313.457 286.744C333.385 285.487 347.117 278.32 347.117 278.32L343.683 271.555H295.569L287.781 284.229Z" fill="#2C264D"/>
<path id="Path 402" fill-rule="evenodd" clip-rule="evenodd" d="M291.264 276.849C291.264 276.849 288.18 304.288 289.208 331.593C306.455 334.959 319.29 330.666 319.29 330.666L323.524 307.131L333.782 329.326C333.782 329.326 350.31 333.755 360.339 326.666C355.935 306.203 344.571 272.586 344.571 272.586L311.156 270.063L291.264 276.849Z" fill="#3A3B60"/>
<path id="Path_5" fill-rule="evenodd" clip-rule="evenodd" d="M311.156 270.063L344.571 272.586C345.426 275.114 346.251 277.586 347.047 280.003C322.689 276.548 303.458 283.51 289.351 300.889C289.693 293.551 290.258 286.207 291.044 278.855L291.264 276.849L311.156 270.063Z" fill="#242747"/>
<g id="Group 47">
<g id="Group 46">
<path id="Path 399" fill-rule="evenodd" clip-rule="evenodd" d="M249.133 280.227C249.133 280.227 240.524 288.53 238.854 290.755C237.183 292.98 238.541 302.27 236.695 305.144C234.849 308.019 232.447 311.608 233.648 314.312C234.849 317.017 248.534 300.712 249.989 300.712C251.444 300.712 245.033 306.416 245.033 309.193C245.033 311.971 248.972 309.577 253.029 305.144C257.086 300.712 259.631 294.655 259.631 289.321C259.631 283.987 249.133 280.227 249.133 280.227Z" fill="#FEB593"/>
<path id="Path 400" d="M245.557 295.28C245.705 295.147 245.932 295.158 246.066 295.305C246.199 295.453 246.188 295.68 246.041 295.814C242.769 298.78 239.647 302.188 236.673 306.036C236.551 306.194 236.325 306.223 236.168 306.101C236.01 305.98 235.981 305.754 236.103 305.596C239.102 301.715 242.253 298.276 245.557 295.28Z" fill="#853815"/>
</g>
<path id="Path 401" fill-rule="evenodd" clip-rule="evenodd" d="M355.48 207.055C355.48 207.055 353.929 195.594 353.929 192.778C353.929 189.962 361.312 187.773 362.233 185.145C363.154 182.518 363.85 178.682 365.549 178.682C367.248 178.682 368.087 189.962 368.087 189.962C368.087 189.962 370.118 187.145 371.626 187.145C373.134 187.145 368.087 196.72 368.087 199.694C368.087 202.668 366.553 208.168 366.553 208.168L355.48 207.055Z" fill="#FEB593"/>
</g>
<path id="Path 393" fill-rule="evenodd" clip-rule="evenodd" d="M304.012 205.843C304.012 205.843 300.939 205.377 298.825 210.71C296.711 216.043 293.44 224.35 293.44 224.35C293.44 224.35 270.561 234.887 246.686 278.32C246.686 292.728 261.585 290.442 261.585 290.442L289.087 256.744C289.087 256.744 287.781 270.244 287.781 284.229C301.391 273.264 335.584 271.276 347.117 278.32C344.683 258.554 340.229 243.386 340.229 243.386C340.229 243.386 351.401 252.185 361.502 250.233C371.604 248.28 368.27 204.417 368.27 204.417C368.27 204.417 361.524 201.783 354.32 205.843C353.135 212.813 352.352 226.949 352.352 226.949C352.352 226.949 344.249 219.762 333.595 216.369C332.37 209.902 329.961 205.135 324.419 204.417C318.878 203.698 304.012 205.843 304.012 205.843Z" fill="#7B448E"/>
<path id="Path_6" fill-rule="evenodd" clip-rule="evenodd" d="M289.498 251.108C307.145 241.061 324.289 239.307 340.93 245.846C342.003 249.729 342.981 253.828 343.864 258.142C323.768 250.296 305.295 252.429 288.445 264.541C288.587 262.451 288.753 260.37 288.941 258.297L289.087 256.744L288.919 256.949C289.177 254.81 289.37 252.863 289.498 251.108Z" fill="white"/>
<path id="Path_7" fill-rule="evenodd" clip-rule="evenodd" d="M354.32 205.843C359.123 203.136 363.773 202.661 368.27 204.417C368.446 206.731 368.594 208.958 368.714 211.097C363.273 210.104 358.194 210.47 353.476 212.194L353.581 211.227C353.813 209.172 354.059 207.377 354.32 205.843Z" fill="white"/>
<path id="Path_8" fill-rule="evenodd" clip-rule="evenodd" d="M256.581 283.389C259.099 284.446 262.118 285.142 265.638 285.477L261.585 290.442C251.652 291.966 246.686 287.925 246.686 278.32C247.718 276.443 248.748 274.612 249.777 272.827C251.119 278.527 253.387 282.047 256.581 283.389Z" fill="white"/>
<path id="Path 394" d="M306.125 220.427C307.025 218.825 307.848 218.295 308.736 218.891L308.873 218.99C309.343 219.354 309.724 219.935 310.566 221.489L310.956 222.217C312.289 224.717 313.093 226.077 314.293 227.677C314.472 227.916 314.655 228.151 314.84 228.381C314.965 228.536 314.941 228.763 314.786 228.887C314.631 229.012 314.404 228.988 314.28 228.833C314.089 228.596 313.901 228.355 313.717 228.109C312.161 226.034 308.861 219.842 308.335 219.489C307.918 219.209 307.475 219.495 306.753 220.779C306.125 221.898 305.671 223.346 305.258 225.348L305.126 226.012L304.829 227.658L304.674 228.54C304.31 230.587 304.048 231.658 303.647 232.444C303.092 233.534 302.259 233.862 301.211 233.256C298.92 231.929 296.774 229.156 294.752 224.939C294.666 224.76 294.742 224.545 294.921 224.459C295.1 224.373 295.315 224.449 295.401 224.628C297.366 228.726 299.429 231.392 301.571 232.633C302.235 233.017 302.626 232.863 303.006 232.117C303.302 231.535 303.528 230.721 303.797 229.325L304.317 226.424C304.352 226.232 304.385 226.051 304.419 225.876L304.469 225.617C304.918 223.332 305.409 221.703 306.125 220.427Z" fill="white"/>
<path id="Path 395" d="M333.68 216.019C333.873 216.065 333.992 216.259 333.945 216.453L333.614 217.811C332.509 222.289 331.736 224.746 330.843 226.31C329.521 228.629 327.963 228.431 326.46 225.519L326.355 225.312C324.396 221.347 322.635 219.386 321.169 219.382C320.97 219.382 320.809 219.22 320.81 219.022C320.81 218.823 320.972 218.662 321.171 218.662C322.963 218.667 324.817 220.673 326.823 224.638L327 224.993C328.302 227.628 329.18 227.772 330.218 225.953C331.149 224.322 331.976 221.559 333.245 216.284C333.286 216.115 333.44 216.003 333.607 216.009L333.68 216.019Z" fill="white"/>
<path id="Path 396" fill-rule="evenodd" clip-rule="evenodd" d="M303.552 208.168C303.552 208.168 300.496 208.683 302.024 212.526C303.552 216.368 311.57 219.064 316.658 217.716C321.746 216.368 327.928 211.733 327.656 208.942C327.383 206.151 324.745 205.562 320.461 205.857C316.178 206.151 303.552 208.168 303.552 208.168Z" fill="#521F63"/>
<g id="Group 45">
<path id="Path 388" fill-rule="evenodd" clip-rule="evenodd" d="M296.711 198.47C296.711 198.47 292.417 191.734 292.417 185.658C292.417 179.582 301.179 168.689 309.076 170.826C316.973 172.962 320.461 182.471 320.461 189.186C320.461 195.9 296.711 198.47 296.711 198.47Z" fill="#2C264D"/>
<path id="Path 387" fill-rule="evenodd" clip-rule="evenodd" d="M297.416 198.47C297.416 198.47 296.006 191.409 297.416 184.542C298.825 177.675 307.343 166.746 318.615 168.07C329.886 169.393 328.182 189.112 328.182 189.112L297.416 198.47Z" fill="#3A3B60"/>
<path id="Path 386" fill-rule="evenodd" clip-rule="evenodd" d="M300.833 196.812C300.833 196.812 299.002 193.45 295.765 194.67C292.528 195.89 292.273 202.926 297.563 204.244C302.852 205.562 300.833 196.812 300.833 196.812Z" fill="#FEB593"/>
<path id="Path 386 Copy" fill-rule="evenodd" clip-rule="evenodd" d="M323.878 188.738C323.878 188.738 325.16 185.132 328.549 185.83C331.937 186.528 333.289 193.438 328.271 195.567C323.253 197.696 323.878 188.738 323.878 188.738Z" fill="#FEB593"/>
<path id="Path 385" fill-rule="evenodd" clip-rule="evenodd" d="M317.059 226.949C317.059 226.949 309.448 215.3 305.354 211.839C301.259 208.377 297.411 199.871 299.335 191.163C301.259 182.455 310.866 179.237 317.059 180.846C323.252 182.455 326.678 186.675 326.678 195.789C326.678 204.903 323.046 206.616 321.006 212.648C318.967 218.681 317.059 226.949 317.059 226.949Z" fill="#FEB593"/>
<path id="Path 389" d="M313.287 186.139C314.279 183.547 319.371 182.937 321.418 184.884C321.562 185.022 321.568 185.249 321.431 185.393C321.294 185.537 321.066 185.543 320.922 185.406C319.222 183.789 314.753 184.323 313.959 186.396C313.563 187.431 313.632 189.014 314.079 191.116C314.178 191.58 314.292 192.058 314.428 192.581L314.744 193.747C314.906 194.32 315.199 195.352 315.313 195.773L315.34 195.871C315.859 197.83 314.699 198.852 312.143 198.83C311.944 198.829 311.784 198.666 311.786 198.467C311.788 198.268 311.95 198.109 312.149 198.11C314.284 198.129 315.021 197.48 314.644 196.056L313.953 193.593L313.73 192.759C313.592 192.228 313.476 191.74 313.375 191.266C312.901 189.037 312.827 187.34 313.287 186.139Z" fill="#853815"/>
<path id="Path 390" d="M300.786 188.115C302.958 186.093 305.439 185.401 308.19 186.053C308.383 186.098 308.503 186.292 308.457 186.486C308.411 186.679 308.217 186.799 308.024 186.753C305.511 186.158 303.275 186.782 301.277 188.642C301.131 188.777 300.904 188.769 300.768 188.623C300.633 188.478 300.641 188.25 300.786 188.115Z" fill="#853815"/>
<path id="Path_9" fill-rule="evenodd" clip-rule="evenodd" d="M305.703 189.391C306.323 189.236 307.05 189.913 307.511 190.985L306.989 191.115C306.603 191.211 306.368 191.602 306.464 191.988C306.554 192.346 306.897 192.574 307.254 192.528L307.337 192.512L307.904 192.371C308.102 193.693 307.778 194.81 307.097 194.98C306.325 195.172 305.388 194.077 305.003 192.534C304.618 190.99 304.932 189.583 305.703 189.391Z" fill="#5C2409"/>
<path id="Path Copy 11" fill-rule="evenodd" clip-rule="evenodd" d="M318.785 187.167C319.405 187.013 320.132 187.689 320.593 188.761L320.07 188.891C319.684 188.988 319.45 189.378 319.546 189.764C319.635 190.122 319.978 190.351 320.336 190.304L320.419 190.289L320.986 190.147C321.184 191.469 320.86 192.586 320.178 192.756C319.407 192.948 318.469 191.853 318.084 190.31C317.7 188.767 318.013 187.36 318.785 187.167Z" fill="#5C2409"/>
<path id="Path 391" d="M318.623 199.44C318.763 199.299 318.991 199.298 319.132 199.439C319.273 199.579 319.273 199.807 319.133 199.948C316.828 202.263 313.935 203.275 310.481 202.977C310.283 202.96 310.136 202.786 310.153 202.588C310.17 202.39 310.345 202.243 310.543 202.26C313.788 202.539 316.471 201.601 318.623 199.44Z" fill="#853815"/>
<path id="Path 392" d="M322.699 207.902C322.846 207.768 323.074 207.779 323.208 207.926C323.341 208.073 323.33 208.301 323.183 208.434C319.955 211.368 315.344 212.485 309.373 211.803C309.176 211.78 309.034 211.602 309.056 211.404C309.079 211.207 309.257 211.065 309.455 211.088C315.235 211.748 319.641 210.681 322.699 207.902Z" fill="#853815"/>
<path id="Path 679" d="M298.854 192.419C299.052 192.435 299.2 192.609 299.184 192.807C298.78 197.79 299.664 202.357 301.834 206.516C302.769 208.308 303.594 209.506 304.567 210.571C304.795 210.821 305.028 211.062 305.314 211.344L306.118 212.131C308.704 214.677 309.744 215.976 312.023 219.773C312.125 219.944 312.07 220.165 311.899 220.267C311.729 220.37 311.508 220.314 311.405 220.144L310.942 219.379C309.01 216.218 307.974 214.969 305.608 212.639L305.037 212.08C304.634 211.688 304.331 211.381 304.035 211.056C303.019 209.944 302.159 208.695 301.196 206.849C298.961 202.567 298.052 197.865 298.466 192.749C298.482 192.551 298.656 192.403 298.854 192.419Z" fill="#2C264D"/>
<path id="Path 680" d="M324.332 184.808C324.518 184.739 324.726 184.834 324.795 185.02C327.885 193.336 327.885 200.16 324.768 205.47C324.667 205.641 324.447 205.699 324.275 205.598C324.104 205.497 324.046 205.277 324.147 205.105C327.141 200.005 327.141 193.401 324.12 185.271C324.051 185.084 324.146 184.877 324.332 184.808Z" fill="#2C264D"/>
<path id="Path 681" d="M305.011 172.058C305.172 171.942 305.397 171.978 305.513 172.139C305.63 172.301 305.593 172.526 305.432 172.642C299.123 177.191 296.336 184.048 297.07 193.262C297.085 193.46 296.938 193.633 296.739 193.649C296.541 193.665 296.368 193.517 296.352 193.319C295.6 183.866 298.487 176.762 305.011 172.058Z" fill="white"/>
</g>
<path id="Path 397" d="M334.996 226.611C335.183 226.543 335.39 226.639 335.458 226.826L335.843 227.892C337.324 232.062 338.902 237.194 340.576 243.291C340.629 243.482 340.516 243.68 340.325 243.733C340.133 243.786 339.935 243.673 339.882 243.481L339.449 241.917C337.796 236.005 336.24 231.056 334.782 227.073C334.714 226.886 334.81 226.68 334.996 226.611Z" fill="white"/>
<path id="Path 398" d="M293.1 233.077C293.166 232.889 293.371 232.79 293.559 232.856C293.747 232.922 293.845 233.127 293.78 233.315C291.611 239.501 290.165 247.321 289.446 256.771C289.431 256.969 289.258 257.118 289.06 257.103C288.861 257.087 288.713 256.915 288.728 256.716C289.452 247.208 290.908 239.329 293.1 233.077Z" fill="white"/>
<path id="Path 406" fill-rule="evenodd" clip-rule="evenodd" d="M318.216 394.426C317.501 392.678 313.193 390.288 303.191 390.288C293.19 390.288 289.106 393.633 287.758 396.174C286.409 398.714 302.976 397.885 310.953 397.885C318.93 397.885 318.93 396.174 318.216 394.426Z" fill="#242747"/>
<path id="Path 407" fill-rule="evenodd" clip-rule="evenodd" d="M354.743 397.495C352.3 397.891 347.743 398.286 346.778 396.709C345.813 395.132 356.994 386.432 369.362 384.712C381.729 382.991 382.568 389.475 374.303 392.247C366.039 395.019 357.186 397.099 354.743 397.495Z" fill="#242747"/>
<path id="Path 408" fill-rule="evenodd" clip-rule="evenodd" d="M281.932 268.312L285.994 277.432C285.994 277.432 304.905 256.809 322.941 240.321C340.978 223.833 345.207 220.323 345.207 220.323L336.242 215.24C336.242 215.24 325.388 222.863 309.414 236.168C293.44 249.474 281.932 268.312 281.932 268.312Z" fill="#FF8371"/>
<path id="Path_10" fill-rule="evenodd" clip-rule="evenodd" d="M328.452 235.189L328.582 235.175L324.261 239.115C323.828 239.511 323.388 239.913 322.941 240.321C311.281 250.98 299.347 262.935 287.14 276.186L285.994 277.432L281.932 268.312C283.136 266.341 284.377 264.415 285.654 262.535C290.65 261.664 295.81 258.934 301.134 254.346L301.515 254.015C309.482 247.027 319.717 236.264 328.452 235.189Z" fill="#F16550"/>
<path id="Path 682" d="M352.457 227.17C352.656 227.176 352.812 227.342 352.806 227.54C352.687 231.451 353.027 235.224 353.827 238.86C353.87 239.054 353.747 239.246 353.553 239.288C353.359 239.331 353.167 239.208 353.124 239.014C352.311 235.32 351.965 231.488 352.086 227.518C352.092 227.32 352.258 227.164 352.457 227.17Z" fill="white"/>
<path id="Path 683" d="M341.384 246.716C341.578 246.673 341.77 246.796 341.813 246.99C343.923 256.597 345.81 267.023 347.473 278.267C347.502 278.464 347.366 278.647 347.17 278.676C346.973 278.705 346.79 278.569 346.761 278.372C345.1 267.144 343.216 256.735 341.11 247.145C341.067 246.951 341.19 246.759 341.384 246.716Z" fill="#6E3383"/>
<path id="Path 684" d="M318.017 294.756C318.176 294.685 318.359 294.739 318.456 294.875L318.493 294.938L323.853 306.985C323.934 307.166 323.852 307.379 323.67 307.46C323.512 307.531 323.329 307.477 323.231 307.341L323.195 307.277L317.835 295.231C317.754 295.049 317.836 294.837 318.017 294.756Z" fill="white"/>
<path id="Path 685" d="M266.18 284.248C266.306 284.094 266.533 284.071 266.687 284.197C266.819 284.305 266.854 284.487 266.783 284.633L266.738 284.703L261.864 290.67C261.81 290.736 261.733 290.781 261.649 290.796C254.877 292.004 250.128 290.151 247.493 285.238C247.399 285.062 247.465 284.844 247.64 284.75C247.816 284.656 248.034 284.722 248.128 284.897C250.555 289.423 254.865 291.175 261.143 290.152L261.391 290.109L266.18 284.248Z" fill="#6E3383"/>
<path id="Path 686" d="M271.752 240.869C271.89 240.726 272.118 240.723 272.261 240.862C272.403 241 272.407 241.228 272.268 241.371C265.778 248.053 257.504 260.165 247.456 277.697L247.053 278.402L247.363 282.311C247.377 282.484 247.265 282.638 247.104 282.685L247.033 282.698C246.859 282.712 246.705 282.6 246.658 282.439L246.645 282.367L246.327 278.348L246.373 278.141L247.289 276.543C257.158 259.391 265.309 247.502 271.752 240.869Z" fill="#6E3383"/>
<path id="Path 687" d="M354.077 205.578C356.41 203.433 363.351 202.101 368.4 204.082C368.523 204.13 368.609 204.24 368.626 204.371C369.886 214.171 369.886 225.133 368.627 237.256C368.606 237.454 368.429 237.598 368.232 237.577C368.034 237.557 367.89 237.38 367.911 237.182C369.124 225.501 369.163 214.91 368.029 205.409L367.938 204.676L367.842 204.641C363.175 202.96 356.919 204.138 354.7 205.989L354.644 206.036L354.55 206.48C354.044 209.042 353.477 214.9 352.857 224.024L352.782 225.135C352.769 225.333 352.597 225.483 352.399 225.47C352.2 225.457 352.05 225.285 352.063 225.087L352.324 221.32C352.912 213.151 353.449 208.015 353.94 205.887L353.971 205.757L354.077 205.578Z" fill="#6E3383"/>
<path id="Path 688" d="M335.926 215.068C336.02 214.894 336.239 214.829 336.414 214.923L337.781 215.669C340.687 217.262 343.224 218.714 345.393 220.027C345.607 220.156 345.627 220.458 345.432 220.615L344.654 221.245C331.804 231.704 312.336 250.518 286.254 277.682C286.097 277.846 285.836 277.821 285.707 277.65L285.665 277.579L281.603 268.458C281.551 268.341 281.565 268.206 281.64 268.102L285.783 262.346C289.743 256.867 292.745 252.782 294.79 250.09C294.91 249.932 295.136 249.901 295.294 250.022C295.453 250.142 295.484 250.368 295.363 250.526L293.981 252.363C292.047 254.952 289.508 258.421 286.366 262.769L282.344 268.354L286.105 276.796L289.585 273.184C313.76 248.144 331.964 230.646 344.201 220.685L344.58 220.377L343.466 219.715C341.674 218.66 339.663 217.522 337.434 216.3L336.071 215.556C335.896 215.462 335.831 215.243 335.926 215.068Z" fill="white"/>
<path id="Path 692" d="M455.588 129.407C455.776 129.244 456.06 129.319 456.153 129.534L456.177 129.611L464.009 170.04C464.029 170.141 464.004 170.244 463.944 170.325L463.892 170.38L421.476 207.252C421.398 207.32 421.296 207.35 421.195 207.338L421.121 207.32L381.888 193.63C381.7 193.565 381.601 193.36 381.667 193.172C381.724 193.008 381.888 192.911 382.054 192.934L382.125 192.951L421.161 206.571L463.262 169.972L455.589 130.359L439.902 143.995L443.589 163.024C443.609 163.125 443.584 163.228 443.524 163.308L443.472 163.364L417.37 186.054C417.292 186.122 417.19 186.152 417.091 186.14L417.016 186.123L384.344 174.897C384.247 174.863 384.169 174.79 384.13 174.697L384.108 174.625L377.538 140.708C377.5 140.513 377.627 140.324 377.823 140.286C377.993 140.253 378.159 140.346 378.223 140.501L378.244 140.571L384.774 174.282L417.053 185.374L442.842 162.956L439.156 143.929C439.137 143.828 439.161 143.725 439.222 143.644L439.274 143.589L455.588 129.407Z" fill="#6E3383"/>
<path id="Path 4" fill-rule="evenodd" clip-rule="evenodd" d="M518.797 396.849C519.349 396.849 519.797 397.297 519.797 397.849C519.797 398.362 519.411 398.785 518.914 398.842L518.797 398.849H126.481C125.928 398.849 125.481 398.401 125.481 397.849C125.481 397.336 125.867 396.914 126.364 396.856L126.481 396.849H518.797Z" fill="#94BFF1"/>
</g>
</g>
</svg>
