<svg width="606" height="489" viewBox="0 0 606 489" fill="none" xmlns="http://www.w3.org/2000/svg">
<g id="Robot Fixation">
<rect width="606" height="489" fill="white"/>
<path id="Shape" opacity="0.348377" fill-rule="evenodd" clip-rule="evenodd" d="M377 214V288H336V214H377ZM425 214V288H384V214H425ZM377 133V207H336V133H377ZM425 133V207H384V133H425Z" fill="#F89EDF"/>
<path id="Shape_2" opacity="0.348377" fill-rule="evenodd" clip-rule="evenodd" d="M238.5 60C255.897 60 270 74.103 270 91.5C270 108.897 255.897 123 238.5 123C221.103 123 207 108.897 207 91.5C207 74.103 221.103 60 238.5 60ZM238.5 67C224.969 67 214 77.969 214 91.5C214 105.031 224.969 116 238.5 116C252.031 116 263 105.031 263 91.5C263 77.969 252.031 67 238.5 67ZM239.5 71.042V90.951L250.546 97.9797L249.473 99.6671L237.5 92.049V71.042H239.5Z" fill="#F89EDF"/>
<path id="Path" opacity="0.348377" fill-rule="evenodd" clip-rule="evenodd" d="M130 201.312H138V193.312H132V185.312H184V193.312H190V201.312H182V209.312H204C199.582 209.312 196 205.73 196 201.312V185.312L209.705 185.311C209.229 182.635 208.704 179.978 208.128 177.34C206.181 177.713 203.993 176.883 202.979 174.517C201.615 171.337 201.888 166.219 203.799 159.164C209.158 164.957 211.837 169.514 211.837 172.834C211.837 174.928 210.633 176.401 209.086 177.052L209.204 177.584C209.756 180.142 210.262 182.718 210.721 185.311L212.691 185.311C213.458 179.653 214.472 174.395 215.734 169.537C212.64 167.803 210.867 163.328 212.394 157.748C214.323 150.704 219.443 146.121 227.755 144C231.328 153.325 230.671 160.809 225.782 166.454C222.692 170.022 219.315 170.914 216.659 169.96C215.437 174.69 214.451 179.807 213.7 185.311L232 185.312V201.312C232 205.73 228.418 209.312 224 209.312H239V219.312H226L224.119 243.006C224.052 243.85 223.347 244.501 222.5 244.501C221.653 244.501 220.948 243.85 220.881 243.006L219 219.312H141L139.119 243.006C139.052 243.85 138.347 244.501 137.5 244.501C136.653 244.501 135.948 243.85 135.881 243.006L134 219.312H121V209.312H130V201.312Z" fill="#F89EDF"/>
<g id="Empty State 14">
<rect id="Rectangle" x="211.8" y="333.083" width="25.2" height="42" rx="10.8" fill="#FF954B"/>
<path id="Path 677" d="M227.35 332.483C227.682 332.483 227.95 332.751 227.95 333.083C227.95 333.381 227.733 333.628 227.448 333.675L227.35 333.683H222.6C217.061 333.683 212.553 338.098 212.404 343.602L212.4 343.883V361.264C212.4 361.596 212.131 361.864 211.8 361.864C211.502 361.864 211.254 361.647 211.208 361.362L211.2 361.264V343.883C211.2 337.685 216.146 332.642 222.306 332.486L222.6 332.483H227.35Z" fill="#1F192A"/>
<rect id="Rectangle Copy 6" x="351" y="333.083" width="25.2" height="42" rx="10.8" fill="#FF954B"/>
<path id="Path 383" fill-rule="evenodd" clip-rule="evenodd" d="M255.604 344.064H318.859V226.252L293.053 214.691H277.441L251.089 228.782L255.604 344.064Z" fill="#52A5C5"/>
<path id="Path_2" fill-rule="evenodd" clip-rule="evenodd" d="M304.125 227.443L318.859 327.782V328.99L254.974 327.968L253.71 295.722L268.461 229.109L269.03 235.241C271.662 263.224 273.959 282.331 275.923 292.561C279.079 309.001 287.99 316.361 294.295 312.681C298.498 310.228 301.775 281.815 304.125 227.443Z" fill="#317EAB"/>
<path id="Path 382" fill-rule="evenodd" clip-rule="evenodd" d="M397.494 215.226V191.079L432.665 207.563L417.703 226.252L397.494 215.226Z" fill="#FFBD90"/>
<path id="Path 376" fill-rule="evenodd" clip-rule="evenodd" d="M277.441 214.691C269.97 219.215 267.033 227.441 268.501 269.079C269.97 310.717 268.501 344.064 268.501 344.064H237.588V261.094C237.588 261.094 220.584 267.127 219.074 279.378C217.564 291.628 227.541 300.675 227.541 300.675L208.205 310.921C208.205 310.921 188.684 299.111 193.322 275.843C197.96 252.576 230.958 219.263 277.441 214.691Z" fill="#ECE9E9"/>
<path id="Path 660" fill-rule="evenodd" clip-rule="evenodd" d="M261.965 225.183C261.965 225.183 249.733 235.388 248.101 238.246C246.468 241.104 246.973 240.99 251.089 243.837C255.204 246.683 261.483 250.228 261.483 251.914C261.483 253.6 256.278 259.008 256.278 259.008C256.278 259.008 260.739 253.371 255.014 250.608C249.29 247.846 243.621 243.398 244.226 240.822C244.83 238.246 261.965 225.183 261.965 225.183Z" fill="#DAD5D5"/>
<path id="Path_3" fill-rule="evenodd" clip-rule="evenodd" d="M269.005 328.993L237.588 328.991L237.588 261.094C226.252 265.116 220.08 271.211 219.074 279.378C218.068 287.545 220.89 294.644 227.541 300.675L208.205 310.921C204.394 308.616 201.274 305.983 198.845 303.023C201.262 296.82 204.224 292.602 207.73 290.369C213.734 286.546 209.866 274.647 211.8 268.883C213.693 263.238 224.101 262.581 227.186 258.352L227.373 258.077C230.199 253.6 239.929 250.92 243.265 252.26C246.6 253.6 240.593 302.545 252.731 305.773C257.869 307.14 263.37 307.802 269.235 307.761C269.242 315.074 269.165 322.151 269.005 328.993Z" fill="#DAD5D5"/>
<path id="Path 656" d="M237.886 260.483C238.185 260.483 238.432 260.7 238.478 260.985L238.486 261.083V309.001C238.486 309.332 238.218 309.601 237.886 309.601C237.588 309.601 237.341 309.383 237.294 309.098L237.286 309.001V261.083C237.286 260.751 237.555 260.483 237.886 260.483Z" fill="#B3A5A9"/>
<path id="Path 655" d="M223.948 268.487C224.167 268.238 224.546 268.213 224.795 268.431C225.044 268.649 225.07 269.028 224.852 269.278C218.685 276.324 217.653 283.957 221.738 292.297C221.884 292.594 221.761 292.954 221.463 293.099C221.165 293.245 220.806 293.122 220.66 292.825C216.362 284.049 217.464 275.897 223.948 268.487Z" fill="#B3A5A9"/>
<path id="Path 377" d="M266.618 220.509C266.873 220.298 267.252 220.334 267.463 220.589C267.674 220.845 267.638 221.223 267.382 221.434L265.635 222.883C253.822 232.721 247.671 238.705 247.671 240.145C247.671 240.85 249.18 242.03 253.318 244.639L255.661 246.105C260.276 249.009 261.979 250.411 261.979 251.895C261.979 253.241 260.681 255.096 257.744 258.422L256.865 259.408L254.947 261.549C252.373 264.446 251.689 265.365 251.689 265.883C251.689 267.062 255.733 272.288 263.502 280.946C263.723 281.192 263.703 281.572 263.456 281.793C263.21 282.014 262.83 281.994 262.609 281.747L260.795 279.713C253.84 271.862 250.489 267.413 250.489 265.883L250.495 265.702C250.557 264.828 251.131 264.023 253.991 260.815L256.314 258.225C259.326 254.856 260.779 252.863 260.779 251.895C260.779 251.069 259.008 249.637 255.026 247.123L251.811 245.108C247.592 242.428 246.471 241.43 246.471 240.145C246.471 238.039 252.999 231.759 266.618 220.509Z" fill="#B3A5A9"/>
<path id="Path 378" fill-rule="evenodd" clip-rule="evenodd" d="M293.053 214.691C298.77 218.173 303.281 224.816 303.281 242.016C303.281 259.217 305.893 344.064 305.893 344.064H336.354L334.332 281.346C334.332 281.346 362.208 287.113 384.086 275.467C405.964 263.821 420.43 223.745 420.43 223.745L396.301 213.129C396.301 213.129 388.417 240.279 364.338 244.856C340.26 249.432 328.154 214.691 293.053 214.691Z" fill="#ECE9E9"/>
<path id="Oval" opacity="0.3" fill-rule="evenodd" clip-rule="evenodd" d="M294 410C348.124 410 392 405.075 392 399C392 392.925 348.124 388 294 388C239.876 388 196 392.925 196 399C196 405.075 239.876 410 294 410Z" fill="#381A31"/>
<path id="Path_4" fill-rule="evenodd" clip-rule="evenodd" d="M409.015 248.984C401.714 261.679 393.404 270.507 384.086 275.467C369.736 283.106 353.451 285.126 335.23 281.528L334.332 281.346L334.388 283.112L334.295 283.087L333.325 264.4C355.785 270.095 373.223 270.095 385.642 264.4C394.024 260.556 401.593 255.616 408.351 249.581L409.015 248.984Z" fill="#DAD5D5"/>
<path id="Path 657" d="M333.302 263.8C333.6 263.789 333.856 263.997 333.913 264.28L333.925 264.377L335.864 314.743C335.877 315.074 335.619 315.353 335.288 315.365C334.99 315.377 334.734 315.169 334.677 314.886L334.665 314.789L332.725 264.423C332.713 264.092 332.971 263.813 333.302 263.8Z" fill="#B3A5A9"/>
<path id="Path 661" fill-rule="evenodd" clip-rule="evenodd" d="M316.085 252.135C316.085 252.135 314.247 249.091 317.347 246.414C320.447 243.737 326.111 238.707 325.634 237.434C325.157 236.16 322.895 235.239 322.895 235.239C322.895 235.239 321.827 237.572 317.347 241.993C312.867 246.414 311.787 247.926 312.724 249.233C313.662 250.54 316.085 252.135 316.085 252.135Z" fill="#DAD5D5"/>
<path id="Path 372" fill-rule="evenodd" clip-rule="evenodd" d="M251.097 188.787C251.097 188.787 250.932 167.615 254.225 156.586C251.097 148.002 253.013 145.092 264.446 137.341C275.879 129.59 313.613 128.127 321.358 132.243C329.103 136.359 321.358 144.291 321.358 144.291C321.358 144.291 336.035 147.687 319.014 156.586C321.358 166.527 316.154 187.871 316.154 187.871L251.097 188.787Z" fill="#683433"/>
<path id="Path 371" fill-rule="evenodd" clip-rule="evenodd" d="M257.611 187.551C256.362 184.027 257.611 178.138 251.753 179.363C245.894 180.589 243.598 194.808 256.603 198.261C265.65 199.344 259.39 192.566 257.611 187.551Z" fill="#FFBD90"/>
<path id="Path 371 Copy" fill-rule="evenodd" clip-rule="evenodd" d="M312.767 187.551C314.017 184.027 312.767 178.138 318.626 179.363C324.485 180.589 326.781 194.808 313.775 198.261C304.728 199.344 310.989 192.566 312.767 187.551Z" fill="#FFBD90"/>
<path id="Path 370" fill-rule="evenodd" clip-rule="evenodd" d="M259.976 166.272C259.976 166.272 253.418 189.686 256.697 204.375C259.976 219.064 280.006 224.232 284.862 237.434C289.054 229.735 291.195 227.761 300.298 219.455C309.4 211.149 314.12 201.335 314.12 188.424C314.12 175.513 310.506 166.272 310.506 166.272C310.506 166.272 304.915 170.283 303.411 162.61C289.21 166.272 266.515 162.61 266.515 162.61C266.515 162.61 268.558 168.81 266.515 168.81C264.471 168.81 259.976 166.272 259.976 166.272Z" fill="#FFBD90"/>
<path id="Path_5" fill-rule="evenodd" clip-rule="evenodd" d="M266.254 218.149C271.042 221.586 276.706 223.304 283.245 223.304C289.784 223.304 294.489 222.526 297.359 220.971C292.342 225.452 286.456 228.33 279.702 229.606C275.798 225.523 270.675 222.065 266.212 218.197L266.254 218.149Z" fill="#F38E49"/>
<path id="Path 373" d="M262.8 177.754C270.205 174.27 275.922 174.015 279.892 177.086C282.022 178.734 282.249 181.663 281.707 189.827L281.598 191.466C281.277 196.471 281.312 198.851 281.894 200.835C282.638 203.375 284.247 204.155 287.424 203.048C287.737 202.939 288.079 203.104 288.188 203.417C288.297 203.73 288.132 204.072 287.819 204.181C284.006 205.51 281.684 204.384 280.742 201.173L280.639 200.798C280.103 198.717 280.088 196.266 280.399 191.41L280.562 188.939C280.993 181.969 280.734 179.254 279.158 178.035C275.613 175.293 270.351 175.528 263.311 178.84C263.011 178.981 262.654 178.852 262.513 178.552C262.371 178.252 262.5 177.895 262.8 177.754Z" fill="#683433"/>
<path id="Path 374" d="M289.208 178.764C294.249 173.961 300.589 173.961 308.06 178.691C308.339 178.869 308.423 179.239 308.245 179.519C308.068 179.799 307.698 179.883 307.418 179.705C300.377 175.247 294.639 175.247 290.035 179.633C289.795 179.861 289.416 179.852 289.187 179.612C288.958 179.372 288.968 178.993 289.208 178.764Z" fill="#683433"/>
<path id="Path_6" fill-rule="evenodd" clip-rule="evenodd" d="M270 181.883C271.451 181.883 272.662 183.944 272.94 186.683L272.4 186.683C271.406 186.683 270.6 187.488 270.6 188.483C270.6 189.418 271.314 190.187 272.227 190.274L272.4 190.283L272.75 190.284C272.287 192.402 271.23 193.883 270 193.883C268.343 193.883 267 191.196 267 187.883C267 184.569 268.343 181.883 270 181.883Z" fill="#683433"/>
<path id="Path Copy 9" fill-rule="evenodd" clip-rule="evenodd" d="M298.8 181.883C300.251 181.883 301.462 183.944 301.74 186.683L301.2 186.683C300.206 186.683 299.4 187.488 299.4 188.483C299.4 189.418 300.114 190.187 301.027 190.274L301.2 190.283L301.55 190.284C301.087 192.402 300.03 193.883 298.8 193.883C297.143 193.883 295.8 191.196 295.8 187.883C295.8 184.569 297.143 181.883 298.8 181.883Z" fill="#683433"/>
<path id="Path 375" d="M292.776 210.219C293.07 210.066 293.432 210.18 293.585 210.474C293.738 210.768 293.624 211.13 293.33 211.283C287.365 214.389 281.944 214.543 277.137 211.711C276.851 211.543 276.756 211.175 276.925 210.89C277.093 210.604 277.461 210.509 277.746 210.677C282.173 213.285 287.159 213.144 292.776 210.219Z" fill="#683433"/>
<path id="Path 379" d="M304.477 219.454C304.667 219.183 305.042 219.117 305.313 219.307L307.593 220.917C318.312 228.543 323.495 233.142 323.495 235.239C323.495 236.555 322.288 238.111 319.186 241.237L316.638 243.78C313.917 246.523 312.989 247.667 312.989 248.327C312.989 248.955 314.381 250.097 317.937 252.45L320.442 254.093C324.468 256.755 325.757 257.886 325.757 259.165C325.757 261.055 322.107 267.739 314.629 279.696C314.453 279.977 314.083 280.062 313.802 279.886C313.521 279.711 313.436 279.341 313.611 279.06L315.37 276.229C321.449 266.378 324.557 260.568 324.557 259.165C324.557 258.461 322.899 257.131 318.875 254.5L316.96 253.245C312.936 250.583 311.789 249.564 311.789 248.327L311.795 248.165C311.874 247.037 312.828 245.884 316.192 242.525L318.061 240.665C321.003 237.713 322.295 236.107 322.295 235.239C322.295 233.641 316.261 228.444 304.624 220.29C304.353 220.1 304.287 219.725 304.477 219.454Z" fill="#B3A5A9"/>
<g id="Group 42">
<path id="Path_7" fill-rule="evenodd" clip-rule="evenodd" d="M346.416 161.51L357.796 163.058L359.29 167.604L407.535 188.082L405.191 193.605L356.588 172.975L352.81 174.804L343.791 167.694L346.416 161.51Z" fill="#736D6D"/>
<rect id="Rectangle_2" x="391.737" y="176.162" width="73.2" height="15.6" rx="2.4" transform="rotate(23 391.737 176.162)" fill="#372F4F"/>
</g>
<path id="Path 381" fill-rule="evenodd" clip-rule="evenodd" d="M405.923 184.446C404.1 187.058 403.189 188.991 403.189 190.245L403.2 190.786C403.306 193.783 404.207 200.996 405.714 203.843C407.321 206.88 422.979 209.905 425.832 209.905C428.686 209.905 436.403 201.826 436.403 198.732C436.403 195.637 434.936 189.69 425.832 184.578C421.55 182.173 417.37 180.933 413.292 180.856L412.76 180.853C410.033 180.869 407.483 182.209 405.923 184.446Z" fill="#FFBD90"/>
<path id="Path_8" fill-rule="evenodd" clip-rule="evenodd" d="M203.874 338.042L192.465 348.681L181.521 345.335L185.91 341.243L191.115 342.835L198.136 336.288L195.977 326.934L186.796 324.127L179.775 330.674L180.999 335.977L176.611 340.069L174.037 328.92L185.446 318.281L196.389 321.626L233.421 287.093L230.848 275.943L242.257 265.304L253.2 268.649L248.811 272.741L243.606 271.15L236.585 277.698L238.745 287.051L247.926 289.858L254.947 283.311L253.722 278.007L258.11 273.915L260.684 285.065L249.275 295.704L238.332 292.359L201.3 326.892L203.874 338.042Z" fill="#736D6D"/>
<path id="Path 672" d="M257.701 273.476C258.017 273.182 258.52 273.311 258.669 273.697L258.695 273.783L261.206 284.91C261.245 285.082 261.206 285.262 261.102 285.401L261.032 285.479L249.686 296.142C249.552 296.268 249.368 296.324 249.189 296.298L249.1 296.278L238.486 293.033L231.516 299.518C231.3 299.719 230.976 299.73 230.749 299.56L230.668 299.488C230.467 299.272 230.456 298.948 230.626 298.72L230.699 298.64L237.923 291.919C238.054 291.798 238.23 291.742 238.404 291.763L238.507 291.785L249.118 295.028L259.96 284.839L257.754 275.066L254.384 278.209L255.531 283.176C255.572 283.355 255.529 283.541 255.417 283.683L255.356 283.75L248.335 290.297C248.092 290.523 247.713 290.51 247.487 290.267C247.286 290.052 247.274 289.728 247.444 289.5L247.516 289.419L254.283 283.109L253.137 278.142C253.096 277.963 253.139 277.777 253.251 277.635L253.313 277.568L257.701 273.476Z" fill="#313131"/>
<path id="Path 670" d="M208.005 319.5C208.242 319.269 208.621 319.273 208.853 319.51C209.059 319.721 209.078 320.044 208.914 320.276L208.843 320.358L201.96 327.084L204.459 337.907C204.498 338.079 204.46 338.258 204.357 338.398L204.287 338.477L192.845 349.358C192.708 349.488 192.519 349.545 192.335 349.515L192.244 349.493L181.334 345.905C180.932 345.773 180.798 345.285 181.048 344.967L181.112 344.896L185.5 340.804C185.743 340.578 186.122 340.592 186.348 340.834C186.549 341.049 186.561 341.373 186.391 341.601L186.319 341.682L182.671 345.082L192.278 348.241L203.212 337.843L200.715 327.027C200.676 326.857 200.713 326.68 200.813 326.541L200.88 326.463L208.005 319.5Z" fill="#313131"/>
<path id="Path 380" fill-rule="evenodd" clip-rule="evenodd" d="M201.047 309.826L201.07 310.758C201.197 314.692 201.686 317.263 202.537 318.473C204.477 321.232 215.611 326.077 219.917 324.374C224.224 322.671 233.888 313.438 233.888 308.475L233.878 307.565C233.763 302.348 232.675 293.069 229.486 291.353C226.102 289.532 219.922 290.355 214.321 292.867C211.892 293.956 209.187 295.838 206.207 298.513L205.708 298.966C202.672 301.753 200.975 305.706 201.047 309.826Z" fill="#FFBD90"/>
<g id="Group 44">
<path id="Path_9" fill-rule="evenodd" clip-rule="evenodd" d="M287.4 318.683L291 275.483H294.6L298.2 318.683H287.4Z" fill="white"/>
<path id="Oval_2" fill-rule="evenodd" clip-rule="evenodd" d="M292.8 276.683C297.108 276.683 300.6 273.19 300.6 268.883C300.6 264.575 297.108 261.083 292.8 261.083C288.492 261.083 285 264.575 285 268.883C285 273.19 288.492 276.683 292.8 276.683Z" fill="#DA474F"/>
<path id="Oval_3" fill-rule="evenodd" clip-rule="evenodd" d="M284.4 268.883C284.4 264.243 288.161 260.483 292.8 260.483C297.439 260.483 301.2 264.243 301.2 268.883C301.2 273.522 297.439 277.283 292.8 277.283C288.161 277.283 284.4 273.522 284.4 268.883ZM300 268.883C300 264.906 296.776 261.683 292.8 261.683C288.824 261.683 285.6 264.906 285.6 268.883C285.6 272.859 288.824 276.083 292.8 276.083C296.776 276.083 300 272.859 300 268.883Z" fill="#1F192A"/>
</g>
<path id="Path_10" fill-rule="evenodd" clip-rule="evenodd" d="M356.294 312.681C361.049 325.159 363.805 339.982 363.805 355.883C363.805 371.277 361.222 385.661 356.742 397.885H231.848C227.368 385.661 224.785 371.277 224.785 355.883C224.785 339.982 227.541 325.159 232.296 312.681L356.294 312.681Z" fill="#DA474F"/>
<path id="Path_11" fill-rule="evenodd" clip-rule="evenodd" d="M256.8 333.083C262.433 333.083 267 337.649 267 343.283V348.683H258C255.758 348.683 253.926 350.44 253.806 352.652L253.8 352.883C253.8 355.125 255.557 356.957 257.77 357.076L258 357.083H267V367.283C267 372.916 262.433 377.483 256.8 377.483C251.167 377.483 246.6 372.916 246.6 367.283V343.283C246.6 337.649 251.167 333.083 256.8 333.083Z" fill="#372F4F"/>
<path id="Path Copy 10" fill-rule="evenodd" clip-rule="evenodd" d="M328.8 333.083C334.433 333.083 339 337.649 339 343.283V348.683H330C327.758 348.683 325.926 350.44 325.806 352.652L325.8 352.883C325.8 355.125 327.557 356.957 329.77 357.076L330 357.083H339V367.283C339 372.916 334.433 377.483 328.8 377.483C323.167 377.483 318.6 372.916 318.6 367.283V343.283C318.6 337.649 323.167 333.083 328.8 333.083Z" fill="#372F4F"/>
<g id="Group 43">
<rect id="Rectangle_3" x="274.2" y="375.083" width="38.4" height="16.8" fill="#372F4F"/>
<path id="Path 384" d="M293.4 374.483C293.698 374.483 293.946 374.7 293.992 374.985L294 375.083V391.883C294 392.214 293.731 392.483 293.4 392.483C293.102 392.483 292.854 392.265 292.808 391.98L292.8 391.883V375.083C292.8 374.751 293.069 374.483 293.4 374.483Z" fill="white"/>
<path id="Path 384 Copy" d="M303 374.483C303.298 374.483 303.546 374.7 303.592 374.985L303.6 375.083V391.883C303.6 392.214 303.331 392.483 303 392.483C302.702 392.483 302.454 392.265 302.408 391.98L302.4 391.883V375.083C302.4 374.751 302.669 374.483 303 374.483Z" fill="white"/>
<path id="Path 384 Copy 2" d="M283.8 374.483C284.098 374.483 284.346 374.7 284.392 374.985L284.4 375.083V391.883C284.4 392.214 284.131 392.483 283.8 392.483C283.502 392.483 283.254 392.265 283.208 391.98L283.2 391.883V375.083C283.2 374.751 283.469 374.483 283.8 374.483Z" fill="white"/>
</g>
<path id="Path 651" d="M256.832 176.764C257.158 176.827 257.371 177.141 257.308 177.467C253.455 197.407 256.578 210.767 266.594 217.655C266.867 217.843 266.937 218.216 266.749 218.489C266.561 218.762 266.188 218.831 265.914 218.644C255.43 211.434 252.196 197.598 256.129 177.239C256.186 176.946 256.447 176.745 256.735 176.753L256.832 176.764Z" fill="#683433"/>
<path id="Path 652" d="M314.059 178.601C314.389 178.568 314.683 178.808 314.717 179.137C316.645 198.039 311.82 211.782 300.221 220.282C299.954 220.478 299.578 220.42 299.382 220.153C299.187 219.886 299.244 219.51 299.512 219.314C310.734 211.091 315.411 197.768 313.523 179.259C313.489 178.93 313.729 178.635 314.059 178.601Z" fill="#683433"/>
<path id="Path 653" d="M295.719 222.843C295.974 222.631 296.352 222.665 296.564 222.92C296.776 223.174 296.742 223.553 296.487 223.765C291.591 227.843 287.898 232.485 285.403 237.693C285.186 238.145 284.543 238.148 284.323 237.697C282.662 234.296 280.229 231.012 277.02 227.846C276.784 227.614 276.782 227.234 277.014 226.998C277.247 226.762 277.627 226.759 277.863 226.992C280.643 229.735 282.865 232.574 284.526 235.509L284.854 236.105L284.891 236.033C287.343 231.316 290.776 227.068 295.186 223.293L295.719 222.843Z" fill="#683433"/>
<path id="Path 654" d="M234.613 226.938C234.892 226.759 235.263 226.84 235.442 227.119C235.621 227.398 235.539 227.77 235.26 227.948C202.171 249.15 188.624 270.629 194.444 292.406C194.53 292.726 194.339 293.055 194.019 293.14C193.699 293.226 193.37 293.036 193.285 292.715C187.3 270.323 201.134 248.39 234.613 226.938Z" fill="#B3A5A9"/>
<path id="Path 658" d="M419.862 223.551C419.969 223.237 420.31 223.07 420.624 223.177C420.938 223.284 421.105 223.625 420.998 223.939C410.318 255.24 394.851 273.935 374.575 279.953C374.257 280.047 373.923 279.866 373.829 279.548C373.735 279.231 373.916 278.897 374.233 278.803C394.079 272.912 409.296 254.519 419.862 223.551Z" fill="#B3A5A9"/>
<path id="Path 659" d="M395.718 212.989C395.797 212.66 396.132 212.461 396.459 212.55C400.351 213.611 404.622 215.709 409.277 218.843C409.552 219.028 409.625 219.401 409.439 219.676C409.254 219.951 408.882 220.024 408.607 219.839C404.433 217.028 400.593 215.078 397.09 213.985L396.732 213.877L396.637 214.239C394.404 222.542 388.8 232.238 381.521 238.379L381.091 238.736C370.518 247.374 357.438 248.388 342.307 239.533C342.021 239.366 341.925 238.998 342.093 238.712C342.26 238.426 342.627 238.33 342.913 238.498C357.612 247.1 370.147 246.127 380.331 237.807C387.889 231.633 393.694 221.417 395.718 212.989Z" fill="#B3A5A9"/>
<path id="Path 662" d="M270.654 223.104C270.765 222.791 271.107 222.628 271.42 222.738C271.732 222.848 271.896 223.191 271.786 223.504C269.009 231.357 268.349 252.536 269.835 286.913C269.849 287.244 269.593 287.524 269.262 287.538C268.93 287.552 268.65 287.296 268.636 286.965L268.508 283.89C267.184 251.146 267.89 230.922 270.654 223.104Z" fill="#1B618A"/>
<path id="Path 663" d="M303.258 241.417C303.59 241.404 303.868 241.663 303.88 241.994L304.143 249.191C305.093 275.892 305.569 297.055 305.569 312.681C305.569 313.013 305.3 313.281 304.969 313.281C304.637 313.281 304.369 313.013 304.369 312.681L304.357 308.42C304.274 291.832 303.715 269.705 302.681 242.039C302.669 241.708 302.927 241.429 303.258 241.417Z" fill="#1B618A"/>
<path id="Path 664" d="M224.278 289.782C224.603 289.715 224.92 289.923 224.988 290.248C225.055 290.572 224.846 290.89 224.522 290.957C207.635 294.452 200.096 302.015 201.639 313.721C201.683 314.05 201.451 314.351 201.123 314.394C200.794 314.438 200.493 314.207 200.45 313.878C198.811 301.447 206.842 293.39 224.278 289.782Z" fill="#683433"/>
<path id="Path 665" d="M204.977 313.517C205.117 313.254 205.426 313.138 205.699 313.231L205.789 313.27L218.976 320.314C219.268 320.47 219.379 320.833 219.223 321.126C219.082 321.389 218.774 321.504 218.5 321.411L218.411 321.372L205.223 314.329C204.931 314.173 204.821 313.809 204.977 313.517Z" fill="#683433"/>
<path id="Path 666" d="M215.464 304.208C215.726 304.064 216.047 304.136 216.226 304.363L216.279 304.444L223.216 317.032C223.376 317.322 223.27 317.687 222.98 317.847C222.719 317.991 222.397 317.92 222.219 317.692L222.165 317.611L215.228 305.023C215.069 304.733 215.174 304.368 215.464 304.208Z" fill="#683433"/>
<path id="Path 667" d="M222.491 300.007C222.772 299.908 223.078 300.031 223.216 300.284L223.256 300.373L227.916 313.6C228.026 313.913 227.862 314.255 227.55 314.365C227.268 314.465 226.963 314.342 226.824 314.088L226.784 313.999L222.124 300.772C222.014 300.46 222.178 300.117 222.491 300.007Z" fill="#683433"/>
<path id="Path 668" d="M403.105 193.434C403.433 193.387 403.736 193.615 403.783 193.943L403.92 194.877C404.659 199.745 405.531 202.871 406.488 204.196C407.658 205.815 422.607 209.305 425.832 209.305C427.145 209.305 432.214 205.037 433.567 203.111C433.757 202.84 434.131 202.775 434.402 202.965C434.674 203.156 434.739 203.53 434.548 203.801C432.985 206.026 427.666 210.505 425.832 210.505C422.23 210.505 406.997 206.948 405.516 204.899C404.345 203.279 403.39 199.707 402.595 194.112C402.548 193.784 402.777 193.48 403.105 193.434Z" fill="#683433"/>
<path id="Path 669" d="M186.387 323.688C186.518 323.566 186.694 323.51 186.868 323.531L186.971 323.553L196.152 326.36C196.328 326.414 196.467 326.544 196.534 326.712L196.561 326.799L198.721 336.153C198.795 336.476 198.594 336.798 198.271 336.872C197.981 336.939 197.69 336.783 197.581 336.516L197.552 336.423L195.469 327.405L186.952 324.801L180.437 330.876L181.584 335.842C181.651 336.133 181.495 336.423 181.227 336.532L181.134 336.562C180.844 336.629 180.554 336.473 180.444 336.205L180.415 336.112L179.19 330.809C179.149 330.63 179.192 330.444 179.304 330.302L179.366 330.235L186.387 323.688Z" fill="#313131"/>
<path id="Path 671" d="M185.037 317.842C185.168 317.72 185.344 317.664 185.518 317.685L185.622 317.707L196.565 321.052C196.882 321.149 197.06 321.484 196.963 321.801C196.876 322.087 196.595 322.26 196.309 322.221L196.214 322.2L185.602 318.955L174.699 329.122L177.196 339.934C177.263 340.225 177.106 340.515 176.839 340.624L176.746 340.654C176.455 340.721 176.165 340.565 176.056 340.297L176.026 340.204L173.453 329.055C173.411 328.876 173.455 328.69 173.566 328.548L173.628 328.481L185.037 317.842Z" fill="#313131"/>
<path id="Path 673" d="M241.843 264.87C242.083 264.641 242.462 264.65 242.691 264.89C242.894 265.103 242.91 265.427 242.742 265.657L242.671 265.738L231.762 276.138L234.009 286.971C234.069 287.263 233.907 287.549 233.637 287.653L233.543 287.68C233.251 287.741 232.965 287.578 232.861 287.308L232.834 287.215L230.52 276.055C230.485 275.886 230.524 275.712 230.625 275.576L230.693 275.499L241.843 264.87Z" fill="#313131"/>
<path id="Path 674" d="M318.6 312.081C318.931 312.081 319.2 312.35 319.2 312.681C319.2 312.979 318.982 313.227 318.697 313.273L318.6 313.281L232.714 313.281L232.563 313.693C223.115 339.666 222.97 367.359 232.133 396.792L232.42 397.703C232.52 398.019 232.345 398.356 232.029 398.457C231.714 398.557 231.376 398.382 231.276 398.066C221.649 367.741 221.799 339.203 231.734 312.472C231.81 312.266 231.992 312.121 232.204 312.088L232.296 312.081H318.6Z" fill="#1F192A"/>
<path id="Path 675" d="M296.308 397.285C296.64 397.285 296.908 397.553 296.908 397.885C296.908 398.183 296.691 398.43 296.406 398.477L296.308 398.485H255.365C255.033 398.485 254.765 398.216 254.765 397.885C254.765 397.586 254.982 397.339 255.267 397.293L255.365 397.285H296.308Z" fill="#1F192A"/>
<path id="Path 676" d="M360.871 328.399C361.199 328.35 361.505 328.575 361.554 328.902C365.479 354.685 364.067 377.744 357.311 398.074C357.24 398.288 357.055 398.442 356.837 398.477L356.742 398.485H303C302.669 398.485 302.4 398.216 302.4 397.885C302.4 397.586 302.618 397.339 302.903 397.293L303 397.285L356.307 397.284L356.464 396.805C362.809 377.18 364.168 354.983 360.537 330.211L360.368 329.083C360.318 328.755 360.543 328.449 360.871 328.399Z" fill="#1F192A"/>
<path id="Path 678" d="M376.2 351.063C376.498 351.063 376.746 351.281 376.792 351.566L376.8 351.663V365.483C376.8 371.022 372.384 375.53 366.881 375.679L366.6 375.683H360.963C360.631 375.683 360.363 375.414 360.363 375.083C360.363 374.784 360.58 374.537 360.865 374.49L360.963 374.483H366.6C371.482 374.483 375.456 370.596 375.596 365.748L375.6 365.483V351.663C375.6 351.332 375.869 351.063 376.2 351.063Z" fill="#1F192A"/>
</g>
</g>
</svg>
