<svg width="606" height="489" viewBox="0 0 606 489" fill="none" xmlns="http://www.w3.org/2000/svg">
<g id="Settings">
<rect width="606" height="489" fill="white"/>
<g id="Empty State 18">
<path id="Oval" opacity="0.1" fill-rule="evenodd" clip-rule="evenodd" d="M284.5 419C381.978 419 461 415.194 461 410.5C461 405.806 381.978 402 284.5 402C187.022 402 108 405.806 108 410.5C108 415.194 187.022 419 284.5 419Z" fill="#3F272E"/>
<path id="Shape" opacity="0.1" fill-rule="evenodd" clip-rule="evenodd" d="M254.737 95C256.242 95 257.693 95.566 258.801 96.5858L266.753 103.907C267.861 104.927 269.311 105.493 270.817 105.493H274.5C277.814 105.493 280.5 108.179 280.5 111.493V134H298.5V125H339V156.5H298.5V143H280.5V151.993C280.5 155.306 277.814 157.993 274.5 157.993L265.5 157.993V410H220.5V157.993L205.5 157.993C202.186 157.993 199.5 155.306 199.5 151.993V143H124V189.5H126.944C127.773 189.5 128.444 190.172 128.444 191V194C128.444 194.828 127.773 195.5 126.944 195.5L125.009 195.501C124.557 199.809 123.118 203.393 120.693 206.253L120.322 206.676C115.815 211.654 118.532 217.243 122.66 217.827C126.787 218.412 129.683 216.576 130.131 212.854L130.177 212.422L130.219 211.906C130.455 208.459 129.927 205.111 132.575 208.486C135.467 212.172 135.223 223.333 123.535 223.333C111.993 223.333 111.113 212.079 115.862 206.871L116.045 206.676C118.95 203.675 120.578 199.95 120.929 195.501L117.944 195.5C117.116 195.5 116.444 194.828 116.444 194V191C116.444 190.172 117.116 189.5 117.944 189.5H121V143H110.444V134H199.5V111.493C199.5 108.179 202.186 105.493 205.5 105.493H216.389C217.913 105.493 219.38 104.913 220.492 103.871L228.228 96.6218C229.34 95.5798 230.807 95 232.331 95H254.737ZM243 392.235L225 407.567V408.5H261V407.568L243 392.235ZM261 376.901L244.156 391.251L261 405.598V376.901ZM225 376.902V405.596L241.843 391.251L225 376.902ZM261 374H225V374.931L243 390.265L261 374.93V374ZM243 356.235L225 371.567V372.5H261V371.568L243 356.235ZM261 340.901L244.156 355.251L261 369.598V340.901ZM225 340.902V369.596L241.843 355.251L225 340.902ZM261 338H225V338.932L243 354.265L261 338.93V338ZM243 320.235L225 335.567V336.5H261V335.569L243 320.235ZM261 304.901L244.156 319.251L261 333.598V304.901ZM225 304.902V333.596L241.843 319.251L225 304.902ZM261 302H225V302.932L243 318.265L261 302.93V302ZM243 284.235L225 299.567V300.5H261V299.569L243 284.235ZM261 268.901L244.156 283.251L261 297.598V268.901ZM225 268.902V297.596L241.843 283.251L225 268.902ZM261 266H225V266.932L243 282.265L261 266.93V266ZM243 248.235L225 263.567V264.5H261V263.569L243 248.235ZM261 232.901L244.156 247.251L261 261.598V232.901ZM225 232.902V261.596L241.843 247.251L225 232.902ZM261 230H225V230.932L243 246.265L261 230.93V230ZM243 212.235L225 227.567V228.5H261V227.568L243 212.235ZM261 196.901L244.156 211.251L261 225.598V196.901ZM225 196.902V225.596L241.843 211.251L225 196.902ZM261 194H225V194.932L243 210.265L261 194.93V194ZM243 176.235L225 191.567V192.5H261V191.568L243 176.235ZM261 160.901L244.156 175.251L261 189.598V160.901ZM225 160.902V189.596L241.843 175.251L225 160.902ZM261 158H225V158.931L243 174.265L261 158.93V158Z" fill="#3F272E"/>
<path id="Shape_2" fill-rule="evenodd" clip-rule="evenodd" d="M417.982 178.421C420.28 179.397 421.506 181.916 420.856 184.326L413.87 210.236C420.027 215.225 425.499 220.876 430.227 227.037L456.377 220.473C458.798 219.865 461.296 221.135 462.231 223.449L476.201 258.026C477.136 260.34 476.221 262.989 474.058 264.234L450.506 277.78C451.315 285.404 451.256 293.171 450.269 300.933L473.616 314.91C475.692 316.153 476.571 318.697 475.734 320.944L475.65 321.154L461.079 355.482C460.133 357.71 457.735 358.931 455.394 358.41L455.174 358.356L428.902 351.272C424.003 357.374 418.458 362.811 412.411 367.525L419.028 393.877C419.616 396.22 418.445 398.635 416.272 399.636L416.051 399.731L381.474 413.701C379.234 414.606 376.681 413.778 375.391 411.764L375.266 411.558L361.823 388.187C354.107 389.066 346.24 389.055 338.375 388.092L324.59 411.116C323.347 413.192 320.803 414.071 318.556 413.234L318.346 413.15L284.018 398.579C281.79 397.633 280.569 395.235 281.09 392.894L281.144 392.674L288.053 367.049C281.727 362.035 276.106 356.33 271.254 350.092L245.623 356.528C243.28 357.116 240.865 355.945 239.864 353.772L239.769 353.551L225.799 318.974C224.894 316.734 225.722 314.181 227.737 312.891L227.942 312.766L250.669 299.693C249.755 291.743 249.786 283.632 250.83 275.527L228.384 262.09C226.243 260.808 225.375 258.143 226.35 255.846L240.921 221.518C241.897 219.22 244.416 217.994 246.826 218.644L272.084 225.455C277.19 219.074 283.003 213.418 289.356 208.553L282.973 183.123C282.365 180.702 283.635 178.204 285.949 177.269L320.526 163.299C322.84 162.364 325.489 163.279 326.734 165.442L339.91 188.35C347.767 187.507 355.776 187.587 363.777 188.655L377.41 165.884C378.692 163.743 381.357 162.875 383.654 163.85L417.982 178.421ZM376.914 226.171C342.598 211.604 302.972 227.615 288.406 261.93C273.84 296.246 289.85 335.873 324.165 350.439C358.481 365.005 398.108 348.995 412.674 314.679C427.24 280.363 411.23 240.737 376.914 226.171Z" fill="#E8C5BC"/>
<path id="Shape_3" fill-rule="evenodd" clip-rule="evenodd" d="M350 206C395.287 206 432 242.713 432 288C432 333.287 395.287 370 350 370C304.713 370 268 333.287 268 288C268 242.713 304.713 206 350 206ZM288.406 261.93C273.84 296.246 289.85 335.873 324.165 350.439C358.481 365.005 398.108 348.995 412.674 314.679C427.24 280.363 411.23 240.737 376.914 226.171C342.598 211.604 302.972 227.615 288.406 261.93Z" fill="#D4A89B"/>
<path id="Oval_2" fill-rule="evenodd" clip-rule="evenodd" d="M267.573 288C267.573 242.477 304.477 205.573 350 205.573C395.523 205.573 432.428 242.477 432.428 288C432.428 333.523 395.523 370.428 350 370.428C304.477 370.428 267.573 333.523 267.573 288ZM431.573 288C431.573 242.949 395.051 206.428 350 206.428C304.949 206.428 268.428 242.949 268.428 288C268.428 333.051 304.949 369.573 350 369.573C395.051 369.573 431.573 333.051 431.573 288Z" fill="#3F272E"/>
<path id="Shape_4" fill-rule="evenodd" clip-rule="evenodd" d="M350.428 188C350.428 187.764 350.236 187.573 350 187.573C335.508 187.573 321.448 190.644 308.538 196.504C308.323 196.602 308.227 196.855 308.325 197.07C308.422 197.285 308.676 197.38 308.891 197.283C321.691 191.473 335.63 188.428 350 188.428C350.236 188.428 350.428 188.236 350.428 188ZM388.384 195.169C415.101 206.228 435.916 228.436 445.173 255.856C445.249 256.08 445.129 256.323 444.905 256.398C444.681 256.474 444.439 256.353 444.363 256.13C435.185 228.944 414.546 206.924 388.057 195.959C387.839 195.869 387.735 195.618 387.825 195.4C387.916 195.182 388.166 195.079 388.384 195.169ZM260.228 244.869C260.331 244.656 260.241 244.4 260.029 244.298C259.816 244.196 259.56 244.285 259.458 244.498C252.981 257.953 249.573 272.735 249.573 288C249.573 298.814 251.282 309.397 254.599 319.46C254.673 319.684 254.914 319.806 255.139 319.732C255.363 319.659 255.485 319.417 255.411 319.193C252.123 309.215 250.428 298.723 250.428 288C250.428 272.864 253.807 258.209 260.228 244.869ZM450 287.573C450.236 287.573 450.428 287.764 450.428 288C450.428 329.312 425.251 365.945 387.589 381.156C387.37 381.245 387.121 381.139 387.033 380.92C386.944 380.701 387.05 380.452 387.269 380.363C424.61 365.281 449.573 328.96 449.573 288C449.573 287.764 449.764 287.573 450 287.573ZM280.384 359.192C298.868 377.27 323.621 387.573 350 387.573C350.236 387.573 350.428 387.764 350.428 388C350.428 388.236 350.236 388.428 350 388.428C323.395 388.428 298.429 378.036 279.787 359.804C279.618 359.639 279.615 359.368 279.78 359.199C279.945 359.03 280.216 359.027 280.384 359.192Z" fill="#3F272E"/>
<g id="Group 56">
<path id="Path 491" fill-rule="evenodd" clip-rule="evenodd" d="M234.349 273.131C234.349 273.131 240.575 272.886 243.56 270.837C246.546 268.787 253.238 261.2 254.154 263.935C255.071 266.67 246.746 279.287 243.56 283.783C240.374 288.278 225.192 283.783 225.192 283.783L234.349 273.131Z" fill="#FF9778"/>
<path id="Path 490" fill-rule="evenodd" clip-rule="evenodd" d="M192.622 316.577C192.622 316.577 190.627 320.578 179.702 319.244C168.777 317.911 175.052 301.364 175.052 301.364L190.298 305.588L192.622 316.577Z" fill="#3F272E"/>
<path id="Path 488" fill-rule="evenodd" clip-rule="evenodd" d="M130.286 390.785C130.286 390.785 127.15 393.534 125.983 397.892C124.815 402.25 138.974 409.93 144.31 412.146C149.647 414.361 144.854 407.806 142.841 405.671C140.827 403.536 136.32 398.759 136.32 398.759L130.286 390.785Z" fill="#0E2042"/>
<path id="Path 489" fill-rule="evenodd" clip-rule="evenodd" d="M179.034 389.53C179.034 389.53 175.242 395.551 177.138 399.532C179.034 403.513 197.03 410.574 199.704 410.574C202.377 410.574 198.126 405.67 193.896 401.691C189.666 397.712 179.034 389.53 179.034 389.53Z" fill="#0E2042"/>
<path id="Path 486" fill-rule="evenodd" clip-rule="evenodd" d="M147.113 301.364C147.113 301.364 131.211 363.391 125.475 374.528C119.738 385.665 136.32 398.759 136.32 398.759L164.215 355.691C164.215 355.691 170.665 386.939 176.65 391.182C182.636 395.425 188.193 394.66 188.193 394.66C188.193 394.66 200.424 358.825 198.99 348.829C197.556 338.834 182.053 303.343 182.053 303.343L147.113 301.364Z" fill="#307A53"/>
<path id="Path" fill-rule="evenodd" clip-rule="evenodd" d="M147.113 301.364L182.053 303.343L183.622 306.952C184.813 309.706 185.935 312.336 186.989 314.842C182.603 313.034 177.861 312.132 172.763 312.132L172.131 312.136C164.408 312.241 155.481 314.333 141.439 323.093L142.788 318.005C143.818 314.103 144.886 310.007 145.993 305.718L147.113 301.364Z" fill="#0E2042"/>
<path id="Path 484" fill-rule="evenodd" clip-rule="evenodd" d="M202.421 257.088C202.421 257.088 211.971 268.517 234.349 273.131C232.079 288.452 230.661 297.356 230.661 297.356C230.661 297.356 207.197 301.461 194.233 291.279C194.233 296.105 192.622 316.577 192.622 316.577C192.622 316.577 185.918 308.486 178.035 308.486C170.151 308.486 153.238 312.462 141.406 305.703C145.036 295.878 161.57 251.157 192.622 237.106C195.3 235.82 199.807 247.303 199.807 247.303L202.421 257.088Z" fill="#FF4740"/>
<path id="Path_2" fill-rule="evenodd" clip-rule="evenodd" d="M166.509 301.001L168.996 300.711L170.983 300.494C177.274 299.833 180.349 299.809 183.772 300.439C187.448 301.114 190.584 302.641 193.475 305.26L193.08 310.64C190.027 306.952 186.936 305.087 183.049 304.373L182.642 304.301L182.03 304.208C178.752 303.754 175.171 303.997 166.982 304.973C158.597 305.971 150.7 304.507 143.344 300.592L143.739 299.591C144.08 298.734 144.45 297.821 144.848 296.859C151.595 300.544 158.797 301.919 166.509 301.001Z" fill="white"/>
<path id="Path_3" fill-rule="evenodd" clip-rule="evenodd" d="M179.702 262.326C180.267 268.102 181.639 273.431 183.817 278.31C185.918 283.016 189.221 287.204 193.728 290.873L194.233 291.279L194.226 291.984C194.176 294.754 193.855 300.148 193.265 308.166C181.239 297.023 176.718 281.743 179.702 262.326Z" fill="#AF2E2F"/>
<path id="Path_4" fill-rule="evenodd" clip-rule="evenodd" d="M193.475 305.26L193.261 308.163L192.866 307.793C190.754 305.792 188.879 303.659 187.242 301.394C189.489 302.24 191.537 303.505 193.475 305.26Z" fill="#EFB7B7"/>
<g id="Group 66">
<path id="Path 483" fill-rule="evenodd" clip-rule="evenodd" d="M216.755 218.8C216.755 218.8 227.229 214 231.442 214C235.655 214 222.067 220.144 218.844 222.219C215.621 224.294 213.083 219.236 213.083 219.236L216.755 218.8Z" fill="#0E2042"/>
<path id="Path 477" fill-rule="evenodd" clip-rule="evenodd" d="M199.561 252C199.561 248.226 203.332 245.09 206.249 246.878C209.166 248.666 214.566 250.272 215.562 246.878C216.559 243.484 216.053 242.186 217.616 242.186C219.179 242.186 219.05 240.871 218.333 237.82C217.616 234.769 216.899 234.222 217.616 231.188C218.333 228.154 218.333 224.651 214.798 221.966C214.712 221.901 209.653 218.123 203.152 219.563C196.451 221.048 194.348 229.26 195.106 235.071C195.41 237.397 195.106 237.82 193.328 239.545C193.691 243.082 196.055 247.594 199.561 252Z" fill="#FF9778"/>
<path id="Path_5" fill-rule="evenodd" clip-rule="evenodd" d="M212.729 229.724C213.37 229.803 213.765 230.975 213.676 232.426C213.212 232.376 212.793 232.707 212.736 233.171C212.684 233.599 212.956 233.991 213.36 234.1C213.034 235.083 212.509 235.727 211.999 235.665C211.296 235.579 210.89 234.179 211.091 232.538C211.293 230.898 212.026 229.638 212.729 229.724Z" fill="#0E2042"/>
<path id="Path 478" d="M209.192 227.339C212.817 225.881 215.17 226.263 216.023 228.606C216.104 228.828 215.99 229.073 215.768 229.154C215.546 229.235 215.301 229.12 215.22 228.899C214.575 227.127 212.747 226.831 209.511 228.132C209.292 228.22 209.043 228.114 208.955 227.895C208.867 227.676 208.973 227.427 209.192 227.339Z" fill="#774537"/>
<path id="Path 479" d="M208.721 239.676C208.9 239.522 209.17 239.542 209.324 239.721C210.994 241.659 212.911 242.616 215.098 242.616C215.334 242.616 215.525 242.808 215.525 243.044C215.525 243.28 215.334 243.471 215.098 243.471C212.651 243.471 210.502 242.399 208.676 240.279C208.522 240.1 208.542 239.83 208.721 239.676Z" fill="#774537"/>
<path id="Path 480" fill-rule="evenodd" clip-rule="evenodd" d="M210.012 221.448C210.012 224.21 209.098 226.001 207.269 226.821L207.07 226.905C204.127 228.07 203.786 231.505 202.375 231.846C201.464 229.475 199.897 228.721 197.677 229.584C197.677 229.584 196.391 232.536 196.746 233.95C197.019 235.037 199.561 237.086 199.561 237.086L199.164 237.56C197.241 239.85 196.198 240.909 196.035 240.737L195.068 238.861C191.148 231.329 194.076 222.044 201.609 218.123C203.928 216.916 206.515 216.321 209.125 216.392L209.56 216.41L211.729 217.288C217.356 220.843 220.17 223.66 220.17 225.739C220.17 227.818 216.784 226.388 210.012 221.448Z" fill="#0E2042"/>
<path id="Path 481" d="M196.754 234.606C195.443 231.048 197.466 228.145 200.002 228.791C201.343 229.132 202.275 230.126 202.783 231.716C202.855 231.941 202.73 232.181 202.506 232.253C202.281 232.325 202.04 232.201 201.968 231.976C201.545 230.65 200.825 229.883 199.792 229.62C197.987 229.16 196.464 231.346 197.556 234.31C197.993 235.494 198.716 236.177 199.662 236.48C200.369 236.707 201.138 236.703 201.862 236.559L202.132 236.497C202.178 236.485 202.215 236.474 202.241 236.465C202.465 236.391 202.707 236.513 202.781 236.737C202.856 236.961 202.734 237.203 202.51 237.277L202.362 237.321C202.273 237.345 202.161 237.371 202.029 237.398C201.175 237.568 200.267 237.572 199.401 237.294C198.207 236.912 197.282 236.039 196.754 234.606Z" fill="#774537"/>
<path id="Path 482" fill-rule="evenodd" clip-rule="evenodd" d="M193.08 232.995C192.057 230.11 191.761 227.111 192.192 223.998C192.958 218.462 197.885 214 203.797 214C209.709 214 215.669 217.175 216.66 218.646C217.651 220.117 210.714 221.173 204.33 224.294C200.641 226.098 197.494 228.916 194.888 232.749L194.601 233.179C194.342 233.573 193.812 233.683 193.417 233.424C193.261 233.322 193.143 233.171 193.08 232.995Z" fill="#307A53"/>
</g>
<path id="Path 485" d="M179.702 256.661C179.938 256.661 180.13 256.852 180.13 257.088C180.13 272.433 184.919 283.702 194.491 290.938C194.679 291.08 194.717 291.349 194.574 291.537C194.432 291.725 194.164 291.763 193.975 291.62C184.173 284.21 179.275 272.684 179.275 257.088C179.275 256.852 179.466 256.661 179.702 256.661Z" fill="#AF2E2F"/>
<path id="Path 487" d="M177.503 321.761C177.568 321.534 177.806 321.403 178.032 321.469C178.259 321.535 178.39 321.772 178.324 321.998L178.117 322.699C176.001 329.722 171.497 340.775 164.604 355.868C164.506 356.083 164.252 356.178 164.038 356.08C163.823 355.982 163.728 355.728 163.826 355.513L165.171 352.554C171.515 338.509 175.626 328.242 177.503 321.761Z" fill="white"/>
<path id="Path 720" d="M193.232 239.128C193.462 239.075 193.692 239.218 193.745 239.448C196.216 250.109 201.947 258.192 210.95 263.718C211.151 263.842 211.214 264.105 211.091 264.306C210.967 264.508 210.704 264.571 210.503 264.447C201.303 258.799 195.434 250.523 192.912 239.641C192.859 239.411 193.002 239.182 193.232 239.128Z" fill="#AF2E2F"/>
<path id="Path 721" d="M187.786 246.407C188.016 246.356 188.244 246.502 188.295 246.733C193.011 268.153 206.75 280.832 229.584 284.825C229.816 284.866 229.972 285.087 229.931 285.32C229.89 285.552 229.669 285.708 229.436 285.667C206.267 281.616 192.252 268.681 187.46 246.917C187.409 246.686 187.555 246.458 187.786 246.407Z" fill="white"/>
<path id="Path 722" d="M169.198 255.127C169.359 254.954 169.629 254.944 169.802 255.104C169.975 255.265 169.985 255.535 169.825 255.708C158.528 267.882 149.188 284.593 141.81 305.843C141.733 306.066 141.489 306.184 141.266 306.107C141.043 306.029 140.925 305.786 141.002 305.563C148.416 284.208 157.813 267.395 169.198 255.127Z" fill="#AF2E2F"/>
<path id="Path 723" d="M155.543 313.081C155.775 313.128 155.925 313.353 155.878 313.585C150.031 342.502 141.18 367.081 129.322 387.321C129.203 387.524 128.941 387.593 128.737 387.473C128.534 387.354 128.465 387.092 128.585 386.888C140.392 366.735 149.211 342.244 155.04 313.415C155.081 313.21 155.264 313.068 155.467 313.072L155.543 313.081Z" fill="white"/>
<path id="Path 724" d="M164.32 313.085C164.549 313.143 164.687 313.376 164.63 313.604C161.806 324.808 157.19 332.022 150.758 335.212C150.547 335.316 150.29 335.23 150.185 335.018C150.08 334.807 150.167 334.55 150.378 334.446C156.55 331.385 161.032 324.38 163.801 313.396C163.852 313.192 164.041 313.06 164.244 313.073L164.32 313.085Z" fill="white"/>
<path id="Path 725" d="M175.308 347.998C175.517 347.976 175.706 348.108 175.763 348.302L175.778 348.378L180.127 389.485C180.152 389.72 179.982 389.93 179.747 389.955C179.538 389.977 179.349 389.845 179.292 389.651L179.277 389.575L174.928 348.468C174.903 348.233 175.073 348.023 175.308 347.998Z" fill="#165132"/>
</g>
<path id="Shape_5" opacity="0.1" fill-rule="evenodd" clip-rule="evenodd" d="M538.688 281.167C538.961 281.752 538.76 282.449 538.218 282.8L532.387 286.574C532.707 288.6 532.781 290.635 532.623 292.638L538.79 295.905C539.361 296.207 539.621 296.884 539.4 297.491L536.099 306.561C535.878 307.168 535.244 307.52 534.612 307.384L527.736 305.911C526.571 307.517 525.214 309.001 523.68 310.323L525.75 317.055C525.934 317.654 525.663 318.295 525.112 318.583L516.312 322.688C515.744 322.952 515.072 322.772 514.711 322.266L514.679 322.218L510.852 316.305C508.853 316.63 506.845 316.716 504.865 316.575L501.574 322.79C501.281 323.342 500.638 323.604 500.047 323.42L499.988 323.4L490.917 320.099C490.33 319.885 489.982 319.284 490.083 318.673L491.556 311.788C489.92 310.621 488.409 309.256 487.063 307.709L480.424 309.75C479.825 309.934 479.183 309.663 478.896 309.112L474.791 300.312C474.526 299.744 474.707 299.072 475.212 298.711L475.261 298.679L481.028 294.946C480.679 292.886 480.586 290.815 480.733 288.775L474.689 285.574C474.136 285.281 473.874 284.638 474.058 284.047L474.078 283.988L477.38 274.917C477.593 274.33 478.195 273.982 478.806 274.083L485.503 275.516C486.704 273.829 488.114 272.274 489.719 270.895L487.729 264.424C487.539 263.806 487.833 263.143 488.419 262.87L497.167 258.791C497.752 258.518 498.449 258.718 498.8 259.261L502.479 264.945C504.566 264.602 506.664 264.521 508.728 264.686L511.905 258.689C512.207 258.118 512.884 257.857 513.491 258.078L522.561 261.38C523.168 261.601 523.52 262.235 523.384 262.867L521.951 269.555C523.608 270.754 525.135 272.156 526.489 273.747L533.055 271.729C533.673 271.539 534.335 271.833 534.608 272.419L538.688 281.167ZM522.519 283.239C518.441 274.494 508.046 270.71 499.301 274.788C490.556 278.866 486.773 289.261 490.851 298.006C494.928 306.75 505.323 310.534 514.068 306.456C522.813 302.378 526.597 291.983 522.519 283.239Z" fill="#3F272E"/>
<path id="Shape_6" opacity="0.1" fill-rule="evenodd" clip-rule="evenodd" d="M526.695 235.29C526.679 235.757 526.321 236.14 525.857 236.188L520.861 236.705C520.402 238.116 519.782 239.451 519.022 240.69L521.923 244.819C522.192 245.201 522.137 245.723 521.796 246.041L516.691 250.801C516.35 251.12 515.826 251.138 515.463 250.843L511.517 247.637C510.239 248.289 508.878 248.8 507.455 249.148L506.579 254.165C506.501 254.611 506.116 254.935 505.667 254.94L505.625 254.939L498.649 254.695C498.197 254.68 497.823 254.343 497.757 253.899L497.227 248.791C495.832 248.344 494.51 247.74 493.281 247L489.121 249.923C488.751 250.183 488.25 250.141 487.93 249.828L483.138 244.691C482.83 244.361 482.803 243.859 483.069 243.499L486.278 239.547C485.607 238.258 485.081 236.882 484.722 235.443L479.775 234.579C479.329 234.501 479.004 234.116 479 233.667L479.001 233.625L479.244 226.649C479.26 226.197 479.597 225.823 480.041 225.757L485.024 225.24C485.475 223.798 486.095 222.433 486.86 221.167L484.016 217.121C483.756 216.751 483.799 216.25 484.112 215.93L489.248 211.138C489.579 210.83 490.08 210.803 490.441 211.069L494.285 214.191C495.613 213.498 497.032 212.959 498.518 212.598L499.36 207.775C499.441 207.315 499.848 206.984 500.315 207.001L507.29 207.244C507.757 207.26 508.14 207.618 508.188 208.083L508.692 212.953C510.15 213.417 511.528 214.053 512.804 214.837L516.819 212.016C517.201 211.748 517.723 211.802 518.041 212.144L522.801 217.248C523.12 217.59 523.138 218.114 522.843 218.476L519.724 222.315C520.399 223.631 520.922 225.036 521.272 226.506L526.165 227.361C526.625 227.441 526.955 227.848 526.939 228.315L526.695 235.29ZM515.598 231.317C515.842 224.345 510.387 218.495 503.414 218.251C496.441 218.008 490.591 223.463 490.348 230.435C490.104 237.408 495.559 243.258 502.532 243.501C509.505 243.745 515.355 238.29 515.598 231.317Z" fill="#3F272E"/>
<path id="Path 771" opacity="0.1" fill-rule="evenodd" clip-rule="evenodd" d="M404 139H502C502 139 498.483 124.43 487.057 125.479C475.632 126.528 470.438 133.84 462.28 128.869C454.123 123.898 451.948 113 431.683 113C411.418 113 404 139 404 139Z" fill="#3F272E"/>
<path id="Path 771 Copy" opacity="0.1" fill-rule="evenodd" clip-rule="evenodd" d="M394 95H296C296 95 299.517 80.4297 310.943 81.4788C322.368 82.5279 327.562 89.8397 335.72 84.8688C343.877 79.898 346.052 69 366.317 69C386.582 69 394 95 394 95Z" fill="#3F272E"/>
</g>
</g>
</svg>
