<svg width="606" height="489" viewBox="0 0 606 489" fill="none" xmlns="http://www.w3.org/2000/svg">
<g id="Sleeping">
<rect width="606" height="489" fill="white"/>
<g id="Empty State 6">
<path id="Shape" opacity="0.2" fill-rule="evenodd" clip-rule="evenodd" d="M132.251 334.402L155.754 335.73C339.836 346.212 429.429 353.306 424.533 357.012C416.882 362.802 391.386 362.455 384.492 365.063L383.702 365.366C376.154 368.315 356.895 376.856 349.716 376.856C342.272 376.856 336.487 374.689 321.012 373.289C305.537 371.889 275.125 378.185 259.502 379.461C140.19 383.792 93.0902 363.488 100.44 352.552C105.44 345.112 116.044 339.062 132.251 334.402ZM402.577 325.517L387.488 283.479L394.151 282.832C464.836 276.077 499.054 276.293 496.803 283.479C493.393 294.369 464.891 305.257 445.447 309.675L444.268 309.938C431.538 312.711 423.503 318.381 420.164 326.949L419.983 327.428L402.577 325.517Z" fill="#2A1111"/>
<path id="Shape_2" opacity="0.15" fill-rule="evenodd" clip-rule="evenodd" d="M391 193V267H350V193H391ZM439 193V267H398V193H439ZM391 112V186H350V112H391ZM439 112V186H398V112H439Z" fill="#261D47"/>
<path id="Shape_3" opacity="0.15" fill-rule="evenodd" clip-rule="evenodd" d="M279.5 74C296.897 74 311 88.103 311 105.5C311 122.897 296.897 137 279.5 137C262.103 137 248 122.897 248 105.5C248 88.103 262.103 74 279.5 74ZM279.5 81C265.969 81 255 91.969 255 105.5C255 119.031 265.969 130 279.5 130C293.031 130 304 119.031 304 105.5C304 91.969 293.031 81 279.5 81ZM280.5 85.042V104.951L291.546 111.98L290.473 113.667L278.5 106.049V85.042H280.5Z" fill="#261D47"/>
<path id="Path 773" opacity="0.15" fill-rule="evenodd" clip-rule="evenodd" d="M214.512 81V292.588H70.1951V290.588L212.511 290.588L212.512 81H214.512Z" fill="#261D47"/>
<path id="Shape_4" opacity="0.15" fill-rule="evenodd" clip-rule="evenodd" d="M195 181V290H70V181H195ZM186 257H79V284H186V257ZM133 268C135.761 268 138 270.239 138 273C138 275.761 135.761 278 133 278C130.239 278 128 275.761 128 273C128 270.239 130.239 268 133 268ZM186 222H79V249H186V222ZM133 233C135.761 233 138 235.239 138 238C138 240.761 135.761 243 133 243C130.239 243 128 240.761 128 238C128 235.239 130.239 233 133 233ZM186 187H79V214H186V187ZM133 198C135.761 198 138 200.239 138 203C138 205.761 135.761 208 133 208C130.239 208 128 205.761 128 203C128 200.239 130.239 198 133 198Z" fill="#261D47"/>
<path id="Path 158" fill-rule="evenodd" clip-rule="evenodd" d="M226.278 267.541C226.278 267.541 173.142 269.102 131.424 292.308C89.7069 315.515 94.4274 345.257 131.424 362.455C168.422 379.653 241.423 369.46 266.5 367.117C291.578 364.774 357.334 354.6 390.347 358.82C423.36 363.039 437.659 359.346 441.152 345.524C444.646 331.702 428.194 313.983 407.841 307.167C387.488 300.351 226.278 267.541 226.278 267.541Z" fill="#FAE6CE"/>
<path id="Path" fill-rule="evenodd" clip-rule="evenodd" d="M226.278 267.541L250.208 272.427C319.507 286.626 366.376 296.685 390.814 302.605L392.902 304.054C399.015 308.264 403.749 311.24 407.102 312.979L407.469 313.168C427.449 323.3 420.501 334.281 407.469 338.493L406.675 338.738C393.532 342.608 371.643 340.293 374.721 345.524C376.196 348.03 384.198 352.774 398.726 359.758C396.52 359.55 394.213 359.298 391.804 359.002L390.347 358.82C357.994 354.684 294.195 364.372 268.053 366.967L264.116 367.348C237.075 370.047 167.312 379.137 131.424 362.455C112.273 353.552 101.771 341.289 101.881 328.31C123.198 345.987 176.906 345.813 186.979 329.346C197.687 311.84 189.201 300.351 173.962 300.351C158.724 300.351 132.016 310.933 156.372 298.633C180.728 286.332 206.001 292.308 206.001 285.232C206.001 281.115 199.463 276.734 186.387 272.089C199.098 269.465 212.396 267.949 226.278 267.541Z" fill="#F2D3AD"/>
<path id="Path 602" d="M417.085 311.742C417.258 311.384 417.689 311.235 418.047 311.408C428.66 316.554 436.164 323.512 440.533 332.279C444.265 339.767 443.711 348.066 438.153 353.739C431.521 360.508 418.576 363.139 399.295 360.562L396.95 360.243C369.721 356.619 351.046 358.002 340.973 364.321C340.636 364.532 340.192 364.431 339.981 364.094C339.769 363.757 339.871 363.313 340.208 363.101C350.64 356.556 369.598 355.15 397.129 358.814L398.825 359.044C418.068 361.716 430.796 359.19 437.125 352.731C442.212 347.538 442.722 339.9 439.244 332.921C435.026 324.455 427.759 317.717 417.419 312.704C417.061 312.53 416.911 312.1 417.085 311.742Z" fill="#D84B25"/>
<path id="Path 601" d="M153.072 369.129C173.532 371.983 195.156 372.696 217.944 371.269C218.341 371.244 218.683 371.546 218.708 371.942C218.733 372.339 218.431 372.681 218.034 372.706C195.152 374.139 173.431 373.422 152.873 370.556C152.479 370.501 152.204 370.137 152.259 369.743C152.31 369.382 152.62 369.121 152.974 369.122L153.072 369.129Z" fill="#D84B25"/>
<path id="Path 157" fill-rule="evenodd" clip-rule="evenodd" d="M501.402 266.601C501.402 266.601 531.632 265.443 536.403 261.06C541.174 256.677 514.824 246.213 496.735 248.362C478.645 250.511 501.402 266.601 501.402 266.601Z" fill="#7A3A2C"/>
<path id="Path 156" fill-rule="evenodd" clip-rule="evenodd" d="M297.939 244.34C297.939 244.34 317.957 212.696 356.405 220.701C394.852 228.706 407.941 231.712 435.246 231.712C462.551 231.712 493.487 238.372 503.504 254.841C513.522 271.311 504.583 292.166 460.405 300.351C416.227 308.536 324.073 291.761 324.073 291.761L297.939 244.34Z" fill="#393A5F"/>
<path id="Path_2" fill-rule="evenodd" clip-rule="evenodd" d="M391.848 251.88C420.501 270.416 428.841 285.552 447.579 277.984L452.562 275.978C467.219 270.135 471.754 269.19 481.098 275.663C490.782 282.372 502.996 273.216 506.612 262.216C510.196 277.082 498.189 293.351 460.405 300.351C430.953 305.808 385.509 302.945 324.073 291.761L322.22 288.401L317.907 237.957C348.1 234.881 372.747 239.522 391.848 251.88Z" fill="#272042"/>
<g id="Group 21">
<path id="Path 141" fill-rule="evenodd" clip-rule="evenodd" d="M294.644 368.206C294.644 368.206 317.107 366.355 330.329 372.736C343.551 379.116 355.986 377.266 364.622 372.736C373.258 368.206 374.52 364.154 364.622 354.839C354.724 345.524 332.917 337.004 323.094 337.004C313.271 337.004 294.644 368.206 294.644 368.206Z" fill="#E7AF7F"/>
<path id="Path 585" fill-rule="evenodd" clip-rule="evenodd" d="M296.654 369.748C296.654 369.748 311.392 370.573 313.662 364.19C315.933 357.806 321.673 350.667 327.378 347.823C333.083 344.98 338.464 339.066 335.773 336.46C333.083 333.854 322.701 332.6 322.701 332.6L302.068 352.007L296.654 369.748Z" fill="#393A5F"/>
<path id="Path 137" fill-rule="evenodd" clip-rule="evenodd" d="M353.08 331.125C353.08 331.125 388.951 338.491 408.111 328.663C427.27 318.836 421.765 300.399 408.111 278.894C394.456 257.389 349.947 233.532 299.98 238.661C250.014 243.789 206.323 307.778 202.222 334.586C198.122 361.395 211.998 373.812 231.257 377.916C250.516 382.019 285.689 374.575 297.371 370.971C309.052 367.366 303.095 350.823 317.37 345.476C331.646 340.13 324.665 328.663 324.665 328.663L353.08 331.125Z" fill="#627852"/>
<path id="Path_3" fill-rule="evenodd" clip-rule="evenodd" d="M379.597 283.554C383.396 283.063 388.915 284.971 396.152 289.276C407.009 295.734 412.117 305.141 412.117 314.875C412.117 319.362 410.597 324.052 407.556 328.944C405.125 330.143 402.498 331.141 399.675 331.936C406.542 324.123 406.268 307.394 396.986 297.603C390.257 290.505 382.052 286.251 372.369 284.84L371.58 284.732L379.597 283.554Z" fill="#FAE6CE"/>
<path id="Path_4" fill-rule="evenodd" clip-rule="evenodd" d="M357.938 287.585C386.69 287.585 396.986 307.533 396.986 317.481C396.986 322.704 394.481 328.158 389.472 333.843C386.136 334.195 382.595 334.335 378.849 334.262C385.225 329.436 391.087 320.142 382.965 307.473C376.213 296.941 362.088 292.346 340.591 293.689C345.958 291.24 351.741 289.206 357.938 287.585Z" fill="#FAE6CE"/>
<path id="Shape_5" fill-rule="evenodd" clip-rule="evenodd" d="M266.028 313.168L280.296 315.515C263.2 326.905 253.849 338.807 252.242 351.221C250.963 361.102 252.235 370.229 256.058 378.604C253.025 378.862 250.019 379.033 247.104 379.092C242.379 369.645 241.093 359.412 243.247 348.394C245.989 334.365 253.351 322.797 265.332 313.69L266.028 313.168ZM240.904 315.515L253.252 316.297C239.692 324.512 231.75 334.697 229.426 346.852C227.59 356.462 228.657 366.906 232.629 378.185C232.164 378.101 231.706 378.012 231.257 377.916C228 377.222 224.897 376.29 222.009 375.091C217.467 361.643 216.774 350.573 219.93 341.88C223.8 331.217 230.549 322.592 240.176 316.005L240.904 315.515Z" fill="#FAE6CE"/>
<path id="Path_5" fill-rule="evenodd" clip-rule="evenodd" d="M299.98 238.661C308.755 237.76 317.361 237.753 325.661 238.471C323.274 240.17 321.012 242.126 318.875 244.339C305.117 258.588 310.328 289.02 313.272 292.308C316.215 295.597 329.04 289.02 338.983 286.427C345.612 284.698 354.326 284.257 365.124 285.102L363.017 285.728C350.541 289.465 341.125 292.883 334.767 295.981C328.265 299.149 320.834 304.625 312.473 312.407L311.661 313.168L291.578 321.471L264.419 316.773L260.479 316.464C252.447 315.85 246.803 315.534 243.545 315.516L241.593 315.511C236.137 315.469 228.687 315.029 221.657 310.414C218.588 308.399 217.337 304.769 217.906 299.526C235.712 272.082 266.432 242.104 299.98 238.661Z" fill="#516A3F"/>
<path id="Path 139" d="M387.459 282.098C387.856 282.082 388.191 282.391 388.208 282.788C388.224 283.185 387.915 283.521 387.518 283.537C353.863 284.928 327.104 296.537 307.196 318.37C306.928 318.664 306.473 318.685 306.179 318.417C305.885 318.149 305.864 317.694 306.132 317.4C326.309 295.272 353.433 283.504 387.459 282.098Z" fill="#425A36"/>
<path id="Path 142" d="M330.403 361.526L330.501 361.531C337.966 362.363 345.701 365.659 353.706 371.403C354.029 371.634 354.103 372.084 353.872 372.407C353.64 372.73 353.19 372.804 352.867 372.572C345.05 366.964 337.542 363.765 330.342 362.962C329.946 362.918 329.662 362.562 329.706 362.166C329.746 361.804 330.049 361.535 330.403 361.526Z" fill="#D84B25"/>
<path id="Path 143" d="M338.279 355.011C338.362 354.622 338.745 354.374 339.134 354.457C348.429 356.447 356.677 361.388 363.866 369.263C364.134 369.556 364.114 370.012 363.82 370.28C363.526 370.548 363.071 370.527 362.803 370.233C355.81 362.574 347.824 357.79 338.832 355.865C338.444 355.782 338.196 355.399 338.279 355.011Z" fill="#D84B25"/>
<path id="Path 144" d="M350.564 352.146C350.788 351.817 351.236 351.733 351.564 351.957C359.292 357.225 365.274 363.021 369.506 369.348C369.727 369.678 369.638 370.125 369.308 370.346C368.977 370.568 368.53 370.479 368.309 370.148C364.185 363.984 358.335 358.316 350.753 353.147C350.425 352.923 350.34 352.475 350.564 352.146Z" fill="#D84B25"/>
<path id="Path 586" d="M306.794 362.362L312.61 362.939C313.005 362.978 313.294 363.33 313.255 363.726C313.219 364.089 312.92 364.362 312.565 364.375L312.467 364.372L306.652 363.795C306.256 363.756 305.968 363.403 306.007 363.008C306.043 362.645 306.342 362.372 306.696 362.359L306.794 362.362Z" fill="white"/>
<path id="Path 587" d="M308.066 352.242C308.221 351.916 308.59 351.76 308.926 351.863L309.025 351.902L318.217 356.28C318.576 356.451 318.729 356.881 318.558 357.24C318.402 357.566 318.033 357.722 317.697 357.619L317.598 357.58L308.406 353.202C308.047 353.031 307.895 352.601 308.066 352.242Z" fill="white"/>
<path id="Path 588" d="M318.26 346.478C318.448 346.169 318.831 346.052 319.154 346.188L319.249 346.237L324.318 349.322C324.658 349.529 324.765 349.972 324.559 350.311C324.371 350.62 323.988 350.737 323.664 350.601L323.569 350.552L318.5 347.467C318.161 347.26 318.053 346.817 318.26 346.478Z" fill="white"/>
<path id="Path 589" d="M323.348 340.037C323.552 339.739 323.94 339.641 324.256 339.794L324.349 339.847L331.814 344.929C332.142 345.153 332.227 345.601 332.004 345.93C331.8 346.228 331.411 346.326 331.096 346.173L331.003 346.12L323.538 341.038C323.21 340.814 323.125 340.366 323.348 340.037Z" fill="white"/>
<path id="Path 590" d="M329.847 338.059C330.064 337.771 330.457 337.692 330.765 337.861L330.855 337.918L335.343 341.306C335.66 341.545 335.723 341.997 335.484 342.314C335.266 342.602 334.873 342.681 334.565 342.513L334.475 342.455L329.988 339.068C329.67 338.828 329.607 338.377 329.847 338.059Z" fill="white"/>
<path id="Path 591" d="M209.785 366.597C210.072 366.322 210.528 366.331 210.803 366.618C223.185 379.52 246.281 382.149 280.135 374.386C280.522 374.297 280.908 374.539 280.997 374.927C281.086 375.314 280.844 375.701 280.457 375.79C246.16 383.654 222.581 380.97 209.764 367.615C209.489 367.329 209.498 366.873 209.785 366.597Z" fill="#425A36"/>
<path id="Path 592" fill-rule="evenodd" clip-rule="evenodd" d="M338.983 331.35C338.983 331.35 349.463 333.166 353.286 327.428C357.11 321.69 353.286 314.919 346.135 311.045C338.983 307.171 324.805 302.738 307.961 313.168C291.118 323.598 338.983 331.35 338.983 331.35Z" fill="#393A5F"/>
<path id="Path 593" d="M353.03 324.049C353.418 323.963 353.803 324.209 353.888 324.597C353.967 324.953 353.767 325.305 353.434 325.428L353.34 325.455L346.403 326.986C346.014 327.072 345.63 326.826 345.544 326.438C345.466 326.082 345.665 325.73 345.998 325.607L346.092 325.58L353.03 324.049Z" fill="white"/>
<path id="Path 594" d="M352.041 314.251C352.385 314.053 352.826 314.171 353.024 314.515C353.205 314.829 353.123 315.221 352.848 315.439L352.76 315.499L343.719 320.71C343.374 320.909 342.934 320.79 342.735 320.446C342.555 320.133 342.636 319.74 342.911 319.522L342.999 319.462L352.041 314.251Z" fill="white"/>
<path id="Path 595" d="M342.845 308.732C343.124 308.449 343.58 308.445 343.863 308.723C344.119 308.974 344.148 309.368 343.948 309.651L343.873 309.741L338.336 315.38C338.058 315.663 337.602 315.667 337.318 315.389C337.063 315.138 337.034 314.744 337.234 314.461L337.309 314.371L342.845 308.732Z" fill="white"/>
<path id="Path 596" d="M332.095 306.268C332.338 305.953 332.791 305.895 333.105 306.138C333.391 306.359 333.465 306.753 333.294 307.059L333.235 307.148L328.246 313.608C328.003 313.922 327.551 313.981 327.236 313.737C326.95 313.516 326.876 313.123 327.047 312.816L327.106 312.727L332.095 306.268Z" fill="white"/>
<path id="Path 597" d="M321.368 307.1C321.574 306.76 322.017 306.651 322.357 306.857C322.666 307.045 322.784 307.428 322.648 307.751L322.599 307.846L320.656 311.05C320.449 311.39 320.007 311.499 319.667 311.292C319.358 311.105 319.24 310.722 319.376 310.398L319.424 310.303L321.368 307.1Z" fill="white"/>
<path id="Path 598" d="M413.717 324.19C414.027 323.941 414.48 323.992 414.729 324.302C414.977 324.613 414.927 325.066 414.616 325.314C402.921 334.675 385.772 337.323 363.208 333.309C362.817 333.239 362.556 332.865 362.626 332.474C362.695 332.082 363.069 331.821 363.461 331.891C385.652 335.839 402.391 333.255 413.717 324.19Z" fill="#425A36"/>
<path id="Path 599" fill-rule="evenodd" clip-rule="evenodd" d="M332.251 266.814C337.183 262.272 344.698 260.001 354.796 260.001L355.889 260.009C373.219 260.261 365.678 266.593 352.4 270.416C345.621 272.368 339.571 272.855 334.25 271.877L333.615 271.752C332.058 271.428 331.058 269.903 331.383 268.346C331.505 267.757 331.809 267.221 332.251 266.814Z" fill="#516A3F"/>
</g>
<path id="Path 149" fill-rule="evenodd" clip-rule="evenodd" d="M238.619 292.612C238.619 292.612 234.646 289.123 229.572 290.741C224.499 292.358 222.32 307.99 238.619 310.098C254.918 312.206 251.716 300.277 251.716 300.277L238.619 292.612Z" fill="#E7AF7F"/>
<path id="Path 150" fill-rule="evenodd" clip-rule="evenodd" d="M302.551 256.902C302.551 256.902 300.177 222.297 291.578 217.475C282.979 212.654 275.922 217.475 275.922 217.475C275.922 217.475 272.087 201.457 258.758 203.164C245.43 204.872 231.512 214.448 216.506 244.339C201.501 274.231 183.942 264.787 183.942 264.787C183.942 264.787 197.565 283.518 226.277 275.663C254.99 267.809 292.698 272.03 292.698 272.03L302.551 256.902Z" fill="#7A3A2C"/>
<path id="Path 149 Copy" fill-rule="evenodd" clip-rule="evenodd" d="M289.456 257.206C289.456 257.206 287.366 252.349 290.472 248.023C293.578 243.698 309.118 246.457 306.086 262.609C303.054 278.762 292.698 272.03 292.698 272.03L289.456 257.206Z" fill="#E7AF7F"/>
<path id="Path 148" fill-rule="evenodd" clip-rule="evenodd" d="M226.278 275.277C226.278 275.277 239.881 308.925 260.761 316.681C275.662 316.681 308.297 324.955 306.664 320.235C305.032 315.515 302.974 300.413 302.974 284.539C302.974 268.664 290.486 245.332 267.647 236.258C245.579 268.131 226.278 275.277 226.278 275.277Z" fill="#E7AF7F"/>
<path id="Path_6" fill-rule="evenodd" clip-rule="evenodd" d="M302.881 285.921L302.975 285.214L302.987 286.748C303.164 301.796 305.107 315.735 306.664 320.235C307.706 323.247 294.794 320.968 281.44 318.924C285.96 318.276 289.34 316.783 291.578 314.447C297.291 308.485 301.059 298.976 302.881 285.921Z" fill="#D49763"/>
<path id="Path 140" d="M236.397 314.795C264.25 314.819 289.2 318.803 311.245 326.751C311.619 326.885 311.813 327.298 311.678 327.672C311.544 328.046 311.131 328.24 310.757 328.105C288.875 320.216 264.089 316.258 236.396 316.235C235.998 316.235 235.676 315.912 235.676 315.514C235.677 315.117 235.999 314.795 236.397 314.795Z" fill="#425A36"/>
<path id="Path 151" d="M277.022 252.854C277.406 252.752 277.801 252.981 277.903 253.365C278.005 253.75 277.776 254.144 277.391 254.246C255.349 260.094 254.502 271.594 274.983 289.689C275.281 289.952 275.309 290.407 275.045 290.705C274.782 291.003 274.327 291.031 274.029 290.768C252.772 271.987 253.726 259.035 277.022 252.854Z" fill="#D84B25"/>
<path id="Path 583" d="M279.735 242.666C279.984 242.357 280.437 242.308 280.747 242.557C294.304 253.467 301.826 265.585 303.267 278.896L303.552 281.624C303.938 285.479 304.149 288.455 304.386 293.066L304.731 300.132C304.821 301.836 304.907 303.105 305.022 304.427C305.407 308.852 306.086 312.828 307.361 317.703C307.461 318.088 307.231 318.481 306.846 318.582C306.462 318.682 306.068 318.452 305.968 318.067C304.749 313.404 304.063 309.537 303.66 305.342L303.587 304.552C303.479 303.309 303.397 302.115 303.313 300.576L302.922 292.645C302.644 287.34 302.393 284.202 301.835 279.051C300.438 266.151 293.123 254.365 279.844 243.679C279.534 243.429 279.485 242.976 279.735 242.666Z" fill="#D84B25"/>
<path id="Path 138" fill-rule="evenodd" clip-rule="evenodd" d="M343.359 320.086C340.325 317.593 329.131 310.596 306.697 314.159C284.263 317.723 277.871 338.358 281.067 342.19C284.263 346.021 295.313 346.321 306.697 344.256C318.081 342.19 341.409 333.012 344.443 329.396C347.477 325.78 346.393 322.579 343.359 320.086Z" fill="#E7AF7F"/>
<path id="Path 145" d="M308.477 322.592C308.852 322.46 309.263 322.658 309.395 323.033C309.527 323.408 309.329 323.819 308.954 323.951C298.931 327.468 291.903 334.725 287.837 345.773C287.7 346.146 287.286 346.337 286.913 346.2C286.54 346.063 286.349 345.649 286.486 345.276C290.696 333.835 298.037 326.256 308.477 322.592Z" fill="#D84B25"/>
<path id="Path 146" d="M318.696 328.648C319.081 328.55 319.473 328.782 319.572 329.167C319.671 329.553 319.438 329.945 319.053 330.043C311.504 331.975 305.146 336.069 299.962 342.339C299.708 342.645 299.254 342.688 298.948 342.435C298.641 342.182 298.598 341.728 298.852 341.421C304.229 334.919 310.849 330.657 318.696 328.648Z" fill="#D84B25"/>
<path id="Path 147" d="M299.146 319.564C299.517 319.42 299.934 319.604 300.078 319.974C300.222 320.345 300.038 320.762 299.667 320.906C293.652 323.243 288.557 328.699 284.398 337.317C284.225 337.675 283.794 337.825 283.436 337.652C283.078 337.479 282.928 337.049 283.101 336.691C287.406 327.771 292.75 322.049 299.146 319.564Z" fill="#D84B25"/>
<path id="Path 152" d="M252.242 269.696C252.64 269.696 252.962 270.018 252.962 270.416C252.962 270.813 252.64 271.136 252.242 271.136C242.987 271.136 237.128 273.867 234.53 279.285C234.359 279.644 233.929 279.795 233.57 279.623C233.211 279.451 233.06 279.021 233.232 278.663C236.105 272.67 242.486 269.696 252.242 269.696Z" fill="#D84B25"/>
<path id="Path 153" d="M254.131 275.985C254.405 275.697 254.861 275.686 255.149 275.96C255.437 276.234 255.448 276.69 255.174 276.978C250.443 281.948 244.467 284.94 237.271 285.945C236.877 286 236.513 285.725 236.458 285.331C236.403 284.937 236.678 284.574 237.072 284.519C243.951 283.558 249.628 280.716 254.131 275.985Z" fill="#633A27"/>
<path id="Path 154" d="M283.16 259.587C283.389 259.262 283.838 259.184 284.164 259.412C284.489 259.641 284.567 260.09 284.338 260.416C280.54 265.813 274.633 269.379 266.654 271.119C266.265 271.204 265.882 270.958 265.797 270.569C265.712 270.181 265.959 269.797 266.347 269.712C273.992 268.045 279.584 264.669 283.16 259.587Z" fill="#633A27"/>
<path id="Path 155" d="M286.572 291.895C286.8 291.57 287.249 291.491 287.575 291.719C287.901 291.947 287.98 292.396 287.751 292.722C283.225 299.181 276.825 303.739 268.574 306.387C268.196 306.509 267.79 306.3 267.669 305.922C267.547 305.543 267.756 305.137 268.134 305.016C276.093 302.461 282.231 298.09 286.572 291.895Z" fill="#D84B25"/>
<path id="Path 582" d="M229.133 282.16C229.496 281.998 229.922 282.161 230.084 282.524C236.228 296.277 245.062 306.708 256.592 313.835C256.931 314.044 257.035 314.488 256.826 314.826C256.617 315.164 256.173 315.269 255.835 315.06C244.052 307.776 235.028 297.121 228.769 283.112C228.607 282.748 228.77 282.323 229.133 282.16Z" fill="#D84B25"/>
<path id="Path 584" d="M318.875 312.448C319.272 312.448 319.595 312.77 319.595 313.168C319.595 313.565 319.272 313.888 318.875 313.888C299.237 313.888 287.13 320.394 282.38 333.391C282.244 333.765 281.83 333.957 281.457 333.821C281.083 333.684 280.891 333.271 281.028 332.897C286.012 319.259 298.685 312.448 318.875 312.448Z" fill="#D84B25"/>
<path id="Path 600" d="M155.244 280.184C155.615 280.042 156.031 280.229 156.173 280.6C156.314 280.972 156.128 281.388 155.756 281.529C135.961 289.062 120.187 298.86 108.426 310.917C91.1623 328.616 109.759 358.308 143.564 366.417C143.951 366.509 144.189 366.898 144.097 367.285C144.004 367.671 143.615 367.91 143.229 367.817C108.501 359.487 89.1599 328.606 107.395 309.912C119.311 297.695 135.263 287.787 155.244 280.184Z" fill="#D84B25"/>
</g>
</g>
</svg>
