<svg width="606" height="489" viewBox="0 0 606 489" fill="none" xmlns="http://www.w3.org/2000/svg">
<g id="Stranded">
<rect width="606" height="489" fill="white"/>
<g id="Empty State 20">
<path id="Path 769" opacity="0.2" fill-rule="evenodd" clip-rule="evenodd" d="M152.108 313.344C152.108 313.344 444.095 313.344 450.15 313.344C456.204 313.344 443.293 280.801 401.647 280.801C360 280.801 320.48 283.379 296.283 247.476C272.086 211.574 210.535 212.164 181.321 244C152.108 275.836 152.108 313.344 152.108 313.344Z" fill="#B3E1D4"/>
<path id="Path 770" opacity="0.2" fill-rule="evenodd" clip-rule="evenodd" d="M349.287 263.586C379.688 271.363 398.65 267.061 401.773 254.337C404.895 241.614 383.43 221.527 362.689 213.799C341.949 206.071 317.95 200.015 307.572 213.799C297.193 227.583 318.885 255.81 349.287 263.586Z" fill="#B3E1D4"/>
<path id="Path 522" opacity="0.1" fill-rule="evenodd" clip-rule="evenodd" d="M284.924 350.242C284.924 350.242 231.568 372.842 218.568 380.37C205.568 387.897 205.549 399.86 239.895 397.367C274.24 394.873 300.426 378.404 306.482 369.57C312.539 360.735 284.924 350.242 284.924 350.242Z" fill="#1A4514"/>
<path id="Path 533" fill-rule="evenodd" clip-rule="evenodd" d="M261.568 372.728C261.568 372.728 265.688 345.587 268.568 342.145C271.448 338.704 271.041 348.896 272.447 348.896C273.853 348.896 274.568 336.769 280.761 334.467C286.954 332.165 283.672 353.709 292.465 353.598C301.258 353.486 329.162 334.406 332.353 337.418C335.544 340.431 321.093 355.054 326.008 353.598C330.922 352.142 334.439 345.621 330.922 352.266C327.406 358.912 313.864 367.843 308.342 370.285C302.82 372.728 261.568 372.728 261.568 372.728Z" fill="#B3E1B7"/>
<path id="Path 532" fill-rule="evenodd" clip-rule="evenodd" d="M281.584 359.458C281.584 359.458 284.823 208.899 415.509 179.727C397.568 164.457 379.358 170.428 374.379 173.501C369.4 176.574 362.627 181.922 360.649 180.825C358.672 179.727 363.148 163.545 363.148 163.545C363.148 163.545 333.742 176.102 309.567 168.475C285.393 160.848 330.69 133.486 360.649 133.486C390.609 133.486 414.46 145.026 426.229 168.475C428.459 155.643 421.228 135.378 396.195 129.1C396.195 124.766 408.212 121.192 408.212 121.192C408.212 121.192 386.609 121.249 372.369 118.735C358.13 116.221 341.949 116.707 341.949 116.707C341.949 116.707 366.161 98.3979 396.195 101.613C426.229 104.829 449.581 130.145 430.109 173.501C455.535 163.545 474.415 169.128 484.475 179.727C494.535 190.326 488.18 222.225 484.475 225.176C480.77 228.128 481.677 203.022 467.977 191.923C467.977 209.072 467.441 205.723 456.851 191.923C446.26 178.124 426.229 180.825 426.229 180.825C426.229 180.825 453.338 195.392 456.851 222.832C460.363 250.273 435.918 287.762 382.532 303.542C388.631 286.26 422.807 264.458 415.509 236.443C408.212 243.662 398.526 253.452 398.526 251.434C398.526 249.417 416.782 219.924 421.505 211.954C426.229 203.984 430.456 191.188 418.362 185.458C366.516 211.954 361.547 216.136 330.922 273.508C300.297 330.881 281.584 359.458 281.584 359.458Z" fill="#D7F3D9"/>
<path id="Path" fill-rule="evenodd" clip-rule="evenodd" d="M349.287 240.761L348.864 241.444L348.134 242.641C343.732 249.895 338.969 258.508 333.326 269.018L328.491 278.052C309.196 314.033 293.56 341.168 281.584 359.458C283.04 291.753 303.826 242.458 343.942 211.574C346.59 221.701 348.37 231.429 349.287 240.761Z" fill="#B3E1B7"/>
<g id="Group 59">
<path id="Path 528" fill-rule="evenodd" clip-rule="evenodd" d="M288.212 154.831C288.212 154.831 302.583 141.232 322.266 141.232C341.949 141.232 358.107 170.792 334.502 191.923C336.076 176.27 329.256 164.977 319.876 160.777C319.876 166.578 321.141 168.172 317.015 166.578C312.889 164.983 288.212 154.831 288.212 154.831Z" fill="#B3E1B7"/>
<path id="Path 529" fill-rule="evenodd" clip-rule="evenodd" d="M291.183 153.276C291.183 153.276 311.928 138.943 314.574 121.635C317.221 104.328 307.845 93.5809 298.029 90.7231C288.212 87.8653 264.88 96.3018 264.88 96.3018C264.88 96.3018 286.54 107.959 296.918 109.794C288.212 114.248 291.346 114.428 296.918 117.328C302.49 120.228 300.726 139.216 289.954 149.358C279.182 159.5 291.183 153.276 291.183 153.276Z" fill="#B3E1B7"/>
<path id="Path 525" fill-rule="evenodd" clip-rule="evenodd" d="M259.479 372.728C259.479 372.728 281.926 385.888 308.342 370.286C327.739 337.729 341.949 302.179 341.949 249.223C341.949 196.266 313.042 167.579 292.358 153.926C292.358 133.35 274.174 98.7483 243.291 92.4598C212.408 86.1714 173.926 98.8474 168.335 100.646C162.745 102.444 194.573 107.131 205.436 107.131C216.3 107.131 227.018 105.185 227.018 107.131C227.018 109.077 220.687 112.075 221.973 113.009C223.258 113.944 236.699 112.075 237.61 113.009C238.522 113.944 239.191 122.656 249.335 129.1C229.171 120.644 200.75 115.611 174.976 126.997C149.202 138.383 128.885 156.246 118.75 161.781C108.614 167.315 144.515 171.364 174.976 152.099C173.131 158.917 175.732 160.832 190.584 156.466C205.436 152.099 217.901 140.399 217.901 142.684C217.901 144.969 217.619 147.347 221.973 148.057C226.326 148.767 229.474 150.936 229.474 150.936C229.474 150.936 210.012 155.116 179.898 184.614C149.784 214.111 139.783 215.977 139.783 217.833C139.783 219.69 176.351 229.732 197.126 222.12C217.901 214.508 240.667 191.856 243.291 191.856C245.915 191.856 245.671 205.209 243.291 208.968C240.912 212.726 253.819 211.251 259.479 196.451C265.139 181.65 267.865 169.606 274.21 164.302C280.554 158.999 284.8 156.466 284.8 156.466C284.8 156.466 314.455 174.563 320.124 236.854C325.792 299.144 259.479 372.728 259.479 372.728Z" fill="#D7F3D9"/>
<path id="Path 530" d="M299.277 163.276C299.425 163.077 299.707 163.035 299.907 163.184C321.95 179.589 334.278 218.022 330.779 263.025C328.369 294.022 314.305 330.664 288.597 372.962C288.468 373.174 288.191 373.242 287.979 373.113C287.766 372.984 287.699 372.707 287.828 372.495C313.469 330.308 327.484 293.791 329.882 262.955C333.359 218.232 321.127 180.099 299.369 163.906C299.17 163.757 299.128 163.475 299.277 163.276Z" fill="#99D29E"/>
<path id="Path_2" fill-rule="evenodd" clip-rule="evenodd" d="M289.472 377.867C278.943 379.991 268.946 378.278 259.479 372.728C274.088 356.517 286.077 340.717 295.446 325.328L295.583 326.981C297.505 351.06 295.468 368.022 289.472 377.867Z" fill="#99D29E"/>
<path id="Path 526" d="M229.353 150.502C246.668 145.671 264.134 146.456 281.738 152.853C281.971 152.938 282.092 153.196 282.007 153.43C281.922 153.663 281.664 153.784 281.43 153.699C264.001 147.365 246.727 146.589 229.595 151.369C229.356 151.436 229.108 151.296 229.041 151.057C228.974 150.817 229.114 150.569 229.353 150.502Z" fill="#99D29E"/>
<path id="Path 527" d="M248.927 128.911C249.031 128.685 249.298 128.587 249.524 128.692C264.398 135.58 275.773 142.757 283.652 150.229C283.832 150.4 283.84 150.685 283.669 150.865C283.498 151.046 283.213 151.053 283.032 150.882C275.233 143.486 263.937 136.359 249.146 129.508C248.92 129.404 248.822 129.136 248.927 128.911Z" fill="#99D29E"/>
<path id="Path 531" d="M241.266 185.298L241.451 184.937C251.857 164.692 263.442 154.746 276.226 155.193C276.474 155.202 276.669 155.41 276.66 155.659C276.651 155.907 276.443 156.101 276.194 156.093C263.71 155.656 252.284 165.58 241.939 185.961C241.859 186.117 241.696 186.213 241.52 186.207C234.716 185.947 228.287 187.243 220.976 190.083C218.127 191.19 215.209 192.495 211.492 194.292L209.138 195.447C206.641 196.685 200.926 199.52 198.859 200.512C182.709 208.269 169.358 212.552 152.152 214.247C151.904 214.271 151.684 214.09 151.66 213.843C151.635 213.596 151.816 213.375 152.064 213.351C168.816 211.7 181.885 207.581 197.528 200.151L200.282 198.819C203.696 197.146 209.359 194.33 209.896 194.068L211.103 193.48C214.839 191.674 217.776 190.361 220.65 189.244C227.821 186.458 234.179 185.133 240.862 185.286L241.266 185.298Z" fill="#99D29E"/>
</g>
<g id="Group 58">
<path id="Path 523" fill-rule="evenodd" clip-rule="evenodd" d="M251.163 381.441C251.163 381.441 243.413 386.549 240.577 389.148C237.74 391.747 244.193 391.376 251.809 389.148C259.424 386.919 261.89 383.245 260.781 380.825C259.673 378.404 251.163 381.441 251.163 381.441Z" fill="#3F272E"/>
<path id="Path 524" fill-rule="evenodd" clip-rule="evenodd" d="M235.961 380.12C235.961 380.12 222.728 383.705 219.064 385.966C215.4 388.227 233.072 388.336 238.157 387.151C243.241 385.966 242.629 379.751 242.629 379.751L235.961 380.12Z" fill="#3F272E"/>
<path id="Path_3" fill-rule="evenodd" clip-rule="evenodd" d="M259.933 309.443C270.139 309.443 277.293 311.51 281.394 315.644C285.345 319.626 287.592 325.29 288.134 332.637C288.17 332.912 288.189 333.194 288.189 333.482L288.194 334.52C288.252 340.485 288.791 349.711 289.812 362.199L289.937 363.713L281.394 366.134L271.437 351.222L266.613 334.688C264.905 334.957 262.759 334.978 259.933 334.576C247.964 332.874 243.565 329.164 240.054 329.052L239.893 329.049C236.354 329.049 234.908 330.803 241.602 322.097C246.065 316.294 252.175 312.076 259.933 309.443Z" fill="#FF4740"/>
<g id="Group 57">
<path id="Path 515" fill-rule="evenodd" clip-rule="evenodd" d="M258.724 311.753C258.724 311.753 262.379 317.82 262.897 319.457C263.415 321.093 272.086 314.781 272.086 306.162C272.086 297.543 258.724 311.753 258.724 311.753Z" fill="#F7BD81"/>
<path id="Path_4" fill-rule="evenodd" clip-rule="evenodd" d="M270.883 309.443C268.773 314.019 265.772 316.619 261.879 317.245L261.568 316.663C261.127 315.85 260.583 314.892 259.935 313.788C265.298 314.905 267.695 312.669 270.883 309.443Z" fill="#EF7C5B"/>
<path id="Path 511" fill-rule="evenodd" clip-rule="evenodd" d="M252.427 298.449C252.427 298.449 249.471 293.102 248.642 287.208C247.813 281.315 249.059 276.523 252.427 275.931C255.795 275.338 260.873 278.469 260.873 278.469C260.873 278.469 261.361 275.618 263.898 276.446C266.434 277.274 268.099 280.209 269.597 280.209C271.095 280.209 273.253 279.034 274.944 280.636C276.635 282.238 275.899 284.463 278.028 285.183C280.156 285.903 281.946 287.744 281.051 289.594C280.156 291.444 278.028 292.189 278.028 293.71C278.028 295.23 279.976 296.746 272.601 299.992C265.227 303.237 252.427 298.449 252.427 298.449Z" fill="#FF7B58"/>
<path id="Path 510" fill-rule="evenodd" clip-rule="evenodd" d="M253.254 296.117C253.254 296.117 252.868 294.787 251.023 295.452C249.177 296.117 249.177 301.669 253.254 301.669C257.331 301.669 253.254 296.117 253.254 296.117Z" fill="#F7BD81"/>
<path id="Path 509" fill-rule="evenodd" clip-rule="evenodd" d="M252.863 291.96C252.863 291.96 251.888 295.698 253.302 304.363C254.717 313.029 260.091 315.104 265.109 314.084C270.128 313.063 272.406 307.911 273.071 302.368C275.652 303.612 277.333 302.067 277.909 299.952C278.485 297.838 276.975 293.366 273.071 296.234C272.091 292.909 270.608 290.555 271.157 287.473C262.743 289.038 261.577 286.4 258.156 287.473C254.736 288.546 252.863 291.96 252.863 291.96Z" fill="#F7BD81"/>
<path id="Path 512" d="M254.382 294.533C257.335 293.333 259.278 293.56 259.994 295.371L260.05 295.528C260.257 296.164 260.237 296.954 260.054 299.179L259.948 300.512L259.938 300.659C259.804 302.638 259.868 303.927 260.22 304.769C260.61 305.703 261.341 305.969 262.747 305.47C262.981 305.387 263.238 305.51 263.321 305.744C263.404 305.978 263.282 306.236 263.048 306.319C261.215 306.968 259.975 306.517 259.39 305.116C258.991 304.161 258.906 302.876 259.017 300.964L259.073 300.141L259.216 298.354C259.335 296.739 259.322 296.12 259.157 295.702C258.679 294.494 257.272 294.33 254.721 295.367C254.491 295.46 254.228 295.349 254.135 295.119C254.041 294.889 254.152 294.626 254.382 294.533Z" fill="#EF7C5B"/>
<path id="Path 513" d="M263.124 294.887C264.855 293.418 267.238 293.524 270.197 295.129C270.415 295.247 270.496 295.52 270.378 295.739C270.26 295.957 269.986 296.038 269.768 295.92C267.102 294.474 265.106 294.385 263.706 295.573C263.517 295.734 263.233 295.711 263.072 295.521C262.911 295.332 262.934 295.048 263.124 294.887Z" fill="#EF7C5B"/>
<path id="Path_5" fill-rule="evenodd" clip-rule="evenodd" d="M256.078 296.669C256.869 296.669 257.517 297.689 257.574 298.982L257.578 299.242L256.723 299.242C256.447 299.242 256.223 299.466 256.223 299.742C256.223 299.988 256.4 300.192 256.634 300.234L256.723 300.242L257.433 300.243C257.192 301.086 256.676 301.669 256.078 301.669C255.25 301.669 254.578 300.549 254.578 299.169C254.578 297.788 255.25 296.669 256.078 296.669Z" fill="#D0522D"/>
<path id="Path Copy 15" fill-rule="evenodd" clip-rule="evenodd" d="M265.723 296.669C266.514 296.669 267.162 297.689 267.219 298.982L267.223 299.242L266.368 299.242C266.092 299.242 265.868 299.466 265.868 299.742C265.868 299.988 266.045 300.192 266.279 300.234L266.368 300.242L267.078 300.243C266.837 301.086 266.321 301.669 265.723 301.669C264.895 301.669 264.223 300.549 264.223 299.169C264.223 297.788 264.895 296.669 265.723 296.669Z" fill="#D0522D"/>
<path id="Path 514" d="M259.72 309.047C261.545 308.066 264.061 307.745 267.267 308.063C267.515 308.088 267.695 308.308 267.67 308.556C267.646 308.803 267.425 308.984 267.178 308.959C264.135 308.656 261.79 308.956 260.146 309.839C259.927 309.957 259.654 309.875 259.536 309.656C259.419 309.437 259.501 309.164 259.72 309.047Z" fill="#EF7C5B"/>
<path id="Path 726" d="M272.838 298.003C273.085 297.972 273.31 298.147 273.34 298.394C274.332 306.359 271.968 311.838 266.249 314.724C266.027 314.836 265.756 314.747 265.644 314.525C265.532 314.303 265.622 314.033 265.843 313.921C271.194 311.221 273.395 306.118 272.447 298.505C272.417 298.258 272.592 298.034 272.838 298.003Z" fill="#EF7C5B"/>
<path id="Path 727" d="M252.472 294.463C252.72 294.467 252.919 294.672 252.915 294.92C252.779 303.752 254.447 309.546 257.861 312.32C258.054 312.477 258.084 312.76 257.927 312.953C257.77 313.146 257.487 313.175 257.294 313.018C253.615 310.03 251.875 303.987 252.015 294.906C252.019 294.658 252.223 294.459 252.472 294.463Z" fill="#EF7C5B"/>
</g>
<path id="Path 517" fill-rule="evenodd" clip-rule="evenodd" d="M260.811 325.816C267.223 322.943 274.102 326.646 275.343 332.144C276.583 337.642 281.027 360.072 282.469 361.223C283.911 362.374 289.937 362.9 289.937 363.713C289.937 364.526 288.713 375.661 283.716 378.404C278.719 381.148 269.917 380.899 265.246 378.404C261.615 382.001 251.163 381.337 251.163 381.337V378.404C251.163 378.404 247.637 380.917 235.961 380.12C235.961 372.437 239.179 342.534 242.183 335.589C245.186 328.644 247.358 326.272 251.163 325.054C254.968 323.836 256.638 324.052 260.811 325.816Z" fill="#307A53"/>
<path id="Path_6" fill-rule="evenodd" clip-rule="evenodd" d="M240.277 342.666L278.819 348.265L279.115 349.573C279.657 351.951 280.195 354.209 280.689 356.095L280.342 356.567C278.605 358.951 276.063 362.844 274.74 367.951L274.595 368.535C273.404 373.548 273.572 379.084 281.884 379.221C276.779 381.063 269.388 380.617 265.246 378.404C268.645 376.329 270.344 370.439 270.344 360.735C269.579 357.044 253.117 355.942 252.787 355.942C252.567 355.942 252.026 363.644 251.164 379.05L251.163 378.404C250.066 379.186 248.377 379.727 246.097 380.028L246.158 379.648C247.823 369.096 248.204 362.25 247.3 359.108C246.431 356.088 243.483 354.305 238.454 353.756L238.68 352.157C239.178 348.717 239.718 345.45 240.277 342.666Z" fill="#0E2042"/>
<path id="Path 731" d="M268.211 339.832C268.863 338.981 269.677 339.133 270.288 340.103C270.764 340.859 271.24 342.21 271.756 344.216L271.984 345.131C272.732 348.238 273.568 352.665 274.723 359.51L275.184 362.264C276.382 369.487 278.421 373.049 280.549 372.93C282.49 372.821 284.55 369.613 285.6 364.787C285.653 364.544 285.893 364.39 286.136 364.443C286.378 364.496 286.532 364.736 286.48 364.978C285.351 370.163 283.088 373.689 280.6 373.828C277.864 373.981 275.646 370.197 274.366 362.825L273.576 358.133C272.444 351.507 271.629 347.332 270.885 344.44L270.712 343.789C270.285 342.227 269.89 341.16 269.526 340.582L269.408 340.402C269.197 340.099 269.12 340.126 268.925 340.379C267.827 341.813 266.313 353.206 264.516 374.011C264.495 374.259 264.277 374.442 264.029 374.421C263.782 374.399 263.598 374.181 263.62 373.934L264.058 368.976C265.694 350.927 267.044 341.354 268.211 339.832Z" fill="white"/>
<path id="Path 518" d="M254.49 342.622C254.734 342.665 254.897 342.899 254.854 343.144L254.74 343.821C253.978 348.62 252.934 360.168 251.612 378.437C251.594 378.685 251.379 378.871 251.131 378.853C250.883 378.835 250.697 378.62 250.714 378.372L251.204 371.745C252.362 356.408 253.283 346.828 253.968 342.986C254.006 342.768 254.195 342.615 254.409 342.615L254.49 342.622Z" fill="white"/>
<path id="Path 519" d="M260.551 325.449C260.753 325.305 261.034 325.353 261.178 325.555C261.322 325.758 261.274 326.039 261.072 326.183C258.462 328.038 256.723 331.478 255.878 336.528C255.837 336.773 255.605 336.938 255.36 336.897C255.115 336.856 254.95 336.624 254.991 336.379C255.871 331.114 257.717 327.463 260.551 325.449Z" fill="white"/>
<path id="Path 520" d="M270.344 360.285C270.593 360.285 270.794 360.486 270.794 360.735C270.794 369.805 269.116 375.811 265.698 378.746C265.51 378.908 265.226 378.886 265.064 378.698C264.902 378.509 264.923 378.225 265.112 378.063C268.28 375.342 269.894 369.568 269.894 360.735C269.894 360.486 270.096 360.285 270.344 360.285Z" fill="white"/>
<path id="Path 516" fill-rule="evenodd" clip-rule="evenodd" d="M288.134 332.637C285.617 329.381 279.035 327.873 273.798 327.873C270.344 334.166 266.286 337.889 258.724 339.01C251.163 340.131 243.065 333.441 243.065 333.441L244.856 330.278C244.856 330.278 242.07 327.791 236.909 328.703C232.584 335.81 233.12 345.163 240.757 349.013C248.394 352.864 263.869 350.714 267.107 351.789C270.344 352.864 279.479 353.509 281.394 351.789C283.309 350.069 284.584 341.824 284.584 341.824C284.584 341.824 288.134 336.453 288.134 332.637Z" fill="#F7BD81"/>
<path id="Path_7" fill-rule="evenodd" clip-rule="evenodd" d="M246.547 335.972C250.716 338.583 254.775 339.595 258.724 339.01C261.793 338.555 264.284 337.672 266.392 336.362C268.467 337.684 271.277 338.751 273.054 339.824L273.394 340.039C275.062 341.137 278.068 341.892 282.413 342.302C280.985 343.201 279.366 343.478 277.558 343.132L277.236 343.065C274.46 342.43 272.399 342.644 269.873 343.59L269.236 343.834C266.752 344.754 263.434 344.102 255.788 341.922C251.272 340.635 249.888 338.815 246.968 336.339L246.547 335.972Z" fill="#EF7C5B"/>
<path id="Path 521" d="M274.682 320.862C274.93 320.862 275.132 321.064 275.132 321.312C275.132 323.931 274.831 326.164 274.226 328.013C274.149 328.249 273.894 328.378 273.658 328.301C273.422 328.223 273.293 327.969 273.37 327.733C273.943 325.982 274.232 323.842 274.232 321.312C274.232 321.064 274.433 320.862 274.682 320.862Z" fill="white"/>
<path id="Path 728" d="M281.105 349.875C281.342 349.799 281.595 349.93 281.67 350.167C281.745 350.404 281.615 350.657 281.378 350.732C278.875 351.528 276.256 351.795 273.525 351.534C273.278 351.51 273.096 351.291 273.12 351.043C273.144 350.796 273.364 350.614 273.611 350.638C276.222 350.888 278.719 350.633 281.105 349.875Z" fill="#EF7C5B"/>
<path id="Path 729" d="M273.78 347.294L275.236 347.418C278.36 347.666 280.744 347.74 282.383 347.641C282.631 347.626 282.845 347.815 282.86 348.063C282.875 348.311 282.686 348.524 282.438 348.539L281.91 348.564C279.985 348.635 277.25 348.51 273.7 348.19C273.452 348.168 273.269 347.949 273.292 347.702C273.314 347.454 273.533 347.272 273.78 347.294Z" fill="#EF7C5B"/>
<path id="Path 730" d="M282.766 345.192C283.01 345.143 283.247 345.302 283.295 345.545C283.343 345.789 283.185 346.026 282.941 346.074C281.419 346.376 278.955 346.376 275.529 346.081C275.282 346.06 275.098 345.842 275.12 345.594C275.141 345.347 275.359 345.163 275.607 345.185C278.954 345.473 281.347 345.473 282.766 345.192Z" fill="#EF7C5B"/>
</g>
<path id="Path 2" fill-rule="evenodd" clip-rule="evenodd" d="M178.559 366.134C178.559 366.134 173.887 344.733 177.063 345.183C180.239 345.633 184.144 356.849 184.144 356.849C184.144 356.849 188.898 332.669 192.656 335.972C196.414 339.275 189.8 366.134 189.8 366.134H178.559Z" fill="#D7F3D9"/>
<path id="Path 3" fill-rule="evenodd" clip-rule="evenodd" d="M370.215 369.57C370.215 369.57 365.574 353.512 370.215 353.512C374.857 353.512 378.276 365.378 378.276 363.448C378.276 361.518 384.245 352.157 385.736 356.849C387.227 361.541 391.231 368.82 395.904 366.134C400.576 363.448 414.18 369.57 414.18 369.57H370.215Z" fill="#B3E1B7"/>
<path id="Path 4" fill-rule="evenodd" clip-rule="evenodd" d="M348.003 330.755H374.972C374.972 330.755 373.842 324.286 370.869 324.286C367.895 324.286 364.728 330.755 363.108 327.521C361.488 324.286 359.132 321.052 357.107 324.286C355.083 327.521 348.003 330.755 348.003 330.755Z" fill="#B3E1B7"/>
<path id="Path 5" fill-rule="evenodd" clip-rule="evenodd" d="M402.924 343.47C402.924 343.47 400.108 325.777 401.516 325.777C402.924 325.777 406.857 339.277 406.857 339.277C406.857 339.277 410.28 329.369 411.674 329.369C413.069 329.369 410.746 343.47 410.746 343.47H402.924Z" fill="#D7F3D9"/>
<path id="Path 6" fill-rule="evenodd" clip-rule="evenodd" d="M215.58 332.423C215.58 332.423 218.126 324.268 219.847 325.366C221.567 326.464 222.943 331.68 224.392 329.777C225.84 327.873 228.788 323.952 230.394 326.864C232 329.777 232 332.423 232 332.423H215.58Z" fill="#B3E1B7"/>
</g>
</g>
</svg>
