<svg width="606" height="489" viewBox="0 0 606 489" fill="none" xmlns="http://www.w3.org/2000/svg">
<g id="The Last Petal">
<rect width="606" height="489" fill="white"/>
<g id="Empty State 5">
<g id="Group 19 Copy">
<path id="Path 620 Copy" opacity="0.2" fill-rule="evenodd" clip-rule="evenodd" d="M273 177.554H377.704C377.704 177.554 369.849 166.771 357.338 167.983C344.827 169.194 344.433 173.831 334.283 166.778C324.133 159.726 319.494 157.746 311.802 159.726C304.111 161.707 299.474 171.61 288.172 169.194C276.87 166.778 273 177.554 273 177.554Z" fill="#2E144F"/>
<path id="Path" fill-rule="evenodd" clip-rule="evenodd" d="M323.366 292C335.133 292 345.129 299.697 348.733 310.4H298C301.604 299.697 311.6 292 323.366 292Z" fill="#FFC260"/>
<path id="Path 620" opacity="0.2" fill-rule="evenodd" clip-rule="evenodd" d="M138 145.554H242.704C242.704 145.554 234.849 134.771 222.338 135.983C209.827 137.194 209.433 141.831 199.283 134.778C189.133 127.726 184.494 125.746 176.802 127.726C169.111 129.707 164.474 139.61 153.172 137.194C141.87 134.778 138 145.554 138 145.554Z" fill="#2E144F"/>
<path id="Path 129" d="M342.338 303.627C342.544 303.547 342.775 303.649 342.856 303.855C342.926 304.035 342.857 304.235 342.7 304.336L342.628 304.373L329.671 309.422C329.465 309.502 329.233 309.4 329.153 309.194C329.082 309.014 329.152 308.814 329.308 308.713L329.38 308.676L342.338 303.627Z" fill="white"/>
<path id="Path 130" d="M335.695 294.765C335.835 294.595 336.087 294.57 336.258 294.71C336.407 294.833 336.445 295.041 336.358 295.206L336.313 295.273L323.675 310.654C323.535 310.825 323.283 310.849 323.112 310.709C322.963 310.586 322.925 310.378 323.012 310.213L323.057 310.146L335.695 294.765Z" fill="white"/>
<path id="Path 131" d="M323.366 294.619C323.56 294.619 323.721 294.756 323.758 294.939L323.766 295.019V305.612C323.766 305.833 323.587 306.012 323.366 306.012C323.173 306.012 323.012 305.874 322.974 305.692L322.966 305.612V295.019C322.966 294.798 323.145 294.619 323.366 294.619Z" fill="white"/>
<path id="Path 132" d="M305.849 298.034C305.963 297.878 306.169 297.828 306.338 297.905L306.408 297.946L319.006 307.138C319.185 307.268 319.224 307.518 319.094 307.697C318.98 307.853 318.774 307.903 318.605 307.825L318.535 307.784L305.937 298.593C305.758 298.462 305.719 298.212 305.849 298.034Z" fill="white"/>
</g>
<g id="Group 19 Copy 2">
<path id="Path_2" fill-rule="evenodd" clip-rule="evenodd" d="M235.22 284.692C254.341 284.692 270.584 297.199 276.441 314.592H194C199.856 297.199 216.099 284.692 235.22 284.692Z" fill="#FFDA9D"/>
<path id="Path 129_2" d="M266.139 303.819C266.345 303.739 266.577 303.841 266.657 304.047C266.728 304.227 266.658 304.427 266.502 304.528L266.43 304.565L245.374 312.769C245.168 312.849 244.936 312.747 244.856 312.542C244.786 312.361 244.855 312.161 245.011 312.06L245.083 312.024L266.139 303.819Z" fill="white"/>
<path id="Path 130_2" d="M255.448 289.345C255.588 289.174 255.84 289.149 256.011 289.29C256.16 289.412 256.197 289.621 256.111 289.785L256.066 289.853L235.529 314.846C235.389 315.017 235.137 315.041 234.966 314.901C234.817 314.778 234.779 314.57 234.866 314.406L234.911 314.338L255.448 289.345Z" fill="white"/>
<path id="Path 131_2" d="M235.22 289.199C235.414 289.199 235.575 289.336 235.612 289.518L235.62 289.599V306.811C235.62 307.032 235.441 307.211 235.22 307.211C235.027 307.211 234.866 307.074 234.828 306.892L234.82 306.811V289.599C234.82 289.378 234.999 289.199 235.22 289.199Z" fill="white"/>
<path id="Path 132_2" d="M206.957 294.644C207.071 294.488 207.277 294.439 207.446 294.516L207.516 294.557L227.988 309.493C228.167 309.623 228.206 309.874 228.075 310.052C227.962 310.208 227.756 310.258 227.586 310.18L227.517 310.139L207.045 295.203C206.866 295.073 206.827 294.823 206.957 294.644Z" fill="white"/>
</g>
<g id="Group 20 Copy">
<path id="Path_3" fill-rule="evenodd" clip-rule="evenodd" d="M182.441 295.692C208.488 295.692 229.845 315.769 231.882 341.292H133C135.037 315.769 156.394 295.692 182.441 295.692Z" fill="#FFC260"/>
<path id="Oval" opacity="0.2" fill-rule="evenodd" clip-rule="evenodd" d="M281.5 375C308.286 375 330 369.404 330 362.5C330 355.596 308.286 350 281.5 350C254.714 350 233 355.596 233 362.5C233 369.404 254.714 375 281.5 375Z" fill="#2A1111"/>
<path id="Path 133" d="M210.529 314.128C210.689 313.976 210.942 313.983 211.094 314.144C211.227 314.284 211.239 314.495 211.132 314.648L211.079 314.709L182.716 341.582C182.556 341.734 182.303 341.727 182.151 341.567C182.018 341.427 182.006 341.215 182.113 341.063L182.166 341.002L210.529 314.128Z" fill="white"/>
<path id="Path 134" d="M227.224 323.728C227.429 323.647 227.662 323.747 227.743 323.953C227.814 324.133 227.746 324.333 227.59 324.435L227.518 324.472L191.11 338.864C190.905 338.945 190.673 338.844 190.591 338.639C190.52 338.459 190.588 338.259 190.744 338.157L190.816 338.12L227.224 323.728Z" fill="white"/>
<path id="Path 135" d="M170.527 300.418C170.712 300.361 170.907 300.445 170.996 300.608L171.028 300.682L180.448 331.178C180.513 331.389 180.395 331.613 180.184 331.678C179.999 331.735 179.805 331.652 179.715 331.489L179.684 331.414L170.263 300.919C170.198 300.707 170.316 300.484 170.527 300.418Z" fill="white"/>
<path id="Path 136" d="M150.085 307.455C150.224 307.321 150.436 307.307 150.589 307.413L150.651 307.465L180.354 338.214C180.507 338.373 180.503 338.626 180.344 338.78C180.205 338.914 179.994 338.927 179.84 338.822L179.778 338.77L150.076 308.021C149.922 307.862 149.926 307.609 150.085 307.455Z" fill="white"/>
</g>
<g id="Group 18">
<g id="Group 17">
<path id="Path 126" fill-rule="evenodd" clip-rule="evenodd" d="M308 243.845C308 243.845 310.888 253.495 312.325 257.841C313.761 262.187 314.827 261.099 318.866 262.797C322.904 264.495 323.99 263.749 323.151 260.795C322.311 257.841 319.372 250.903 320.598 251.288C321.824 251.673 322.249 257.841 323.151 257.841C324.053 257.841 324.24 251.875 323.695 249.622C323.151 247.37 317.412 240.692 317.412 240.692L308 243.845Z" fill="#FEB593"/>
<path id="Path 127" d="M318.371 252.084C318.564 251.975 318.808 252.044 318.916 252.236C319.025 252.428 318.957 252.672 318.764 252.781C317.333 253.588 315.199 253.911 312.356 253.769C312.135 253.758 311.965 253.571 311.976 253.35C311.987 253.129 312.175 252.959 312.395 252.97C315.102 253.105 317.096 252.803 318.371 252.084Z" fill="#FF836F"/>
<path id="Path 128" d="M318.312 244.626C318.481 244.485 318.733 244.508 318.875 244.677C319.016 244.847 318.994 245.099 318.824 245.241C316.884 246.86 316.081 248.893 316.397 251.384C316.425 251.603 316.269 251.803 316.05 251.831C315.831 251.859 315.631 251.704 315.603 251.485C315.253 248.722 316.162 246.421 318.312 244.626Z" fill="#FF836F"/>
</g>
<path id="Path 124" fill-rule="evenodd" clip-rule="evenodd" d="M257.586 345.756C257.586 345.756 255.308 354.169 256.807 362.582C258.305 370.995 263.79 377.52 264.747 370.639C265.704 363.757 264.747 347.142 264.747 347.142L257.586 345.756Z" fill="#633A27"/>
<path id="Path 125" fill-rule="evenodd" clip-rule="evenodd" d="M295.064 345.975C295.064 345.975 292.278 352.134 300.32 356.283C308.362 360.431 322.752 362.49 322.752 359.764C322.752 357.038 303.391 345.975 303.391 345.975H295.064Z" fill="#633A27"/>
<path id="Path 119" fill-rule="evenodd" clip-rule="evenodd" d="M259.431 247.717C259.431 247.717 259.269 250.643 270.421 252.432C281.572 254.222 270.421 240.454 270.421 240.454L263.441 242.593L259.431 247.717Z" fill="#393A5F"/>
<path id="Path 117" fill-rule="evenodd" clip-rule="evenodd" d="M268.32 237.175C268.32 237.175 261.084 274.804 252.18 304.858C243.276 334.911 247.316 346.554 270.531 352.622C274.83 342.287 278.99 332.187 278.99 332.187C278.99 332.187 281.978 352.814 309.333 348.006C307.717 316.967 306.023 246.811 306.023 246.811L268.32 237.175Z" fill="#7A458D"/>
<path id="Path_4" fill-rule="evenodd" clip-rule="evenodd" d="M296 269.482C297.689 285.621 296.527 299.202 292.516 310.224L292.29 310.834C286.912 325.107 286.462 337.734 293.349 348.294C285.215 346.588 280.45 341.364 279.056 332.62L278.999 332.246L279 332.187L296 269.482Z" fill="#5D2B6F"/>
<path id="Path_5" fill-rule="evenodd" clip-rule="evenodd" d="M268.32 237.175L306.023 246.811L306.122 250.852C302.944 253.506 297.101 255.482 288.592 256.781L288.008 256.869C273.599 258.987 264.779 264.565 263.361 279.732L263.288 280.554C262.153 293.995 263.751 307.976 248.376 321.239C249.022 316.706 250.224 311.558 251.932 305.699L252.18 304.858C257.971 285.31 263.233 263.36 267.966 239.006L268.32 237.175Z" fill="#5D2B6F"/>
<path id="Path 116" fill-rule="evenodd" clip-rule="evenodd" d="M284.638 176.545C284.638 176.545 302.996 164.801 302.996 145.692C302.996 126.583 296.258 123.834 296.258 123.834C296.258 123.834 292.212 109.746 276.453 113.978C260.694 118.21 263.23 147.279 248.043 158.376C232.856 169.472 220.809 170.475 220.809 187.776C220.809 205.076 249.014 210.468 263.604 201.807C278.195 193.145 284.638 176.545 284.638 176.545Z" fill="#633A27"/>
<path id="Path 112" fill-rule="evenodd" clip-rule="evenodd" d="M309.333 246.811L319.992 241.343L286 171.69L309.333 246.811Z" fill="#EB614B"/>
<path id="Path 120" fill-rule="evenodd" clip-rule="evenodd" d="M299.506 206.833C299.506 206.833 301.708 206.3 304.946 201.87C308.184 197.441 309.333 196.402 309.333 198.356C309.333 200.31 305.19 204.918 307.262 205.876C309.333 206.833 314.29 202.183 314.29 199.752C314.29 197.321 314.267 192.711 315.802 193.314C317.336 193.918 317.572 202.213 318.187 204.044C318.802 205.876 314.623 213.104 313.091 214.543C311.558 215.982 299.506 218.473 299.506 218.473V206.833Z" fill="#FEB593"/>
<path id="Path 109" fill-rule="evenodd" clip-rule="evenodd" d="M309.333 246.811L302.066 221.102L304.412 219.641L300.083 205.196L297.53 206.003C297.53 206.003 290.541 181.919 289.617 178.81C287.25 170.849 284.434 166.371 280.878 166.371C277.322 166.371 265.09 166.371 256.631 184.118C248.171 201.864 265.09 218.644 265.09 218.644L259.431 247.717C259.431 247.717 268.781 241.85 283.181 249.254C297.582 256.659 309.333 246.811 309.333 246.811Z" fill="#FF836F"/>
<path id="Oval_2" fill-rule="evenodd" clip-rule="evenodd" d="M285 179C285.552 179 286 178.552 286 178C286 177.448 285.552 177 285 177C284.448 177 284 177.448 284 178C284 178.552 284.448 179 285 179Z" fill="white"/>
<path id="Oval Copy 15" fill-rule="evenodd" clip-rule="evenodd" d="M282.5 192C283.328 192 284 191.328 284 190.5C284 189.672 283.328 189 282.5 189C281.672 189 281 189.672 281 190.5C281 191.328 281.672 192 282.5 192Z" fill="white"/>
<path id="Oval Copy 18" fill-rule="evenodd" clip-rule="evenodd" d="M283 219C283.552 219 284 218.552 284 218C284 217.448 283.552 217 283 217C282.448 217 282 217.448 282 218C282 218.552 282.448 219 283 219Z" fill="white"/>
<path id="Oval Copy 26" fill-rule="evenodd" clip-rule="evenodd" d="M267 191C267.552 191 268 190.552 268 190C268 189.448 267.552 189 267 189C266.448 189 266 189.448 266 190C266 190.552 266.448 191 267 191Z" fill="white"/>
<path id="Oval Copy 19" fill-rule="evenodd" clip-rule="evenodd" d="M269.5 178C270.328 178 271 177.328 271 176.5C271 175.672 270.328 175 269.5 175C268.672 175 268 175.672 268 176.5C268 177.328 268.672 178 269.5 178Z" fill="white"/>
<path id="Oval Copy 20" fill-rule="evenodd" clip-rule="evenodd" d="M260.5 203C261.328 203 262 202.328 262 201.5C262 200.672 261.328 200 260.5 200C259.672 200 259 200.672 259 201.5C259 202.328 259.672 203 260.5 203Z" fill="white"/>
<path id="Oval Copy 21" fill-rule="evenodd" clip-rule="evenodd" d="M276.5 211C277.328 211 278 210.328 278 209.5C278 208.672 277.328 208 276.5 208C275.672 208 275 208.672 275 209.5C275 210.328 275.672 211 276.5 211Z" fill="white"/>
<path id="Oval Copy 27" fill-rule="evenodd" clip-rule="evenodd" d="M297.5 233C298.328 233 299 232.328 299 231.5C299 230.672 298.328 230 297.5 230C296.672 230 296 230.672 296 231.5C296 232.328 296.672 233 297.5 233Z" fill="white"/>
<path id="Oval Copy 25" fill-rule="evenodd" clip-rule="evenodd" d="M280.5 239C281.328 239 282 238.328 282 237.5C282 236.672 281.328 236 280.5 236C279.672 236 279 236.672 279 237.5C279 238.328 279.672 239 280.5 239Z" fill="white"/>
<path id="Oval Copy 22" fill-rule="evenodd" clip-rule="evenodd" d="M295 219C295.552 219 296 218.552 296 218C296 217.448 295.552 217 295 217C294.448 217 294 217.448 294 218C294 218.552 294.448 219 295 219Z" fill="white"/>
<path id="Oval Copy 24" fill-rule="evenodd" clip-rule="evenodd" d="M297 245C297.552 245 298 244.552 298 244C298 243.448 297.552 243 297 243C296.448 243 296 243.448 296 244C296 244.552 296.448 245 297 245Z" fill="white"/>
<path id="Oval Copy 16" fill-rule="evenodd" clip-rule="evenodd" d="M293.5 201C294.328 201 295 200.328 295 199.5C295 198.672 294.328 198 293.5 198C292.672 198 292 198.672 292 199.5C292 200.328 292.672 201 293.5 201Z" fill="white"/>
<path id="Oval Copy 23" fill-rule="evenodd" clip-rule="evenodd" d="M268 234C268.552 234 269 233.552 269 233C269 232.448 268.552 232 268 232C267.448 232 267 232.448 267 233C267 233.552 267.448 234 268 234Z" fill="white"/>
<path id="Oval Copy 17" fill-rule="evenodd" clip-rule="evenodd" d="M285 203C285.552 203 286 202.552 286 202C286 201.448 285.552 201 285 201C284.448 201 284 201.448 284 202C284 202.552 284.448 203 285 203Z" fill="white"/>
<path id="Path_6" fill-rule="evenodd" clip-rule="evenodd" d="M265.09 218.644C269.126 221.111 273.913 222.893 279.45 223.99C284.987 225.086 291.2 224.73 298.09 222.922C289.185 229.559 277.609 231.094 263.361 227.527L265.09 218.644Z" fill="#EB614B"/>
<path id="Path 110" d="M267.956 220.158C268.048 219.957 268.285 219.869 268.486 219.96C280.23 225.327 291.358 225.583 301.899 220.738C302.1 220.646 302.337 220.734 302.43 220.935C302.522 221.136 302.434 221.373 302.233 221.465C291.473 226.41 280.103 226.148 268.154 220.688C267.953 220.596 267.864 220.359 267.956 220.158Z" fill="#C7351E"/>
<path id="Path 111" d="M276.123 182.965C276.268 182.799 276.521 182.782 276.687 182.927C276.854 183.072 276.871 183.325 276.726 183.491C272.142 188.745 271.004 194.292 273.288 200.193C274.821 204.152 278.763 206.401 284.282 207.04C288.747 207.557 293.984 206.913 297.389 205.628C297.595 205.55 297.826 205.655 297.904 205.861C297.982 206.068 297.878 206.299 297.671 206.377C294.147 207.706 288.781 208.367 284.19 207.835C278.406 207.165 274.2 204.765 272.542 200.481C270.147 194.295 271.349 188.437 276.123 182.965Z" fill="#C7351E"/>
<path id="Path 118" d="M297.118 264.303C297.333 264.354 297.466 264.569 297.415 264.784L296.61 268.162C290.843 292.245 285.097 313.626 279.373 332.305C279.308 332.516 279.084 332.635 278.873 332.57C278.662 332.505 278.543 332.281 278.608 332.07L279.406 329.449C285.127 310.536 290.871 288.919 296.637 264.6C296.682 264.412 296.852 264.286 297.038 264.292L297.118 264.303Z" fill="white"/>
<path id="Path 121" d="M314.182 192.162C317.57 185.931 321.486 183.403 325.889 184.714C326.101 184.777 326.221 184.999 326.158 185.211C326.095 185.423 325.873 185.543 325.661 185.48C321.768 184.322 318.253 186.519 315.075 192.199L314.263 193.68C311.223 199.18 309.287 201.969 308.216 202.257C308.003 202.314 307.784 202.188 307.726 201.974C307.676 201.788 307.767 201.596 307.933 201.513L308.009 201.484C308.779 201.277 310.786 198.342 313.778 192.902L314.182 192.162Z" fill="#633A27"/>
<path id="Path 122" fill-rule="evenodd" clip-rule="evenodd" d="M330.03 183.228C330.03 183.228 329.222 176.01 335.688 173.099C342.154 170.188 339.144 175.474 339.144 175.474C339.144 175.474 342.15 173.596 342.86 174.448C343.569 175.3 342.514 183.907 332.472 184.779C330.835 184.779 330.03 183.228 330.03 183.228Z" fill="#FF836F"/>
<path id="Oval_3" fill-rule="evenodd" clip-rule="evenodd" d="M329 191.692C331.761 191.692 334 189.453 334 186.692C334 183.931 331.761 181.692 329 181.692C326.239 181.692 324 183.931 324 186.692C324 189.453 326.239 191.692 329 191.692Z" fill="#7A458D"/>
<path id="Path 123" fill-rule="evenodd" clip-rule="evenodd" d="M329.712 216.28C326.821 217.117 324.917 219.176 324 222.456L323.864 222.966C322.306 229.111 324.183 233.189 327.364 229.577L327.471 230.087C328.039 232.603 328.631 231.932 331.502 229.577C334.469 227.143 334.536 224.455 334.042 221.354L334 221.094C333.871 220.322 333.729 219.601 333.575 218.931L333.457 218.438C333.057 216.83 331.43 215.851 329.822 216.251L329.712 216.28Z" fill="#FF836F"/>
<g id="Group 62">
<path id="Path 108" fill-rule="evenodd" clip-rule="evenodd" d="M293.746 131.236C294.754 134.474 294.025 141.312 294.754 141.312C295.483 141.312 296.77 137.701 299.597 138.738C302.423 139.776 302.019 148.04 295.71 148.63C293.746 157.134 291.599 158.646 288.259 163.097C284.919 167.548 285.049 173.099 285.049 173.099C285.049 173.099 276.393 171.266 275.231 165.687C274.069 160.109 273.442 154.753 269.22 150.835C264.999 146.916 264.168 142.769 266.025 140.754C267.883 138.738 270.937 141.312 270.937 141.312C270.937 141.312 269.9 130.875 275.231 132.207C280.561 133.539 288.83 134.963 293.746 131.236Z" fill="#FEB593"/>
<path id="Path_7" fill-rule="evenodd" clip-rule="evenodd" d="M277.905 161.736C281.691 165.372 285.163 165.798 288.322 163.014L288.259 163.097C287.013 164.757 286.13 166.531 285.608 168.421C283.873 168.131 282.296 167.447 280.878 166.371C279.089 165.015 278.098 163.47 277.905 161.736Z" fill="#E89168"/>
<path id="Path 113" d="M272.895 138.84C274.498 136.83 278.796 136.357 280.813 139.525C281.582 140.733 281.466 142.004 280.591 145.064L280.15 146.581C279.572 148.624 279.408 149.723 279.615 150.702C279.894 152.019 280.96 152.763 283.209 152.919C283.429 152.934 283.596 153.125 283.58 153.345C283.565 153.566 283.374 153.732 283.154 153.717C280.577 153.539 279.194 152.572 278.832 150.867C278.579 149.67 278.78 148.436 279.463 146.074L279.814 144.869C280.618 142.058 280.732 140.888 280.139 139.955C278.457 137.313 274.816 137.714 273.521 139.338C273.383 139.511 273.131 139.539 272.959 139.402C272.786 139.264 272.758 139.012 272.895 138.84Z" fill="#633A27"/>
<path id="Path 114" d="M284.705 139.351C287.048 136.786 289.857 136.621 292.979 138.84C293.159 138.968 293.201 139.217 293.073 139.397C292.945 139.578 292.696 139.62 292.516 139.492C289.71 137.498 287.354 137.636 285.295 139.89C285.146 140.053 284.893 140.065 284.73 139.916C284.567 139.767 284.556 139.514 284.705 139.351Z" fill="#633A27"/>
<path id="Path_8" fill-rule="evenodd" clip-rule="evenodd" d="M276.5 140.692C277.403 140.692 277.889 142.068 277.889 142.068C277.061 142.068 276.389 142.516 276.389 143.068C276.389 143.586 276.979 144.012 277.736 144.063L277.905 144.069C277.692 145.017 277.143 145.692 276.5 145.692C275.672 145.692 275 144.573 275 143.192C275 141.811 275.672 140.692 276.5 140.692Z" fill="#633A27"/>
<path id="Path Copy 3" fill-rule="evenodd" clip-rule="evenodd" d="M288.5 140.692C289.403 140.692 289.889 142.068 289.889 142.068C289.061 142.068 288.389 142.516 288.389 143.068C288.389 143.586 288.979 144.012 289.736 144.063L289.905 144.069C289.692 145.017 289.143 145.692 288.5 145.692C287.672 145.692 287 144.573 287 143.192C287 141.811 287.672 140.692 288.5 140.692Z" fill="#633A27"/>
<path id="Path 115" d="M279.714 158.097C281.375 156.389 283.998 155.828 287.55 156.38C287.768 156.414 287.918 156.618 287.884 156.837C287.85 157.055 287.645 157.204 287.427 157.17C284.108 156.655 281.74 157.161 280.288 158.654C280.134 158.813 279.88 158.816 279.722 158.662C279.564 158.508 279.56 158.255 279.714 158.097Z" fill="#633A27"/>
<path id="Path 578" d="M275.416 166.375C275.615 166.279 275.854 166.362 275.95 166.561C277.501 169.767 280.546 171.815 285.126 172.706C285.342 172.749 285.484 172.959 285.442 173.175C285.4 173.392 285.19 173.534 284.973 173.492C280.161 172.555 276.9 170.361 275.23 166.91C275.134 166.711 275.217 166.472 275.416 166.375Z" fill="#C7351E"/>
</g>
<path id="Path 577" d="M312.838 214.233C313.009 214.093 313.261 214.119 313.401 214.29C313.54 214.461 313.515 214.713 313.343 214.853C312.182 215.799 309.084 216.855 303.98 218.068C303.765 218.119 303.549 217.986 303.498 217.771C303.447 217.556 303.58 217.341 303.795 217.29L304.678 217.076C309.131 215.982 311.87 215.021 312.838 214.233Z" fill="#C7351E"/>
<path id="Path 579" d="M319.809 240.987C320.006 240.886 320.247 240.964 320.348 241.161C320.436 241.333 320.387 241.539 320.242 241.655L320.174 241.699L309.516 247.166C309.319 247.267 309.078 247.19 308.977 246.993C308.889 246.821 308.938 246.615 309.083 246.499L309.151 246.455L319.809 240.987Z" fill="#C7351E"/>
<path id="Path 580" d="M336.21 187.41C336.368 187.256 336.622 187.26 336.775 187.419C338.692 189.398 339.279 193.435 338.602 199.544C337.931 205.607 336.176 210.685 333.336 214.771C333.209 214.952 332.96 214.997 332.779 214.871C332.597 214.745 332.553 214.496 332.679 214.314C335.439 210.344 337.15 205.393 337.807 199.456C338.46 193.565 337.902 189.733 336.2 187.975C336.047 187.817 336.051 187.563 336.21 187.41Z" fill="#99EBF0"/>
<path id="Path 581" d="M341.641 190.101C341.862 190.087 342.051 190.255 342.064 190.476C342.4 196.062 341.947 201.227 340.706 205.968C340.65 206.182 340.431 206.31 340.217 206.254C340.004 206.198 339.876 205.979 339.932 205.765C341.151 201.109 341.596 196.029 341.266 190.524C341.253 190.303 341.421 190.114 341.641 190.101Z" fill="#99EBF0"/>
</g>
<g id="Group 20">
<path id="Path_9" fill-rule="evenodd" clip-rule="evenodd" d="M410.801 279C443.36 279 470.057 304.096 472.603 336H349C351.546 304.096 378.243 279 410.801 279Z" fill="#FFDA9D"/>
<path id="Path 4" fill-rule="evenodd" clip-rule="evenodd" d="M385.768 372.382C385.768 372.382 382.232 356.651 385.768 356.651C389.305 356.651 393.711 366.513 393.711 366.513C393.711 366.513 395.366 352 399.106 352C402.847 352 399.106 372.382 399.106 372.382H385.768Z" fill="#7A458D"/>
<path id="Path 4 Copy" fill-rule="evenodd" clip-rule="evenodd" d="M212.208 346.382C212.208 346.382 215.745 330.651 212.208 330.651C208.672 330.651 204.266 340.513 204.266 340.513C204.266 340.513 202.61 326 198.87 326C195.13 326 198.87 346.382 198.87 346.382H212.208Z" fill="#7A458D"/>
<path id="Path 4 Copy 2" fill-rule="evenodd" clip-rule="evenodd" d="M336.167 315C336.167 315 337.833 307.282 336.167 307.282C334.5 307.282 332.424 312.121 332.424 312.121C332.424 312.121 331.644 305 329.881 305C328.119 305 329.881 315 329.881 315H336.167Z" fill="#7A458D"/>
<path id="Path 133_2" d="M445.98 302.118C446.14 301.966 446.393 301.973 446.545 302.133C446.678 302.274 446.69 302.485 446.583 302.638L446.53 302.699L411.076 336.29C410.916 336.442 410.663 336.435 410.511 336.275C410.378 336.135 410.367 335.923 410.473 335.771L410.526 335.71L445.98 302.118Z" fill="white"/>
<path id="Path 134_2" d="M466.817 314.138C467.022 314.057 467.255 314.157 467.336 314.363C467.407 314.543 467.339 314.743 467.183 314.845L467.111 314.882L421.601 332.872C421.396 332.953 421.163 332.853 421.082 332.647C421.011 332.467 421.079 332.267 421.235 332.165L421.307 332.128L466.817 314.138Z" fill="white"/>
<path id="Path 135_2" d="M395.939 285.003C396.123 284.946 396.318 285.03 396.407 285.193L396.439 285.268L408.215 323.387C408.28 323.598 408.161 323.822 407.95 323.887C407.766 323.944 407.571 323.861 407.482 323.698L407.45 323.623L395.675 285.504C395.609 285.293 395.728 285.069 395.939 285.003Z" fill="white"/>
<path id="Path 136_2" d="M370.426 293.776C370.565 293.641 370.776 293.628 370.93 293.733L370.992 293.786L408.12 332.222C408.274 332.381 408.269 332.634 408.11 332.788C407.971 332.922 407.76 332.935 407.607 332.83L407.545 332.778L370.416 294.341C370.263 294.182 370.267 293.929 370.426 293.776Z" fill="white"/>
</g>
<g id="Group 19">
<path id="Path_10" fill-rule="evenodd" clip-rule="evenodd" d="M348.708 321C363.416 321 375.911 330.621 380.416 344H317C321.505 330.621 333.999 321 348.708 321Z" fill="#FFC260"/>
<path id="Path 129_3" d="M372.458 335.627C372.664 335.547 372.896 335.649 372.976 335.855C373.046 336.035 372.977 336.235 372.821 336.336L372.749 336.373L356.552 342.684C356.346 342.764 356.114 342.662 356.034 342.456C355.964 342.276 356.033 342.076 356.189 341.975L356.261 341.938L372.458 335.627Z" fill="white"/>
<path id="Path 130_3" d="M364.196 324.52C364.336 324.35 364.588 324.325 364.759 324.465C364.908 324.588 364.946 324.796 364.859 324.961L364.814 325.028L349.017 344.254C348.877 344.425 348.625 344.449 348.454 344.309C348.305 344.186 348.267 343.978 348.354 343.813L348.399 343.746L364.196 324.52Z" fill="white"/>
<path id="Path 131_3" d="M348.708 324.374C348.901 324.374 349.062 324.511 349.1 324.694L349.108 324.774V338.015C349.108 338.235 348.929 338.415 348.708 338.415C348.515 338.415 348.353 338.277 348.316 338.095L348.308 338.015V324.774C348.308 324.553 348.487 324.374 348.708 324.374Z" fill="white"/>
<path id="Path 132_3" d="M326.893 328.601C327.006 328.445 327.212 328.396 327.382 328.473L327.451 328.514L343.199 340.003C343.378 340.133 343.417 340.384 343.287 340.562C343.173 340.718 342.967 340.768 342.798 340.691L342.728 340.65L326.98 329.16C326.801 329.03 326.762 328.78 326.893 328.601Z" fill="white"/>
</g>
</g>
</g>
</svg>
