<svg width="606" height="489" viewBox="0 0 606 489" fill="none" xmlns="http://www.w3.org/2000/svg">
<g id="Where Am I?">
<rect width="606" height="489" fill="white"/>
<g id="Empty State 16">
<g id="Group 52 Copy 2">
<path id="Path" fill-rule="evenodd" clip-rule="evenodd" d="M238.42 255.251C226.742 255.251 217.122 262.926 215.84 272.802H261C259.718 262.926 250.098 255.251 238.42 255.251Z" fill="#D7DCB2"/>
<path id="Path 450" d="M251.277 260.944C251.111 260.763 250.843 260.733 250.642 260.86L250.571 260.915L238.081 272.434C237.878 272.621 237.865 272.938 238.053 273.141C238.219 273.321 238.487 273.351 238.688 273.224L238.759 273.169L251.249 261.65C251.452 261.463 251.465 261.147 251.277 260.944Z" fill="white"/>
<path id="Path 451" d="M238.42 256.077C238.175 256.077 237.97 256.254 237.928 256.487L237.92 256.577V269.651C237.92 269.927 238.144 270.151 238.42 270.151C238.666 270.151 238.87 269.974 238.912 269.741L238.92 269.651V256.577C238.92 256.301 238.696 256.077 238.42 256.077Z" fill="white"/>
<path id="Path 452" d="M220.541 262.684C220.303 262.543 219.997 262.622 219.856 262.86C219.731 263.071 219.78 263.337 219.959 263.492L220.032 263.544L232.792 271.093C233.03 271.233 233.336 271.154 233.477 270.917C233.602 270.706 233.554 270.44 233.374 270.285L233.301 270.232L220.541 262.684Z" fill="white"/>
<path id="Path 453" d="M258.806 265.531C258.714 265.303 258.473 265.181 258.241 265.23L258.155 265.256L246.028 270.199C245.773 270.303 245.65 270.595 245.754 270.851C245.847 271.078 246.088 271.201 246.32 271.152L246.406 271.125L258.532 266.182C258.788 266.078 258.911 265.786 258.806 265.531Z" fill="white"/>
</g>
<g id="Group 51 Copy">
<path id="Path 443" fill-rule="evenodd" clip-rule="evenodd" d="M340.832 265.337C340.832 265.337 349.503 219.671 343.626 209.479C337.748 199.287 320.463 204.314 322.427 221.806C324.392 239.299 323.964 237.713 320.588 236.254C317.212 234.794 318.707 228.053 317.959 221.806C317.212 215.559 308.574 216.515 310.639 227.104C312.703 237.694 319.892 239.634 322.427 242.624C324.962 245.615 328.16 265.337 328.16 265.337H340.832Z" fill="#B5BC80"/>
<path id="Path 444" d="M339.419 208.98L339.33 208.995C339.062 209.064 338.902 209.336 338.971 209.604C342.222 222.179 341.709 239.616 337.419 261.905C337.367 262.176 337.544 262.438 337.815 262.49C338.086 262.543 338.349 262.365 338.401 262.094C342.717 239.672 343.234 222.096 339.939 209.353C339.877 209.116 339.655 208.962 339.419 208.98Z" fill="white"/>
<path id="Path 445" d="M328.18 215.195C327.904 215.184 327.672 215.399 327.661 215.675C326.981 232.79 328.747 248.793 332.962 263.683C333.037 263.948 333.313 264.103 333.579 264.027C333.845 263.952 333.999 263.676 333.924 263.41C329.739 248.625 327.984 232.727 328.66 215.715C328.671 215.439 328.456 215.206 328.18 215.195Z" fill="white"/>
<path id="Path 446" d="M333.921 206.855C333.841 206.591 333.561 206.442 333.297 206.523C333.033 206.603 332.884 206.883 332.965 207.147C334.751 213.008 335.41 226.55 334.923 247.708C334.917 247.984 335.135 248.213 335.411 248.22C335.687 248.226 335.916 248.007 335.923 247.731L335.984 244.779C336.347 225.197 335.665 212.575 333.921 206.855Z" fill="white"/>
</g>
<g id="Group 54">
<path id="Path 454" fill-rule="evenodd" clip-rule="evenodd" d="M180.612 314.314C180.612 314.314 171.099 270.571 179.216 260.149C187.333 249.726 198.306 257.845 198.306 270.81C198.306 283.775 194.026 314.314 194.026 314.314H180.612Z" fill="#B5BC80"/>
<path id="Path 455" d="M183.259 259.722C183.379 259.473 183.678 259.369 183.927 259.49C184.175 259.61 184.279 259.909 184.159 260.158C179.64 269.489 179.137 283.492 182.68 302.158C182.731 302.429 182.553 302.691 182.282 302.743C182.01 302.794 181.749 302.616 181.697 302.345C178.118 283.488 178.628 269.283 183.259 259.722Z" fill="white"/>
<path id="Path 456" d="M190.494 261.776C190.767 261.734 191.022 261.92 191.065 262.193C193.398 277.147 192.314 293.244 187.817 310.482C187.747 310.749 187.474 310.909 187.207 310.839C186.94 310.769 186.78 310.496 186.849 310.229C191.314 293.119 192.388 277.16 190.077 262.347C190.034 262.075 190.221 261.819 190.494 261.776Z" fill="white"/>
</g>
<g id="Group 50">
<path id="Path 768" opacity="0.1" fill-rule="evenodd" clip-rule="evenodd" d="M134 129H330C330 129 313.575 107.355 286.993 107.355C260.411 107.355 259.42 122.539 244.208 112.485C228.996 102.43 232.228 93 208.138 93C184.048 93 181.212 119.443 161.277 114.328C141.342 109.213 134 129 134 129Z" fill="#211A38"/>
<path id="Path 768 Copy" opacity="0.1" fill-rule="evenodd" clip-rule="evenodd" d="M472 174H315C315 174 328.157 156.564 349.45 156.564C370.742 156.564 371.536 168.795 383.721 160.696C395.907 152.597 393.318 145 412.614 145C431.911 145 434.182 166.301 450.151 162.181C466.119 158.061 472 174 472 174Z" fill="#211A38"/>
<path id="Oval" opacity="0.2" fill-rule="evenodd" clip-rule="evenodd" d="M276.5 397C307.152 397 332 391.851 332 385.5C332 379.149 307.152 374 276.5 374C245.848 374 221 379.149 221 385.5C221 391.851 245.848 397 276.5 397Z" fill="#3E2C3F"/>
<path id="Path 438" fill-rule="evenodd" clip-rule="evenodd" d="M252.378 253.401C252.378 253.401 254.505 338.174 258.604 357.024C262.704 375.874 277.48 376.014 288.989 376.014C300.498 376.014 304.862 361.706 304.862 354.951C304.862 348.197 303.479 247.542 303.479 247.542L252.378 253.401Z" fill="#514E57"/>
<path id="Path_2" fill-rule="evenodd" clip-rule="evenodd" d="M303.614 313.766L304.37 313.482L304.498 323.342C296.087 327.109 286.826 327.231 276.715 323.706L276.141 323.502L275.431 314.661C285.011 317.443 294.406 317.144 303.614 313.766Z" fill="white"/>
<path id="Path_3" fill-rule="evenodd" clip-rule="evenodd" d="M303.165 300.825L304.198 300.511L304.308 308.798C292.659 310.972 282.847 310.95 274.869 308.731V302.251C284.818 303.93 294.25 303.455 303.165 300.825Z" fill="white"/>
<path id="Path 412" fill-rule="evenodd" clip-rule="evenodd" d="M256.927 140.003C256.927 140.003 254.759 137.009 254.759 132.466C254.759 127.922 255.52 118.013 263.223 115.532C266.67 110.174 275.11 104.216 278.276 101.573C281.442 98.931 283.443 99.4479 287.721 104.417C291.999 109.387 297.798 114.546 297.798 119.201C297.798 123.856 295.57 131.809 295.57 131.809C295.57 131.809 296.976 135.526 295.041 140.003C293.106 144.479 292.928 147.563 286.377 148.505C279.827 149.447 256.927 140.003 256.927 140.003Z" fill="#3A2F3D"/>
<path id="Path 441" fill-rule="evenodd" clip-rule="evenodd" d="M303.637 244.078C303.637 244.078 313.066 241.463 314.398 235.122C315.731 228.781 320.473 226.88 320.473 221.796C320.473 216.712 321.085 183.061 317.742 178.318C314.398 173.575 309.969 172.041 307.415 166.856C304.862 161.671 293.504 155.761 284.475 157.676C275.446 159.591 303.637 244.078 303.637 244.078Z" fill="#6B6043"/>
<path id="Path 442" d="M311.873 175.768C312.14 175.697 312.413 175.857 312.483 176.124C315.919 189.154 317.063 204.375 315.919 221.787C315.901 222.062 315.663 222.271 315.388 222.253C315.112 222.235 314.903 221.997 314.922 221.721C316.058 204.411 314.922 189.297 311.517 176.379C311.446 176.112 311.606 175.838 311.873 175.768Z" fill="#B5BC80"/>
<path id="Path 437" fill-rule="evenodd" clip-rule="evenodd" d="M252.974 251.006C252.974 251.006 250.362 255.912 259.203 256.767C268.044 257.621 301.973 257.934 301.035 251.006C300.096 244.078 252.974 251.006 252.974 251.006Z" fill="#3D2C3F"/>
<path id="Path 418" fill-rule="evenodd" clip-rule="evenodd" d="M274.81 162.134C274.81 162.134 262.007 165.808 253.996 176.479C245.986 187.15 247.425 212.732 247.425 220.665C247.425 228.598 249.424 249.212 251.71 252.251C253.996 255.29 262.273 251.342 267.972 251.342C273.672 251.342 276.604 252.25 282.091 250.472C287.577 248.694 296.459 254.03 301.725 252.251C306.991 250.472 307.415 227.447 307.415 227.447C307.415 227.447 314.398 216.21 314.398 199.836C314.398 183.462 295.761 166.131 291.999 164.519C288.237 162.907 286.86 156.623 284.475 155.156C282.091 153.69 278.98 160.956 278.98 160.956L274.81 162.134Z" fill="#4B5A5F"/>
<path id="Path 700" fill-rule="evenodd" clip-rule="evenodd" d="M254.759 202.726H291.999C291.999 202.726 288.991 210.42 284.475 214.294C279.31 211.672 268.062 207.144 262.495 209.673C256.927 212.202 254.759 202.726 254.759 202.726Z" fill="white"/>
<path id="Path 697" d="M304.804 182.043C305.079 182.011 305.327 182.207 305.359 182.481C307.561 201.412 305.459 215.6 299.021 225.039C295.264 230.549 290.375 231.84 284.086 229.668L283.359 229.405C279.515 227.974 276.767 226.337 269.199 221.027L263.64 217.099C260.922 215.184 258.931 213.835 256.901 212.553C256.667 212.405 256.598 212.096 256.745 211.863C256.893 211.63 257.201 211.56 257.435 211.707L258.404 212.326C260.132 213.442 261.915 214.66 264.214 216.28L269.741 220.186C277.368 225.538 280.054 227.127 283.898 228.538L284.088 228.608C290.136 230.798 294.645 229.681 298.195 224.476C304.475 215.269 306.543 201.311 304.365 182.597C304.334 182.323 304.53 182.074 304.804 182.043Z" fill="white"/>
<path id="Path_4" fill-rule="evenodd" clip-rule="evenodd" d="M254.759 194.965C254.759 189.093 256.714 179.155 260.633 169.903L260.931 169.209L261.033 168.979C261.541 167.835 262.346 166.849 263.365 166.122L263.924 165.732C263.979 165.694 264.032 165.658 264.083 165.625C266.217 164.201 268.5 162.994 270.93 162.003L271.663 161.713C271.983 161.589 272.343 161.749 272.466 162.069C272.55 162.288 272.505 162.535 272.348 162.708L272.155 162.925C266.29 169.619 260.299 181.078 254.759 194.965Z" fill="#B5BC80"/>
<path id="Path 708" d="M271.121 163.199C271.289 162.98 271.603 162.938 271.822 163.105C272.042 163.273 272.084 163.587 271.916 163.806C266.204 171.284 260.684 181.733 255.361 195.149C255.26 195.406 254.969 195.532 254.712 195.43C254.456 195.328 254.33 195.037 254.432 194.781C259.786 181.286 265.347 170.759 271.121 163.199Z" fill="#21373F"/>
<path id="Path_5" fill-rule="evenodd" clip-rule="evenodd" d="M296.133 165.266C297.927 166.77 300.163 168.908 302.466 171.496L302.873 171.957C303.703 172.906 303.873 174.264 303.302 175.388L303.22 175.55C300.22 181.514 296.076 191.312 291.999 202.726C291.053 191.107 291.576 179.488 293.569 167.869L293.85 166.285L293.89 166.07C294.03 165.321 294.751 164.827 295.5 164.967C295.733 165.01 295.951 165.113 296.133 165.266Z" fill="#B5BC80"/>
<path id="Path 411" fill-rule="evenodd" clip-rule="evenodd" d="M256.927 136.407C256.927 136.407 256.104 145.115 256.927 148.884C257.75 152.653 261.488 153.511 264.588 151.479C267.689 149.447 256.927 136.407 256.927 136.407Z" fill="#B5BC80"/>
<path id="Path 409" fill-rule="evenodd" clip-rule="evenodd" d="M270.131 125.369C258.769 126.222 255.899 133.616 257.227 141.451C258.555 149.287 262.792 155.979 269.163 162.146C275.534 168.312 277.221 173.575 277.221 173.575C277.221 173.575 281.865 163.685 285.777 156.204C289.69 148.722 291.132 141.76 290.087 138.259C289.042 134.759 281.493 124.516 270.131 125.369Z" fill="#A36348"/>
<path id="Path_6" fill-rule="evenodd" clip-rule="evenodd" d="M286.204 140.384L290.293 142.901C289.885 146.412 288.469 150.924 286.05 155.675L284.987 157.724C282.596 162.357 280.007 167.641 277.221 173.575C276.582 171.581 275.438 169.49 273.791 167.301C281.867 160.28 286.003 151.493 286.198 140.941L286.204 140.384Z" fill="#94563C"/>
<path id="Path 410" fill-rule="evenodd" clip-rule="evenodd" d="M284.475 130.57C284.475 130.57 287.052 134.127 285.648 140.433C284.244 146.74 285.709 148.962 287.573 150.002C289.437 151.042 292.523 147.886 291.923 141.858C291.323 135.831 284.475 130.57 284.475 130.57Z" fill="#B5BC80"/>
<path id="Path_7" d="M264.885 114.892C269.248 113.966 274.754 114.351 281.408 116.036C281.675 116.103 281.837 116.375 281.77 116.643C281.702 116.911 281.43 117.073 281.162 117.005C274.645 115.354 269.286 114.98 265.092 115.87C264.822 115.927 264.557 115.755 264.499 115.485C264.442 115.214 264.614 114.949 264.885 114.892Z" fill="white"/>
<path id="Path 414" d="M284.05 117.502C284.195 117.267 284.503 117.194 284.738 117.339C289.445 120.243 292.874 124.423 295.017 129.864C295.119 130.121 294.992 130.411 294.736 130.512C294.479 130.614 294.188 130.487 294.087 130.23C292.022 124.988 288.733 120.979 284.213 118.19C283.978 118.045 283.905 117.737 284.05 117.502Z" fill="white"/>
<path id="Path 415" d="M269.224 154.732C273.537 152.057 277.222 151.154 280.277 152.071C280.541 152.15 280.691 152.429 280.612 152.694C280.533 152.958 280.254 153.108 279.989 153.029C277.254 152.208 273.843 153.043 269.751 155.581C269.517 155.727 269.208 155.655 269.063 155.42C268.917 155.185 268.989 154.877 269.224 154.732Z" fill="#5C2924"/>
<path id="Path 416" d="M260.017 133.643C263.167 131.633 265.519 131.806 266.778 134.282C267.221 135.154 267.375 136.357 267.48 139.276L267.573 142.296L267.605 143.096C267.725 145.802 267.952 147.527 268.416 148.734C268.99 150.229 269.803 150.58 271.275 149.761C271.517 149.626 271.821 149.713 271.956 149.954C272.09 150.196 272.003 150.5 271.762 150.634C269.731 151.765 268.265 151.13 267.482 149.093C266.944 147.692 266.709 145.783 266.589 142.735L266.47 139.045C266.371 136.52 266.226 135.402 265.887 134.736C264.944 132.88 263.265 132.757 260.555 134.486C260.323 134.635 260.013 134.567 259.865 134.334C259.716 134.101 259.785 133.792 260.017 133.643Z" fill="#5C2924"/>
<path id="Path 417" d="M271.128 133.032C273.337 130.267 276.631 130.058 280.848 132.325C281.091 132.456 281.182 132.759 281.051 133.002C280.92 133.245 280.617 133.337 280.374 133.206C276.542 131.145 273.775 131.322 271.909 133.656C271.737 133.872 271.422 133.907 271.207 133.735C270.991 133.562 270.956 133.248 271.128 133.032Z" fill="#5C2924"/>
<path id="Path_8" fill-rule="evenodd" clip-rule="evenodd" d="M277 135.251C278.008 135.251 278.841 136.555 278.98 138.252L278 138.251C277.448 138.251 277 138.699 277 139.251C277 139.764 277.386 140.187 277.883 140.245L278 140.251L278.807 140.252C278.486 141.434 277.798 142.251 277 142.251C275.895 142.251 275 140.684 275 138.751C275 136.818 275.895 135.251 277 135.251Z" fill="#5C2924"/>
<path id="Path 694" d="M287.787 150.471C287.907 150.223 288.206 150.118 288.455 150.239C288.676 150.345 288.783 150.593 288.719 150.822L288.688 150.906L279.43 170.081C279.31 170.33 279.011 170.434 278.762 170.314C278.541 170.207 278.434 169.959 278.498 169.731L278.53 169.646L287.787 150.471Z" fill="#5C2924"/>
<path id="Path Copy 12" fill-rule="evenodd" clip-rule="evenodd" d="M261.788 136.316C262.788 136.193 263.774 137.386 264.118 139.053L263.146 139.172C262.598 139.239 262.208 139.738 262.275 140.286C262.338 140.795 262.772 141.168 263.273 141.164L263.39 141.157L264.191 141.059C264.016 142.272 263.432 143.167 262.641 143.264C261.544 143.398 260.465 141.952 260.229 140.034C259.994 138.115 260.691 136.451 261.788 136.316Z" fill="#5C2924"/>
<path id="Path 419" d="M300.595 180.047C300.727 179.805 301.03 179.715 301.273 179.846C301.516 179.978 301.606 180.282 301.474 180.524L301.146 181.145C299.97 183.436 298.725 186.531 296.309 192.945L294.32 198.216C293.561 200.205 293.045 201.509 292.461 202.917C290.471 207.723 287.925 211.636 284.824 214.652C284.626 214.845 284.309 214.84 284.117 214.642C283.924 214.444 283.929 214.128 284.127 213.935C286.995 211.145 289.381 207.548 291.281 203.141L291.537 202.535C292.062 201.268 292.532 200.085 293.178 198.402L296.328 190.071C298.354 184.756 299.449 182.159 300.595 180.047Z" fill="white"/>
<path id="Path 420" d="M276.251 210.362C282.2 212.315 287.418 215.591 291.9 220.185C292.093 220.383 292.089 220.699 291.891 220.892C291.694 221.085 291.377 221.081 291.184 220.883C286.814 216.404 281.734 213.215 275.939 211.312C270.598 209.559 267.349 209.163 264.741 209.45L264.361 209.497C264.188 209.52 263.957 209.553 263.943 209.554L263.683 209.584C263.609 209.591 263.544 209.594 263.482 209.594C263.206 209.594 262.982 209.37 262.982 209.094C262.982 208.818 263.206 208.594 263.482 208.594C263.533 208.594 263.602 208.589 263.701 208.577L264.38 208.486C267.18 208.129 270.611 208.511 276.251 210.362Z" fill="white"/>
<path id="Path 421" d="M311.525 218.012C311.611 217.749 311.893 217.606 312.155 217.692C312.418 217.778 312.561 218.06 312.475 218.322C311.294 221.935 307.074 229.244 302.382 234.225C295.155 241.896 287.084 244.581 278.545 240.197L277.375 239.588C265.439 233.295 258.536 227.008 256.688 220.674C256.611 220.409 256.763 220.131 257.028 220.054C257.293 219.977 257.571 220.129 257.648 220.394C259.459 226.601 266.569 232.925 279.002 239.308C287.08 243.455 294.701 240.92 301.654 233.539C306.242 228.669 310.388 221.488 311.525 218.012Z" fill="white"/>
<path id="Path 422" d="M276.763 173.374C276.874 173.121 277.169 173.006 277.422 173.117C277.675 173.228 277.79 173.523 277.679 173.776C275.757 178.15 274.588 182.262 274.169 186.113C274.139 186.388 273.892 186.586 273.618 186.556C273.343 186.526 273.145 186.279 273.175 186.005C273.605 182.047 274.802 177.837 276.763 173.374Z" fill="white"/>
<g id="Group 48">
<path id="Path 428" fill-rule="evenodd" clip-rule="evenodd" d="M250.111 178.318L261.158 237.383L246.99 245.77L237.691 237.383L227.029 244.078L221.265 237.383L213.921 241.991L205 177.219L213.921 173.575L221.265 183.835L228.686 175.507L237.691 186.059L250.111 178.318Z" fill="#B5BC80"/>
<path id="Path 699" fill-rule="evenodd" clip-rule="evenodd" d="M221.265 183.835L227.029 244.078L221.265 237.286L213.921 173.575L221.265 183.835Z" fill="#8D9743"/>
<path id="Path 698" fill-rule="evenodd" clip-rule="evenodd" d="M237.691 186.059L246.99 245.77L237.691 237.286L228.686 175.507L237.691 186.059Z" fill="#8D9743"/>
<path id="Path 429" d="M237.617 185.564C237.86 185.528 238.088 185.673 238.164 185.897L238.186 185.985L246.492 241.708C246.533 241.981 246.344 242.236 246.071 242.276C245.828 242.312 245.6 242.168 245.524 241.943L245.503 241.855L237.196 186.133C237.156 185.859 237.344 185.605 237.617 185.564Z" fill="#6B6043"/>
<path id="Path 430" d="M229.858 179.321C230.101 179.289 230.327 179.437 230.4 179.662L230.42 179.75L238.186 237.316C238.223 237.59 238.031 237.842 237.758 237.879C237.515 237.911 237.289 237.763 237.215 237.538L237.195 237.45L229.429 179.884C229.392 179.61 229.584 179.358 229.858 179.321Z" fill="#6B6043"/>
<path id="Path 431" d="M221.217 183.337C221.462 183.313 221.682 183.47 221.746 183.698L221.763 183.787L227.527 244.03C227.553 244.305 227.352 244.549 227.077 244.576C226.833 244.599 226.613 244.442 226.548 244.214L226.532 244.125L220.767 183.882C220.741 183.607 220.943 183.363 221.217 183.337Z" fill="#6B6043"/>
<path id="Path 432" d="M215.143 182.042C215.387 182.015 215.609 182.169 215.677 182.396L215.695 182.484L221.762 237.328C221.792 237.603 221.595 237.85 221.32 237.88C221.076 237.907 220.854 237.754 220.786 237.527L220.768 237.438L214.701 182.594C214.67 182.32 214.868 182.073 215.143 182.042Z" fill="#6B6043"/>
</g>
<g id="Group 49">
<path id="Path 423" fill-rule="evenodd" clip-rule="evenodd" d="M257.168 219.238C257.168 219.238 251.603 218.934 248.626 214.294C245.649 209.653 239.495 197.813 239.495 196.389C239.495 194.965 243.242 194.965 243.242 194.965C243.242 194.965 239.346 190.827 241.294 190.827C243.242 190.827 252.866 194.965 252.866 194.965C252.866 194.965 255.755 194.305 257.168 196.389C258.581 198.472 262.47 207.381 262.47 208.869C262.47 210.357 262.482 212.419 261.238 214.702C259.994 216.984 257.168 219.238 257.168 219.238Z" fill="#A36348"/>
<path id="Path 424" d="M242.788 194.756C242.89 194.533 243.137 194.421 243.366 194.481L243.451 194.511L251.669 198.3C251.92 198.416 252.029 198.713 251.914 198.964C251.811 199.187 251.565 199.298 251.335 199.239L251.25 199.208L243.032 195.419C242.782 195.303 242.672 195.006 242.788 194.756Z" fill="#5C2924"/>
<path id="Path 425" d="M241.541 198.448C241.691 198.254 241.956 198.201 242.167 198.31L242.243 198.359L250.364 204.637C250.582 204.806 250.622 205.12 250.453 205.338C250.303 205.532 250.038 205.586 249.828 205.476L249.752 205.428L241.631 199.15C241.413 198.981 241.372 198.667 241.541 198.448Z" fill="#5C2924"/>
<path id="Path 426" d="M242.92 201.511C243.107 201.353 243.377 201.356 243.56 201.508L243.624 201.571L249.501 208.547C249.679 208.758 249.652 209.074 249.44 209.251C249.253 209.41 248.983 209.406 248.8 209.255L248.736 209.191L242.859 202.215C242.681 202.004 242.708 201.689 242.92 201.511Z" fill="#5C2924"/>
<path id="Path 427" d="M252.447 194.693C252.597 194.461 252.906 194.395 253.138 194.545L253.71 194.923C256.01 196.469 257.238 197.676 257.419 198.664C257.469 198.936 257.289 199.196 257.017 199.246C256.746 199.296 256.485 199.116 256.435 198.844C256.31 198.16 255.019 196.956 252.594 195.385C252.362 195.234 252.296 194.925 252.447 194.693Z" fill="#5C2924"/>
</g>
<path id="Path 433" fill-rule="evenodd" clip-rule="evenodd" d="M206.83 187.26C205.485 189.031 203.865 190.034 202.248 193.447C200.631 196.86 202.248 196.763 202.248 198.147C202.248 199.531 201.475 202.043 202.248 203.099C203.021 204.156 201.475 206.288 202.248 207.98C203.021 209.673 202.764 210.469 203.518 211.672C204.272 212.876 207.601 212.008 210.656 205.381C213.711 198.754 212.864 192.552 212.048 190.827C211.233 189.102 209.615 189.67 209.615 189.67C209.615 189.67 210.656 187.477 210.656 186.059C210.656 184.641 208.175 185.489 206.83 187.26Z" fill="#A36348"/>
<path id="Path 434" d="M209.257 189.321C209.45 189.123 209.766 189.119 209.964 189.311C210.162 189.504 210.166 189.821 209.974 190.019L209.694 190.314C208.678 191.416 207.246 193.249 205.406 195.807C205.245 196.031 204.932 196.082 204.708 195.921C204.484 195.759 204.433 195.447 204.594 195.223L205.368 194.157C207.032 191.887 208.326 190.277 209.257 189.321Z" fill="#5C2924"/>
<path id="Path 435" d="M210.691 191.774C210.82 191.53 211.122 191.437 211.366 191.566C211.583 191.68 211.681 191.932 211.609 192.158L211.575 192.241L206.147 202.506C206.018 202.75 205.715 202.843 205.471 202.714C205.254 202.599 205.156 202.348 205.228 202.122L205.263 202.038L210.691 191.774Z" fill="#5C2924"/>
<path id="Path 436" d="M211.251 196.061C211.364 195.809 211.66 195.696 211.912 195.809C212.136 195.909 212.25 196.154 212.193 196.384L212.164 196.469L207.253 207.432C207.14 207.684 206.845 207.797 206.593 207.684C206.368 207.583 206.254 207.339 206.311 207.108L206.341 207.023L211.251 196.061Z" fill="#5C2924"/>
<path id="Path 439" d="M273.804 265.358C274.081 265.358 274.304 265.582 274.304 265.858C274.304 303.019 277.131 338.831 282.785 373.293C282.83 373.566 282.645 373.823 282.373 373.868C282.1 373.912 281.843 373.728 281.798 373.455C276.136 338.939 273.304 303.073 273.304 265.858C273.304 265.582 273.528 265.358 273.804 265.358Z" fill="#3A2F3D"/>
<path id="Path 440" fill-rule="evenodd" clip-rule="evenodd" d="M273.189 376.608C266.477 377 260.023 380.019 254.843 384.083C249.662 388.146 271.896 384.738 276.264 382.833C280.633 380.929 279.902 376.217 273.189 376.608Z" fill="#3E2C3F"/>
<path id="Path 440 Copy" fill-rule="evenodd" clip-rule="evenodd" d="M291.109 378.091C284.595 379.756 278.836 383.951 274.526 388.928C270.216 393.905 291.391 386.317 295.316 383.614C299.24 380.911 297.624 376.425 291.109 378.091Z" fill="#3E2C3F"/>
<path id="Path 695" d="M298.595 256.71C298.871 256.703 299.101 256.92 299.108 257.196L299.989 290.096C301.032 329.864 301.554 353.247 301.554 360.251C301.554 360.527 301.33 360.751 301.054 360.751C300.778 360.751 300.554 360.527 300.554 360.251L300.55 359.079C300.487 348.721 299.673 314.764 298.109 257.223C298.101 256.947 298.319 256.718 298.595 256.71Z" fill="#3A2F3D"/>
<path id="Path 696" d="M291.522 258.91C291.798 258.899 292.031 259.114 292.042 259.39L292.087 260.411C292.693 272.838 294.955 278.992 298.608 278.992C298.885 278.992 299.108 279.215 299.108 279.492C299.108 279.768 298.885 279.992 298.608 279.992C294.022 279.992 291.595 273.095 291.043 259.43C291.032 259.154 291.246 258.921 291.522 258.91Z" fill="#3A2F3D"/>
<path id="Path_9" d="M304.519 177.091C304.72 176.901 305.036 176.911 305.226 177.112C314.587 187.04 316.307 199.549 313.303 213.56C313.245 213.83 312.979 214.002 312.709 213.944C312.439 213.886 312.267 213.621 312.325 213.351C315.267 199.629 313.592 187.442 304.498 177.798C304.309 177.597 304.318 177.28 304.519 177.091Z" fill="white"/>
<path id="Path_10" d="M307 227.476C307.276 227.476 307.5 227.7 307.5 227.976C307.5 232.516 306.663 241.866 305.35 247.652C305.289 247.922 305.021 248.09 304.751 248.029C304.482 247.968 304.313 247.7 304.375 247.431C305.67 241.726 306.5 232.447 306.5 227.976C306.5 227.7 306.724 227.476 307 227.476Z" fill="white"/>
<path id="Path 707" d="M303.513 252.491C303.758 252.488 303.964 252.663 304.009 252.896L304.018 252.986L304.998 343.508C305.001 343.784 304.78 344.011 304.504 344.014C304.258 344.016 304.052 343.842 304.008 343.609L303.998 343.519L303.018 252.996C303.015 252.72 303.237 252.494 303.513 252.491Z" fill="#3A2F3D"/>
</g>
<g id="Group 51">
<path id="Path 443_2" fill-rule="evenodd" clip-rule="evenodd" d="M369.359 346.499C369.359 346.499 354.906 270.387 364.702 253.401C374.498 236.414 403.307 244.793 400.032 273.947C396.758 303.101 397.472 300.458 403.098 298.026C408.725 295.593 406.233 284.359 407.479 273.947C408.725 263.535 423.121 265.127 419.68 282.777C416.239 300.427 404.257 303.66 400.032 308.644C395.807 313.627 390.477 346.499 390.477 346.499H369.359Z" fill="#B5BC80"/>
<path id="Path_11" fill-rule="evenodd" clip-rule="evenodd" d="M380.178 317C385.667 317 390.952 317.763 395.9 319.174L395.662 320.086C394.031 326.437 392.303 335.241 390.477 346.499H369.359L368.777 343.405C367.157 334.712 365.782 326.616 364.652 319.117C369.544 317.743 374.761 317 380.178 317Z" fill="#A6AE6B"/>
<path id="Path 444_2" d="M371.69 252.902L371.779 252.917C372.046 252.986 372.207 253.259 372.138 253.526C366.703 274.54 367.56 303.649 374.72 340.841C374.772 341.112 374.594 341.374 374.323 341.426C374.052 341.479 373.79 341.301 373.738 341.03L373.314 338.8C366.52 302.538 365.801 274.034 371.169 253.276C371.231 253.038 371.453 252.885 371.69 252.902Z" fill="white"/>
<path id="Path 445_2" d="M390.457 263.261C390.733 263.25 390.966 263.465 390.977 263.741C392.109 292.231 389.169 318.868 382.154 343.65C382.079 343.916 381.803 344.07 381.537 343.995C381.271 343.92 381.117 343.643 381.192 343.377C388.177 318.7 391.106 292.168 389.978 263.781C389.967 263.505 390.181 263.272 390.457 263.261Z" fill="white"/>
<path id="Path 446_2" d="M381.195 249.126C381.275 248.861 381.555 248.713 381.819 248.793C382.083 248.874 382.232 249.153 382.151 249.417C379.159 259.233 378.061 281.824 378.873 317.125C378.88 317.401 378.661 317.63 378.385 317.636C378.109 317.642 377.88 317.424 377.874 317.148L377.805 313.995C377.127 280.387 378.251 258.783 381.195 249.126Z" fill="white"/>
</g>
<g id="Group 52">
<path id="Path_12" fill-rule="evenodd" clip-rule="evenodd" d="M388.5 320.251C414.45 320.251 435.829 337.305 438.678 359.252H338.322C341.171 337.305 362.55 320.251 388.5 320.251Z" fill="#D7DCB2"/>
<path id="Path_13" fill-rule="evenodd" clip-rule="evenodd" d="M438.678 359.252L407.246 359.251C410.8 349.016 419.936 341.464 430.931 340.384C435.056 345.938 437.782 352.353 438.678 359.252Z" fill="#C0C78D"/>
<path id="Path 450_2" d="M360.377 333.315C360.544 333.135 360.812 333.104 361.012 333.232L361.084 333.287L388.839 358.884C389.042 359.072 389.055 359.388 388.868 359.591C388.701 359.771 388.433 359.801 388.233 359.674L388.161 359.619L360.406 334.022C360.203 333.834 360.19 333.518 360.377 333.315Z" fill="white"/>
<path id="Path 451_2" d="M388.5 322.697C388.745 322.697 388.95 322.874 388.992 323.107L389 323.197V352.251C389 352.527 388.776 352.751 388.5 352.751C388.255 352.751 388.05 352.574 388.008 352.341L388 352.251V323.197C388 322.921 388.224 322.697 388.5 322.697Z" fill="white"/>
<path id="Path 452_2" d="M428.542 337.294C428.78 337.153 429.086 337.232 429.227 337.47C429.352 337.681 429.304 337.947 429.125 338.102L429.051 338.155L400.696 354.928C400.458 355.069 400.151 354.99 400.011 354.752C399.886 354.541 399.934 354.275 400.113 354.12L400.186 354.067L428.542 337.294Z" fill="white"/>
<path id="Path 453_2" d="M343.763 343.325C343.856 343.098 344.097 342.975 344.329 343.024L344.415 343.051L371.362 354.035C371.618 354.139 371.74 354.431 371.636 354.687C371.544 354.914 371.303 355.036 371.071 354.987L370.984 354.961L344.037 343.977C343.782 343.872 343.659 343.581 343.763 343.325Z" fill="white"/>
</g>
<g id="Group 53 Copy">
<path id="Path_14" fill-rule="evenodd" clip-rule="evenodd" d="M170.653 302.251C184.613 302.251 196.186 312.649 198.306 326.251H143C145.12 312.649 156.693 302.251 170.653 302.251Z" fill="#D7DCB2"/>
<path id="Path_15" fill-rule="evenodd" clip-rule="evenodd" d="M198.306 326.251L163.373 326.25C167.649 317.566 175.387 310.483 185.075 306.318C192.01 310.567 196.987 317.789 198.306 326.251Z" fill="#C0C78D"/>
<path id="Path 447" d="M190.351 316.049L190.791 316.947L170.873 326.7L170.433 325.802L190.351 316.049Z" fill="#979797"/>
<path id="Path 448" d="M173.909 303.584L173.999 303.592C174.24 303.635 174.41 303.845 174.41 304.082L174.402 304.172L171.145 322.324C171.096 322.596 170.836 322.776 170.565 322.728C170.323 322.684 170.153 322.474 170.153 322.237L170.161 322.147L173.418 303.996C173.462 303.754 173.672 303.584 173.909 303.584Z" fill="white"/>
<path id="Path 449" d="M148.819 312.16C148.945 311.95 149.202 311.866 149.424 311.95L149.505 311.989L170.103 324.371C170.339 324.514 170.416 324.821 170.274 325.057C170.147 325.268 169.89 325.352 169.669 325.268L169.587 325.228L148.99 312.846C148.753 312.704 148.677 312.397 148.819 312.16Z" fill="white"/>
</g>
<g id="Group 52 Copy">
<path id="Path_16" fill-rule="evenodd" clip-rule="evenodd" d="M210.84 302.251C187.485 302.251 168.244 317.6 165.68 337.352H256C253.436 317.6 234.195 302.251 210.84 302.251Z" fill="#D7DCB2"/>
<path id="Path 450_3" d="M236.187 313.975C236.021 313.794 235.753 313.764 235.552 313.891L235.481 313.946L210.501 336.984C210.298 337.172 210.285 337.488 210.473 337.691C210.639 337.871 210.907 337.901 211.108 337.774L211.179 337.719L236.159 314.681C236.362 314.494 236.375 314.178 236.187 313.975Z" fill="white"/>
<path id="Path 451_3" d="M210.84 304.403C210.595 304.403 210.391 304.579 210.348 304.813L210.34 304.903V331.051C210.34 331.327 210.564 331.551 210.84 331.551C211.086 331.551 211.29 331.374 211.332 331.141L211.34 331.051V304.903C211.34 304.626 211.116 304.403 210.84 304.403Z" fill="white"/>
<path id="Path 452_3" d="M174.828 317.547C174.59 317.406 174.283 317.485 174.143 317.722C174.018 317.934 174.066 318.199 174.245 318.355L174.319 318.407L199.839 333.503C200.076 333.644 200.383 333.565 200.524 333.328C200.649 333.116 200.6 332.851 200.421 332.695L200.348 332.643L174.828 317.547Z" fill="white"/>
<path id="Path 453_3" d="M251.15 322.999C251.057 322.771 250.816 322.649 250.584 322.698L250.498 322.724L226.246 332.61C225.99 332.714 225.867 333.006 225.971 333.262C226.064 333.489 226.305 333.611 226.537 333.563L226.623 333.536L250.875 323.65C251.131 323.546 251.254 323.254 251.15 322.999Z" fill="white"/>
</g>
<g id="Group 53">
<path id="Path_17" fill-rule="evenodd" clip-rule="evenodd" d="M443 340.251C456.96 340.251 468.533 350.649 470.653 364.251H415.347C417.467 350.649 429.04 340.251 443 340.251Z" fill="#D7DCB2"/>
<path id="Path 447_2" d="M462.698 354.049C462.946 353.927 463.246 354.03 463.367 354.278C463.475 354.498 463.406 354.759 463.215 354.9L463.138 354.947L443.22 364.7C442.972 364.822 442.672 364.719 442.551 364.471C442.443 364.251 442.512 363.99 442.703 363.849L442.78 363.802L462.698 354.049Z" fill="white"/>
<path id="Path 448_2" d="M446.256 341.584L446.346 341.592C446.587 341.635 446.757 341.845 446.757 342.082L446.75 342.172L443.492 360.324C443.443 360.596 443.183 360.776 442.912 360.728C442.67 360.684 442.5 360.474 442.5 360.237L442.508 360.147L445.765 341.996C445.809 341.754 446.019 341.584 446.256 341.584Z" fill="white"/>
<path id="Path 449_2" d="M421.166 350.16C421.292 349.95 421.549 349.866 421.771 349.95L421.852 349.989L442.45 362.371C442.686 362.514 442.763 362.821 442.621 363.057C442.494 363.268 442.237 363.352 442.016 363.268L441.934 363.228L421.337 350.846C421.1 350.704 421.024 350.397 421.166 350.16Z" fill="white"/>
</g>
</g>
</g>
</svg>
