<svg width="80" height="80" viewBox="0 0 80 80" fill="none" xmlns="http://www.w3.org/2000/svg">
<circle cx="40" cy="40" r="40" fill="#ECECEC"/>
<g clip-path="url(#clip0)">
<path d="M28.7096 41.5488C28.4106 41.5488 28.168 41.7915 28.168 42.0904C28.168 42.3894 28.4106 42.632 28.7096 42.632C29.0085 42.632 29.2512 42.3894 29.2512 42.0904C29.2512 41.7915 29.0085 41.5488 28.7096 41.5488Z" fill="#111111"/>
<path d="M50.893 43.4273L45.7871 45.1826C45.8097 45.0569 45.8224 44.9287 45.8224 44.7986C45.8224 43.6041 44.8507 42.6322 43.656 42.6322H40.1487C40.0556 42.6322 39.9638 42.6083 39.8828 42.5626L37.0214 40.9532C36.4557 40.6344 35.8127 40.4658 35.1622 40.4658H31.3227C31.0993 39.8356 30.4972 39.3828 29.7912 39.3828H26.5416C26.2425 39.3828 26 39.6253 26 39.9244V49.673C26 49.9722 26.2425 50.2147 26.5416 50.2147H29.7912C30.4811 50.2147 31.0727 49.7812 31.3075 49.1723C31.9206 49.2484 32.63 49.4298 33.0757 49.6972L35.9082 51.3967C36.9812 52.0407 38.2098 52.3811 39.4614 52.3811C40.4532 52.3811 41.4141 52.1729 42.3177 51.7625L52.4264 47.3114C53.546 46.8571 54.0988 45.5139 53.4588 44.33C52.9881 43.4588 51.8856 43.0712 50.893 43.4273ZM30.3328 48.5924C30.3316 48.8898 30.0889 49.1314 29.7912 49.1314H27.0832V40.466H29.7912C30.0897 40.466 30.3328 40.7089 30.3328 41.0076V48.5924ZM52.0149 46.3096C52.0092 46.3117 52.0035 46.3143 51.9978 46.3166C51.9978 46.3166 41.874 50.7742 41.8721 50.7751C41.1094 51.122 40.2983 51.2979 39.4614 51.2979C38.4061 51.2979 37.3703 51.011 36.4656 50.4679L33.633 48.7684C33.0267 48.4047 32.1584 48.183 31.416 48.0942V41.5492H35.1622C35.6268 41.5492 36.0859 41.6694 36.4902 41.8972L39.3516 43.5066C39.594 43.6433 39.8699 43.7156 40.1487 43.7156H43.656C44.2533 43.7156 44.7392 44.2014 44.7392 44.7988C44.7392 45.394 44.2531 45.882 43.656 45.882H38.1503C37.8512 45.882 37.6087 46.1245 37.6087 46.4236C37.6087 46.7226 37.8512 46.965 38.1503 46.965H43.656C44.0112 46.965 44.361 46.8768 44.6713 46.7114C44.6713 46.7114 51.2541 44.4485 51.2567 44.4476C51.742 44.2725 52.2908 44.4468 52.5059 44.845C52.8286 45.4418 52.5618 46.0906 52.0149 46.3096Z" fill="#111111"/>
<path d="M41.7752 40.4903C41.8771 40.5786 42.0034 40.6226 42.13 40.6226C42.2565 40.6226 42.383 40.5786 42.4847 40.4903C46.9037 36.6606 49.6371 34.7225 49.6371 31.7107C49.6371 29.328 47.9503 27.3535 45.5806 27.3535C44.0243 27.3535 42.8326 28.2505 42.065 29.5967C41.2991 28.2535 40.1087 27.3535 38.5501 27.3535C36.7359 27.3535 35.2192 28.5292 34.6861 30.3484C34.6019 30.6355 34.7665 30.9363 35.0536 31.0205C35.3407 31.1047 35.6415 30.9402 35.7255 30.6531C36.1201 29.3067 37.2287 28.4367 38.5501 28.4367C40.0951 28.4367 41.179 29.8087 41.5431 31.0861C41.608 31.3208 41.8217 31.4832 42.065 31.4832C42.3085 31.4832 42.522 31.3208 42.5869 31.0861C42.5943 31.0597 43.3467 28.4367 45.5806 28.4367C47.2756 28.4367 48.5539 29.844 48.5539 31.7107C48.5539 34.12 46.1987 35.8569 42.1295 39.3655C39.6502 37.2363 37.6808 35.7376 36.5614 34.2714C36.3799 34.0336 36.0401 33.9879 35.8023 34.1695C35.5645 34.351 35.519 34.6907 35.7003 34.9288C36.9621 36.5813 39.0921 38.1646 41.7752 40.4903Z" fill="#111111"/>
<path d="M35.151 32.125C34.852 32.125 34.6094 32.3677 34.6094 32.6666C34.6094 32.9655 34.852 33.2082 35.151 33.2082C35.4499 33.2082 35.6926 32.9655 35.6926 32.6666C35.6926 32.3677 35.4499 32.125 35.151 32.125Z" fill="#111111"/>
</g>
<defs>
<clipPath id="clip0">
<rect width="27.73" height="27.73" fill="white" transform="translate(26 26)"/>
</clipPath>
</defs>
</svg>
