<svg width="20" height="20" viewBox="0 0 20 20" fill="none" xmlns="http://www.w3.org/2000/svg">
<path d="M16.875 6.25H3.125C2.77982 6.25 2.5 6.52982 2.5 6.875V9.375C2.5 9.72018 2.77982 10 3.125 10H16.875C17.2202 10 17.5 9.72018 17.5 9.375V6.875C17.5 6.52982 17.2202 6.25 16.875 6.25Z" stroke="#ffffff" stroke-linecap="round" stroke-linejoin="round"/>
<path d="M16.25 10V15.625C16.25 15.7908 16.1842 15.9497 16.0669 16.0669C15.9497 16.1842 15.7908 16.25 15.625 16.25H4.375C4.20924 16.25 4.05027 16.1842 3.93306 16.0669C3.81585 15.9497 3.75 15.7908 3.75 15.625V10" stroke="#ffffff" stroke-linecap="round" stroke-linejoin="round"/>
<path d="M10 6.25V16.25" stroke="#ffffff" stroke-linecap="round" stroke-linejoin="round"/>
<path d="M13.5355 5.36609C12.6516 6.24997 10 6.24997 10 6.24997C10 6.24997 10 3.59832 10.8839 2.71444C11.2356 2.36314 11.7124 2.16587 12.2095 2.16602C12.7066 2.16616 13.1833 2.36369 13.5348 2.71519C13.8863 3.06669 14.0838 3.54339 14.084 4.04048C14.0841 4.53758 13.8868 5.01439 13.5355 5.36609V5.36609Z" stroke="#ffffff" stroke-linecap="round" stroke-linejoin="round"/>
<path d="M6.46248 5.36609C7.34636 6.24997 9.99801 6.24997 9.99801 6.24997C9.99801 6.24997 9.99801 3.59832 9.11413 2.71444C8.76243 2.36314 8.28562 2.16587 7.78853 2.16602C7.29143 2.16616 6.81474 2.36369 6.46324 2.71519C6.11174 3.06669 5.9142 3.54339 5.91406 4.04048C5.91392 4.53758 6.11118 5.01439 6.46248 5.36609V5.36609Z" stroke="#ffffff" stroke-linecap="round" stroke-linejoin="round"/>
</svg>
