<svg width="34" height="34" viewBox="0 0 34 34" fill="none" xmlns="http://www.w3.org/2000/svg">
<rect x="0.5" y="0.5" width="33" height="33" rx="16.5" fill="white" stroke="#ECECEC"/>
<g clip-path="url(#clip0)">
<path d="M8.95508 18.2148C8.73947 18.2148 8.56445 18.3899 8.56445 18.6055C8.56445 18.8211 8.73947 18.9961 8.95508 18.9961C9.17068 18.9961 9.3457 18.8211 9.3457 18.6055C9.3457 18.3899 9.17068 18.2148 8.95508 18.2148Z" fill="#111111"/>
<path d="M24.9538 19.5694L21.2713 20.8354C21.2876 20.7448 21.2968 20.6523 21.2968 20.5584C21.2968 19.6969 20.5959 18.9959 19.7342 18.9959H17.2046C17.1375 18.9959 17.0713 18.9787 17.0128 18.9457L14.9491 17.785C14.5411 17.5551 14.0773 17.4334 13.6081 17.4334H10.839C10.6778 16.9789 10.2436 16.6523 9.73438 16.6523H7.39063C7.17487 16.6523 7 16.8272 7 17.043V24.0741C7 24.2898 7.17487 24.4647 7.39063 24.4647H9.73438C10.232 24.4647 10.6586 24.1521 10.828 23.7129C11.2702 23.7678 11.7818 23.8986 12.1033 24.0915L14.1462 25.3172C14.9201 25.7817 15.8062 26.0272 16.7089 26.0272C17.4242 26.0272 18.1173 25.8771 18.769 25.581L26.0598 22.3707C26.8673 22.0431 27.266 21.0743 26.8044 20.2205C26.4649 19.5921 25.6698 19.3126 24.9538 19.5694ZM10.125 23.2947C10.1241 23.5092 9.94907 23.6835 9.73438 23.6835H7.78125V17.4336H9.73438C9.94968 17.4336 10.125 17.6088 10.125 17.8242V23.2947ZM25.763 21.6482C25.7589 21.6498 25.7548 21.6516 25.7506 21.6533C25.7506 21.6533 18.449 24.8683 18.4476 24.8689C17.8975 25.1192 17.3125 25.246 16.7089 25.246C15.9478 25.246 15.2007 25.039 14.5482 24.6474L12.5052 23.4216C12.0679 23.1593 11.4417 22.9994 10.9063 22.9353V18.2148H13.6081C13.9432 18.2148 14.2743 18.3015 14.5659 18.4659L16.6297 19.6266C16.8046 19.7252 17.0035 19.7773 17.2046 19.7773H19.7342C20.165 19.7773 20.5155 20.1277 20.5155 20.5586C20.5155 20.9878 20.1649 21.3399 19.7342 21.3399H15.7633C15.5475 21.3399 15.3727 21.5147 15.3727 21.7305C15.3727 21.9461 15.5475 22.121 15.7633 22.121H19.7342C19.9904 22.121 20.2427 22.0573 20.4665 21.938C20.4665 21.938 25.2143 20.3059 25.2161 20.3053C25.5662 20.179 25.962 20.3047 26.1172 20.5919C26.3499 21.0223 26.1574 21.4903 25.763 21.6482Z" fill="#111111"/>
<path d="M18.3769 17.4514C18.4504 17.515 18.5415 17.5467 18.6327 17.5467C18.724 17.5467 18.8152 17.515 18.8886 17.4514C22.0757 14.6892 24.0472 13.2914 24.0472 11.1191C24.0472 9.40067 22.8306 7.97656 21.1215 7.97656C19.999 7.97656 19.1395 8.62354 18.5859 9.59446C18.0335 8.62567 17.1749 7.97656 16.0508 7.97656C14.7424 7.97656 13.6485 8.8245 13.2639 10.1366C13.2032 10.3437 13.3219 10.5606 13.529 10.6214C13.736 10.6821 13.953 10.5634 14.0136 10.3563C14.2982 9.38526 15.0977 8.75781 16.0508 8.75781C17.1652 8.75781 17.9469 9.74735 18.2095 10.6687C18.2563 10.8379 18.4104 10.9551 18.5859 10.9551C18.7615 10.9551 18.9155 10.8379 18.9623 10.6687C18.9677 10.6496 19.5103 8.75781 21.1215 8.75781C22.344 8.75781 23.2659 9.77283 23.2659 11.1191C23.2659 12.8568 21.5673 14.1095 18.6324 16.6401C16.8443 15.1044 15.4238 14.0235 14.6165 12.966C14.4856 12.7945 14.2405 12.7616 14.069 12.8925C13.8975 13.0234 13.8647 13.2685 13.9954 13.4401C14.9055 14.632 16.4417 15.774 18.3769 17.4514Z" fill="#111111"/>
<path d="M13.6016 11.418C13.386 11.418 13.2109 11.593 13.2109 11.8086C13.2109 12.0242 13.386 12.1992 13.6016 12.1992C13.8172 12.1992 13.9922 12.0242 13.9922 11.8086C13.9922 11.593 13.8172 11.418 13.6016 11.418Z" fill="#111111"/>
</g>
<defs>
<clipPath id="clip0">
<rect width="20" height="20" fill="white" transform="translate(7 7)"/>
</clipPath>
</defs>
</svg>
