<svg width="44" height="44" viewBox="0 0 44 44" fill="none" xmlns="http://www.w3.org/2000/svg">
<g clip-path="url(#clip0)">
<path d="M30.0938 16.0162L31.1214 14.9893L32.1483 16.0169L31.1207 17.0438L30.0938 16.0162Z" fill="#E89606"/>
<path d="M28.0391 13.9609L29.0667 12.9336L30.0939 13.9609L29.0667 14.9881L28.0391 13.9609Z" fill="#E89606"/>
<path d="M25.9844 11.9062L27.012 10.8789L28.0392 11.9062L27.012 12.9334L25.9844 11.9062Z" fill="#E89606"/>
<path d="M34.2031 20.1239L35.2307 19.0967L36.258 20.1239L35.2307 21.1512L34.2031 20.1239Z" fill="#E89606"/>
<path d="M32.1484 18.0696L33.1757 17.042L34.2033 18.0693L33.176 19.0969L32.1484 18.0696Z" fill="#E89606"/>
<path d="M23.5503 29.6932C23.2772 29.6929 23.0275 29.5396 22.9037 29.2967L21.5916 26.7235L18.7397 27.1744C18.4272 27.2262 18.1168 27.0694 17.9735 26.787C17.8298 26.5043 17.8859 26.1617 18.1118 25.9396L20.1539 23.8975L18.8464 21.3244C18.7035 21.0438 18.7574 20.7033 18.9802 20.4809C19.2026 20.2581 19.5431 20.2042 19.8233 20.3471L22.3975 21.655L24.4393 19.6122C24.6613 19.3859 25.0043 19.3298 25.2867 19.4735C25.5694 19.6171 25.7262 19.9272 25.6744 20.2397L25.2125 23.099L27.7864 24.4111C28.0662 24.5544 28.2223 24.8616 28.1726 25.1724C28.123 25.4831 27.8789 25.7264 27.5682 25.7754L24.7156 26.2273L24.2679 29.0799C24.2186 29.3907 23.9749 29.6343 23.6642 29.6837C23.6266 29.69 23.5883 29.6932 23.5503 29.6932ZM21.9999 25.194C22.273 25.194 22.5231 25.3476 22.6472 25.5909L23.1825 26.642L23.3673 25.4795C23.4166 25.1688 23.6607 24.9251 23.9717 24.8758L25.1338 24.6907L24.0828 24.1554C23.8022 24.0124 23.6458 23.7056 23.6947 23.3949L23.8792 22.2289L23.0477 23.0629C22.8249 23.2849 22.4844 23.3388 22.2042 23.1955L21.1521 22.6602L21.6884 23.7116C21.831 23.9919 21.7771 24.3324 21.5547 24.5548L20.7201 25.3902L21.886 25.2057C21.9236 25.1986 21.9616 25.1947 21.9999 25.194Z" fill="#E89606"/>
<path d="M43.3616 14.0489L39.7655 10.4527L39.2519 10.9664C38.7028 11.5243 37.8969 11.745 37.1399 11.5446C36.3833 11.3438 35.7923 10.7528 35.5919 9.99587C35.3915 9.23926 35.6121 8.43299 36.1704 7.88425L36.6841 7.37062L33.088 3.77521C32.237 2.92389 30.8568 2.92389 30.0055 3.77521L27.4377 6.34336L25.8968 4.80247C25.0455 3.95115 23.6656 3.95115 22.8143 4.80247L0.63849 26.9783C-0.21283 27.8296 -0.21283 29.2098 0.63849 30.0608L4.23461 33.6569L4.74788 33.1433C5.61055 32.3196 6.96805 32.3196 7.83037 33.1433C8.68169 33.9942 8.68169 35.3744 7.83037 36.2254L7.31674 36.739L10.9129 40.3358C11.7638 41.1865 13.1433 41.1865 13.9943 40.3358L16.5624 37.767L18.104 39.3079C18.955 40.1588 20.3345 40.1588 21.1858 39.3079L43.3616 17.1306C44.2129 16.2793 44.2129 14.8991 43.3616 14.0482V14.0489ZM12.9663 39.3072C12.8301 39.4437 12.6453 39.5204 12.4527 39.5204C12.2597 39.5204 12.0749 39.4437 11.9387 39.3072L9.31982 36.6869C10.2747 35.2464 10.0828 33.3327 8.86082 32.1107C7.63847 30.8887 5.72477 30.6971 4.28462 31.6524L1.66504 29.0335C1.38127 28.7497 1.38127 28.29 1.66504 28.0063L23.8416 5.82973C23.9778 5.69316 24.1626 5.61654 24.3556 5.61654C24.5485 5.61654 24.7333 5.69316 24.8695 5.82973L26.4104 7.37062L7.82966 25.9521C6.97905 26.8031 6.97905 28.1825 7.82966 29.0335L11.4251 32.6296L11.9387 32.116C12.7897 31.2647 14.1699 31.2647 15.0208 32.116C15.8721 32.967 15.8721 34.3472 15.0208 35.1981L14.5065 35.7118L15.5345 36.739L12.9663 39.3072ZM42.3344 16.1041L20.1578 38.2799C19.8741 38.5637 19.414 38.5637 19.1306 38.2799L16.511 35.6603C17.4631 34.2198 17.2694 32.3083 16.0481 31.088C14.8264 29.8703 12.9177 29.6777 11.4772 30.6265L8.85692 28.0063C8.57314 27.7228 8.57314 27.2628 8.85692 26.979L31.0327 4.80247C31.1689 4.66626 31.3541 4.58928 31.5467 4.58928C31.7397 4.58928 31.9245 4.66626 32.0607 4.80247L34.6803 7.41779C33.7265 8.85794 33.9187 10.7702 35.14 11.9919C36.3613 13.2132 38.2739 13.4058 39.7141 12.4523L42.3351 15.0733C42.6185 15.3567 42.6185 15.8168 42.3351 16.1005L42.3344 16.1041Z" fill="#E89606"/>
</g>
<defs>
<clipPath id="clip0">
<rect width="44" height="44" fill="white"/>
</clipPath>
</defs>
</svg>
