<svg width="46" height="46" viewBox="0 0 46 46" fill="none" xmlns="http://www.w3.org/2000/svg">
<g clip-path="url(#clip0)">
<path d="M31.4609 16.7435L32.5353 15.6699L33.6088 16.7442L32.5345 17.8178L31.4609 16.7435Z" fill="#035EA8"/>
<path d="M29.3125 14.5954L30.3868 13.5215L31.4608 14.5954L30.3868 15.6694L29.3125 14.5954Z" fill="#035EA8"/>
<path d="M27.1641 12.448L28.2384 11.374L29.3123 12.448L28.2384 13.5219L27.1641 12.448Z" fill="#035EA8"/>
<path d="M35.7578 21.0388L36.8321 19.9648L37.9061 21.0388L36.8321 22.1128L35.7578 21.0388Z" fill="#035EA8"/>
<path d="M33.6133 18.8907L34.6872 17.8164L35.7616 18.8904L34.6876 19.9647L33.6133 18.8907Z" fill="#035EA8"/>
<path d="M24.6199 31.0422C24.3344 31.0418 24.0733 30.8816 23.9439 30.6276L22.5721 27.9375L19.5906 28.4089C19.2639 28.463 18.9394 28.2991 18.7896 28.0039C18.6394 27.7084 18.698 27.3501 18.9342 27.118L21.0691 24.983L19.7022 22.293C19.5528 21.9996 19.6091 21.6436 19.842 21.4111C20.0745 21.1782 20.4305 21.1218 20.7235 21.2713L23.4147 22.6386L25.5492 20.5029C25.7814 20.2663 26.14 20.2077 26.4352 20.3579C26.7307 20.5081 26.8947 20.8322 26.8405 21.1589L26.3577 24.1483L29.0485 25.52C29.3411 25.6698 29.5043 25.991 29.4523 26.3158C29.4004 26.6407 29.1453 26.8951 28.8204 26.9463L25.8381 27.4187L25.3701 30.401C25.3186 30.7259 25.0638 30.9807 24.739 31.0322C24.6997 31.0389 24.6596 31.0422 24.6199 31.0422ZM22.999 26.3385C23.2845 26.3385 23.546 26.499 23.6758 26.7534L24.2354 27.8522L24.4286 26.637C24.4801 26.3121 24.7353 26.0574 25.0605 26.0058L26.2753 25.8122L25.1766 25.2526C24.8832 25.1032 24.7197 24.7824 24.7709 24.4576L24.9637 23.2386L24.0944 24.1105C23.8616 24.3426 23.5055 24.399 23.2126 24.2491L22.1127 23.6895L22.6734 24.7887C22.8225 25.0817 22.7661 25.4377 22.5336 25.6702L21.661 26.5435L22.8799 26.3507C22.9192 26.3433 22.9589 26.3392 22.999 26.3385Z" fill="#035EA8"/>
<path d="M45.3326 14.6875L41.573 10.9279L41.036 11.4648C40.462 12.0482 39.6194 12.2788 38.8281 12.0693C38.0371 11.8594 37.4192 11.2416 37.2097 10.4502C37.0002 9.65923 37.2309 8.81631 37.8146 8.24262L38.3515 7.70564L34.592 3.94681C33.7023 3.05679 32.2594 3.05679 31.3694 3.94681L28.6849 6.63169L27.0739 5.02076C26.1839 4.13075 24.7413 4.13075 23.8513 5.02076L0.667512 28.2046C-0.222504 29.0946 -0.222504 30.5375 0.667512 31.4272L4.42709 35.1867L4.96369 34.6498C5.86558 33.7887 7.28478 33.7887 8.18629 34.6498C9.07631 35.5394 9.07631 36.9824 8.18629 37.872L7.64932 38.409L11.4089 42.1693C12.2985 43.0586 13.7407 43.0586 14.6304 42.1693L17.3153 39.4837L18.9269 41.0946C19.8166 41.9842 21.2588 41.9842 22.1488 41.0946L45.3326 17.9093C46.2226 17.0193 46.2226 15.5764 45.3326 14.6867V14.6875ZM13.5557 41.0939C13.4133 41.2366 13.2201 41.3167 13.0187 41.3167C12.817 41.3167 12.6238 41.2366 12.4814 41.0939L9.74345 38.3545C10.7418 36.8485 10.5411 34.8478 9.26359 33.5703C7.98567 32.2927 5.98499 32.0925 4.47938 33.0911L1.74072 30.3532C1.44405 30.0565 1.44405 29.5759 1.74072 29.2793L24.9253 6.09471C25.0677 5.95194 25.2609 5.87184 25.4626 5.87184C25.6644 5.87184 25.8576 5.95194 26 6.09471L27.6109 7.70564L8.18555 27.1317C7.29628 28.0214 7.29628 29.4636 8.18555 30.3532L11.9444 34.1128L12.4814 33.5758C13.371 32.6858 14.8139 32.6858 15.7036 33.5758C16.5936 34.4655 16.5936 35.9084 15.7036 36.798L15.1659 37.335L16.2406 38.409L13.5557 41.0939ZM44.2587 16.8361L21.0741 40.0199C20.7774 40.3166 20.2964 40.3166 20.0001 40.0199L17.2615 37.2813C18.2568 35.7753 18.0543 33.7768 16.7775 32.5011C15.5004 31.228 13.5049 31.0267 11.9989 32.0187L9.25951 29.2793C8.96283 28.983 8.96283 28.502 9.25951 28.2053L32.4433 5.02076C32.5857 4.87836 32.7793 4.79789 32.9807 4.79789C33.1824 4.79789 33.3756 4.87836 33.518 5.02076L36.2567 7.75497C35.2595 9.26058 35.4605 11.2598 36.7373 12.5369C38.0141 13.8138 40.0136 14.0151 41.5193 13.0183L44.2594 15.7584C44.5557 16.0547 44.5557 16.5357 44.2594 16.8324L44.2587 16.8361Z" fill="#035EA8"/>
</g>
<defs>
<clipPath id="clip0">
<rect width="46" height="46" fill="white"/>
</clipPath>
</defs>
</svg>
