<svg width="40" height="40" viewBox="0 0 40 40" fill="none" xmlns="http://www.w3.org/2000/svg">
<path d="M20.2761 16.6169C15.1108 11.4522 9.44696 8.74194 7.62501 10.5632C7.42508 10.7727 7.27797 11.0266 7.19584 11.3043L7.16652 11.275L5.42653 18.4055L3.69387 25.5147L1.64 33.9328L0.339844 39.2641L8.03751 36.3512L17.8284 32.6466L25.6393 29.6911L25.63 29.6818C25.8915 29.5984 26.1307 29.457 26.3297 29.2679C28.1517 27.446 25.4414 21.7822 20.2761 16.6169Z" fill="#DD1C4B"/>
<path d="M20.276 16.6151C15.1109 11.45 9.44689 8.73964 7.62517 10.5614C5.80345 12.3831 8.51382 18.047 13.679 23.2122C18.8441 28.3773 24.508 31.0877 26.3298 29.2659C28.1515 27.4442 25.4411 21.7803 20.276 16.6151Z" fill="#D1E3EE"/>
<path d="M24.9303 29.9213C23.9976 29.9376 23.0723 29.754 22.2167 29.3828L15.8325 31.7985L6.03829 35.4998L0.786336 37.487L0.339844 39.3176L8.03751 36.4047L17.8284 32.7002L24.9969 29.9879L24.9303 29.9213Z" fill="#B21D48"/>
<path d="M32.9944 24.6572C32.9146 24.657 32.8355 24.6427 32.7605 24.6152C29.3774 23.3478 25.7204 22.9925 22.1567 23.585L19.7763 23.9815C19.4119 24.0335 19.0744 23.7802 19.0224 23.4159C18.9722 23.0638 19.2071 22.7344 19.5563 22.6673L21.9374 22.2675C25.7321 21.637 29.6258 22.0151 33.2283 23.3637C33.5747 23.4882 33.7546 23.8699 33.6301 24.2162C33.534 24.4838 33.2787 24.6609 32.9944 24.6572Z" fill="#FFBF41"/>
<path d="M20.9984 20.6573C20.6304 20.6551 20.3338 20.355 20.3359 19.9869C20.3374 19.7329 20.4832 19.5018 20.7119 19.3911L34.7065 12.727C35.0388 12.5687 35.4365 12.7099 35.5948 13.0422C35.753 13.3746 35.6119 13.7723 35.2796 13.9306L21.285 20.5946C21.1954 20.6365 21.0975 20.6579 20.9984 20.6573Z" fill="#FFBF41"/>
<path d="M13.205 19.3257C13.1171 19.3259 13.0301 19.3085 12.9491 19.2744C12.6094 19.1327 12.4489 18.7426 12.5906 18.4029V18.4028L13.5596 16.0777C15.0504 12.5153 15.398 8.57785 14.5545 4.8094C14.468 4.45162 14.688 4.0916 15.0457 4.00513C15.4035 3.91866 15.7635 4.13866 15.85 4.49635C15.8519 4.50427 15.8537 4.51218 15.8553 4.52018C16.759 8.55702 16.3864 12.7749 14.7891 16.5908L13.8195 18.9159C13.716 19.1639 13.4738 19.3255 13.205 19.3257Z" fill="#FFBF41"/>
<path d="M36.325 27.3219C37.0611 27.3219 37.6578 26.7252 37.6578 25.9891C37.6578 25.253 37.0611 24.6562 36.325 24.6562C35.5889 24.6562 34.9922 25.253 34.9922 25.9891C34.9922 26.7252 35.5889 27.3219 36.325 27.3219Z" fill="#D5557E"/>
<path d="M20.3328 8.66367C21.0689 8.66367 21.6656 8.06695 21.6656 7.33086C21.6656 6.59477 21.0689 5.99805 20.3328 5.99805C19.5967 5.99805 19 6.59477 19 7.33086C19 8.06695 19.5967 8.66367 20.3328 8.66367Z" fill="#DD95C1"/>
<path d="M14.3367 2.66563C13.6006 2.66563 13.0039 2.06894 13.0039 1.33281C13.0039 0.596684 13.6006 0 14.3367 0C15.0728 0 15.6695 0.596684 15.6695 1.33281C15.6695 2.06894 15.0728 2.66563 14.3367 2.66563Z" fill="#7FCCCB"/>
<path d="M32.9945 5.33125C32.6265 5.33125 32.3281 5.03287 32.3281 4.66485V3.99844C32.3281 3.63041 32.6265 3.33203 32.9945 3.33203C33.3626 3.33203 33.6609 3.63041 33.6609 3.99844V4.66485C33.6609 5.03287 33.3626 5.33125 32.9945 5.33125Z" fill="#2276BB"/>
<path d="M32.9945 1.99922C32.6265 1.99922 32.3281 1.70084 32.3281 1.33281V0.666407C32.3281 0.298384 32.6265 0 32.9945 0C33.3626 0 33.6609 0.298384 33.6609 0.666407V1.33281C33.6609 1.70084 33.3626 1.99922 32.9945 1.99922Z" fill="#2276BB"/>
<path d="M34.993 3.33281H34.3266C33.9585 3.33281 33.6602 3.03443 33.6602 2.66641C33.6602 2.29838 33.9585 2 34.3266 2H34.993C35.361 2 35.6594 2.29838 35.6594 2.66641C35.6594 3.03443 35.3611 3.33281 34.993 3.33281Z" fill="#2276BB"/>
<path d="M31.6609 3.33281H30.9945C30.6265 3.33281 30.3281 3.03443 30.3281 2.66641C30.3281 2.29838 30.6265 2 30.9945 2H31.6609C32.029 2 32.3273 2.29838 32.3273 2.66641C32.3273 3.03443 32.029 3.33281 31.6609 3.33281Z" fill="#2276BB"/>
<path d="M5.63123 19.3253C5.55659 19.0401 5.48995 18.7522 5.42797 18.459L3.69531 25.5682L3.82859 27.1936C4.11906 30.6588 5.60765 33.9145 8.03829 36.4013L17.8298 32.7001C17.7765 32.6834 17.7212 32.6714 17.6679 32.6535C11.7306 30.4272 7.24293 25.458 5.63123 19.3253Z" fill="white"/>
<path d="M17.8279 32.6992C17.7746 32.6826 17.7193 32.6706 17.666 32.6526C17.0246 32.4097 16.3963 32.1333 15.7841 31.8242L6.96484 35.1609C7.29921 35.5946 7.65716 36.0095 8.03709 36.4038L17.8279 32.6992Z" fill="#F6F6E7"/>
<path d="M28.3304 7.98242V11.3285H24.9844V7.98242H28.3304Z" fill="#C9DA53"/>
<path d="M16.3342 19.9916C15.9662 19.9915 15.6679 19.6931 15.668 19.325C15.6681 19.1363 15.7481 18.9564 15.8884 18.8301L22.5524 12.8324C22.8308 12.5916 23.2516 12.622 23.4924 12.9003C23.7266 13.1708 23.7052 13.578 23.4441 13.8227L16.78 19.8203C16.6577 19.9306 16.4989 19.9915 16.3342 19.9916Z" fill="#FFBF41"/>
<path d="M35.6586 17.3254C35.2906 17.3254 34.9922 17.027 34.9922 16.659V15.9926C34.9922 15.6246 35.2906 15.3262 35.6586 15.3262C36.0266 15.3262 36.325 15.6246 36.325 15.9926V16.659C36.325 17.027 36.0267 17.3254 35.6586 17.3254Z" fill="#FFDB43"/>
<path d="M38.0161 16.3504C37.8393 16.3509 37.6696 16.2806 37.545 16.1552L37.0738 15.684C36.8181 15.4193 36.8254 14.9974 37.0901 14.7417C37.3484 14.4923 37.7578 14.4923 38.0161 14.7417L38.4873 15.2129C38.7475 15.4732 38.7474 15.8951 38.4871 16.1554C38.3622 16.2802 38.1928 16.3504 38.0161 16.3504Z" fill="#FFDB43"/>
<path d="M38.993 13.9949H38.3266C37.9585 13.9949 37.6602 13.6965 37.6602 13.3285C37.6602 12.9605 37.9585 12.6621 38.3266 12.6621H38.993C39.361 12.6621 39.6594 12.9605 39.6594 13.3285C39.6594 13.6965 39.3611 13.9949 38.993 13.9949Z" fill="#FFDB43"/>
<path d="M37.5452 12.1083C37.1771 12.1082 36.8788 11.8099 36.8789 11.4417C36.8789 11.2651 36.9491 11.0956 37.074 10.9708L37.5452 10.4996C37.8099 10.2439 38.2317 10.2512 38.4875 10.5159C38.7369 10.7742 38.7369 11.1836 38.4875 11.4419L38.0163 11.9131C37.8914 12.038 37.7219 12.1083 37.5452 12.1083Z" fill="#FFDB43"/>
<path d="M35.6586 11.3293C35.2906 11.3293 34.9922 11.0309 34.9922 10.6629V9.99648C34.9922 9.62846 35.2906 9.33008 35.6586 9.33008C36.0266 9.33008 36.325 9.62846 36.325 9.99648V10.6629C36.325 11.0309 36.0267 11.3293 35.6586 11.3293Z" fill="#FFDB43"/>
<path d="M33.7739 12.1102C33.5971 12.1102 33.4277 12.0399 33.3028 11.915L32.8316 11.4438C32.576 11.1791 32.5832 10.7572 32.8479 10.5015C33.1062 10.2521 33.5156 10.2521 33.7739 10.5015L34.2451 10.9727C34.5053 11.233 34.5052 11.6549 34.2449 11.9151C34.12 12.04 33.9506 12.1102 33.7739 12.1102Z" fill="#FFDB43"/>
<path d="M3.67188 0.666016L4.70148 2.75254L7.00391 3.08707L5.3379 4.71111L5.73108 7.00421L3.67188 5.9213L1.61268 7.00421L2.00586 4.71111L0.339844 3.08707L2.64228 2.75254L3.67188 0.666016Z" fill="#FFDB43"/>
<path d="M39.4495 36.0967C39.1325 34.9734 38.4027 34.0115 37.4063 33.4038L37.1317 32.9919C35.5922 30.6898 33.1714 29.1244 30.4403 28.665C30.076 28.613 29.7384 28.8662 29.6864 29.2306C29.6362 29.5826 29.8712 29.9121 30.2204 29.9791C32.1903 30.3135 33.9855 31.3143 35.3058 32.814C34.1958 33.0137 33.225 33.6803 32.6401 34.6446C31.9224 35.9301 32.3827 37.5538 33.6681 38.2716C34.9535 38.9893 36.5773 38.529 37.295 37.2436C37.5691 36.7144 37.7172 36.1289 37.7275 35.533C38.4366 36.5628 38.4933 37.9077 37.8734 38.9936C37.6857 39.3102 37.7901 39.719 38.1066 39.9068C38.4231 40.0945 38.832 39.9901 39.0197 39.6736C39.0257 39.6634 39.0315 39.6532 39.037 39.6427C39.6424 38.5632 39.7909 37.2864 39.4495 36.0967ZM36.1328 36.5932C35.7771 37.2377 34.9663 37.4718 34.3219 37.1161C33.6774 36.7604 33.4433 35.9496 33.799 35.3052C33.801 35.3016 33.803 35.298 33.805 35.2944C34.1983 34.6505 34.8616 34.2188 35.6097 34.1202C35.7255 34.117 35.8402 34.1437 35.9429 34.1975C36.5053 34.5114 36.5353 35.8722 36.1328 36.5932Z" fill="#2BB3CE"/>
</svg>
