<svg width="80" height="80" viewBox="0 0 80 80" fill="none" xmlns="http://www.w3.org/2000/svg">
<circle cx="40" cy="40" r="40" fill="#4D9E39" fill-opacity="0.1"/>
<path d="M43.9258 29C45.621 29.4559 47.1667 30.3493 48.408 31.5906C49.6493 32.8319 50.5427 34.3776 50.9986 36.0728" stroke="#4D9E39" stroke-width="1.5" stroke-linecap="round" stroke-linejoin="round"/>
<path d="M42.8906 32.8652C43.9078 33.1388 44.8352 33.6748 45.58 34.4196C46.3247 35.1644 46.8608 36.0918 47.1343 37.1089" stroke="#4D9E39" stroke-width="1.5" stroke-linecap="round" stroke-linejoin="round"/>
<path d="M35.5595 39.6025C36.5968 41.7232 38.3158 43.4344 40.4412 44.462C40.5967 44.5357 40.7687 44.5676 40.9403 44.5546C41.1119 44.5417 41.2771 44.4842 41.4198 44.388L44.5492 42.3012C44.6877 42.2089 44.8469 42.1526 45.0126 42.1374C45.1782 42.1221 45.3451 42.1485 45.498 42.214L51.3526 44.7231C51.5515 44.8076 51.7175 44.9545 51.8257 45.1415C51.9339 45.3286 51.9783 45.5457 51.9524 45.7602C51.7673 47.2082 51.0608 48.5391 49.9652 49.5038C48.8695 50.4684 47.4598 51.0005 46 51.0006C41.4913 51.0006 37.1673 49.2095 33.9792 46.0214C30.7911 42.8333 29 38.5093 29 34.0006C29.0001 32.5408 29.5322 31.1311 30.4969 30.0355C31.4615 28.9398 32.7924 28.2333 34.2404 28.0482C34.4549 28.0223 34.672 28.0667 34.8591 28.1749C35.0461 28.2831 35.193 28.4491 35.2775 28.648L37.7888 34.5077C37.8537 34.6593 37.8802 34.8246 37.8658 34.9889C37.8514 35.1531 37.7967 35.3113 37.7064 35.4493L35.6268 38.6267C35.5322 38.7697 35.4762 38.9347 35.4644 39.1058C35.4526 39.2768 35.4854 39.4479 35.5595 39.6025V39.6025Z" stroke="#4D9E39" stroke-width="1.5" stroke-linecap="round" stroke-linejoin="round"/>
</svg>
