<svg width="46" height="46" viewBox="0 0 46 46" fill="none" xmlns="http://www.w3.org/2000/svg">
<path d="M17.25 10.0625V35.9375" stroke="#E89606" stroke-width="1.5" stroke-linecap="round" stroke-linejoin="round"/>
<path d="M4.3125 30.042C4.31244 29.7108 4.42689 29.3898 4.63645 29.1334C4.84602 28.877 5.1378 28.7009 5.46235 28.635C6.76103 28.3697 7.9282 27.6639 8.76643 26.6371C9.60466 25.6103 10.0625 24.3255 10.0625 23C10.0625 21.6745 9.60466 20.3897 8.76643 19.3629C7.9282 18.3361 6.76103 17.6303 5.46235 17.365C5.1378 17.2991 4.84602 17.123 4.63645 16.8666C4.42689 16.6102 4.31244 16.2892 4.3125 15.958V11.5C4.3125 11.1188 4.46395 10.7531 4.73353 10.4835C5.00312 10.214 5.36875 10.0625 5.75 10.0625H40.25C40.6312 10.0625 40.9969 10.214 41.2665 10.4835C41.5361 10.7531 41.6875 11.1188 41.6875 11.5V15.958C41.6876 16.2892 41.5731 16.6102 41.3635 16.8666C41.154 17.123 40.8622 17.2991 40.5376 17.365C39.239 17.6303 38.0718 18.3361 37.2336 19.3629C36.3953 20.3897 35.9375 21.6745 35.9375 23C35.9375 24.3255 36.3953 25.6103 37.2336 26.6371C38.0718 27.6639 39.239 28.3697 40.5376 28.635C40.8622 28.7009 41.154 28.877 41.3635 29.1334C41.5731 29.3898 41.6876 29.7108 41.6875 30.042V34.5C41.6875 34.8812 41.5361 35.2469 41.2665 35.5165C40.9969 35.7861 40.6312 35.9375 40.25 35.9375H5.75C5.36875 35.9375 5.00312 35.7861 4.73353 35.5165C4.46395 35.2469 4.3125 34.8812 4.3125 34.5V30.042Z" stroke="#E89606" stroke-width="1.5" stroke-linecap="round" stroke-linejoin="round"/>
</svg>
