<svg width="46" height="46" viewBox="0 0 46 46" fill="none" xmlns="http://www.w3.org/2000/svg">
<path d="M23 40.25C32.5269 40.25 40.25 32.5269 40.25 23C40.25 13.4731 32.5269 5.75 23 5.75C13.4731 5.75 5.75 13.4731 5.75 23C5.75 32.5269 13.4731 40.25 23 40.25Z" stroke="#4D9E39" stroke-width="1.5" stroke-miterlimit="10"/>
<path d="M23 28.75C26.9695 28.75 30.1875 25.532 30.1875 21.5625C30.1875 17.593 26.9695 14.375 23 14.375C19.0305 14.375 15.8125 17.593 15.8125 21.5625C15.8125 25.532 19.0305 28.75 23 28.75Z" stroke="#4D9E39" stroke-width="1.5" stroke-miterlimit="10"/>
<path d="M11.4648 35.825C12.5477 33.6961 14.1985 31.9083 16.2345 30.6596C18.2706 29.4109 20.6125 28.75 23.0009 28.75C25.3894 28.75 27.7313 29.4109 29.7673 30.6596C31.8034 31.9083 33.4542 33.6961 34.537 35.825" stroke="#4D9E39" stroke-width="1.5" stroke-linecap="round" stroke-linejoin="round"/>
</svg>
