<svg width="46" height="46" viewBox="0 0 46 46" fill="none" xmlns="http://www.w3.org/2000/svg">
<g clip-path="url(#clip0)">
<path d="M4.49219 25.7939C3.99629 25.7939 3.59375 26.1965 3.59375 26.6924C3.59375 27.1883 3.99629 27.5908 4.49219 27.5908C4.98808 27.5908 5.39063 27.1883 5.39063 26.6924C5.39063 26.1965 4.98808 25.7939 4.49219 25.7939Z" fill="#BB6BD9"/>
<path d="M41.2938 28.9094L32.8239 31.8212C32.8615 31.6127 32.8825 31.4001 32.8825 31.1842C32.8825 29.2028 31.2706 27.5905 29.2888 27.5905H23.4707C23.3162 27.5905 23.1639 27.5508 23.0295 27.475L18.2829 24.8053C17.3444 24.2764 16.2779 23.9967 15.1987 23.9967H8.82962C8.45901 22.9512 7.4602 22.2002 6.28907 22.2002H0.898439C0.402192 22.2002 0 22.6024 0 23.0986V39.2702C0 39.7664 0.402192 40.1686 0.898439 40.1686H6.28907C7.43353 40.1686 8.41479 39.4495 8.80435 38.4395C9.82141 38.5658 10.9982 38.8666 11.7376 39.3102L16.4362 42.1294C18.2162 43.1977 20.2542 43.7624 22.3304 43.7624C23.9757 43.7624 25.5697 43.417 27.0686 42.7362L43.8375 35.3525C45.6948 34.599 46.6118 32.3708 45.5502 30.4069C44.7693 28.9617 42.9405 28.3187 41.2938 28.9094ZM7.18751 37.4775C7.18541 37.971 6.78286 38.3717 6.28907 38.3717H1.79688V23.9971H6.28907C6.78427 23.9971 7.18751 24.4 7.18751 24.8955V37.4775ZM43.1549 33.6907C43.1454 33.6942 43.136 33.6985 43.1265 33.7023C43.1265 33.7023 26.3327 41.0969 26.3295 41.0983C25.0643 41.6739 23.7188 41.9655 22.3304 41.9655C20.5799 41.9655 18.8616 41.4896 17.3609 40.5887L12.662 37.7695C11.6562 37.1662 10.2159 36.7984 8.98439 36.651V25.794H15.1987C15.9694 25.794 16.731 25.9933 17.4016 26.3713L22.1483 29.041C22.5505 29.2677 23.0081 29.3877 23.4707 29.3877H29.2888C30.2795 29.3877 31.0856 30.1935 31.0856 31.1846C31.0856 32.1718 30.2792 32.9815 29.2888 32.9815H20.1556C19.6593 32.9815 19.2571 33.3837 19.2571 33.8799C19.2571 34.3758 19.6593 34.778 20.1556 34.778H29.2888C29.878 34.778 30.4581 34.6316 30.973 34.3572C30.973 34.3572 41.8929 30.6034 41.8971 30.602C42.7022 30.3114 43.6126 30.6006 43.9695 31.2611C44.5047 32.2511 44.0621 33.3275 43.1549 33.6907Z" fill="#BB6BD9"/>
<path d="M26.1674 24.0372C26.3365 24.1835 26.546 24.2565 26.7559 24.2565C26.9658 24.2565 27.1756 24.1835 27.3445 24.0372C34.6748 17.6842 39.2091 14.4692 39.2091 9.47299C39.2091 5.52056 36.411 2.24512 32.4799 2.24512C29.8983 2.24512 27.9214 3.73316 26.6482 5.96627C25.3777 3.73807 23.4029 2.24512 20.8174 2.24512C17.808 2.24512 15.292 4.19536 14.4076 7.21321C14.268 7.68945 14.541 8.1885 15.0172 8.32818C15.4935 8.46786 15.9925 8.19482 16.1319 7.71858C16.7864 5.48511 18.6254 4.042 20.8174 4.042C23.3804 4.042 25.1784 6.31792 25.7824 8.43698C25.8901 8.82618 26.2446 9.09572 26.6482 9.09572C27.0521 9.09572 27.4062 8.82618 27.514 8.43698C27.5263 8.39311 28.7742 4.042 32.4799 4.042C35.2918 4.042 37.4122 6.37653 37.4122 9.47299C37.4122 13.4696 33.5054 16.351 26.7552 22.1712C22.6424 18.6392 19.3754 16.153 17.5185 13.7209C17.2174 13.3265 16.6537 13.2506 16.2593 13.5518C15.8648 13.8529 15.7893 14.4165 16.0901 14.8113C18.1832 17.5526 21.7166 20.1792 26.1674 24.0372Z" fill="#BB6BD9"/>
<path d="M15.1797 10.1602C14.6838 10.1602 14.2812 10.5627 14.2812 11.0586C14.2812 11.5545 14.6838 11.957 15.1797 11.957C15.6756 11.957 16.0781 11.5545 16.0781 11.0586C16.0781 10.5627 15.6756 10.1602 15.1797 10.1602Z" fill="#BB6BD9"/>
</g>
<defs>
<clipPath id="clip0">
<rect width="46" height="46" fill="white"/>
</clipPath>
</defs>
</svg>
