<svg width="52" height="52" viewBox="0 0 52 52" fill="none" xmlns="http://www.w3.org/2000/svg">
<circle cx="26" cy="26" r="26" fill="#EEF7FF"/>
<path d="M21.5311 29.3317C24.6419 29.3317 27.1637 26.8099 27.1637 23.6991C27.1637 20.5882 24.6419 18.0664 21.5311 18.0664C18.4203 18.0664 15.8984 20.5882 15.8984 23.6991C15.8984 26.8099 18.4203 29.3317 21.5311 29.3317Z" stroke="#035EA8" stroke-miterlimit="10"/>
<path d="M28.8359 18.2756C29.6107 18.0573 30.4232 18.0076 31.2187 18.1297C32.0143 18.2519 32.7745 18.5432 33.448 18.9838C34.1215 19.4245 34.6928 20.0044 35.1233 20.6845C35.5539 21.3646 35.8337 22.129 35.9439 22.9263C36.0541 23.7236 35.9922 24.5353 35.7623 25.3067C35.5324 26.078 35.1399 26.7912 34.6112 27.3981C34.0825 28.005 33.4299 28.4915 32.6973 28.825C31.9647 29.1584 31.1692 29.331 30.3643 29.3311" stroke="#035EA8" stroke-linecap="round" stroke-linejoin="round"/>
<path d="M13.7344 33.3819C14.6141 32.1306 15.7819 31.1093 17.1394 30.4042C18.4968 29.6992 20.0039 29.3311 21.5335 29.3311C23.0631 29.331 24.5703 29.699 25.9278 30.4039C27.2852 31.1088 28.4532 32.13 29.333 33.3813" stroke="#035EA8" stroke-linecap="round" stroke-linejoin="round"/>
<path d="M30.3633 29.3311C31.893 29.33 33.4005 29.6975 34.7581 30.4025C36.1157 31.1075 37.2834 32.1293 38.1624 33.3813" stroke="#035EA8" stroke-linecap="round" stroke-linejoin="round"/>
</svg>
