<svg width="80" height="80" viewBox="0 0 80 80" fill="none" xmlns="http://www.w3.org/2000/svg">
<circle cx="40" cy="40" r="40" fill="#FFF0D7"/>
<g clip-path="url(#clip0)">
<path d="M55.9464 43.5117L55.9512 43.5101L50.6974 32.0467L51.9715 31.4126L51.4947 30.458L50.2526 31.0766L50.0846 30.7102C49.9618 30.4425 49.6453 30.325 49.3775 30.4477C49.2614 30.501 49.1683 30.5941 49.115 30.7102L48.9651 31.0377C48.0611 30.6178 47.0765 30.4 46.0798 30.3993H41.5999V29.3326H42.6665V28.266H41.7497L42.1332 26.7316C42.4276 25.5534 41.7112 24.3596 40.533 24.0651C39.3548 23.7707 38.161 24.4871 37.8666 25.6653C37.7791 26.0153 37.7791 26.3815 37.8666 26.7315L38.25 28.2659H37.3332V29.3326H38.3999V30.3992H33.9226C32.9249 30.4 31.9393 30.6184 31.0346 31.0392L30.8847 30.7117C30.762 30.444 30.4454 30.3265 30.1777 30.4492C30.0616 30.5025 29.9684 30.5956 29.9152 30.7117L29.7472 31.0781L28.505 30.4568L28.0282 31.4125L29.3024 32.0493L24.0485 43.5101C24.0161 43.5798 23.9996 43.6557 24 43.7325C24.0023 45.7934 25.6725 47.4635 27.7333 47.4658H33.0666C35.1274 47.4635 36.7976 45.7934 36.7999 43.7325C36.7986 43.6559 36.7804 43.5805 36.7466 43.5117L31.4783 32.0051C32.2441 31.6497 33.0783 31.4657 33.9226 31.4659H38.3999V50.9783L36.5791 52.7991H34.6666C33.1946 52.8008 32.0017 53.9938 31.9999 55.4657C31.9999 55.7603 32.2387 55.9991 32.5333 55.9991H47.4665C47.761 55.9991 47.9998 55.7603 47.9998 55.4657C47.9981 53.9938 46.8052 52.8008 45.3332 52.7991H43.4206L41.5999 50.9783V31.4659H46.0798C46.9241 31.4657 47.7583 31.6497 48.5241 32.0051L43.2484 43.5101C43.216 43.5798 43.1994 43.6557 43.1998 43.7325C43.2022 45.7934 44.8723 47.4635 46.9332 47.4658H52.2664C54.3273 47.4635 55.9974 45.7934 55.9997 43.7325C55.9985 43.6559 55.9803 43.5805 55.9464 43.5117ZM33.0666 46.3992H27.7333C26.4665 46.3978 25.375 45.5067 25.12 44.2658H35.6799C35.425 45.5067 34.3334 46.3978 33.0666 46.3992ZM35.4356 43.1992H25.3643L30.2634 32.5107C30.3529 32.5347 30.447 32.5347 30.5365 32.5107L35.4356 43.1992ZM39.1076 25.5012C39.5229 25.0084 40.2591 24.9457 40.7519 25.361C40.8025 25.4037 40.8495 25.4506 40.8921 25.5012C41.1079 25.7756 41.1841 26.1345 41.0985 26.4729L40.65 28.266H39.3497L38.9012 26.4729C38.8157 26.1345 38.8919 25.7756 39.1076 25.5012ZM39.4665 30.3993V29.3326H40.5332V30.3993H39.4665ZM40.5332 31.4659V50.6658H39.4665V31.4659H40.5332ZM45.3332 53.8658C46.011 53.8666 46.6151 54.2936 46.842 54.9324H33.1578C33.3847 54.2936 33.9887 53.8666 34.6666 53.8658H45.3332ZM41.9124 52.7991H38.0874L39.154 51.7324H40.8457L41.9124 52.7991ZM49.4622 32.5123C49.5503 32.5433 49.6469 32.5393 49.7321 32.5011L54.6355 43.1992H44.5641L49.4622 32.5123ZM52.2664 46.3992H46.9332C45.6664 46.3978 44.5748 45.5067 44.3198 44.2658H54.8797C54.6248 45.5067 53.5332 46.3978 52.2664 46.3992Z" fill="#E89606"/>
</g>
<defs>
<clipPath id="clip0">
<rect width="32" height="32" fill="white" transform="translate(24 24)"/>
</clipPath>
</defs>
</svg>
