<svg width="25" height="25" viewBox="0 0 25 25" fill="none" xmlns="http://www.w3.org/2000/svg">
<path d="M19.2702 5.20801H5.72852C4.86557 5.20801 4.16602 5.90756 4.16602 6.77051C4.16602 7.63345 4.86557 8.33301 5.72852 8.33301H19.2702C20.1331 8.33301 20.8327 7.63345 20.8327 6.77051C20.8327 5.90756 20.1331 5.20801 19.2702 5.20801Z" fill="#4F5873"/>
<path fill-rule="evenodd" clip-rule="evenodd" d="M5.72852 15.6253H19.2702C20.1331 15.6253 20.8327 16.3249 20.8327 17.1878C20.8327 18.0508 20.1331 18.7503 19.2702 18.7503H5.72852C4.86557 18.7503 4.16602 18.0508 4.16602 17.1878C4.16602 16.3249 4.86557 15.6253 5.72852 15.6253ZM5.72852 10.417H19.2702C20.1331 10.417 20.8327 11.1165 20.8327 11.9795C20.8327 12.8424 20.1331 13.542 19.2702 13.542H5.72852C4.86557 13.542 4.16602 12.8424 4.16602 11.9795C4.16602 11.1165 4.86557 10.417 5.72852 10.417Z" fill="#4F5873"/>
</svg>
