<svg width="80" height="80" viewBox="0 0 80 80" fill="none" xmlns="http://www.w3.org/2000/svg">
<circle cx="40" cy="40" r="40" fill="#FFF0D7"/>
<path d="M40 41C42.2091 41 44 39.2091 44 37C44 34.7909 42.2091 33 40 33C37.7909 33 36 34.7909 36 37C36 39.2091 37.7909 41 40 41Z" stroke="#E89606" stroke-width="1.5" stroke-linecap="round" stroke-linejoin="round"/>
<path d="M50 37C50 46 40 53 40 53C40 53 30 46 30 37C30 34.3478 31.0536 31.8043 32.9289 29.9289C34.8043 28.0536 37.3478 27 40 27C42.6522 27 45.1957 28.0536 47.0711 29.9289C48.9464 31.8043 50 34.3478 50 37V37Z" stroke="#E89606" stroke-width="1.5" stroke-linecap="round" stroke-linejoin="round"/>
</svg>
