<svg width="25" height="24" viewBox="0 0 25 24" fill="none" xmlns="http://www.w3.org/2000/svg">
<path d="M9.05273 5.25V18.75" stroke="#111111" stroke-linecap="round" stroke-linejoin="round"/>
<path d="M2.26367 15.6741C2.26364 15.5013 2.3237 15.3338 2.43368 15.2C2.54366 15.0662 2.69679 14.9744 2.86711 14.94C3.54866 14.8016 4.16119 14.4334 4.60109 13.8976C5.04099 13.3619 5.28127 12.6916 5.28127 12C5.28127 11.3084 5.04099 10.6381 4.60109 10.1024C4.16119 9.56665 3.54866 9.19843 2.86711 9.06C2.69679 9.02562 2.54366 8.93376 2.43368 8.79997C2.3237 8.66618 2.26364 8.4987 2.26367 8.32592V6C2.26367 5.80109 2.34315 5.61032 2.48463 5.46967C2.62611 5.32902 2.81799 5.25 3.01807 5.25H21.1236C21.3237 5.25 21.5156 5.32902 21.6571 5.46967C21.7986 5.61032 21.878 5.80109 21.878 6V8.32592C21.8781 8.4987 21.818 8.66618 21.708 8.79997C21.5981 8.93376 21.4449 9.02563 21.2746 9.06C20.5931 9.19843 19.9805 9.56665 19.5406 10.1024C19.1007 10.6381 18.8604 11.3084 18.8604 12C18.8604 12.6916 19.1007 13.3619 19.5406 13.8976C19.9805 14.4334 20.5931 14.8016 21.2746 14.94C21.4449 14.9744 21.598 15.0662 21.708 15.2C21.818 15.3338 21.8781 15.5013 21.878 15.6741V18C21.878 18.1989 21.7986 18.3897 21.6571 18.5303C21.5156 18.671 21.3237 18.75 21.1236 18.75H3.01807C2.81799 18.75 2.62611 18.671 2.48463 18.5303C2.34315 18.3897 2.26367 18.1989 2.26367 18V15.6741Z" stroke="#111111" stroke-linecap="round" stroke-linejoin="round"/>
</svg>
