<svg width="80" height="80" viewBox="0 0 80 80" fill="none" xmlns="http://www.w3.org/2000/svg">
<circle cx="40" cy="40" r="40" fill="#EEF7FF"/>
<path d="M46.0195 36.4648H52.0195V30.4648" stroke="#035EA8" stroke-linecap="round" stroke-linejoin="round"/>
<path d="M32.2227 32.2218C33.2441 31.2004 34.4567 30.3901 35.7913 29.8373C37.1259 29.2845 38.5563 29 40.0008 29C41.4454 29 42.8758 29.2845 44.2104 29.8373C45.5449 30.3901 46.7576 31.2004 47.779 32.2218L52.0216 36.4645" stroke="#035EA8" stroke-linecap="round" stroke-linejoin="round"/>
<path d="M33.9805 43.5352H27.9805V49.5352" stroke="#035EA8" stroke-linecap="round" stroke-linejoin="round"/>
<path d="M47.7795 47.7788C46.758 48.8002 45.5454 49.6105 44.2108 50.1633C42.8762 50.7161 41.4458 51.0006 40.0013 51.0006C38.5567 51.0006 37.1263 50.7161 35.7918 50.1633C34.4572 49.6105 33.2446 48.8002 32.2231 47.7788L27.9805 43.5361" stroke="#035EA8" stroke-linecap="round" stroke-linejoin="round"/>
</svg>
